<svg width="345" height="227" viewBox="0 0 345 227" fill="none" xmlns="http://www.w3.org/2000/svg">
<path d="M3.02326 53.3757V49.6257H3.65962V53.3757H3.02326ZM1.46644 51.8189V51.1825H5.21644V51.8189H1.46644ZM6.30735 54.3984V53.8871L8.22781 51.7848C8.45318 51.5386 8.63879 51.3246 8.78462 51.1428C8.93046 50.959 9.03841 50.7867 9.10849 50.6257C9.18046 50.4628 9.21644 50.2924 9.21644 50.1143C9.21644 49.9098 9.1672 49.7327 9.06871 49.5831C8.97212 49.4335 8.83955 49.3179 8.67099 49.2365C8.50243 49.1551 8.31303 49.1143 8.10281 49.1143C7.87932 49.1143 7.68424 49.1607 7.51758 49.2536C7.35281 49.3445 7.22496 49.4723 7.13406 49.6371C7.04504 49.8018 7.00053 49.995 7.00053 50.2166H6.33008C6.33008 49.8757 6.40868 49.5765 6.56587 49.3189C6.72307 49.0613 6.93709 48.8606 7.20792 48.7166C7.48065 48.5727 7.78652 48.5007 8.12553 48.5007C8.46644 48.5007 8.76853 48.5727 9.03178 48.7166C9.29504 48.8606 9.50148 49.0547 9.6511 49.299C9.80072 49.5433 9.87553 49.8151 9.87553 50.1143C9.87553 50.3284 9.83671 50.5376 9.75906 50.7422C9.6833 50.9448 9.55072 51.1712 9.36133 51.4212C9.17383 51.6693 8.91341 51.9723 8.58008 52.3303L7.27326 53.728V53.7734H9.97781V54.3984H6.30735ZM12.9693 54.478C12.6359 54.478 12.3358 54.4117 12.0687 54.2791C11.8017 54.1465 11.5877 53.9647 11.4267 53.7337C11.2657 53.5026 11.1776 53.2393 11.1625 52.9439H11.8443C11.8708 53.2071 11.9901 53.425 12.2022 53.5973C12.4163 53.7678 12.6719 53.853 12.9693 53.853C13.2079 53.853 13.42 53.7971 13.6056 53.6854C13.7931 53.5736 13.9399 53.4202 14.046 53.2251C14.1539 53.0282 14.2079 52.8056 14.2079 52.5575C14.2079 52.3037 14.152 52.0774 14.0403 51.8786C13.9305 51.6778 13.7789 51.5196 13.5858 51.4041C13.3926 51.2886 13.1719 51.2299 12.9238 51.228C12.7458 51.2261 12.563 51.2536 12.3755 51.3104C12.188 51.3653 12.0337 51.4363 11.9125 51.5234L11.2534 51.4439L11.6056 48.5803H14.6284V49.2053H12.1966L11.992 50.9212H12.0261C12.1454 50.8265 12.295 50.7479 12.475 50.6854C12.6549 50.6229 12.8424 50.5916 13.0375 50.5916C13.3935 50.5916 13.7108 50.6768 13.9892 50.8473C14.2695 51.0159 14.4892 51.2469 14.6483 51.5405C14.8092 51.834 14.8897 52.1693 14.8897 52.5462C14.8897 52.9174 14.8064 53.2488 14.6397 53.5405C14.475 53.8303 14.2477 54.0594 13.9579 54.228C13.6681 54.3946 13.3386 54.478 12.9693 54.478ZM16.1206 54.3984V48.5803H16.8251V51.4666H16.8933L19.5069 48.5803H20.4274L17.9842 51.2053L20.4274 54.3984H19.5751L17.5524 51.6939L16.8251 52.5121V54.3984H16.1206Z" fill="#202356"/>
<path d="M8.99396 160.493V156.743H9.63033V160.493H8.99396ZM7.43714 158.936V158.3H11.1871V158.936H7.43714ZM14.3697 161.595C14.0363 161.595 13.7362 161.529 13.4691 161.396C13.2021 161.264 12.988 161.082 12.8271 160.851C12.6661 160.62 12.578 160.357 12.5629 160.061H13.2447C13.2712 160.324 13.3905 160.542 13.6026 160.714C13.8166 160.885 14.0723 160.97 14.3697 160.97C14.6083 160.97 14.8204 160.914 15.006 160.803C15.1935 160.691 15.3403 160.537 15.4464 160.342C15.5543 160.145 15.6083 159.923 15.6083 159.675C15.6083 159.421 15.5524 159.195 15.4407 158.996C15.3308 158.795 15.1793 158.637 14.9862 158.521C14.793 158.406 14.5723 158.347 14.3242 158.345C14.1462 158.343 13.9634 158.371 13.7759 158.428C13.5884 158.482 13.4341 158.554 13.3129 158.641L12.6538 158.561L13.006 155.697H16.0288V156.322H13.5969L13.3924 158.038H13.4265C13.5458 157.944 13.6954 157.865 13.8754 157.803C14.0553 157.74 14.2428 157.709 14.4379 157.709C14.7939 157.709 15.1112 157.794 15.3896 157.964C15.6699 158.133 15.8896 158.364 16.0487 158.658C16.2096 158.951 16.2901 159.286 16.2901 159.663C16.2901 160.035 16.2068 160.366 16.0401 160.658C15.8754 160.947 15.6481 161.177 15.3583 161.345C15.0685 161.512 14.739 161.595 14.3697 161.595ZM17.521 161.516V155.697H18.2255V158.584H18.2937L20.9073 155.697H21.8278L19.3846 158.322L21.8278 161.516H20.9755L18.9528 158.811L18.2255 159.629V161.516H17.521Z" fill="#202356"/>
<path d="M5.89045 106.485V102.735H6.52681V106.485H5.89045ZM4.33363 104.928V104.292H8.08363V104.928H4.33363ZM11.4934 101.69V107.508H10.7889V102.428H10.7548L9.33434 103.371V102.656L10.7889 101.69H11.4934ZM15.0645 107.587C14.6364 107.587 14.2718 107.471 13.9707 107.238C13.6696 107.003 13.4395 106.663 13.2804 106.218C13.1213 105.771 13.0417 105.231 13.0417 104.599C13.0417 103.97 13.1213 103.433 13.2804 102.988C13.4413 102.541 13.6724 102.2 13.9735 101.965C14.2766 101.728 14.6402 101.61 15.0645 101.61C15.4887 101.61 15.8514 101.728 16.1525 101.965C16.4556 102.2 16.6866 102.541 16.8457 102.988C17.0067 103.433 17.0872 103.97 17.0872 104.599C17.0872 105.231 17.0076 105.771 16.8485 106.218C16.6895 106.663 16.4593 107.003 16.1582 107.238C15.8571 107.471 15.4925 107.587 15.0645 107.587ZM15.0645 106.962C15.4887 106.962 15.8182 106.758 16.0531 106.349C16.2879 105.94 16.4054 105.356 16.4054 104.599C16.4054 104.095 16.3514 103.666 16.2434 103.312C16.1374 102.958 15.984 102.688 15.7832 102.502C15.5843 102.317 15.3448 102.224 15.0645 102.224C14.644 102.224 14.3154 102.431 14.0787 102.846C13.8419 103.259 13.7235 103.843 13.7235 104.599C13.7235 105.103 13.7766 105.531 13.8826 105.883C13.9887 106.235 14.1412 106.503 14.34 106.687C14.5408 106.871 14.7823 106.962 15.0645 106.962ZM18.269 107.508V101.69H18.9735V104.576H19.0417L21.6554 101.69H22.5758L20.1326 104.315L22.5758 107.508H21.7235L19.7008 104.803L18.9735 105.621V107.508H18.269Z" fill="#202356"/>
<path d="M8.09162 213.602V209.852H8.72798V213.602H8.09162ZM6.5348 212.045V211.409H10.2848V212.045H6.5348ZM13.6946 208.807V214.625H12.9901V209.545H12.956L11.5355 210.489V209.773L12.9901 208.807H13.6946ZM15.4702 214.625V208.807H16.1747V211.693H16.2429L18.8565 208.807H19.777L17.3338 211.432L19.777 214.625H18.9247L16.902 211.92L16.1747 212.739V214.625H15.4702Z" fill="#202356"/>
<path opacity="0.3" d="M69.0936 226.23C68.9968 226.23 68.9039 226.191 68.8355 226.123C68.767 226.054 68.7285 225.961 68.7285 225.864V225.134C68.7285 225.037 68.7671 224.944 68.8356 224.876C68.9042 224.807 68.9973 224.769 69.0943 224.769C69.1913 224.769 69.2843 224.807 69.3529 224.876C69.4215 224.944 69.46 225.037 69.46 225.134V225.864C69.46 225.913 69.4505 225.96 69.4321 226.005C69.4137 226.049 69.3867 226.089 69.3526 226.123C69.3186 226.157 69.2782 226.184 69.2337 226.202C69.1893 226.22 69.1417 226.23 69.0936 226.23ZM69.0936 219.656C68.9968 219.656 68.9039 219.618 68.8355 219.549C68.767 219.481 68.7285 219.388 68.7285 219.291V218.561C68.7285 218.464 68.7671 218.371 68.8356 218.302C68.9042 218.234 68.9973 218.195 69.0943 218.195C69.1913 218.195 69.2843 218.234 69.3529 218.302C69.4215 218.371 69.46 218.464 69.46 218.561V219.291C69.46 219.339 69.4505 219.387 69.4321 219.431C69.4137 219.475 69.3867 219.516 69.3526 219.55C69.3186 219.584 69.2782 219.61 69.2337 219.629C69.1893 219.647 69.1417 219.656 69.0936 219.656ZM69.0936 213.083C68.9968 213.083 68.9039 213.044 68.8355 212.976C68.767 212.907 68.7285 212.814 68.7285 212.718V211.987C68.7285 211.89 68.7671 211.797 68.8356 211.729C68.9042 211.66 68.9973 211.622 69.0943 211.622C69.1913 211.622 69.2843 211.66 69.3529 211.729C69.4215 211.797 69.46 211.89 69.46 211.987V212.718C69.46 212.766 69.4505 212.813 69.4321 212.858C69.4137 212.902 69.3867 212.942 69.3526 212.976C69.3186 213.01 69.2782 213.037 69.2337 213.055C69.1893 213.073 69.1417 213.083 69.0936 213.083ZM69.0936 206.509C68.9968 206.509 68.9039 206.471 68.8355 206.402C68.767 206.334 68.7285 206.241 68.7285 206.144V205.414C68.7285 205.317 68.7671 205.224 68.8356 205.155C68.9042 205.087 68.9973 205.048 69.0943 205.048C69.1913 205.048 69.2843 205.087 69.3529 205.155C69.4215 205.224 69.46 205.317 69.46 205.414V206.144C69.46 206.192 69.4505 206.24 69.4321 206.284C69.4137 206.328 69.3867 206.369 69.3526 206.403C69.3186 206.437 69.2782 206.463 69.2337 206.482C69.1893 206.5 69.1417 206.509 69.0936 206.509ZM69.0936 199.936C68.9968 199.936 68.9039 199.897 68.8355 199.829C68.767 199.76 68.7285 199.667 68.7285 199.571V198.84C68.7285 198.743 68.7671 198.65 68.8356 198.582C68.9042 198.513 68.9973 198.475 69.0943 198.475C69.1913 198.475 69.2843 198.513 69.3529 198.582C69.4215 198.65 69.46 198.743 69.46 198.84V199.571C69.46 199.619 69.4505 199.666 69.4321 199.711C69.4137 199.755 69.3867 199.795 69.3526 199.829C69.3186 199.863 69.2782 199.89 69.2337 199.908C69.1893 199.926 69.1417 199.936 69.0936 199.936ZM69.0936 193.362C68.9968 193.362 68.9039 193.324 68.8355 193.255C68.767 193.187 68.7285 193.094 68.7285 192.997V192.267C68.7285 192.17 68.7671 192.077 68.8356 192.008C68.9042 191.94 68.9973 191.901 69.0943 191.901C69.1913 191.901 69.2843 191.94 69.3529 192.008C69.4215 192.077 69.46 192.17 69.46 192.267V192.997C69.4578 193.093 69.4182 193.184 69.3497 193.25C69.2812 193.317 69.1892 193.354 69.0936 193.354V193.362ZM69.0936 186.789C68.9968 186.789 68.9039 186.75 68.8355 186.682C68.767 186.613 68.7285 186.52 68.7285 186.424V185.693C68.7285 185.596 68.7671 185.503 68.8356 185.435C68.9042 185.366 68.9973 185.328 69.0943 185.328C69.1913 185.328 69.2843 185.366 69.3529 185.435C69.4215 185.503 69.46 185.596 69.46 185.693V186.424C69.4571 186.519 69.4171 186.609 69.3487 186.675C69.2802 186.741 69.1888 186.778 69.0936 186.777V186.789ZM69.0936 180.215C68.9968 180.215 68.9039 180.177 68.8355 180.108C68.767 180.04 68.7285 179.947 68.7285 179.85V179.12C68.7285 179.023 68.7671 178.93 68.8356 178.861C68.9042 178.793 68.9973 178.754 69.0943 178.754C69.1913 178.754 69.2843 178.793 69.3529 178.861C69.4215 178.93 69.46 179.023 69.46 179.12V179.85C69.456 179.944 69.4157 180.034 69.3473 180.099C69.279 180.164 69.1881 180.2 69.0936 180.2V180.215ZM69.0936 173.642C68.9968 173.642 68.9039 173.603 68.8355 173.535C68.767 173.466 68.7285 173.373 68.7285 173.277V172.523C68.7285 172.426 68.7671 172.333 68.8356 172.264C68.9042 172.195 68.9973 172.157 69.0943 172.157C69.1913 172.157 69.2843 172.195 69.3529 172.264C69.4215 172.333 69.46 172.426 69.46 172.523V173.253C69.4607 173.301 69.4518 173.349 69.4337 173.395C69.4156 173.44 69.3887 173.481 69.3546 173.515C69.3205 173.55 69.2798 173.577 69.235 173.596C69.1902 173.614 69.1421 173.624 69.0936 173.623V173.642ZM69.0936 167.068C68.9968 167.068 68.9039 167.03 68.8355 166.961C68.767 166.893 68.7285 166.8 68.7285 166.703V165.949C68.7285 165.852 68.7671 165.759 68.8356 165.691C68.9042 165.622 68.9973 165.583 69.0943 165.583C69.1913 165.583 69.2843 165.622 69.3529 165.691C69.4215 165.759 69.46 165.852 69.46 165.949V166.679C69.4604 166.728 69.4512 166.775 69.4329 166.82C69.4147 166.865 69.3877 166.906 69.3536 166.94C69.3196 166.974 69.279 167.001 69.2344 167.019C69.1898 167.038 69.1419 167.047 69.0936 167.047V167.068ZM69.0936 160.495C68.9968 160.495 68.9039 160.456 68.8355 160.388C68.767 160.319 68.7285 160.226 68.7285 160.13V159.376C68.7285 159.279 68.7671 159.186 68.8356 159.117C68.9042 159.049 68.9973 159.01 69.0943 159.01C69.1913 159.01 69.2843 159.049 69.3529 159.117C69.4215 159.186 69.46 159.279 69.46 159.376V160.106C69.46 160.154 69.4505 160.201 69.4321 160.246C69.4137 160.29 69.3867 160.331 69.3526 160.364C69.3186 160.398 69.2782 160.425 69.2337 160.443C69.1893 160.462 69.1417 160.471 69.0936 160.471V160.495ZM69.0936 153.921C68.9968 153.921 68.9039 153.883 68.8355 153.814C68.767 153.746 68.7285 153.653 68.7285 153.556V152.802C68.7285 152.705 68.7671 152.612 68.8356 152.544C68.9042 152.475 68.9973 152.437 69.0943 152.437C69.1913 152.437 69.2843 152.475 69.3529 152.544C69.4215 152.612 69.46 152.705 69.46 152.802V153.532C69.4593 153.629 69.4203 153.721 69.3516 153.789C69.2829 153.857 69.1902 153.895 69.0936 153.895V153.921ZM69.0936 147.348C68.9968 147.348 68.9039 147.309 68.8355 147.241C68.767 147.172 68.7285 147.079 68.7285 146.983V146.229C68.7285 146.132 68.7671 146.039 68.8356 145.97C68.9042 145.902 68.9973 145.863 69.0943 145.863C69.1913 145.863 69.2843 145.902 69.3529 145.97C69.4215 146.039 69.46 146.132 69.46 146.229V146.959C69.4585 147.055 69.4193 147.147 69.3507 147.214C69.2821 147.281 69.1897 147.319 69.0936 147.318V147.348ZM69.0936 140.774C68.9968 140.774 68.9039 140.736 68.8355 140.667C68.767 140.599 68.7285 140.506 68.7285 140.409V139.679C68.7285 139.582 68.7671 139.489 68.8356 139.42C68.9042 139.352 68.9973 139.313 69.0943 139.313C69.1913 139.313 69.2843 139.352 69.3529 139.42C69.4215 139.489 69.46 139.582 69.46 139.679V140.409C69.4519 140.5 69.4098 140.585 69.3419 140.647C69.274 140.709 69.1854 140.743 69.0936 140.742V140.774ZM69.0936 134.201C68.9968 134.201 68.9039 134.162 68.8355 134.094C68.767 134.025 68.7285 133.932 68.7285 133.836V133.106C68.7285 133.009 68.7671 132.916 68.8356 132.847C68.9042 132.778 68.9973 132.74 69.0943 132.74C69.1913 132.74 69.2843 132.778 69.3529 132.847C69.4215 132.916 69.46 133.009 69.46 133.106V133.836C69.4513 133.927 69.4088 134.011 69.341 134.072C69.2732 134.133 69.1849 134.166 69.0936 134.166V134.201ZM69.0936 127.627C68.9968 127.627 68.9039 127.589 68.8355 127.52C68.767 127.452 68.7285 127.359 68.7285 127.262V126.532C68.7285 126.435 68.7671 126.342 68.8356 126.273C68.9042 126.205 68.9973 126.166 69.0943 126.166C69.1913 126.166 69.2843 126.205 69.3529 126.273C69.4215 126.342 69.46 126.435 69.46 126.532V127.262C69.4503 127.352 69.4074 127.436 69.3396 127.496C69.2719 127.556 69.1843 127.589 69.0936 127.588V127.627ZM69.0936 121.054C68.9968 121.054 68.9039 121.015 68.8355 120.947C68.767 120.878 68.7285 120.785 68.7285 120.689V119.959C68.7285 119.862 68.7671 119.769 68.8356 119.7C68.9042 119.631 68.9973 119.593 69.0943 119.593C69.1913 119.593 69.2843 119.631 69.3529 119.7C69.4215 119.769 69.46 119.862 69.46 119.959V120.689C69.4496 120.778 69.4065 120.861 69.3388 120.921C69.2711 120.98 69.1838 121.013 69.0936 121.012V121.054ZM69.0936 114.48C68.9968 114.48 68.9039 114.442 68.8355 114.373C68.767 114.305 68.7285 114.212 68.7285 114.115V113.385C68.7285 113.288 68.7671 113.195 68.8356 113.126C68.9042 113.058 68.9973 113.019 69.0943 113.019C69.1913 113.019 69.2843 113.058 69.3529 113.126C69.4215 113.195 69.46 113.288 69.46 113.385V114.115C69.449 114.204 69.4055 114.286 69.3379 114.345C69.2703 114.404 69.1834 114.436 69.0936 114.435V114.48ZM69.0936 107.907C68.9968 107.907 68.9039 107.868 68.8355 107.8C68.767 107.731 68.7285 107.638 68.7285 107.542V106.812C68.7285 106.715 68.7671 106.622 68.8356 106.553C68.9042 106.484 68.9973 106.446 69.0943 106.446C69.1913 106.446 69.2843 106.484 69.3529 106.553C69.4215 106.622 69.46 106.715 69.46 106.812V107.542C69.4484 107.63 69.4046 107.712 69.3371 107.77C69.2695 107.829 69.183 107.86 69.0936 107.859V107.907ZM69.0936 101.333C68.9968 101.333 68.9039 101.295 68.8355 101.226C68.767 101.158 68.7285 101.065 68.7285 100.968V100.238C68.7285 100.141 68.7671 100.048 68.8356 99.9795C68.9042 99.9109 68.9973 99.8724 69.0943 99.8724C69.1913 99.8724 69.2843 99.9109 69.3529 99.9795C69.4215 100.048 69.46 100.141 69.46 100.238V100.968C69.4477 101.056 69.4038 101.137 69.3363 101.195C69.2688 101.253 69.1826 101.284 69.0936 101.283V101.333ZM69.0936 94.7597C68.9968 94.7597 68.9039 94.7213 68.8355 94.6528C68.767 94.5843 68.7285 94.4915 68.7285 94.3947V93.6646C68.7285 93.5676 68.7671 93.4746 68.8356 93.406C68.9042 93.3374 68.9973 93.2989 69.0943 93.2989C69.1913 93.2989 69.2843 93.3374 69.3529 93.406C69.4215 93.4746 69.46 93.5676 69.46 93.6646V94.3947C69.4471 94.4823 69.4029 94.5622 69.3355 94.6195C69.268 94.6769 69.1821 94.7079 69.0936 94.7066V94.7597ZM69.0936 88.1862C68.9968 88.1862 68.9039 88.1478 68.8355 88.0793C68.767 88.0109 68.7285 87.918 68.7285 87.8212V87.0911C68.7285 86.9941 68.7671 86.9011 68.8356 86.8325C68.9042 86.7639 68.9973 86.7254 69.0943 86.7254C69.1913 86.7254 69.2843 86.7639 69.3529 86.8325C69.4215 86.9011 69.46 86.9941 69.46 87.0911V87.8212C69.4465 87.9083 69.402 87.9875 69.3347 88.0443C69.2673 88.1011 69.1817 88.1317 69.0936 88.1303V88.1862ZM69.0936 81.6127C68.9968 81.6127 68.9039 81.5743 68.8355 81.5058C68.767 81.4374 68.7285 81.3445 68.7285 81.2477V80.5176C68.7285 80.4206 68.7671 80.3276 68.8356 80.259C68.9042 80.1904 68.9973 80.1519 69.0943 80.1519C69.1913 80.1519 69.2843 80.1904 69.3529 80.259C69.4215 80.3276 69.46 80.4206 69.46 80.5176V81.2477C69.4459 81.3343 69.4011 81.4129 69.3338 81.4691C69.2665 81.5253 69.1813 81.5555 69.0936 81.554V81.6127ZM69.0936 75.0393C68.9968 75.0393 68.9039 75.0008 68.8355 74.9323C68.767 74.8639 68.7285 74.771 68.7285 74.6742V73.9441C68.7285 73.8471 68.7671 73.7541 68.8356 73.6855C68.9042 73.6169 68.9973 73.5784 69.0943 73.5784C69.1913 73.5784 69.2843 73.6169 69.3529 73.6855C69.4215 73.7541 69.46 73.8471 69.46 73.9441V74.6742C69.4453 74.7603 69.4003 74.8382 69.3331 74.8939C69.2658 74.9495 69.1809 74.9793 69.0936 74.9777V75.0393ZM69.0936 68.4657C68.9968 68.4657 68.9039 68.4273 68.8355 68.3588C68.767 68.2904 68.7285 68.1975 68.7285 68.1007V67.3706C68.7285 67.2736 68.7671 67.1806 68.8356 67.112C68.9042 67.0434 68.9973 67.0049 69.0943 67.0049C69.1913 67.0049 69.2843 67.0434 69.3529 67.112C69.4215 67.1806 69.46 67.2736 69.46 67.3706V68.1007C69.4444 68.186 69.399 68.2629 69.3319 68.3178C69.2647 68.3726 69.1803 68.4018 69.0936 68.4V68.4657ZM69.0936 61.8923C68.9968 61.8923 68.9039 61.8538 68.8355 61.7853C68.767 61.7169 68.7285 61.624 68.7285 61.5272V60.7972C68.7285 60.7002 68.7671 60.6071 68.8356 60.5385C68.9042 60.4699 68.9973 60.4314 69.0943 60.4314C69.1913 60.4314 69.2843 60.4699 69.3529 60.5385C69.4215 60.6071 69.46 60.7002 69.46 60.7972V61.5272C69.4438 61.612 69.3982 61.6883 69.3311 61.7426C69.264 61.7968 69.1799 61.8256 69.0936 61.8237V61.8923ZM69.0936 55.3188C68.9968 55.3188 68.9039 55.2803 68.8355 55.2119C68.767 55.1434 68.7285 55.0506 68.7285 54.9537V54.2237C68.7285 54.1267 68.7671 54.0336 68.8356 53.965C68.9042 53.8965 68.9973 53.8579 69.0943 53.8579C69.1913 53.8579 69.2843 53.8965 69.3529 53.965C69.4215 54.0336 69.46 54.1267 69.46 54.2237V54.9537C69.4432 55.038 69.3974 55.1136 69.3303 55.1673C69.2633 55.2211 69.1795 55.2494 69.0936 55.2475V55.3188ZM69.0936 48.7453C68.9968 48.7453 68.9039 48.7068 68.8355 48.6384C68.767 48.5699 68.7285 48.4771 68.7285 48.3803V47.6502C68.7285 47.5532 68.7671 47.4601 68.8356 47.3916C68.9042 47.323 68.9973 47.2844 69.0943 47.2844C69.1913 47.2844 69.2843 47.323 69.3529 47.3916C69.4215 47.4601 69.46 47.5532 69.46 47.6502V48.3803C69.4427 48.464 69.3965 48.539 69.3296 48.5921C69.2626 48.6453 69.1791 48.6733 69.0936 48.6712V48.7453ZM69.0936 42.1718C68.9968 42.1718 68.9039 42.1333 68.8355 42.0649C68.767 41.9964 68.7285 41.9036 68.7285 41.8068V41.0767C68.7285 40.9797 68.7671 40.8867 68.8356 40.8181C68.9042 40.7495 68.9973 40.7109 69.0943 40.7109C69.1913 40.7109 69.2843 40.7495 69.3529 40.8181C69.4215 40.8867 69.46 40.9797 69.46 41.0767V41.8068C69.4421 41.89 69.3957 41.9643 69.3288 42.0169C69.2619 42.0695 69.1787 42.0971 69.0936 42.0949V42.1718Z" fill="#202356"/>
<path opacity="0.3" d="M137.506 226.23C137.409 226.23 137.316 226.191 137.248 226.123C137.179 226.054 137.141 225.961 137.141 225.864V225.134C137.141 225.037 137.179 224.944 137.248 224.876C137.316 224.807 137.409 224.769 137.506 224.769C137.603 224.769 137.696 224.807 137.765 224.876C137.834 224.944 137.872 225.037 137.872 225.134V225.864C137.872 225.913 137.863 225.96 137.844 226.005C137.826 226.049 137.799 226.089 137.765 226.123C137.731 226.157 137.69 226.184 137.646 226.202C137.601 226.22 137.554 226.23 137.506 226.23ZM137.506 219.656C137.409 219.656 137.316 219.618 137.248 219.549C137.179 219.481 137.141 219.388 137.141 219.291V218.561C137.141 218.464 137.179 218.371 137.248 218.302C137.316 218.234 137.409 218.195 137.506 218.195C137.603 218.195 137.696 218.234 137.765 218.302C137.834 218.371 137.872 218.464 137.872 218.561V219.291C137.872 219.339 137.863 219.387 137.844 219.431C137.826 219.475 137.799 219.516 137.765 219.55C137.731 219.584 137.69 219.61 137.646 219.629C137.601 219.647 137.554 219.656 137.506 219.656ZM137.506 213.083C137.409 213.083 137.316 213.044 137.248 212.976C137.179 212.907 137.141 212.814 137.141 212.718V211.987C137.141 211.89 137.179 211.797 137.248 211.729C137.316 211.66 137.409 211.622 137.506 211.622C137.603 211.622 137.696 211.66 137.765 211.729C137.834 211.797 137.872 211.89 137.872 211.987V212.718C137.872 212.766 137.863 212.813 137.844 212.858C137.826 212.902 137.799 212.942 137.765 212.976C137.731 213.01 137.69 213.037 137.646 213.055C137.601 213.073 137.554 213.083 137.506 213.083ZM137.506 206.509C137.409 206.509 137.316 206.471 137.248 206.402C137.179 206.334 137.141 206.241 137.141 206.144V205.414C137.141 205.317 137.179 205.224 137.248 205.155C137.316 205.087 137.409 205.048 137.506 205.048C137.603 205.048 137.696 205.087 137.765 205.155C137.834 205.224 137.872 205.317 137.872 205.414V206.144C137.872 206.192 137.863 206.24 137.844 206.284C137.826 206.328 137.799 206.369 137.765 206.403C137.731 206.437 137.69 206.463 137.646 206.482C137.601 206.5 137.554 206.509 137.506 206.509ZM137.506 199.936C137.409 199.936 137.316 199.897 137.248 199.829C137.179 199.76 137.141 199.667 137.141 199.571V198.84C137.141 198.743 137.179 198.65 137.248 198.582C137.316 198.513 137.409 198.475 137.506 198.475C137.603 198.475 137.696 198.513 137.765 198.582C137.834 198.65 137.872 198.743 137.872 198.84V199.571C137.872 199.619 137.863 199.666 137.844 199.711C137.826 199.755 137.799 199.795 137.765 199.829C137.731 199.863 137.69 199.89 137.646 199.908C137.601 199.926 137.554 199.936 137.506 199.936ZM137.506 193.362C137.409 193.362 137.316 193.324 137.248 193.255C137.179 193.187 137.141 193.094 137.141 192.997V192.267C137.141 192.17 137.179 192.077 137.248 192.008C137.316 191.94 137.409 191.901 137.506 191.901C137.603 191.901 137.696 191.94 137.765 192.008C137.834 192.077 137.872 192.17 137.872 192.267V192.997C137.87 193.093 137.83 193.184 137.762 193.25C137.693 193.317 137.601 193.354 137.506 193.354V193.362ZM137.506 186.789C137.409 186.789 137.316 186.75 137.248 186.682C137.179 186.613 137.141 186.52 137.141 186.424V185.693C137.141 185.596 137.179 185.503 137.248 185.435C137.316 185.366 137.409 185.328 137.506 185.328C137.603 185.328 137.696 185.366 137.765 185.435C137.834 185.503 137.872 185.596 137.872 185.693V186.424C137.869 186.519 137.829 186.609 137.761 186.675C137.692 186.741 137.601 186.778 137.506 186.777V186.789ZM137.506 180.215C137.409 180.215 137.316 180.177 137.248 180.108C137.179 180.04 137.141 179.947 137.141 179.85V179.12C137.141 179.023 137.179 178.93 137.248 178.861C137.316 178.793 137.409 178.754 137.506 178.754C137.603 178.754 137.696 178.793 137.765 178.861C137.834 178.93 137.872 179.023 137.872 179.12V179.85C137.868 179.944 137.828 180.034 137.759 180.099C137.691 180.164 137.6 180.2 137.506 180.2V180.215ZM137.506 173.642C137.409 173.642 137.316 173.603 137.248 173.535C137.179 173.466 137.141 173.373 137.141 173.277V172.523C137.141 172.426 137.179 172.333 137.248 172.264C137.316 172.195 137.409 172.157 137.506 172.157C137.603 172.157 137.696 172.195 137.765 172.264C137.834 172.333 137.872 172.426 137.872 172.523V173.253C137.873 173.301 137.864 173.349 137.846 173.395C137.828 173.44 137.801 173.481 137.767 173.515C137.733 173.55 137.692 173.577 137.647 173.596C137.602 173.614 137.554 173.624 137.506 173.623V173.642ZM137.506 167.068C137.409 167.068 137.316 167.03 137.248 166.961C137.179 166.893 137.141 166.8 137.141 166.703V165.949C137.141 165.852 137.179 165.759 137.248 165.691C137.316 165.622 137.409 165.583 137.506 165.583C137.603 165.583 137.696 165.622 137.765 165.691C137.834 165.759 137.872 165.852 137.872 165.949V166.679C137.872 166.728 137.863 166.775 137.845 166.82C137.827 166.865 137.8 166.906 137.766 166.94C137.732 166.974 137.691 167.001 137.646 167.019C137.602 167.038 137.554 167.047 137.506 167.047V167.068ZM137.506 160.495C137.409 160.495 137.316 160.456 137.248 160.388C137.179 160.319 137.141 160.226 137.141 160.13V159.376C137.141 159.279 137.179 159.186 137.248 159.117C137.316 159.049 137.409 159.01 137.506 159.01C137.603 159.01 137.696 159.049 137.765 159.117C137.834 159.186 137.872 159.279 137.872 159.376V160.106C137.872 160.154 137.863 160.201 137.844 160.246C137.826 160.29 137.799 160.331 137.765 160.364C137.731 160.398 137.69 160.425 137.646 160.443C137.601 160.462 137.554 160.471 137.506 160.471V160.495ZM137.506 153.921C137.409 153.921 137.316 153.883 137.248 153.814C137.179 153.746 137.141 153.653 137.141 153.556V152.802C137.141 152.705 137.179 152.612 137.248 152.544C137.316 152.475 137.409 152.437 137.506 152.437C137.603 152.437 137.696 152.475 137.765 152.544C137.834 152.612 137.872 152.705 137.872 152.802V153.532C137.871 153.629 137.832 153.721 137.764 153.789C137.695 153.857 137.602 153.895 137.506 153.895V153.921ZM137.506 147.348C137.409 147.348 137.316 147.309 137.248 147.241C137.179 147.172 137.141 147.079 137.141 146.983V146.229C137.141 146.132 137.179 146.039 137.248 145.97C137.316 145.902 137.409 145.863 137.506 145.863C137.603 145.863 137.696 145.902 137.765 145.97C137.834 146.039 137.872 146.132 137.872 146.229V146.959C137.871 147.055 137.831 147.147 137.763 147.214C137.694 147.281 137.602 147.319 137.506 147.318V147.348ZM137.506 140.774C137.409 140.774 137.316 140.736 137.248 140.667C137.179 140.599 137.141 140.506 137.141 140.409V139.679C137.141 139.582 137.179 139.489 137.248 139.42C137.316 139.352 137.409 139.313 137.506 139.313C137.603 139.313 137.696 139.352 137.765 139.42C137.834 139.489 137.872 139.582 137.872 139.679V140.409C137.864 140.5 137.822 140.585 137.754 140.647C137.686 140.709 137.597 140.743 137.506 140.742V140.774ZM137.506 134.201C137.409 134.201 137.316 134.162 137.248 134.094C137.179 134.025 137.141 133.932 137.141 133.836V133.106C137.141 133.009 137.179 132.916 137.248 132.847C137.316 132.778 137.409 132.74 137.506 132.74C137.603 132.74 137.696 132.778 137.765 132.847C137.834 132.916 137.872 133.009 137.872 133.106V133.836C137.863 133.927 137.821 134.011 137.753 134.072C137.685 134.133 137.597 134.166 137.506 134.166V134.201ZM137.506 127.627C137.409 127.627 137.316 127.589 137.248 127.52C137.179 127.452 137.141 127.359 137.141 127.262V126.532C137.141 126.435 137.179 126.342 137.248 126.273C137.316 126.205 137.409 126.166 137.506 126.166C137.603 126.166 137.696 126.205 137.765 126.273C137.834 126.342 137.872 126.435 137.872 126.532V127.262C137.862 127.352 137.819 127.436 137.752 127.496C137.684 127.556 137.596 127.589 137.506 127.588V127.627ZM137.506 121.054C137.409 121.054 137.316 121.015 137.248 120.947C137.179 120.878 137.141 120.785 137.141 120.689V119.959C137.141 119.862 137.179 119.769 137.248 119.7C137.316 119.631 137.409 119.593 137.506 119.593C137.603 119.593 137.696 119.631 137.765 119.7C137.834 119.769 137.872 119.862 137.872 119.959V120.689C137.862 120.778 137.819 120.861 137.751 120.921C137.683 120.98 137.596 121.013 137.506 121.012V121.054ZM137.506 114.48C137.409 114.48 137.316 114.442 137.248 114.373C137.179 114.305 137.141 114.212 137.141 114.115V113.385C137.141 113.288 137.179 113.195 137.248 113.126C137.316 113.058 137.409 113.019 137.506 113.019C137.603 113.019 137.696 113.058 137.765 113.126C137.834 113.195 137.872 113.288 137.872 113.385V114.115C137.861 114.204 137.818 114.286 137.75 114.345C137.682 114.404 137.596 114.436 137.506 114.435V114.48ZM137.506 107.907C137.409 107.907 137.316 107.868 137.248 107.8C137.179 107.731 137.141 107.638 137.141 107.542V106.812C137.141 106.715 137.179 106.622 137.248 106.553C137.316 106.484 137.409 106.446 137.506 106.446C137.603 106.446 137.696 106.484 137.765 106.553C137.834 106.622 137.872 106.715 137.872 106.812V107.542C137.86 107.63 137.817 107.712 137.749 107.77C137.682 107.829 137.595 107.86 137.506 107.859V107.907ZM137.506 101.333C137.409 101.333 137.316 101.295 137.248 101.226C137.179 101.158 137.141 101.065 137.141 100.968V100.238C137.141 100.141 137.179 100.048 137.248 99.9795C137.316 99.9109 137.409 99.8724 137.506 99.8724C137.603 99.8724 137.696 99.9109 137.765 99.9795C137.834 100.048 137.872 100.141 137.872 100.238V100.968C137.86 101.056 137.816 101.137 137.748 101.195C137.681 101.253 137.595 101.284 137.506 101.283V101.333ZM137.506 94.7597C137.409 94.7597 137.316 94.7213 137.248 94.6528C137.179 94.5843 137.141 94.4915 137.141 94.3947V93.6646C137.141 93.5676 137.179 93.4746 137.248 93.406C137.316 93.3374 137.409 93.2989 137.506 93.2989C137.603 93.2989 137.696 93.3374 137.765 93.406C137.834 93.4746 137.872 93.5676 137.872 93.6646V94.3947C137.859 94.4823 137.815 94.5622 137.748 94.6195C137.68 94.6769 137.594 94.7079 137.506 94.7066V94.7597ZM137.506 88.1862C137.409 88.1862 137.316 88.1478 137.248 88.0793C137.179 88.0109 137.141 87.918 137.141 87.8212V87.0911C137.141 86.9941 137.179 86.9011 137.248 86.8325C137.316 86.7639 137.409 86.7254 137.506 86.7254C137.603 86.7254 137.696 86.7639 137.765 86.8325C137.834 86.9011 137.872 86.9941 137.872 87.0911V87.8212C137.859 87.9083 137.814 87.9875 137.747 88.0443C137.679 88.1011 137.594 88.1317 137.506 88.1303V88.1862ZM137.506 81.6127C137.409 81.6127 137.316 81.5743 137.248 81.5058C137.179 81.4374 137.141 81.3445 137.141 81.2477V80.5176C137.141 80.4206 137.179 80.3276 137.248 80.259C137.316 80.1904 137.409 80.1519 137.506 80.1519C137.603 80.1519 137.696 80.1904 137.765 80.259C137.834 80.3276 137.872 80.4206 137.872 80.5176V81.2477C137.858 81.3343 137.813 81.4129 137.746 81.4691C137.679 81.5253 137.593 81.5555 137.506 81.554V81.6127ZM137.506 75.0393C137.409 75.0393 137.316 75.0008 137.248 74.9323C137.179 74.8639 137.141 74.771 137.141 74.6742V73.9441C137.141 73.8471 137.179 73.7541 137.248 73.6855C137.316 73.6169 137.409 73.5784 137.506 73.5784C137.603 73.5784 137.696 73.6169 137.765 73.6855C137.834 73.7541 137.872 73.8471 137.872 73.9441V74.6742C137.857 74.7603 137.812 74.8382 137.745 74.8939C137.678 74.9495 137.593 74.9793 137.506 74.9777V75.0393ZM137.506 68.4657C137.409 68.4657 137.316 68.4273 137.248 68.3588C137.179 68.2904 137.141 68.1975 137.141 68.1007V67.3706C137.141 67.2736 137.179 67.1806 137.248 67.112C137.316 67.0434 137.409 67.0049 137.506 67.0049C137.603 67.0049 137.696 67.0434 137.765 67.112C137.834 67.1806 137.872 67.2736 137.872 67.3706V68.1007C137.857 68.186 137.811 68.2629 137.744 68.3178C137.677 68.3726 137.592 68.4018 137.506 68.4V68.4657ZM137.506 61.8923C137.409 61.8923 137.316 61.8538 137.248 61.7853C137.179 61.7169 137.141 61.624 137.141 61.5272V60.7972C137.141 60.7002 137.179 60.6071 137.248 60.5385C137.316 60.4699 137.409 60.4314 137.506 60.4314C137.603 60.4314 137.696 60.4699 137.765 60.5385C137.834 60.6071 137.872 60.7002 137.872 60.7972V61.5272C137.856 61.612 137.81 61.6883 137.743 61.7426C137.676 61.7968 137.592 61.8256 137.506 61.8237V61.8923ZM137.506 55.3188C137.409 55.3188 137.316 55.2803 137.248 55.2119C137.179 55.1434 137.141 55.0506 137.141 54.9537V54.2237C137.141 54.1267 137.179 54.0336 137.248 53.965C137.316 53.8965 137.409 53.8579 137.506 53.8579C137.603 53.8579 137.696 53.8965 137.765 53.965C137.834 54.0336 137.872 54.1267 137.872 54.2237V54.9537C137.855 55.038 137.809 55.1136 137.742 55.1673C137.675 55.2211 137.592 55.2494 137.506 55.2475V55.3188ZM137.506 48.7453C137.409 48.7453 137.316 48.7068 137.248 48.6384C137.179 48.5699 137.141 48.4771 137.141 48.3803V47.6502C137.141 47.5532 137.179 47.4601 137.248 47.3916C137.316 47.323 137.409 47.2844 137.506 47.2844C137.603 47.2844 137.696 47.323 137.765 47.3916C137.834 47.4601 137.872 47.5532 137.872 47.6502V48.3803C137.855 48.464 137.809 48.539 137.742 48.5921C137.675 48.6453 137.591 48.6733 137.506 48.6712V48.7453ZM137.506 42.1718C137.409 42.1718 137.316 42.1333 137.248 42.0649C137.179 41.9964 137.141 41.9036 137.141 41.8068V41.0767C137.141 40.9797 137.179 40.8867 137.248 40.8181C137.316 40.7495 137.409 40.7109 137.506 40.7109C137.603 40.7109 137.696 40.7495 137.765 40.8181C137.834 40.8867 137.872 40.9797 137.872 41.0767V41.8068C137.854 41.89 137.808 41.9643 137.741 42.0169C137.674 42.0695 137.591 42.0971 137.506 42.0949V42.1718Z" fill="#202356"/>
<path opacity="0.3" d="M205.918 226.23C205.821 226.23 205.728 226.191 205.66 226.123C205.591 226.054 205.553 225.961 205.553 225.864V225.134C205.553 225.037 205.591 224.944 205.66 224.876C205.728 224.807 205.822 224.769 205.919 224.769C206.016 224.769 206.109 224.807 206.177 224.876C206.246 224.944 206.284 225.037 206.284 225.134V225.864C206.284 225.913 206.275 225.96 206.256 226.005C206.238 226.049 206.211 226.089 206.177 226.123C206.143 226.157 206.102 226.184 206.058 226.202C206.013 226.22 205.966 226.23 205.918 226.23ZM205.918 219.656C205.821 219.656 205.728 219.618 205.66 219.549C205.591 219.481 205.553 219.388 205.553 219.291V218.561C205.553 218.464 205.591 218.371 205.66 218.302C205.728 218.234 205.822 218.195 205.919 218.195C206.016 218.195 206.109 218.234 206.177 218.302C206.246 218.371 206.284 218.464 206.284 218.561V219.291C206.284 219.339 206.275 219.387 206.256 219.431C206.238 219.475 206.211 219.516 206.177 219.55C206.143 219.584 206.102 219.61 206.058 219.629C206.013 219.647 205.966 219.656 205.918 219.656ZM205.918 213.083C205.821 213.083 205.728 213.044 205.66 212.976C205.591 212.907 205.553 212.814 205.553 212.718V211.987C205.553 211.89 205.591 211.797 205.66 211.729C205.728 211.66 205.822 211.622 205.919 211.622C206.016 211.622 206.109 211.66 206.177 211.729C206.246 211.797 206.284 211.89 206.284 211.987V212.718C206.284 212.766 206.275 212.813 206.256 212.858C206.238 212.902 206.211 212.942 206.177 212.976C206.143 213.01 206.102 213.037 206.058 213.055C206.013 213.073 205.966 213.083 205.918 213.083ZM205.918 206.509C205.821 206.509 205.728 206.471 205.66 206.402C205.591 206.334 205.553 206.241 205.553 206.144V205.414C205.553 205.317 205.591 205.224 205.66 205.155C205.728 205.087 205.822 205.048 205.919 205.048C206.016 205.048 206.109 205.087 206.177 205.155C206.246 205.224 206.284 205.317 206.284 205.414V206.144C206.284 206.192 206.275 206.24 206.256 206.284C206.238 206.328 206.211 206.369 206.177 206.403C206.143 206.437 206.102 206.463 206.058 206.482C206.013 206.5 205.966 206.509 205.918 206.509ZM205.918 199.936C205.821 199.936 205.728 199.897 205.66 199.829C205.591 199.76 205.553 199.667 205.553 199.571V198.84C205.553 198.743 205.591 198.65 205.66 198.582C205.728 198.513 205.822 198.475 205.919 198.475C206.016 198.475 206.109 198.513 206.177 198.582C206.246 198.65 206.284 198.743 206.284 198.84V199.571C206.284 199.619 206.275 199.666 206.256 199.711C206.238 199.755 206.211 199.795 206.177 199.829C206.143 199.863 206.102 199.89 206.058 199.908C206.013 199.926 205.966 199.936 205.918 199.936ZM205.918 193.362C205.821 193.362 205.728 193.324 205.66 193.255C205.591 193.187 205.553 193.094 205.553 192.997V192.267C205.553 192.17 205.591 192.077 205.66 192.008C205.728 191.94 205.822 191.901 205.919 191.901C206.016 191.901 206.109 191.94 206.177 192.008C206.246 192.077 206.284 192.17 206.284 192.267V192.997C206.282 193.093 206.242 193.184 206.174 193.25C206.105 193.317 206.013 193.354 205.918 193.354V193.362ZM205.918 186.789C205.821 186.789 205.728 186.75 205.66 186.682C205.591 186.613 205.553 186.52 205.553 186.424V185.693C205.553 185.596 205.591 185.503 205.66 185.435C205.728 185.366 205.822 185.328 205.919 185.328C206.016 185.328 206.109 185.366 206.177 185.435C206.246 185.503 206.284 185.596 206.284 185.693V186.424C206.281 186.519 206.241 186.609 206.173 186.675C206.104 186.741 206.013 186.778 205.918 186.777V186.789ZM205.918 180.215C205.821 180.215 205.728 180.177 205.66 180.108C205.591 180.04 205.553 179.947 205.553 179.85V179.12C205.553 179.023 205.591 178.93 205.66 178.861C205.728 178.793 205.822 178.754 205.919 178.754C206.016 178.754 206.109 178.793 206.177 178.861C206.246 178.93 206.284 179.023 206.284 179.12V179.85C206.28 179.944 206.24 180.034 206.172 180.099C206.103 180.164 206.012 180.2 205.918 180.2V180.215ZM205.918 173.642C205.821 173.642 205.728 173.603 205.66 173.535C205.591 173.466 205.553 173.373 205.553 173.277V172.523C205.553 172.426 205.591 172.333 205.66 172.264C205.728 172.195 205.822 172.157 205.919 172.157C206.016 172.157 206.109 172.195 206.177 172.264C206.246 172.333 206.284 172.426 206.284 172.523V173.253C206.285 173.301 206.276 173.349 206.258 173.395C206.24 173.44 206.213 173.481 206.179 173.515C206.145 173.55 206.104 173.577 206.059 173.596C206.014 173.614 205.966 173.624 205.918 173.623V173.642ZM205.918 167.068C205.821 167.068 205.728 167.03 205.66 166.961C205.591 166.893 205.553 166.8 205.553 166.703V165.949C205.553 165.852 205.591 165.759 205.66 165.691C205.728 165.622 205.822 165.583 205.919 165.583C206.016 165.583 206.109 165.622 206.177 165.691C206.246 165.759 206.284 165.852 206.284 165.949V166.679C206.285 166.728 206.275 166.775 206.257 166.82C206.239 166.865 206.212 166.906 206.178 166.94C206.144 166.974 206.103 167.001 206.059 167.019C206.014 167.038 205.966 167.047 205.918 167.047V167.068ZM205.918 160.495C205.821 160.495 205.728 160.456 205.66 160.388C205.591 160.319 205.553 160.226 205.553 160.13V159.376C205.553 159.279 205.591 159.186 205.66 159.117C205.728 159.049 205.822 159.01 205.919 159.01C206.016 159.01 206.109 159.049 206.177 159.117C206.246 159.186 206.284 159.279 206.284 159.376V160.106C206.284 160.154 206.275 160.201 206.256 160.246C206.238 160.29 206.211 160.331 206.177 160.364C206.143 160.398 206.102 160.425 206.058 160.443C206.013 160.462 205.966 160.471 205.918 160.471V160.495ZM205.918 153.921C205.821 153.921 205.728 153.883 205.66 153.814C205.591 153.746 205.553 153.653 205.553 153.556V152.802C205.553 152.705 205.591 152.612 205.66 152.544C205.728 152.475 205.822 152.437 205.919 152.437C206.016 152.437 206.109 152.475 206.177 152.544C206.246 152.612 206.284 152.705 206.284 152.802V153.532C206.283 153.629 206.244 153.721 206.176 153.789C206.107 153.857 206.014 153.895 205.918 153.895V153.921ZM205.918 147.348C205.821 147.348 205.728 147.309 205.66 147.241C205.591 147.172 205.553 147.079 205.553 146.983V146.229C205.553 146.132 205.591 146.039 205.66 145.97C205.728 145.902 205.822 145.863 205.919 145.863C206.016 145.863 206.109 145.902 206.177 145.97C206.246 146.039 206.284 146.132 206.284 146.229V146.959C206.283 147.055 206.243 147.147 206.175 147.214C206.106 147.281 206.014 147.319 205.918 147.318V147.348ZM205.918 140.774C205.821 140.774 205.728 140.736 205.66 140.667C205.591 140.599 205.553 140.506 205.553 140.409V139.679C205.553 139.582 205.591 139.489 205.66 139.42C205.728 139.352 205.822 139.313 205.919 139.313C206.016 139.313 206.109 139.352 206.177 139.42C206.246 139.489 206.284 139.582 206.284 139.679V140.409C206.276 140.5 206.234 140.585 206.166 140.647C206.098 140.709 206.01 140.743 205.918 140.742V140.774ZM205.918 134.201C205.821 134.201 205.728 134.162 205.66 134.094C205.591 134.025 205.553 133.932 205.553 133.836V133.106C205.553 133.009 205.591 132.916 205.66 132.847C205.728 132.778 205.822 132.74 205.919 132.74C206.016 132.74 206.109 132.778 206.177 132.847C206.246 132.916 206.284 133.009 206.284 133.106V133.836C206.275 133.927 206.233 134.011 206.165 134.072C206.097 134.133 206.009 134.166 205.918 134.166V134.201ZM205.918 127.627C205.821 127.627 205.728 127.589 205.66 127.52C205.591 127.452 205.553 127.359 205.553 127.262V126.532C205.553 126.435 205.591 126.342 205.66 126.273C205.728 126.205 205.822 126.166 205.919 126.166C206.016 126.166 206.109 126.205 206.177 126.273C206.246 126.342 206.284 126.435 206.284 126.532V127.262C206.275 127.352 206.232 127.436 206.164 127.496C206.096 127.556 206.008 127.589 205.918 127.588V127.627ZM205.918 121.054C205.821 121.054 205.728 121.015 205.66 120.947C205.591 120.878 205.553 120.785 205.553 120.689V119.959C205.553 119.862 205.591 119.769 205.66 119.7C205.728 119.631 205.822 119.593 205.919 119.593C206.016 119.593 206.109 119.631 206.177 119.7C206.246 119.769 206.284 119.862 206.284 119.959V120.689C206.274 120.778 206.231 120.861 206.163 120.921C206.095 120.98 206.008 121.013 205.918 121.012V121.054ZM205.918 114.48C205.821 114.48 205.728 114.442 205.66 114.373C205.591 114.305 205.553 114.212 205.553 114.115V113.385C205.553 113.288 205.591 113.195 205.66 113.126C205.728 113.058 205.822 113.019 205.919 113.019C206.016 113.019 206.109 113.058 206.177 113.126C206.246 113.195 206.284 113.288 206.284 113.385V114.115C206.273 114.204 206.23 114.286 206.162 114.345C206.095 114.404 206.008 114.436 205.918 114.435V114.48ZM205.918 107.907C205.821 107.907 205.728 107.868 205.66 107.8C205.591 107.731 205.553 107.638 205.553 107.542V106.812C205.553 106.715 205.591 106.622 205.66 106.553C205.728 106.484 205.822 106.446 205.919 106.446C206.016 106.446 206.109 106.484 206.177 106.553C206.246 106.622 206.284 106.715 206.284 106.812V107.542C206.273 107.63 206.229 107.712 206.161 107.77C206.094 107.829 206.007 107.86 205.918 107.859V107.907ZM205.918 101.333C205.821 101.333 205.728 101.295 205.66 101.226C205.591 101.158 205.553 101.065 205.553 100.968V100.238C205.553 100.141 205.591 100.048 205.66 99.9795C205.728 99.9109 205.822 99.8724 205.919 99.8724C206.016 99.8724 206.109 99.9109 206.177 99.9795C206.246 100.048 206.284 100.141 206.284 100.238V100.968C206.272 101.056 206.228 101.137 206.161 101.195C206.093 101.253 206.007 101.284 205.918 101.283V101.333ZM205.918 94.7597C205.821 94.7597 205.728 94.7213 205.66 94.6528C205.591 94.5843 205.553 94.4915 205.553 94.3947V93.6646C205.553 93.5676 205.591 93.4746 205.66 93.406C205.728 93.3374 205.822 93.2989 205.919 93.2989C206.016 93.2989 206.109 93.3374 206.177 93.406C206.246 93.4746 206.284 93.5676 206.284 93.6646V94.3947C206.271 94.4823 206.227 94.5622 206.16 94.6195C206.092 94.6769 206.006 94.7079 205.918 94.7066V94.7597ZM205.918 88.1862C205.821 88.1862 205.728 88.1478 205.66 88.0793C205.591 88.0109 205.553 87.918 205.553 87.8212V87.0911C205.553 86.9941 205.591 86.9011 205.66 86.8325C205.728 86.7639 205.822 86.7254 205.919 86.7254C206.016 86.7254 206.109 86.7639 206.177 86.8325C206.246 86.9011 206.284 86.9941 206.284 87.0911V87.8212C206.271 87.9083 206.226 87.9875 206.159 88.0443C206.092 88.1011 206.006 88.1317 205.918 88.1303V88.1862ZM205.918 81.6127C205.821 81.6127 205.728 81.5743 205.66 81.5058C205.591 81.4374 205.553 81.3445 205.553 81.2477V80.5176C205.553 80.4206 205.591 80.3276 205.66 80.259C205.728 80.1904 205.822 80.1519 205.919 80.1519C206.016 80.1519 206.109 80.1904 206.177 80.259C206.246 80.3276 206.284 80.4206 206.284 80.5176V81.2477C206.27 81.3343 206.225 81.4129 206.158 81.4691C206.091 81.5253 206.006 81.5555 205.918 81.554V81.6127ZM205.918 75.0393C205.821 75.0393 205.728 75.0008 205.66 74.9323C205.591 74.8639 205.553 74.771 205.553 74.6742V73.9441C205.553 73.8471 205.591 73.7541 205.66 73.6855C205.728 73.6169 205.822 73.5784 205.919 73.5784C206.016 73.5784 206.109 73.6169 206.177 73.6855C206.246 73.7541 206.284 73.8471 206.284 73.9441V74.6742C206.27 74.7603 206.225 74.8382 206.157 74.8939C206.09 74.9495 206.005 74.9793 205.918 74.9777V75.0393ZM205.918 68.4657C205.821 68.4657 205.728 68.4273 205.66 68.3588C205.591 68.2904 205.553 68.1975 205.553 68.1007V67.3706C205.553 67.2736 205.591 67.1806 205.66 67.112C205.728 67.0434 205.822 67.0049 205.919 67.0049C206.016 67.0049 206.109 67.0434 206.177 67.112C206.246 67.1806 206.284 67.2736 206.284 67.3706V68.1007C206.269 68.186 206.223 68.2629 206.156 68.3178C206.089 68.3726 206.005 68.4018 205.918 68.4V68.4657ZM205.918 61.8923C205.821 61.8923 205.728 61.8538 205.66 61.7853C205.591 61.7169 205.553 61.624 205.553 61.5272V60.7972C205.553 60.7002 205.591 60.6071 205.66 60.5385C205.728 60.4699 205.822 60.4314 205.919 60.4314C206.016 60.4314 206.109 60.4699 206.177 60.5385C206.246 60.6071 206.284 60.7002 206.284 60.7972V61.5272C206.268 61.612 206.222 61.6883 206.155 61.7426C206.088 61.7968 206.004 61.8256 205.918 61.8237V61.8923ZM205.918 55.3188C205.821 55.3188 205.728 55.2803 205.66 55.2119C205.591 55.1434 205.553 55.0506 205.553 54.9537V54.2237C205.553 54.1267 205.591 54.0336 205.66 53.965C205.728 53.8965 205.822 53.8579 205.919 53.8579C206.016 53.8579 206.109 53.8965 206.177 53.965C206.246 54.0336 206.284 54.1267 206.284 54.2237V54.9537C206.267 55.038 206.222 55.1136 206.155 55.1673C206.088 55.2211 206.004 55.2494 205.918 55.2475V55.3188ZM205.918 48.7453C205.821 48.7453 205.728 48.7068 205.66 48.6384C205.591 48.5699 205.553 48.4771 205.553 48.3803V47.6502C205.553 47.5532 205.591 47.4601 205.66 47.3916C205.728 47.323 205.822 47.2844 205.919 47.2844C206.016 47.2844 206.109 47.323 206.177 47.3916C206.246 47.4601 206.284 47.5532 206.284 47.6502V48.3803C206.267 48.464 206.221 48.539 206.154 48.5921C206.087 48.6453 206.003 48.6733 205.918 48.6712V48.7453ZM205.918 42.1718C205.821 42.1718 205.728 42.1333 205.66 42.0649C205.591 41.9964 205.553 41.9036 205.553 41.8068V41.0767C205.553 40.9797 205.591 40.8867 205.66 40.8181C205.728 40.7495 205.822 40.7109 205.919 40.7109C206.016 40.7109 206.109 40.7495 206.177 40.8181C206.246 40.8867 206.284 40.9797 206.284 41.0767V41.8068C206.266 41.89 206.22 41.9643 206.153 42.0169C206.086 42.0695 206.003 42.0971 205.918 42.0949V42.1718Z" fill="#202356"/>
<path opacity="0.3" d="M274.33 226.23C274.233 226.23 274.14 226.191 274.072 226.123C274.003 226.054 273.965 225.961 273.965 225.864V225.134C273.965 225.037 274.003 224.944 274.072 224.876C274.141 224.807 274.234 224.769 274.331 224.769C274.428 224.769 274.521 224.807 274.589 224.876C274.658 224.944 274.696 225.037 274.696 225.134V225.864C274.696 225.913 274.687 225.96 274.668 226.005C274.65 226.049 274.623 226.089 274.589 226.123C274.555 226.157 274.514 226.184 274.47 226.202C274.426 226.22 274.378 226.23 274.33 226.23ZM274.33 219.656C274.233 219.656 274.14 219.618 274.072 219.549C274.003 219.481 273.965 219.388 273.965 219.291V218.561C273.965 218.464 274.003 218.371 274.072 218.302C274.141 218.234 274.234 218.195 274.331 218.195C274.428 218.195 274.521 218.234 274.589 218.302C274.658 218.371 274.696 218.464 274.696 218.561V219.291C274.696 219.339 274.687 219.387 274.668 219.431C274.65 219.475 274.623 219.516 274.589 219.55C274.555 219.584 274.514 219.61 274.47 219.629C274.426 219.647 274.378 219.656 274.33 219.656ZM274.33 213.083C274.233 213.083 274.14 213.044 274.072 212.976C274.003 212.907 273.965 212.814 273.965 212.718V211.987C273.965 211.89 274.003 211.797 274.072 211.729C274.141 211.66 274.234 211.622 274.331 211.622C274.428 211.622 274.521 211.66 274.589 211.729C274.658 211.797 274.696 211.89 274.696 211.987V212.718C274.696 212.766 274.687 212.813 274.668 212.858C274.65 212.902 274.623 212.942 274.589 212.976C274.555 213.01 274.514 213.037 274.47 213.055C274.426 213.073 274.378 213.083 274.33 213.083ZM274.33 206.509C274.233 206.509 274.14 206.471 274.072 206.402C274.003 206.334 273.965 206.241 273.965 206.144V205.414C273.965 205.317 274.003 205.224 274.072 205.155C274.141 205.087 274.234 205.048 274.331 205.048C274.428 205.048 274.521 205.087 274.589 205.155C274.658 205.224 274.696 205.317 274.696 205.414V206.144C274.696 206.192 274.687 206.24 274.668 206.284C274.65 206.328 274.623 206.369 274.589 206.403C274.555 206.437 274.514 206.463 274.47 206.482C274.426 206.5 274.378 206.509 274.33 206.509ZM274.33 199.936C274.233 199.936 274.14 199.897 274.072 199.829C274.003 199.76 273.965 199.667 273.965 199.571V198.84C273.965 198.743 274.003 198.65 274.072 198.582C274.141 198.513 274.234 198.475 274.331 198.475C274.428 198.475 274.521 198.513 274.589 198.582C274.658 198.65 274.696 198.743 274.696 198.84V199.571C274.696 199.619 274.687 199.666 274.668 199.711C274.65 199.755 274.623 199.795 274.589 199.829C274.555 199.863 274.514 199.89 274.47 199.908C274.426 199.926 274.378 199.936 274.33 199.936ZM274.33 193.362C274.233 193.362 274.14 193.324 274.072 193.255C274.003 193.187 273.965 193.094 273.965 192.997V192.267C273.965 192.17 274.003 192.077 274.072 192.008C274.141 191.94 274.234 191.901 274.331 191.901C274.428 191.901 274.521 191.94 274.589 192.008C274.658 192.077 274.696 192.17 274.696 192.267V192.997C274.694 193.093 274.655 193.184 274.586 193.25C274.518 193.317 274.426 193.354 274.33 193.354V193.362ZM274.33 186.789C274.233 186.789 274.14 186.75 274.072 186.682C274.003 186.613 273.965 186.52 273.965 186.424V185.693C273.965 185.596 274.003 185.503 274.072 185.435C274.141 185.366 274.234 185.328 274.331 185.328C274.428 185.328 274.521 185.366 274.589 185.435C274.658 185.503 274.696 185.596 274.696 185.693V186.424C274.693 186.519 274.653 186.609 274.585 186.675C274.517 186.741 274.425 186.778 274.33 186.777V186.789ZM274.33 180.215C274.233 180.215 274.14 180.177 274.072 180.108C274.003 180.04 273.965 179.947 273.965 179.85V179.12C273.965 179.023 274.003 178.93 274.072 178.861C274.141 178.793 274.234 178.754 274.331 178.754C274.428 178.754 274.521 178.793 274.589 178.861C274.658 178.93 274.696 179.023 274.696 179.12V179.85C274.692 179.944 274.652 180.034 274.584 180.099C274.515 180.164 274.424 180.2 274.33 180.2V180.215ZM274.33 173.642C274.233 173.642 274.14 173.603 274.072 173.535C274.003 173.466 273.965 173.373 273.965 173.277V172.523C273.965 172.426 274.003 172.333 274.072 172.264C274.141 172.195 274.234 172.157 274.331 172.157C274.428 172.157 274.521 172.195 274.589 172.264C274.658 172.333 274.696 172.426 274.696 172.523V173.253C274.697 173.301 274.688 173.349 274.67 173.395C274.652 173.44 274.625 173.481 274.591 173.515C274.557 173.55 274.516 173.577 274.471 173.596C274.426 173.614 274.378 173.624 274.33 173.623V173.642ZM274.33 167.068C274.233 167.068 274.14 167.03 274.072 166.961C274.003 166.893 273.965 166.8 273.965 166.703V165.949C273.965 165.852 274.003 165.759 274.072 165.691C274.141 165.622 274.234 165.583 274.331 165.583C274.428 165.583 274.521 165.622 274.589 165.691C274.658 165.759 274.696 165.852 274.696 165.949V166.679C274.697 166.728 274.688 166.775 274.669 166.82C274.651 166.865 274.624 166.906 274.59 166.94C274.556 166.974 274.515 167.001 274.471 167.019C274.426 167.038 274.378 167.047 274.33 167.047V167.068ZM274.33 160.495C274.233 160.495 274.14 160.456 274.072 160.388C274.003 160.319 273.965 160.226 273.965 160.13V159.376C273.965 159.279 274.003 159.186 274.072 159.117C274.141 159.049 274.234 159.01 274.331 159.01C274.428 159.01 274.521 159.049 274.589 159.117C274.658 159.186 274.696 159.279 274.696 159.376V160.106C274.696 160.154 274.687 160.201 274.668 160.246C274.65 160.29 274.623 160.331 274.589 160.364C274.555 160.398 274.514 160.425 274.47 160.443C274.426 160.462 274.378 160.471 274.33 160.471V160.495ZM274.33 153.921C274.233 153.921 274.14 153.883 274.072 153.814C274.003 153.746 273.965 153.653 273.965 153.556V152.802C273.965 152.705 274.003 152.612 274.072 152.544C274.141 152.475 274.234 152.437 274.331 152.437C274.428 152.437 274.521 152.475 274.589 152.544C274.658 152.612 274.696 152.705 274.696 152.802V153.532C274.696 153.629 274.657 153.721 274.588 153.789C274.519 153.857 274.427 153.895 274.33 153.895V153.921ZM274.33 147.348C274.233 147.348 274.14 147.309 274.072 147.241C274.003 147.172 273.965 147.079 273.965 146.983V146.229C273.965 146.132 274.003 146.039 274.072 145.97C274.141 145.902 274.234 145.863 274.331 145.863C274.428 145.863 274.521 145.902 274.589 145.97C274.658 146.039 274.696 146.132 274.696 146.229V146.959C274.695 147.055 274.656 147.147 274.587 147.214C274.518 147.281 274.426 147.319 274.33 147.318V147.348ZM274.33 140.774C274.233 140.774 274.14 140.736 274.072 140.667C274.003 140.599 273.965 140.506 273.965 140.409V139.679C273.965 139.582 274.003 139.489 274.072 139.42C274.141 139.352 274.234 139.313 274.331 139.313C274.428 139.313 274.521 139.352 274.589 139.42C274.658 139.489 274.696 139.582 274.696 139.679V140.409C274.688 140.5 274.646 140.585 274.578 140.647C274.51 140.709 274.422 140.743 274.33 140.742V140.774ZM274.33 134.201C274.233 134.201 274.14 134.162 274.072 134.094C274.003 134.025 273.965 133.932 273.965 133.836V133.106C273.965 133.009 274.003 132.916 274.072 132.847C274.141 132.778 274.234 132.74 274.331 132.74C274.428 132.74 274.521 132.778 274.589 132.847C274.658 132.916 274.696 133.009 274.696 133.106V133.836C274.688 133.927 274.645 134.011 274.577 134.072C274.51 134.133 274.421 134.166 274.33 134.166V134.201ZM274.33 127.627C274.233 127.627 274.14 127.589 274.072 127.52C274.003 127.452 273.965 127.359 273.965 127.262V126.532C273.965 126.435 274.003 126.342 274.072 126.273C274.141 126.205 274.234 126.166 274.331 126.166C274.428 126.166 274.521 126.205 274.589 126.273C274.658 126.342 274.696 126.435 274.696 126.532V127.262C274.687 127.352 274.644 127.436 274.576 127.496C274.508 127.556 274.421 127.589 274.33 127.588V127.627ZM274.33 121.054C274.233 121.054 274.14 121.015 274.072 120.947C274.003 120.878 273.965 120.785 273.965 120.689V119.959C273.965 119.862 274.003 119.769 274.072 119.7C274.141 119.631 274.234 119.593 274.331 119.593C274.428 119.593 274.521 119.631 274.589 119.7C274.658 119.769 274.696 119.862 274.696 119.959V120.689C274.686 120.778 274.643 120.861 274.575 120.921C274.507 120.98 274.42 121.013 274.33 121.012V121.054ZM274.33 114.48C274.233 114.48 274.14 114.442 274.072 114.373C274.003 114.305 273.965 114.212 273.965 114.115V113.385C273.965 113.288 274.003 113.195 274.072 113.126C274.141 113.058 274.234 113.019 274.331 113.019C274.428 113.019 274.521 113.058 274.589 113.126C274.658 113.195 274.696 113.288 274.696 113.385V114.115C274.685 114.204 274.642 114.286 274.574 114.345C274.507 114.404 274.42 114.436 274.33 114.435V114.48ZM274.33 107.907C274.233 107.907 274.14 107.868 274.072 107.8C274.003 107.731 273.965 107.638 273.965 107.542V106.812C273.965 106.715 274.003 106.622 274.072 106.553C274.141 106.484 274.234 106.446 274.331 106.446C274.428 106.446 274.521 106.484 274.589 106.553C274.658 106.622 274.696 106.715 274.696 106.812V107.542C274.685 107.63 274.641 107.712 274.573 107.77C274.506 107.829 274.419 107.86 274.33 107.859V107.907ZM274.33 101.333C274.233 101.333 274.14 101.295 274.072 101.226C274.003 101.158 273.965 101.065 273.965 100.968V100.238C273.965 100.141 274.003 100.048 274.072 99.9795C274.141 99.9109 274.234 99.8724 274.331 99.8724C274.428 99.8724 274.521 99.9109 274.589 99.9795C274.658 100.048 274.696 100.141 274.696 100.238V100.968C274.684 101.056 274.64 101.137 274.573 101.195C274.505 101.253 274.419 101.284 274.33 101.283V101.333ZM274.33 94.7597C274.233 94.7597 274.14 94.7213 274.072 94.6528C274.003 94.5843 273.965 94.4915 273.965 94.3947V93.6646C273.965 93.5676 274.003 93.4746 274.072 93.406C274.141 93.3374 274.234 93.2989 274.331 93.2989C274.428 93.2989 274.521 93.3374 274.589 93.406C274.658 93.4746 274.696 93.5676 274.696 93.6646V94.3947C274.683 94.4823 274.639 94.5622 274.572 94.6195C274.504 94.6769 274.418 94.7079 274.33 94.7066V94.7597ZM274.33 88.1862C274.233 88.1862 274.14 88.1478 274.072 88.0793C274.003 88.0109 273.965 87.918 273.965 87.8212V87.0911C273.965 86.9941 274.003 86.9011 274.072 86.8325C274.141 86.7639 274.234 86.7254 274.331 86.7254C274.428 86.7254 274.521 86.7639 274.589 86.8325C274.658 86.9011 274.696 86.9941 274.696 87.0911V87.8212C274.683 87.9083 274.638 87.9875 274.571 88.0443C274.504 88.1011 274.418 88.1317 274.33 88.1303V88.1862ZM274.33 81.6127C274.233 81.6127 274.14 81.5743 274.072 81.5058C274.003 81.4374 273.965 81.3445 273.965 81.2477V80.5176C273.965 80.4206 274.003 80.3276 274.072 80.259C274.141 80.1904 274.234 80.1519 274.331 80.1519C274.428 80.1519 274.521 80.1904 274.589 80.259C274.658 80.3276 274.696 80.4206 274.696 80.5176V81.2477C274.682 81.3343 274.637 81.4129 274.57 81.4691C274.503 81.5253 274.418 81.5555 274.33 81.554V81.6127ZM274.33 75.0393C274.233 75.0393 274.14 75.0008 274.072 74.9323C274.003 74.8639 273.965 74.771 273.965 74.6742V73.9441C273.965 73.8471 274.003 73.7541 274.072 73.6855C274.141 73.6169 274.234 73.5784 274.331 73.5784C274.428 73.5784 274.521 73.6169 274.589 73.6855C274.658 73.7541 274.696 73.8471 274.696 73.9441V74.6742C274.682 74.7603 274.637 74.8382 274.569 74.8939C274.502 74.9495 274.417 74.9793 274.33 74.9777V75.0393ZM274.33 68.4657C274.233 68.4657 274.14 68.4273 274.072 68.3588C274.003 68.2904 273.965 68.1975 273.965 68.1007V67.3706C273.965 67.2736 274.003 67.1806 274.072 67.112C274.141 67.0434 274.234 67.0049 274.331 67.0049C274.428 67.0049 274.521 67.0434 274.589 67.112C274.658 67.1806 274.696 67.2736 274.696 67.3706V68.1007C274.681 68.186 274.635 68.2629 274.568 68.3178C274.501 68.3726 274.417 68.4018 274.33 68.4V68.4657ZM274.33 61.8923C274.233 61.8923 274.14 61.8538 274.072 61.7853C274.003 61.7169 273.965 61.624 273.965 61.5272V60.7972C273.965 60.7002 274.003 60.6071 274.072 60.5385C274.141 60.4699 274.234 60.4314 274.331 60.4314C274.428 60.4314 274.521 60.4699 274.589 60.5385C274.658 60.6071 274.696 60.7002 274.696 60.7972V61.5272C274.68 61.612 274.635 61.6883 274.567 61.7426C274.5 61.7968 274.416 61.8256 274.33 61.8237V61.8923ZM274.33 55.3188C274.233 55.3188 274.14 55.2803 274.072 55.2119C274.003 55.1434 273.965 55.0506 273.965 54.9537V54.2237C273.965 54.1267 274.003 54.0336 274.072 53.965C274.141 53.8965 274.234 53.8579 274.331 53.8579C274.428 53.8579 274.521 53.8965 274.589 53.965C274.658 54.0336 274.696 54.1267 274.696 54.2237V54.9537C274.68 55.038 274.634 55.1136 274.567 55.1673C274.5 55.2211 274.416 55.2494 274.33 55.2475V55.3188ZM274.33 48.7453C274.233 48.7453 274.14 48.7068 274.072 48.6384C274.003 48.5699 273.965 48.4771 273.965 48.3803V47.6502C273.965 47.5532 274.003 47.4601 274.072 47.3916C274.141 47.323 274.234 47.2844 274.331 47.2844C274.428 47.2844 274.521 47.323 274.589 47.3916C274.658 47.4601 274.696 47.5532 274.696 47.6502V48.3803C274.679 48.464 274.633 48.539 274.566 48.5921C274.499 48.6453 274.415 48.6733 274.33 48.6712V48.7453ZM274.33 42.1718C274.233 42.1718 274.14 42.1333 274.072 42.0649C274.003 41.9964 273.965 41.9036 273.965 41.8068V41.0767C273.965 40.9797 274.003 40.8867 274.072 40.8181C274.141 40.7495 274.234 40.7109 274.331 40.7109C274.428 40.7109 274.521 40.7495 274.589 40.8181C274.658 40.8867 274.696 40.9797 274.696 41.0767V41.8068C274.678 41.89 274.632 41.9643 274.565 42.0169C274.498 42.0695 274.415 42.0971 274.33 42.0949V42.1718Z" fill="#202356"/>
<path opacity="0.3" d="M343.642 226.23C343.546 226.23 343.453 226.191 343.384 226.123C343.316 226.054 343.277 225.961 343.277 225.864V225.134C343.277 225.037 343.316 224.944 343.384 224.876C343.453 224.807 343.546 224.769 343.643 224.769C343.74 224.769 343.833 224.807 343.902 224.876C343.97 224.944 344.009 225.037 344.009 225.134V225.864C344.009 225.913 343.999 225.96 343.981 226.005C343.962 226.049 343.935 226.089 343.901 226.123C343.867 226.157 343.827 226.184 343.783 226.202C343.738 226.22 343.691 226.23 343.642 226.23ZM343.642 219.656C343.546 219.656 343.453 219.618 343.384 219.549C343.316 219.481 343.277 219.388 343.277 219.291V218.561C343.277 218.464 343.316 218.371 343.384 218.302C343.453 218.234 343.546 218.195 343.643 218.195C343.74 218.195 343.833 218.234 343.902 218.302C343.97 218.371 344.009 218.464 344.009 218.561V219.291C344.009 219.339 343.999 219.387 343.981 219.431C343.962 219.475 343.935 219.516 343.901 219.55C343.867 219.584 343.827 219.61 343.783 219.629C343.738 219.647 343.691 219.656 343.642 219.656ZM343.642 213.083C343.546 213.083 343.453 213.044 343.384 212.976C343.316 212.907 343.277 212.814 343.277 212.718V211.987C343.277 211.89 343.316 211.797 343.384 211.729C343.453 211.66 343.546 211.622 343.643 211.622C343.74 211.622 343.833 211.66 343.902 211.729C343.97 211.797 344.009 211.89 344.009 211.987V212.718C344.009 212.766 343.999 212.813 343.981 212.858C343.962 212.902 343.935 212.942 343.901 212.976C343.867 213.01 343.827 213.037 343.783 213.055C343.738 213.073 343.691 213.083 343.642 213.083ZM343.642 206.509C343.546 206.509 343.453 206.471 343.384 206.402C343.316 206.334 343.277 206.241 343.277 206.144V205.414C343.277 205.317 343.316 205.224 343.384 205.155C343.453 205.087 343.546 205.048 343.643 205.048C343.74 205.048 343.833 205.087 343.902 205.155C343.97 205.224 344.009 205.317 344.009 205.414V206.144C344.009 206.192 343.999 206.24 343.981 206.284C343.962 206.328 343.935 206.369 343.901 206.403C343.867 206.437 343.827 206.463 343.783 206.482C343.738 206.5 343.691 206.509 343.642 206.509ZM343.642 199.936C343.546 199.936 343.453 199.897 343.384 199.829C343.316 199.76 343.277 199.667 343.277 199.571V198.84C343.277 198.743 343.316 198.65 343.384 198.582C343.453 198.513 343.546 198.475 343.643 198.475C343.74 198.475 343.833 198.513 343.902 198.582C343.97 198.65 344.009 198.743 344.009 198.84V199.571C344.009 199.619 343.999 199.666 343.981 199.711C343.962 199.755 343.935 199.795 343.901 199.829C343.867 199.863 343.827 199.89 343.783 199.908C343.738 199.926 343.691 199.936 343.642 199.936ZM343.642 193.362C343.546 193.362 343.453 193.324 343.384 193.255C343.316 193.187 343.277 193.094 343.277 192.997V192.267C343.277 192.17 343.316 192.077 343.384 192.008C343.453 191.94 343.546 191.901 343.643 191.901C343.74 191.901 343.833 191.94 343.902 192.008C343.97 192.077 344.009 192.17 344.009 192.267V192.997C344.007 193.093 343.967 193.184 343.899 193.25C343.83 193.317 343.738 193.354 343.642 193.354V193.362ZM343.642 186.789C343.546 186.789 343.453 186.75 343.384 186.682C343.316 186.613 343.277 186.52 343.277 186.424V185.693C343.277 185.596 343.316 185.503 343.384 185.435C343.453 185.366 343.546 185.328 343.643 185.328C343.74 185.328 343.833 185.366 343.902 185.435C343.97 185.503 344.009 185.596 344.009 185.693V186.424C344.006 186.519 343.966 186.609 343.898 186.675C343.829 186.741 343.738 186.778 343.642 186.777V186.789ZM343.642 180.215C343.546 180.215 343.453 180.177 343.384 180.108C343.316 180.04 343.277 179.947 343.277 179.85V179.12C343.277 179.023 343.316 178.93 343.384 178.861C343.453 178.793 343.546 178.754 343.643 178.754C343.74 178.754 343.833 178.793 343.902 178.861C343.97 178.93 344.009 179.023 344.009 179.12V179.85C344.005 179.944 343.964 180.034 343.896 180.099C343.828 180.164 343.737 180.2 343.642 180.2V180.215ZM343.642 173.642C343.546 173.642 343.453 173.603 343.384 173.535C343.316 173.466 343.277 173.373 343.277 173.277V172.523C343.277 172.426 343.316 172.333 343.384 172.264C343.453 172.195 343.546 172.157 343.643 172.157C343.74 172.157 343.833 172.195 343.902 172.264C343.97 172.333 344.009 172.426 344.009 172.523V173.253C344.01 173.301 344.001 173.349 343.983 173.395C343.964 173.44 343.938 173.481 343.903 173.515C343.869 173.55 343.829 173.577 343.784 173.596C343.739 173.614 343.691 173.624 343.642 173.623V173.642ZM343.642 167.068C343.546 167.068 343.453 167.03 343.384 166.961C343.316 166.893 343.277 166.8 343.277 166.703V165.949C343.277 165.852 343.316 165.759 343.384 165.691C343.453 165.622 343.546 165.583 343.643 165.583C343.74 165.583 343.833 165.622 343.902 165.691C343.97 165.759 344.009 165.852 344.009 165.949V166.679C344.009 166.728 344 166.775 343.982 166.82C343.964 166.865 343.937 166.906 343.902 166.94C343.868 166.974 343.828 167.001 343.783 167.019C343.739 167.038 343.691 167.047 343.642 167.047V167.068ZM343.642 160.495C343.546 160.495 343.453 160.456 343.384 160.388C343.316 160.319 343.277 160.226 343.277 160.13V159.376C343.277 159.279 343.316 159.186 343.384 159.117C343.453 159.049 343.546 159.01 343.643 159.01C343.74 159.01 343.833 159.049 343.902 159.117C343.97 159.186 344.009 159.279 344.009 159.376V160.106C344.009 160.154 343.999 160.201 343.981 160.246C343.962 160.29 343.935 160.331 343.901 160.364C343.867 160.398 343.827 160.425 343.783 160.443C343.738 160.462 343.691 160.471 343.642 160.471V160.495ZM343.642 153.921C343.546 153.921 343.453 153.883 343.384 153.814C343.316 153.746 343.277 153.653 343.277 153.556V152.802C343.277 152.705 343.316 152.612 343.384 152.544C343.453 152.475 343.546 152.437 343.643 152.437C343.74 152.437 343.833 152.475 343.902 152.544C343.97 152.612 344.009 152.705 344.009 152.802V153.532C344.008 153.629 343.969 153.721 343.9 153.789C343.832 153.857 343.739 153.895 343.642 153.895V153.921ZM343.642 147.348C343.546 147.348 343.453 147.309 343.384 147.241C343.316 147.172 343.277 147.079 343.277 146.983V146.229C343.277 146.132 343.316 146.039 343.384 145.97C343.453 145.902 343.546 145.863 343.643 145.863C343.74 145.863 343.833 145.902 343.902 145.97C343.97 146.039 344.009 146.132 344.009 146.229V146.959C344.007 147.055 343.968 147.147 343.899 147.214C343.831 147.281 343.739 147.319 343.642 147.318V147.348ZM343.642 140.774C343.546 140.774 343.453 140.736 343.384 140.667C343.316 140.599 343.277 140.506 343.277 140.409V139.679C343.277 139.582 343.316 139.489 343.384 139.42C343.453 139.352 343.546 139.313 343.643 139.313C343.74 139.313 343.833 139.352 343.902 139.42C343.97 139.489 344.009 139.582 344.009 139.679V140.409C344.001 140.5 343.959 140.585 343.891 140.647C343.823 140.709 343.734 140.743 343.642 140.742V140.774ZM343.642 134.201C343.546 134.201 343.453 134.162 343.384 134.094C343.316 134.025 343.277 133.932 343.277 133.836V133.106C343.277 133.009 343.316 132.916 343.384 132.847C343.453 132.778 343.546 132.74 343.643 132.74C343.74 132.74 343.833 132.778 343.902 132.847C343.97 132.916 344.009 133.009 344.009 133.106V133.836C344 133.927 343.958 134.011 343.89 134.072C343.822 134.133 343.734 134.166 343.642 134.166V134.201ZM343.642 127.627C343.546 127.627 343.453 127.589 343.384 127.52C343.316 127.452 343.277 127.359 343.277 127.262V126.532C343.277 126.435 343.316 126.342 343.384 126.273C343.453 126.205 343.546 126.166 343.643 126.166C343.74 126.166 343.833 126.205 343.902 126.273C343.97 126.342 344.009 126.435 344.009 126.532V127.262C343.999 127.352 343.956 127.436 343.888 127.496C343.821 127.556 343.733 127.589 343.642 127.588V127.627ZM343.642 121.054C343.546 121.054 343.453 121.015 343.384 120.947C343.316 120.878 343.277 120.785 343.277 120.689V119.959C343.277 119.862 343.316 119.769 343.384 119.7C343.453 119.631 343.546 119.593 343.643 119.593C343.74 119.593 343.833 119.631 343.902 119.7C343.97 119.769 344.009 119.862 344.009 119.959V120.689C343.998 120.778 343.955 120.861 343.888 120.921C343.82 120.98 343.733 121.013 343.642 121.012V121.054ZM343.642 114.48C343.546 114.48 343.453 114.442 343.384 114.373C343.316 114.305 343.277 114.212 343.277 114.115V113.385C343.277 113.288 343.316 113.195 343.384 113.126C343.453 113.058 343.546 113.019 343.643 113.019C343.74 113.019 343.833 113.058 343.902 113.126C343.97 113.195 344.009 113.288 344.009 113.385V114.115C343.998 114.204 343.954 114.286 343.887 114.345C343.819 114.404 343.732 114.436 343.642 114.435V114.48ZM343.642 107.907C343.546 107.907 343.453 107.868 343.384 107.8C343.316 107.731 343.277 107.638 343.277 107.542V106.812C343.277 106.715 343.316 106.622 343.384 106.553C343.453 106.484 343.546 106.446 343.643 106.446C343.74 106.446 343.833 106.484 343.902 106.553C343.97 106.622 344.009 106.715 344.009 106.812V107.542C343.997 107.63 343.953 107.712 343.886 107.77C343.818 107.829 343.732 107.86 343.642 107.859V107.907ZM343.642 101.333C343.546 101.333 343.453 101.295 343.384 101.226C343.316 101.158 343.277 101.065 343.277 100.968V100.238C343.277 100.141 343.316 100.048 343.384 99.9795C343.453 99.9109 343.546 99.8724 343.643 99.8724C343.74 99.8724 343.833 99.9109 343.902 99.9795C343.97 100.048 344.009 100.141 344.009 100.238V100.968C343.997 101.056 343.953 101.137 343.885 101.195C343.818 101.253 343.731 101.284 343.642 101.283V101.333ZM343.642 94.7597C343.546 94.7597 343.453 94.7213 343.384 94.6528C343.316 94.5843 343.277 94.4915 343.277 94.3947V93.6646C343.277 93.5676 343.316 93.4746 343.384 93.406C343.453 93.3374 343.546 93.2989 343.643 93.2989C343.74 93.2989 343.833 93.3374 343.902 93.406C343.97 93.4746 344.009 93.5676 344.009 93.6646V94.3947C343.996 94.4823 343.952 94.5622 343.884 94.6195C343.817 94.6769 343.731 94.7079 343.642 94.7066V94.7597ZM343.642 88.1862C343.546 88.1862 343.453 88.1478 343.384 88.0793C343.316 88.0109 343.277 87.918 343.277 87.8212V87.0911C343.277 86.9941 343.316 86.9011 343.384 86.8325C343.453 86.7639 343.546 86.7254 343.643 86.7254C343.74 86.7254 343.833 86.7639 343.902 86.8325C343.97 86.9011 344.009 86.9941 344.009 87.0911V87.8212C343.995 87.9083 343.951 87.9875 343.884 88.0443C343.816 88.1011 343.731 88.1317 343.642 88.1303V88.1862ZM343.642 81.6127C343.546 81.6127 343.453 81.5743 343.384 81.5058C343.316 81.4374 343.277 81.3445 343.277 81.2477V80.5176C343.277 80.4206 343.316 80.3276 343.384 80.259C343.453 80.1904 343.546 80.1519 343.643 80.1519C343.74 80.1519 343.833 80.1904 343.902 80.259C343.97 80.3276 344.009 80.4206 344.009 80.5176V81.2477C343.995 81.3343 343.95 81.4129 343.883 81.4691C343.815 81.5253 343.73 81.5555 343.642 81.554V81.6127ZM343.642 75.0393C343.546 75.0393 343.453 75.0008 343.384 74.9323C343.316 74.8639 343.277 74.771 343.277 74.6742V73.9441C343.277 73.8471 343.316 73.7541 343.384 73.6855C343.453 73.6169 343.546 73.5784 343.643 73.5784C343.74 73.5784 343.833 73.6169 343.902 73.6855C343.97 73.7541 344.009 73.8471 344.009 73.9441V74.6742C343.994 74.7603 343.949 74.8382 343.882 74.8939C343.815 74.9495 343.73 74.9793 343.642 74.9777V75.0393ZM343.642 68.4657C343.546 68.4657 343.453 68.4273 343.384 68.3588C343.316 68.2904 343.277 68.1975 343.277 68.1007V67.3706C343.277 67.2736 343.316 67.1806 343.384 67.112C343.453 67.0434 343.546 67.0049 343.643 67.0049C343.74 67.0049 343.833 67.0434 343.902 67.112C343.97 67.1806 344.009 67.2736 344.009 67.3706V68.1007C343.993 68.186 343.948 68.2629 343.881 68.3178C343.814 68.3726 343.729 68.4018 343.642 68.4V68.4657ZM343.642 61.8923C343.546 61.8923 343.453 61.8538 343.384 61.7853C343.316 61.7169 343.277 61.624 343.277 61.5272V60.7972C343.277 60.7002 343.316 60.6071 343.384 60.5385C343.453 60.4699 343.546 60.4314 343.643 60.4314C343.74 60.4314 343.833 60.4699 343.902 60.5385C343.97 60.6071 344.009 60.7002 344.009 60.7972V61.5272C343.993 61.612 343.947 61.6883 343.88 61.7426C343.813 61.7968 343.729 61.8256 343.642 61.8237V61.8923ZM343.642 55.3188C343.546 55.3188 343.453 55.2803 343.384 55.2119C343.316 55.1434 343.277 55.0506 343.277 54.9537V54.2237C343.277 54.1267 343.316 54.0336 343.384 53.965C343.453 53.8965 343.546 53.8579 343.643 53.8579C343.74 53.8579 343.833 53.8965 343.902 53.965C343.97 54.0336 344.009 54.1267 344.009 54.2237V54.9537C343.992 55.038 343.946 55.1136 343.879 55.1673C343.812 55.2211 343.728 55.2494 343.642 55.2475V55.3188ZM343.642 48.7453C343.546 48.7453 343.453 48.7068 343.384 48.6384C343.316 48.5699 343.277 48.4771 343.277 48.3803V47.6502C343.277 47.5532 343.316 47.4601 343.384 47.3916C343.453 47.323 343.546 47.2844 343.643 47.2844C343.74 47.2844 343.833 47.323 343.902 47.3916C343.97 47.4601 344.009 47.5532 344.009 47.6502V48.3803C343.991 48.464 343.945 48.539 343.878 48.5921C343.811 48.6453 343.728 48.6733 343.642 48.6712V48.7453ZM343.642 42.1718C343.546 42.1718 343.453 42.1333 343.384 42.0649C343.316 41.9964 343.277 41.9036 343.277 41.8068V41.0767C343.277 40.9797 343.316 40.8867 343.384 40.8181C343.453 40.7495 343.546 40.7109 343.643 40.7109C343.74 40.7109 343.833 40.7495 343.902 40.8181C343.97 40.8867 344.009 40.9797 344.009 41.0767V41.8068C343.991 41.89 343.945 41.9643 343.878 42.0169C343.811 42.0695 343.728 42.0971 343.642 42.0949V42.1718Z" fill="#202356"/>
<path d="M68.6465 216.126H89.9603C89.9603 216.126 100.628 215.184 108.648 211.541C113.726 209.125 118.278 205.73 122.041 201.551L184.988 135.676C184.988 135.676 192.988 126.435 201.538 122.644C207.122 120.365 213.216 119.628 219.182 120.511C226.63 120.816 234.085 120.137 241.355 118.491C248.071 116.609 254.458 113.702 260.288 109.873L343.555 61.2109" stroke="#4AEAB1" stroke-width="3"/>
<path opacity="0.56" d="M69.668 216.545L101.265 214.308L120.183 204.003L142.637 180.165L191.082 129.412L206.001 120.799H225.071L246.295 117.108L342.957 61.5117V225.923H69.668V216.545Z" fill="url(#paint0_linear_1072_2)"/>
<path d="M10.4445 12.9648L8.61855 9.82984H7.40855V12.9648H6.40755V5.29784H8.88255C9.46188 5.29784 9.94955 5.39684 10.3455 5.59484C10.7489 5.79284 11.0495 6.06051 11.2475 6.39784C11.4455 6.73518 11.5445 7.12018 11.5445 7.55284C11.5445 8.08084 11.3905 8.54651 11.0825 8.94984C10.7819 9.35318 10.3272 9.62084 9.71855 9.75284L11.6435 12.9648H10.4445ZM7.40855 9.02684H8.88255C9.42521 9.02684 9.83221 8.89484 10.1035 8.63084C10.3749 8.35951 10.5105 8.00018 10.5105 7.55284C10.5105 7.09818 10.3749 6.74618 10.1035 6.49684C9.83955 6.24751 9.43255 6.12284 8.88255 6.12284H7.40855V9.02684ZM18.5999 9.71984C18.5999 9.91051 18.5889 10.1122 18.5669 10.3248H13.7489C13.7856 10.9188 13.9873 11.3845 14.3539 11.7218C14.7279 12.0518 15.1789 12.2168 15.7069 12.2168C16.1396 12.2168 16.4989 12.1178 16.7849 11.9198C17.0783 11.7145 17.2836 11.4432 17.4009 11.1058H18.4789C18.3176 11.6852 17.9949 12.1582 17.5109 12.5248C17.0269 12.8842 16.4256 13.0638 15.7069 13.0638C15.1349 13.0638 14.6216 12.9355 14.1669 12.6788C13.7196 12.4222 13.3676 12.0592 13.1109 11.5898C12.8543 11.1132 12.7259 10.5632 12.7259 9.93984C12.7259 9.31651 12.8506 8.77018 13.0999 8.30084C13.3493 7.83151 13.6976 7.47218 14.1449 7.22284C14.5996 6.96618 15.1203 6.83784 15.7069 6.83784C16.2789 6.83784 16.7849 6.96251 17.2249 7.21184C17.6649 7.46118 18.0023 7.80584 18.2369 8.24584C18.4789 8.67851 18.5999 9.16984 18.5999 9.71984ZM17.5659 9.51084C17.5659 9.12951 17.4816 8.80318 17.3129 8.53184C17.1443 8.25318 16.9133 8.04418 16.6199 7.90484C16.3339 7.75818 16.0149 7.68484 15.6629 7.68484C15.1569 7.68484 14.7243 7.84618 14.3649 8.16884C14.0129 8.49151 13.8113 8.93884 13.7599 9.51084H17.5659ZM19.5472 9.92884C19.5472 9.31284 19.6719 8.77384 19.9212 8.31184C20.1706 7.84251 20.5116 7.47951 20.9442 7.22284C21.3842 6.96618 21.8756 6.83784 22.4182 6.83784C22.9389 6.83784 23.3936 6.95518 23.7822 7.18984C24.1782 7.41718 24.4679 7.69951 24.6512 8.03684V6.93684H25.6632V15.8248H24.6512V11.8538C24.4606 12.1912 24.1672 12.4772 23.7712 12.7118C23.3752 12.9465 22.9132 13.0638 22.3852 13.0638C21.8572 13.0638 21.3769 12.9318 20.9442 12.6678C20.5116 12.4038 20.1706 12.0335 19.9212 11.5568C19.6719 11.0802 19.5472 10.5375 19.5472 9.92884ZM24.6512 9.93984C24.6512 9.48518 24.5596 9.08918 24.3762 8.75184C24.1929 8.41451 23.9436 8.15784 23.6282 7.98184C23.3202 7.79851 22.9792 7.70684 22.6052 7.70684C22.2312 7.70684 21.8902 7.79484 21.5822 7.97084C21.2742 8.14684 21.0286 8.40351 20.8452 8.74084C20.6619 9.07818 20.5702 9.47418 20.5702 9.92884C20.5702 10.3908 20.6619 10.7942 20.8452 11.1388C21.0286 11.4762 21.2742 11.7365 21.5822 11.9198C21.8902 12.0958 22.2312 12.1838 22.6052 12.1838C22.9792 12.1838 23.3202 12.0958 23.6282 11.9198C23.9436 11.7365 24.1929 11.4762 24.3762 11.1388C24.5596 10.7942 24.6512 10.3945 24.6512 9.93984ZM32.7008 6.93684V12.9648H31.6998V12.0738C31.5091 12.3818 31.2415 12.6238 30.8968 12.7998C30.5595 12.9685 30.1855 13.0528 29.7748 13.0528C29.3055 13.0528 28.8838 12.9575 28.5098 12.7668C28.1358 12.5688 27.8388 12.2755 27.6188 11.8868C27.4061 11.4982 27.2998 11.0252 27.2998 10.4678V6.93684H28.2898V10.3358C28.2898 10.9298 28.4401 11.3882 28.7408 11.7108C29.0415 12.0262 29.4521 12.1838 29.9728 12.1838C30.5081 12.1838 30.9298 12.0188 31.2378 11.6888C31.5458 11.3588 31.6998 10.8785 31.6998 10.2478V6.93684H32.7008ZM39.8909 9.71984C39.8909 9.91051 39.8799 10.1122 39.8579 10.3248H35.0399C35.0766 10.9188 35.2783 11.3845 35.6449 11.7218C36.0189 12.0518 36.4699 12.2168 36.9979 12.2168C37.4306 12.2168 37.7899 12.1178 38.0759 11.9198C38.3693 11.7145 38.5746 11.4432 38.6919 11.1058H39.7699C39.6086 11.6852 39.2859 12.1582 38.8019 12.5248C38.3179 12.8842 37.7166 13.0638 36.9979 13.0638C36.4259 13.0638 35.9126 12.9355 35.4579 12.6788C35.0106 12.4222 34.6586 12.0592 34.4019 11.5898C34.1453 11.1132 34.0169 10.5632 34.0169 9.93984C34.0169 9.31651 34.1416 8.77018 34.3909 8.30084C34.6403 7.83151 34.9886 7.47218 35.4359 7.22284C35.8906 6.96618 36.4113 6.83784 36.9979 6.83784C37.5699 6.83784 38.0759 6.96251 38.5159 7.21184C38.9559 7.46118 39.2933 7.80584 39.5279 8.24584C39.7699 8.67851 39.8909 9.16984 39.8909 9.71984ZM38.8569 9.51084C38.8569 9.12951 38.7726 8.80318 38.6039 8.53184C38.4353 8.25318 38.2043 8.04418 37.9109 7.90484C37.6249 7.75818 37.3059 7.68484 36.9539 7.68484C36.4479 7.68484 36.0153 7.84618 35.6559 8.16884C35.3039 8.49151 35.1023 8.93884 35.0509 9.51084H38.8569ZM43.3462 13.0638C42.8842 13.0638 42.4699 12.9868 42.1032 12.8328C41.7366 12.6715 41.4469 12.4515 41.2342 12.1728C41.0216 11.8868 40.9042 11.5605 40.8822 11.1938H41.9162C41.9456 11.4945 42.0849 11.7402 42.3342 11.9308C42.5909 12.1215 42.9246 12.2168 43.3352 12.2168C43.7166 12.2168 44.0172 12.1325 44.2372 11.9638C44.4572 11.7952 44.5672 11.5825 44.5672 11.3258C44.5672 11.0618 44.4499 10.8675 44.2152 10.7428C43.9806 10.6108 43.6176 10.4825 43.1262 10.3578C42.6789 10.2405 42.3122 10.1232 42.0262 10.0058C41.7476 9.88118 41.5056 9.70151 41.3002 9.46684C41.1022 9.22484 41.0032 8.90951 41.0032 8.52084C41.0032 8.21284 41.0949 7.93051 41.2782 7.67384C41.4616 7.41718 41.7219 7.21551 42.0592 7.06884C42.3966 6.91484 42.7816 6.83784 43.2142 6.83784C43.8816 6.83784 44.4206 7.00651 44.8312 7.34384C45.2419 7.68118 45.4619 8.14318 45.4912 8.72984H44.4902C44.4682 8.41451 44.3399 8.16151 44.1052 7.97084C43.8779 7.78018 43.5699 7.68484 43.1812 7.68484C42.8219 7.68484 42.5359 7.76184 42.3232 7.91584C42.1106 8.06984 42.0042 8.27151 42.0042 8.52084C42.0042 8.71884 42.0666 8.88384 42.1912 9.01584C42.3232 9.14051 42.4846 9.24318 42.6752 9.32384C42.8732 9.39718 43.1446 9.48151 43.4892 9.57684C43.9219 9.69418 44.2739 9.81151 44.5452 9.92884C44.8166 10.0388 45.0476 10.2075 45.2382 10.4348C45.4362 10.6622 45.5389 10.9592 45.5462 11.3258C45.5462 11.6558 45.4546 11.9528 45.2712 12.2168C45.0879 12.4808 44.8276 12.6898 44.4902 12.8438C44.1602 12.9905 43.7789 13.0638 43.3462 13.0638ZM48.1803 7.76184V11.3148C48.1803 11.6082 48.2426 11.8172 48.3673 11.9418C48.492 12.0592 48.7083 12.1178 49.0163 12.1178H49.7533V12.9648H48.8513C48.294 12.9648 47.876 12.8365 47.5973 12.5798C47.3186 12.3232 47.1793 11.9015 47.1793 11.3148V7.76184H46.3983V6.93684H47.1793V5.41884H48.1803V6.93684H49.7533V7.76184H48.1803ZM53.1001 13.0638C52.6381 13.0638 52.2238 12.9868 51.8571 12.8328C51.4905 12.6715 51.2008 12.4515 50.9881 12.1728C50.7755 11.8868 50.6581 11.5605 50.6361 11.1938H51.6701C51.6995 11.4945 51.8388 11.7402 52.0881 11.9308C52.3448 12.1215 52.6785 12.2168 53.0891 12.2168C53.4705 12.2168 53.7711 12.1325 53.9911 11.9638C54.2111 11.7952 54.3211 11.5825 54.3211 11.3258C54.3211 11.0618 54.2038 10.8675 53.9691 10.7428C53.7345 10.6108 53.3715 10.4825 52.8801 10.3578C52.4328 10.2405 52.0661 10.1232 51.7801 10.0058C51.5015 9.88118 51.2595 9.70151 51.0541 9.46684C50.8561 9.22484 50.7571 8.90951 50.7571 8.52084C50.7571 8.21284 50.8488 7.93051 51.0321 7.67384C51.2155 7.41718 51.4758 7.21551 51.8131 7.06884C52.1505 6.91484 52.5355 6.83784 52.9681 6.83784C53.6355 6.83784 54.1745 7.00651 54.5851 7.34384C54.9958 7.68118 55.2158 8.14318 55.2451 8.72984H54.2441C54.2221 8.41451 54.0938 8.16151 53.8591 7.97084C53.6318 7.78018 53.3238 7.68484 52.9351 7.68484C52.5758 7.68484 52.2898 7.76184 52.0771 7.91584C51.8645 8.06984 51.7581 8.27151 51.7581 8.52084C51.7581 8.71884 51.8205 8.88384 51.9451 9.01584C52.0771 9.14051 52.2385 9.24318 52.4291 9.32384C52.6271 9.39718 52.8985 9.48151 53.2431 9.57684C53.6758 9.69418 54.0278 9.81151 54.2991 9.92884C54.5705 10.0388 54.8015 10.2075 54.9921 10.4348C55.1901 10.6622 55.2928 10.9592 55.3001 11.3258C55.3001 11.6558 55.2085 11.9528 55.0251 12.2168C54.8418 12.4808 54.5815 12.6898 54.2441 12.8438C53.9141 12.9905 53.5328 13.0638 53.1001 13.0638Z" fill="black"/>
<defs>
<linearGradient id="paint0_linear_1072_2" x1="206.313" y1="61.5117" x2="206.313" y2="225.923" gradientUnits="userSpaceOnUse">
<stop stop-color="#4AEAB1"/>
<stop offset="1" stop-color="#4AEAB1" stop-opacity="0"/>
</linearGradient>
</defs>
</svg>
