<svg width="50" height="40" viewBox="0 0 50 40" fill="none" xmlns="http://www.w3.org/2000/svg">
<path opacity="0.2" fill-rule="evenodd" clip-rule="evenodd" d="M6.33664 0.671918C4.91794 1.05582 3.62548 1.80671 2.58945 2.84894C1.55341 3.89117 0.810381 5.18795 0.435199 6.60865C0.241241 7.3843 0.231032 7.78437 0.231032 17.8351V28.2512L0.639365 27.7572C1.34982 26.9197 2.23524 26.248 3.2333 25.7895C5.10347 24.8822 4.20309 24.9414 16.7879 24.8996L27.9017 24.8628V2.08951H32.7844V24.873H35.9102C39.0441 24.873 40.0833 24.9536 40.6285 25.2353L40.9204 25.3864V14.2008C40.9204 1.39551 40.9909 2.37527 40.0017 1.38531C38.9951 0.379011 40.6142 0.46678 22.7353 0.46678C7.64738 0.471883 7.07266 0.480048 6.33664 0.671918ZM42.4843 5.66155C42.5191 5.83607 42.5476 11.3207 42.5476 17.8504V29.7228L44.2004 29.7861C46.4217 29.8718 47.2108 30.1004 48.397 31.0016L49.0095 31.465L49.035 20.7723C49.0636 8.91007 49.1024 9.6551 48.3858 8.28547C47.9061 7.38603 47.188 6.63597 46.3102 6.11751C45.4323 5.59905 44.4287 5.33219 43.4092 5.34619H42.4221L42.4854 5.66359M4.96157 26.6876C3.69239 27.0522 2.56257 27.7908 1.71945 28.8069C0.876334 29.823 0.359056 31.0695 0.235078 32.3839C0.111101 33.6983 0.386178 35.0196 1.02444 36.1753C1.66269 37.3311 2.63451 38.2678 3.81314 38.8632C5.19841 39.5613 3.68961 39.5184 25.9877 39.4888L46.1593 39.4623L46.7718 39.1632C47.357 38.8703 47.8649 38.4436 48.2543 37.9177C48.6436 37.3919 48.9036 36.7817 49.0129 36.1366C49.1223 35.4915 49.0781 34.8298 48.8838 34.205C48.6895 33.5802 48.3507 33.01 47.8948 32.5407C47.5596 32.2185 47.1817 31.9438 46.7718 31.7242L46.1593 31.4252L26.1704 31.3997C6.36624 31.3741 6.17841 31.3762 5.8497 31.5762C5.61768 31.7345 5.42783 31.947 5.29663 32.1953C5.16543 32.4436 5.09685 32.7201 5.09685 33.0009C5.09685 33.2818 5.16543 33.5583 5.29663 33.8066C5.42783 34.0549 5.61768 34.2674 5.8497 34.4257C6.17739 34.6298 6.40197 34.6298 25.5375 34.6298C46.6065 34.6298 45.5111 34.6002 45.6571 35.183C45.6915 35.2711 45.7081 35.3652 45.7059 35.4598C45.7036 35.5543 45.6826 35.6475 45.6441 35.7339C45.6055 35.8203 45.5502 35.8982 45.4813 35.9631C45.4123 36.0279 45.3312 36.0784 45.2426 36.1117C44.8006 36.2964 7.46568 36.3321 6.33664 36.1494C5.57164 36.0496 4.8692 35.6747 4.36068 35.0946C3.85215 34.5146 3.57235 33.7693 3.5736 32.998C3.57485 32.2267 3.85706 31.4823 4.36747 30.9039C4.87788 30.3255 5.58153 29.9528 6.34684 29.8555C6.77355 29.7861 12.6046 29.7535 23.4233 29.7535C39.6362 29.7535 39.8588 29.7534 40.1834 29.5493C40.4154 29.3912 40.6053 29.1788 40.7365 28.9306C40.8677 28.6823 40.9363 28.4058 40.9363 28.1251C40.9363 27.8444 40.8677 27.5679 40.7365 27.3197C40.6053 27.0715 40.4154 26.859 40.1834 26.7009C39.6975 26.4049 5.97832 26.3947 4.96464 26.6897" fill="black"/>
</svg>
