<svg width="35" height="27" viewBox="0 0 35 27" fill="none" xmlns="http://www.w3.org/2000/svg">
<path opacity="0.2" fill-rule="evenodd" clip-rule="evenodd" d="M15.6764 1.04183C10.5509 1.51642 5.73864 3.71723 2.02788 7.28372C0.287359 8.98503 0.323088 11.1701 2.11261 12.4887C3.45194 13.4746 5.0424 13.2419 6.54201 11.8416C9.57178 8.95089 13.6004 7.34032 17.7884 7.34545C21.9765 7.35058 26.0011 8.97103 29.0238 11.8692C31.4391 14.1349 34.7262 12.9776 34.7262 9.86171C34.7622 9.36349 34.6688 8.86442 34.4551 8.41291C34.2413 7.9614 33.9145 7.57278 33.5063 7.28474C31.147 5.03976 28.3371 3.32211 25.2631 2.24578C22.1891 1.16945 18.9212 0.759052 15.6764 1.04183ZM16.2808 10.7976C12.8201 11.1987 8.88788 13.4266 7.89359 15.5474C7.59371 16.3797 7.61702 17.2941 7.95892 18.1101C8.17842 18.5872 8.51184 19.003 8.92984 19.3211C9.34784 19.6391 9.83761 19.8496 10.3561 19.9339C10.8745 20.0183 11.4058 19.974 11.9031 19.8049C12.4004 19.6358 12.8485 19.3472 13.208 18.9643C14.4248 17.7703 16.0617 17.1014 17.7666 17.1014C19.4715 17.1014 21.1083 17.7703 22.3251 18.9643C24.5791 21.0167 27.8223 19.7185 27.8223 16.7619C27.8472 16.21 27.7264 15.6614 27.4719 15.171C27.2174 14.6807 26.8383 14.266 26.3727 13.9685C25.0007 12.7719 23.3957 11.8721 21.6589 11.3256C19.9221 10.7792 18.091 10.598 16.2808 10.7935M16.9218 20.5799C16.1691 20.7927 15.5209 21.2746 15.1003 21.934C14.6798 22.5934 14.5162 23.3843 14.6407 24.1564C14.7651 24.9284 15.169 25.6279 15.7756 26.1217C16.3821 26.6156 17.149 26.8694 17.9304 26.835C21.9454 26.6095 21.9178 20.6605 17.9008 20.5074C17.5727 20.4831 17.2427 20.5079 16.9218 20.5809" fill="black"/>
</svg>
