<svg width="39" height="39" viewBox="0 0 39 39" fill="none" xmlns="http://www.w3.org/2000/svg">
<path opacity="0.2" fill-rule="evenodd" clip-rule="evenodd" d="M25.1639 3.38349V5.93495L21.8666 8.13227L18.5693 10.3296V14.3793H38.6491V10.3418L35.2803 8.1241L31.9116 5.90637V0.832031H25.1741V3.38349M0.712891 23.2032V27.6479L8.54779 27.6295L16.3827 27.6111L16.4031 23.1828L16.4225 18.7565H0.712891V23.2032ZM18.5693 28.7583V38.76H38.6491V18.7565H18.5693V28.7583ZM12.9384 22.2765V23.3502H4.19495V21.207H12.9384V22.2806M25.1639 22.2806V23.3543H23.0201V21.211H25.1639V22.2847M29.6096 22.2847V23.3584H27.4587V21.2151H29.6025V22.2888M34.0482 22.2888V23.3624H31.9045V21.2192H34.0482V22.2929M34.0482 29.886V34.3306H23.015V25.4281H34.0553V29.8727M0.712891 34.2766V38.7579H16.4205V29.7952H0.712891V34.2766ZM12.9384 33.2396V34.3133H4.19495V32.1639H12.9384V33.2376" fill="black"/>
</svg>
