<svg width="30" height="28" viewBox="0 0 30 28" fill="none" xmlns="http://www.w3.org/2000/svg">
<path opacity="0.2" fill-rule="evenodd" clip-rule="evenodd" d="M1.46788 1.1248C0.848229 1.4473 0.816583 1.56569 0.8125 3.54256C0.8125 5.54291 0.870687 5.7409 1.59344 6.01543C2.14367 6.21955 28.4955 6.22669 28.9028 6.01543C29.942 5.47759 29.942 1.72899 28.9028 1.19114C28.3791 0.919663 1.98748 0.854343 1.46788 1.1248ZM13.037 14.0556C13.037 23.445 13.284 22.2141 11.0974 23.6736C9.3385 24.8503 9.19967 25.0371 9.28746 26.0964C9.28121 26.2809 9.31255 26.4647 9.37959 26.6366C9.44663 26.8085 9.54796 26.9651 9.67742 27.0966L10.0133 27.4477H21.2384L21.5742 27.0966C21.7037 26.9651 21.805 26.8085 21.872 26.6366C21.9391 26.4647 21.9704 26.2809 21.9642 26.0964C22.052 25.0361 21.9131 24.8503 20.1542 23.6736C17.9727 22.2141 18.2146 23.4409 18.2146 14.0556V6.01237H13.037V14.0535" fill="black"/>
</svg>
