<svg width="29" height="39" viewBox="0 0 29 39" fill="none" xmlns="http://www.w3.org/2000/svg">
<path opacity="0.2" fill-rule="evenodd" clip-rule="evenodd" d="M5.0544 1.00875C4.89934 1.11347 4.76302 1.24354 4.65117 1.39351L4.4766 1.63845L4.45721 10.6869L4.43781 19.7354H3.761C3.18748 19.7339 2.6261 19.9005 2.14632 20.2147C1.66654 20.5288 1.28941 20.9767 1.06161 21.5029C0.833799 22.0291 0.765309 22.6105 0.864611 23.1752C0.963914 23.74 1.22665 24.2632 1.62031 24.6802C2.10725 25.2007 2.40329 25.3486 3.88962 25.8181C4.61543 26.0467 5.27489 26.261 5.35554 26.2947C5.75775 26.459 11.9552 30.7087 12.0461 30.8812C12.2584 31.2895 12.2064 31.3303 8.41804 33.8532C6.41108 35.1901 4.78285 36.324 4.68383 36.4536C4.55534 36.6355 4.4789 36.849 4.46274 37.0712C4.44657 37.2933 4.49129 37.5156 4.59209 37.7142C4.69288 37.9128 4.84593 38.0802 5.03478 38.1983C5.22362 38.3164 5.44111 38.3808 5.66383 38.3846C6.18752 38.3846 5.94864 38.5274 10.574 35.4443C11.9401 34.4735 13.3541 33.5719 14.8105 32.7428C16.1047 33.4711 17.3565 34.2722 18.56 35.1422C23.507 38.4733 23.3579 38.3846 23.8398 38.3846C24.0217 38.3946 24.2036 38.3627 24.3712 38.2914C24.5389 38.22 24.6879 38.1111 24.8068 37.973C24.9257 37.8349 25.0112 37.6714 25.0568 37.495C25.1025 37.3186 25.1069 37.1341 25.0699 36.9557C24.9933 36.4454 24.8657 36.3485 21.155 33.8501C17.4647 31.3691 17.3779 31.2986 17.5565 30.9098C18.6682 30.0376 19.8269 29.2271 21.0274 28.4818L24.4125 26.2304L25.6946 25.8222C28.0129 25.0761 28.6622 24.3934 28.6622 22.6768C28.6884 22.2901 28.6323 21.9022 28.4976 21.5388C28.363 21.1754 28.1529 20.8446 27.8811 20.5682C27.6093 20.2918 27.282 20.0762 26.9208 19.9355C26.5596 19.7947 26.1726 19.7321 25.7855 19.7518H25.1076V1.85277L24.9392 1.52721C24.818 1.28558 24.6202 1.09085 24.3767 0.973364C24.1331 0.855878 23.8576 0.82224 23.593 0.877694C23.3283 0.933148 23.0895 1.07458 22.9136 1.27994C22.7378 1.4853 22.6349 1.74304 22.6209 2.013C22.527 2.78763 22.5076 2.80294 21.4041 2.91622C16.9809 3.34385 12.5268 3.34385 8.10362 2.91622C7.0389 2.80089 7.01746 2.78354 6.92354 2.01504C6.90822 1.804 6.83984 1.60023 6.72473 1.42266C6.60961 1.24509 6.4515 1.09946 6.26506 0.999293C6.07862 0.899124 5.8699 0.847656 5.65825 0.849666C5.44661 0.851676 5.2389 0.907098 5.0544 1.01079M19.5727 15.5898C22.0839 15.8072 22.1942 15.8246 22.4126 16.043L22.6168 16.2471L22.5913 18.3525L22.5719 20.4631L21.8522 20.6223C17.0746 21.6422 12.1331 21.6186 7.36556 20.5529L6.96233 20.4601L6.94804 18.3525L6.92864 16.243L7.13281 16.0389C7.3574 15.8133 7.7841 15.7501 10.1198 15.5919C10.7241 15.551 11.3836 15.5051 11.5857 15.4898C12.3207 15.4347 18.7193 15.5112 19.5737 15.5857M17.385 27.6317C17.4463 27.8256 17.385 27.8828 16.1488 28.7002C14.7544 29.6259 14.9024 29.6259 13.512 28.7002C11.6469 27.4623 11.6051 27.5 14.8442 27.498C17.1982 27.498 17.3462 27.5041 17.3861 27.6296" fill="black"/>
</svg>
