<svg width="28" height="29" viewBox="0 0 28 29" fill="none" xmlns="http://www.w3.org/2000/svg">
<path d="M13.0469 28.0033L3.52637 27.975L3.12598 27.8383C2.49839 27.6266 1.9283 27.2734 1.45996 26.8051C0.991619 26.3368 0.637486 25.7657 0.425781 25.1381L0.289062 24.7387V5.80705L0.425781 5.4135C0.696254 4.53364 1.25917 3.77267 2.02051 3.2553C2.78185 2.73792 3.69662 2.49533 4.61426 2.5678L6.04297 2.53948L6.06836 1.4926C6.08636 0.6156 6.18331 0.565077 6.44531 0.431077C6.58873 0.368696 6.74421 0.34089 6.90039 0.349046C7.05657 0.357202 7.20957 0.401949 7.3457 0.478928C7.5587 0.617928 7.65918 0.720217 7.65918 1.55022V2.55022H13.2246V1.55022C13.2246 0.478217 13.4564 0.371507 14.0244 0.371507C14.5924 0.371507 14.8242 0.477217 14.8242 1.55022V2.55022H20.4463V1.55022C20.4463 0.478217 20.6781 0.371507 21.2461 0.371507C21.8141 0.371507 22.0459 0.477335 22.0459 1.54533V2.53557L23.5137 2.56389C25.7417 2.60789 27.0814 3.51252 27.7334 5.41252L27.8701 5.80608L27.8848 9.51408V9.76408C27.8948 11.9431 27.8991 12.7588 27.8711 13.1098V24.7426L27.7344 25.142C27.5227 25.7696 27.1685 26.3407 26.7002 26.809C26.2319 27.2773 25.6618 27.6305 25.0342 27.8422L24.6396 27.976L19.8682 27.9926H13.0625L13.0166 28.0131L13.0469 28.0033ZM5.14258 4.1635C3.20158 4.1635 2.15338 4.89239 1.94238 6.37639C1.86038 6.96139 1.86038 23.5922 1.94238 24.1762C2.01323 24.7234 2.26334 25.2321 2.65332 25.6225C3.0433 26.0128 3.55149 26.263 4.09863 26.3344C4.39163 26.3784 6.73315 26.3949 8.82715 26.3949C10.9391 26.3949 12.0002 26.3946 12.5732 26.4076H12.5811H12.5869C13.3549 26.3966 14.4538 26.391 16.0498 26.391H19.374C21.515 26.391 23.8056 26.3734 24.0996 26.3344C24.647 26.2633 25.1551 26.0133 25.5459 25.6235C25.9367 25.2336 26.1874 24.7254 26.2598 24.1781C26.3118 23.8041 26.3028 13.4279 26.2998 9.5219V8.67522H26.3184V8.37541C26.2974 5.87541 26.1919 5.5868 25.5479 4.9428C25.2113 4.63521 24.8108 4.40575 24.375 4.2719C23.9392 4.13804 23.4795 4.10272 23.0283 4.16838H22.0791V5.16838C22.0791 6.24238 21.8473 6.34905 21.2793 6.34905C20.7113 6.34905 20.4795 6.24338 20.4795 5.16838V4.16838H14.8574V5.16838C14.8574 6.24238 14.6256 6.34905 14.0576 6.34905C13.4896 6.34905 13.2568 6.24338 13.2568 5.16838V4.16838H7.69238V5.16838C7.69238 6.24238 7.45972 6.34905 6.88672 6.34905C6.31372 6.34905 6.08594 6.24338 6.08594 5.16838V4.16838L5.14258 4.1635ZM21.2764 22.0639C21.0672 22.0616 20.867 21.979 20.7158 21.8344C20.5647 21.6898 20.4734 21.4935 20.4619 21.2846C20.4505 21.0757 20.5189 20.8707 20.6533 20.7104C20.7878 20.5501 20.9788 20.4464 21.1865 20.4213H21.2139H21.2314H21.2871C21.4369 20.4209 21.5836 20.4613 21.7119 20.5385C21.8403 20.6157 21.9459 20.7273 22.0156 20.8598C22.0813 20.9864 22.1123 21.1274 22.1074 21.2699C22.1025 21.4125 22.0615 21.5515 21.9873 21.6733C21.9131 21.7951 21.8089 21.8955 21.6846 21.9653C21.5602 22.035 21.4199 22.0719 21.2773 22.0717L21.2764 22.0639ZM16.4766 22.0639C16.31 22.0647 16.1465 22.0135 16.0098 21.9184C15.8716 21.823 15.7664 21.6877 15.707 21.5307C15.6477 21.3737 15.6372 21.2024 15.6777 21.0395C15.7182 20.8766 15.8076 20.7295 15.9336 20.6186C16.0596 20.5076 16.2161 20.438 16.3828 20.4184C16.4161 20.416 16.4501 20.416 16.4834 20.4184C16.6334 20.4173 16.7806 20.4573 16.9092 20.5346C17.0378 20.6119 17.1424 20.7239 17.2119 20.8569C17.2772 20.9833 17.3096 21.1238 17.3047 21.266C17.2997 21.4083 17.2575 21.5467 17.1836 21.6684C17.1097 21.79 17.0067 21.8914 16.8828 21.9613C16.7589 22.0313 16.6189 22.0683 16.4766 22.0688V22.0639ZM11.6572 22.0639C11.5324 22.0642 11.4091 22.0356 11.2969 21.9809C11.1847 21.9261 11.0863 21.8461 11.0098 21.7475C10.9332 21.6489 10.8808 21.5338 10.8555 21.4115C10.8302 21.2893 10.8331 21.1633 10.8643 21.0424C10.9054 20.8808 10.9943 20.735 11.1191 20.6244C11.244 20.5139 11.3991 20.4436 11.5645 20.4223H11.5918H11.6094H11.6641C11.814 20.4217 11.9613 20.4622 12.0898 20.5395C12.2184 20.6167 12.3237 20.7281 12.3936 20.8608C12.4592 20.9874 12.4912 21.1284 12.4863 21.2709C12.4814 21.4134 12.4394 21.5524 12.3652 21.6742C12.2911 21.796 12.1869 21.8965 12.0625 21.9662C11.9381 22.036 11.7979 22.0729 11.6553 22.0727L11.6572 22.0639ZM6.85742 22.0639C6.691 22.0638 6.5287 22.0127 6.3916 21.9184C6.25441 21.8222 6.14935 21.6867 6.09082 21.5297C6.03229 21.3727 6.02274 21.202 6.06348 21.0395C6.10422 20.877 6.19367 20.7304 6.31934 20.6196C6.445 20.5087 6.60124 20.4385 6.76758 20.4184C6.80087 20.416 6.8339 20.416 6.86719 20.4184C7.01712 20.4172 7.16449 20.4573 7.29297 20.5346C7.42145 20.6119 7.52655 20.7238 7.5957 20.8569C7.66133 20.9835 7.6924 21.1245 7.6875 21.267C7.6826 21.4095 7.64155 21.5485 7.56738 21.6703C7.49322 21.7921 7.38902 21.8926 7.26465 21.9623C7.14028 22.0321 7.00002 22.069 6.85742 22.0688V22.0639ZM21.2773 17.2631C21.111 17.2637 20.9485 17.2139 20.8115 17.1196C20.6743 17.0234 20.5693 16.8879 20.5107 16.7309C20.4522 16.5739 20.4427 16.4032 20.4834 16.2406C20.5241 16.0781 20.6136 15.9315 20.7393 15.8207C20.8649 15.7099 21.0212 15.6397 21.1875 15.6196H21.2109H21.2363H21.2871C21.437 15.6186 21.5845 15.6585 21.7129 15.7358C21.8413 15.813 21.9463 15.9242 22.0156 16.0571C22.0808 16.1835 22.1116 16.325 22.1064 16.4672C22.1013 16.6094 22.0605 16.7481 21.9863 16.8696C21.9122 16.991 21.8077 17.091 21.6836 17.1606C21.5595 17.2301 21.4196 17.2662 21.2773 17.266V17.2631ZM16.4775 17.2631C16.3112 17.2637 16.1487 17.2139 16.0117 17.1196C15.8736 17.0242 15.7674 16.8889 15.708 16.7319C15.6487 16.5748 15.6382 16.4036 15.6787 16.2406C15.7192 16.0777 15.8086 15.9307 15.9346 15.8197C16.0605 15.7088 16.2171 15.6391 16.3838 15.6196H16.4082H16.4336H16.4844C16.6519 15.6182 16.816 15.6682 16.9541 15.7631C17.0922 15.858 17.1979 15.993 17.2568 16.1498C17.3157 16.3067 17.3247 16.4777 17.2832 16.6401C17.2417 16.8024 17.1514 16.9478 17.0244 17.0571C16.8723 17.1888 16.6778 17.2611 16.4766 17.2602L16.4775 17.2631ZM11.6582 17.2631C11.4918 17.2637 11.3294 17.2139 11.1924 17.1196C11.0547 17.0237 10.9495 16.888 10.8906 16.7309C10.8318 16.5737 10.8215 16.4024 10.8623 16.2397C10.9031 16.0769 10.9931 15.9305 11.1191 15.8197C11.2452 15.709 11.4017 15.6392 11.5684 15.6196H11.5928H11.6172H11.667C11.817 15.6185 11.9651 15.6585 12.0938 15.7358C12.2224 15.813 12.327 15.9241 12.3965 16.0571C12.4812 16.2207 12.5085 16.4081 12.4746 16.5893C12.4407 16.7705 12.3471 16.935 12.209 17.0571C12.0556 17.1892 11.8597 17.2614 11.6572 17.2602L11.6582 17.2631ZM6.8584 17.2631C6.69186 17.2648 6.52914 17.2149 6.39258 17.1196C6.25509 17.0238 6.1491 16.8886 6.08984 16.7319C6.03059 16.5751 6.02081 16.4044 6.06055 16.2416C6.10251 16.0794 6.19173 15.9335 6.31738 15.8227C6.44303 15.7118 6.59944 15.641 6.76562 15.6196C6.79763 15.6196 6.83223 15.6137 6.86523 15.6137C7.07895 15.6221 7.28085 15.7131 7.42871 15.8676C7.57657 16.0221 7.65924 16.2279 7.6582 16.4418C7.65717 16.6557 7.57318 16.861 7.42383 17.0141C7.27448 17.1672 7.07121 17.2558 6.85742 17.2621L6.8584 17.2631ZM21.2754 12.4633C21.1101 12.4649 20.9485 12.4157 20.8125 12.3217C20.6744 12.2263 20.5681 12.091 20.5088 11.934C20.4494 11.777 20.44 11.6057 20.4805 11.4428C20.521 11.2799 20.6094 11.1328 20.7354 11.0219C20.8613 10.911 21.0188 10.8413 21.1855 10.8217C21.2186 10.8166 21.2517 10.8141 21.2852 10.8139C21.4986 10.8226 21.7002 10.9132 21.8477 11.0678C21.9951 11.2224 22.0766 11.4284 22.0752 11.642C22.0738 11.8557 21.9893 12.0607 21.8398 12.2133C21.6903 12.366 21.488 12.4545 21.2744 12.4604L21.2754 12.4633ZM16.4756 12.4633C16.3095 12.4642 16.1462 12.4151 16.0088 12.3217C15.8707 12.2263 15.7654 12.091 15.7061 11.934C15.6467 11.777 15.6362 11.6057 15.6768 11.4428C15.7173 11.2799 15.8066 11.1328 15.9326 11.0219C16.0586 10.911 16.2151 10.8413 16.3818 10.8217C16.415 10.8169 16.449 10.8144 16.4824 10.8139C16.65 10.8126 16.814 10.8626 16.9521 10.9574C17.0903 11.0523 17.196 11.1873 17.2549 11.3442C17.3138 11.501 17.3228 11.6721 17.2812 11.8344C17.2397 11.9967 17.1495 12.1421 17.0225 12.2514C16.8724 12.3858 16.678 12.4599 16.4766 12.4594L16.4756 12.4633ZM11.6562 12.4633C11.4911 12.4642 11.3297 12.415 11.1934 12.3217C11.0552 12.2263 10.949 12.091 10.8896 11.934C10.8303 11.777 10.8208 11.6057 10.8613 11.4428C10.9018 11.2799 10.9912 11.1328 11.1172 11.0219C11.2432 10.911 11.3997 10.8413 11.5664 10.8217C11.5995 10.8165 11.6325 10.814 11.666 10.8139C11.8795 10.8225 12.082 10.9133 12.2295 11.0678C12.377 11.2223 12.4583 11.4284 12.457 11.642C12.4557 11.8557 12.3711 12.0606 12.2217 12.2133C12.0723 12.366 11.8698 12.4543 11.6562 12.4604V12.4633ZM6.85645 12.4633C6.73132 12.4643 6.60775 12.4367 6.49512 12.3822C6.38248 12.3278 6.28391 12.2476 6.20703 12.1489C6.13016 12.0501 6.07699 11.9355 6.05176 11.8129C6.02653 11.6904 6.02989 11.5639 6.06152 11.4428C6.10239 11.2811 6.19057 11.1354 6.31543 11.0248C6.44029 10.9142 6.59625 10.8437 6.76172 10.8227C6.79481 10.8175 6.82784 10.8151 6.86133 10.8149C7.02882 10.8142 7.19222 10.8643 7.33008 10.9594C7.46794 11.0545 7.574 11.1893 7.63281 11.3461C7.69162 11.5029 7.7005 11.674 7.65918 11.8364C7.61786 11.9987 7.52801 12.1447 7.40137 12.2543C7.2521 12.3877 7.05858 12.4609 6.8584 12.4594L6.85645 12.4633Z" fill="black"/>
</svg>
