<svg width="672" height="47" viewBox="0 0 672 47" fill="none" xmlns="http://www.w3.org/2000/svg">
<path d="M25 26H17C15.8954 26 15 26.8954 15 28V45C15 46.1046 15.8954 47 17 47H25C26.1046 47 27 46.1046 27 45V28C27 26.8954 26.1046 26 25 26Z" fill="black"/>
<path d="M479 26H471C469.895 26 469 26.8954 469 28V45C469 46.1046 469.895 47 471 47H479C480.105 47 481 46.1046 481 45V28C481 26.8954 480.105 26 479 26Z" fill="black"/>
<path d="M143 26H134C132.895 26 132 26.8954 132 28V45C132 46.1046 132.895 47 134 47H143C144.105 47 145 46.1046 145 45V28C145 26.8954 144.105 26 143 26Z" fill="black"/>
<path d="M377 26H368C366.895 26 366 26.8954 366 28V45C366 46.1046 366.895 47 368 47H377C378.105 47 379 46.1046 379 45V28C379 26.8954 378.105 26 377 26Z" fill="black"/>
<path d="M597 26H588C586.895 26 586 26.8954 586 28V45C586 46.1046 586.895 47 588 47H597C598.105 47 599 46.1046 599 45V28C599 26.8954 598.105 26 597 26Z" fill="black"/>
<path d="M99 14H90C88.8954 14 88 14.8954 88 16V45C88 46.1046 88.8954 47 90 47H99C100.105 47 101 46.1046 101 45V16C101 14.8954 100.105 14 99 14Z" fill="black"/>
<path d="M333 14H324C322.895 14 322 14.8954 322 16V45C322 46.1046 322.895 47 324 47H333C334.105 47 335 46.1046 335 45V16C335 14.8954 334.105 14 333 14Z" fill="black"/>
<path d="M553 14H544C542.895 14 542 14.8954 542 16V45C542 46.1046 542.895 47 544 47H553C554.105 47 555 46.1046 555 45V16C555 14.8954 554.105 14 553 14Z" fill="black"/>
<path d="M216 14H207C205.895 14 205 14.8954 205 16V45C205 46.1046 205.895 47 207 47H216C217.105 47 218 46.1046 218 45V16C218 14.8954 217.105 14 216 14Z" fill="black"/>
<path d="M450 14H442C440.895 14 440 14.8954 440 16V45C440 46.1046 440.895 47 442 47H450C451.105 47 452 46.1046 452 45V16C452 14.8954 451.105 14 450 14Z" fill="black"/>
<path d="M670 14H661C659.895 14 659 14.8954 659 16V45C659 46.1046 659.895 47 661 47H670C671.105 47 672 46.1046 672 45V16C672 14.8954 671.105 14 670 14Z" fill="black"/>
<path d="M11 39H2C0.89543 39 0 39.8954 0 41V45C0 46.1046 0.89543 47 2 47H11C12.1046 47 13 46.1046 13 45V41C13 39.8954 12.1046 39 11 39Z" fill="black"/>
<path d="M245 26H236C234.895 26 234 26.8954 234 28V45C234 46.1046 234.895 47 236 47H245C246.105 47 247 46.1046 247 45V28C247 26.8954 246.105 26 245 26Z" fill="black"/>
<path d="M260 39H251C249.895 39 249 39.8954 249 41V45C249 46.1046 249.895 47 251 47H260C261.105 47 262 46.1046 262 45V41C262 39.8954 261.105 39 260 39Z" fill="black"/>
<path d="M465 39H456C454.895 39 454 39.8954 454 41V45C454 46.1046 454.895 47 456 47H465C466.105 47 467 46.1046 467 45V41C467 39.8954 466.105 39 465 39Z" fill="black"/>
<path d="M128 39H119C117.895 39 117 39.8954 117 41V45C117 46.1046 117.895 47 119 47H128C129.105 47 130 46.1046 130 45V41C130 39.8954 129.105 39 128 39Z" fill="black"/>
<path d="M362 39H354C352.895 39 352 39.8954 352 41V45C352 46.1046 352.895 47 354 47H362C363.105 47 364 46.1046 364 45V41C364 39.8954 363.105 39 362 39Z" fill="black"/>
<path d="M582 39H573C571.895 39 571 39.8954 571 41V45C571 46.1046 571.895 47 573 47H582C583.105 47 584 46.1046 584 45V41C584 39.8954 583.105 39 582 39Z" fill="black"/>
<path d="M348 39H339C337.895 39 337 39.8954 337 41V45C337 46.1046 337.895 47 339 47H348C349.105 47 350 46.1046 350 45V41C350 39.8954 349.105 39 348 39Z" fill="black"/>
<path d="M567 39H559C557.895 39 557 39.8954 557 41V45C557 46.1046 557.895 47 559 47H567C568.105 47 569 46.1046 569 45V41C569 39.8954 568.105 39 567 39Z" fill="black"/>
<path d="M230 39H222C220.895 39 220 39.8954 220 41V45C220 46.1046 220.895 47 222 47H230C231.105 47 232 46.1046 232 45V41C232 39.8954 231.105 39 230 39Z" fill="black"/>
<path d="M40 26H31C29.8954 26 29 26.8954 29 28V45C29 46.1046 29.8954 47 31 47H40C41.1046 47 42 46.1046 42 45V28C42 26.8954 41.1046 26 40 26Z" fill="black"/>
<path d="M274 26H266C264.895 26 264 26.8954 264 28V45C264 46.1046 264.895 47 266 47H274C275.105 47 276 46.1046 276 45V28C276 26.8954 275.105 26 274 26Z" fill="black"/>
<path d="M494 26H486C484.895 26 484 26.8954 484 28V45C484 46.1046 484.895 47 486 47H494C495.105 47 496 46.1046 496 45V28C496 26.8954 495.105 26 494 26Z" fill="black"/>
<path d="M157 26H149C147.895 26 147 26.8954 147 28V45C147 46.1046 147.895 47 149 47H157C158.105 47 159 46.1046 159 45V28C159 26.8954 158.105 26 157 26Z" fill="black"/>
<path d="M392 26H383C381.895 26 381 26.8954 381 28V45C381 46.1046 381.895 47 383 47H392C393.105 47 394 46.1046 394 45V28C394 26.8954 393.105 26 392 26Z" fill="black"/>
<path d="M611 26H603C601.895 26 601 26.8954 601 28V45C601 46.1046 601.895 47 603 47H611C612.105 47 613 46.1046 613 45V28C613 26.8954 612.105 26 611 26Z" fill="black"/>
<path d="M84 26H75C73.8954 26 73 26.8954 73 28V45C73 46.1046 73.8954 47 75 47H84C85.1046 47 86 46.1046 86 45V28C86 26.8954 85.1046 26 84 26Z" fill="black"/>
<path d="M318 26H310C308.895 26 308 26.8954 308 28V45C308 46.1046 308.895 47 310 47H318C319.105 47 320 46.1046 320 45V28C320 26.8954 319.105 26 318 26Z" fill="black"/>
<path d="M538 26H530C528.895 26 528 26.8954 528 28V45C528 46.1046 528.895 47 530 47H538C539.105 47 540 46.1046 540 45V28C540 26.8954 539.105 26 538 26Z" fill="black"/>
<path d="M201 26H193C191.895 26 191 26.8954 191 28V45C191 46.1046 191.895 47 193 47H201C202.105 47 203 46.1046 203 45V28C203 26.8954 202.105 26 201 26Z" fill="black"/>
<path d="M436 26H427C425.895 26 425 26.8954 425 28V45C425 46.1046 425.895 47 427 47H436C437.105 47 438 46.1046 438 45V28C438 26.8954 437.105 26 436 26Z" fill="black"/>
<path d="M655 26H647C645.895 26 645 26.8954 645 28V45C645 46.1046 645.895 47 647 47H655C656.105 47 657 46.1046 657 45V28C657 26.8954 656.105 26 655 26Z" fill="black"/>
<path d="M55 39H46C44.8954 39 44 39.8954 44 41V45C44 46.1046 44.8954 47 46 47H55C56.1046 47 57 46.1046 57 45V41C57 39.8954 56.1046 39 55 39Z" fill="black"/>
<path d="M113 0H105C103.895 0 103 0.89543 103 2V45C103 46.1046 103.895 47 105 47H113C114.105 47 115 46.1046 115 45V2C115 0.89543 114.105 0 113 0Z" fill="black"/>
<path d="M289 0H280C278.895 0 278 0.89543 278 2V45C278 46.1046 278.895 47 280 47H289C290.105 47 291 46.1046 291 45V2C291 0.89543 290.105 0 289 0Z" fill="black"/>
<path d="M509 0H500C498.895 0 498 0.89543 498 2V45C498 46.1046 498.895 47 500 47H509C510.105 47 511 46.1046 511 45V2C511 0.89543 510.105 0 509 0Z" fill="black"/>
<path d="M172 0H163C161.895 0 161 0.89543 161 2V45C161 46.1046 161.895 47 163 47H172C173.105 47 174 46.1046 174 45V2C174 0.89543 173.105 0 172 0Z" fill="black"/>
<path d="M406 0H398C396.895 0 396 0.89543 396 2V45C396 46.1046 396.895 47 398 47H406C407.105 47 408 46.1046 408 45V2C408 0.89543 407.105 0 406 0Z" fill="black"/>
<path d="M626 0H617C615.895 0 615 0.89543 615 2V45C615 46.1046 615.895 47 617 47H626C627.105 47 628 46.1046 628 45V2C628 0.89543 627.105 0 626 0Z" fill="black"/>
<path d="M69 6H61C59.8954 6 59 6.89543 59 8V45C59 46.1046 59.8954 47 61 47H69C70.1046 47 71 46.1046 71 45V8C71 6.89543 70.1046 6 69 6Z" fill="black"/>
<path d="M304 6H295C293.895 6 293 6.89543 293 8V45C293 46.1046 293.895 47 295 47H304C305.105 47 306 46.1046 306 45V8C306 6.89543 305.105 6 304 6Z" fill="black"/>
<path d="M523 6H515C513.895 6 513 6.89543 513 8V45C513 46.1046 513.895 47 515 47H523C524.105 47 525 46.1046 525 45V8C525 6.89543 524.105 6 523 6Z" fill="black"/>
<path d="M186 6H178C176.895 6 176 6.89543 176 8V45C176 46.1046 176.895 47 178 47H186C187.105 47 188 46.1046 188 45V8C188 6.89543 187.105 6 186 6Z" fill="black"/>
<path d="M421 6H412C410.895 6 410 6.89543 410 8V45C410 46.1046 410.895 47 412 47H421C422.105 47 423 46.1046 423 45V8C423 6.89543 422.105 6 421 6Z" fill="black"/>
<path d="M641 6H632C630.895 6 630 6.89543 630 8V45C630 46.1046 630.895 47 632 47H641C642.105 47 643 46.1046 643 45V8C643 6.89543 642.105 6 641 6Z" fill="black"/>
</svg>
