<svg width="30" height="29" viewBox="0 0 30 29" fill="none" xmlns="http://www.w3.org/2000/svg">
<path d="M4.51724 24.7537C2.14491 22.3818 0.668615 19.2611 0.339503 15.9226C0.0103902 12.5841 0.849032 9.23453 2.71255 6.44506C4.57607 3.65559 7.34909 1.59882 10.5592 0.624748C13.7694 -0.349323 17.2176 -0.180273 20.317 1.10326C23.4165 2.3868 25.9747 4.70537 27.5563 7.66381C29.1379 10.6222 29.6451 14.0376 28.9909 17.3279C28.3366 20.6181 26.5615 23.5794 23.9684 25.7078C21.3754 27.8361 18.1248 28.9995 14.7702 28.9997C12.8654 29.0047 10.9783 28.6319 9.21841 27.9031C7.45853 27.1743 5.86082 26.1039 4.51724 24.7537ZM1.76919 14.4997C1.76919 17.0709 2.53116 19.5846 3.95962 21.7224C5.38808 23.8602 7.41914 25.5266 9.79458 26.5105C12.17 27.4944 14.7836 27.7514 17.3053 27.2497C19.8271 26.7481 22.1435 25.5102 23.9616 23.6921C25.7797 21.874 27.0176 19.5576 27.5192 17.0359C28.0208 14.5141 27.7639 11.9006 26.7799 9.52514C25.796 7.1497 24.1297 5.11864 21.9918 3.69018C19.854 2.26172 17.3403 1.49975 14.7692 1.49975C11.3229 1.50451 8.01945 2.87528 5.58267 5.31225C3.14588 7.74922 1.77369 11.0535 1.76919 14.4997ZM13.6315 22.8494C13.5975 22.2404 13.587 22.2084 13.445 22.1394L13.3454 22.0935C12.0894 21.4935 12.0892 21.4935 11.6032 21.0095L11.5749 20.9802C11.1054 20.5673 10.7509 20.0389 10.5465 19.448C10.3421 18.8571 10.2948 18.2239 10.4088 17.6091C10.4662 17.4511 10.5708 17.3148 10.7086 17.2185C10.8464 17.1222 11.0112 17.0706 11.1793 17.071H11.2204C11.7824 17.071 12.0746 17.419 12.1676 18.196C12.2211 18.7227 12.4446 19.217 12.8043 19.6052C13.1641 19.9935 13.6398 20.2541 14.1608 20.3474C14.6818 20.4407 15.2199 20.362 15.692 20.1228C16.1642 19.8836 16.545 19.4975 16.778 19.0222C17.0449 18.3476 17.0449 17.5962 16.778 16.9216C16.5765 16.5061 16.2622 16.1558 15.8708 15.9109C15.4793 15.6659 15.0268 15.5364 14.5651 15.5369H14.4821C13.6094 15.4772 12.7718 15.1702 12.067 14.6521C11.3623 14.134 10.8199 13.4263 10.5026 12.6111C10.2373 11.8567 10.1963 11.0414 10.3854 10.2644C10.5745 9.48742 10.9848 8.78228 11.567 8.23412L11.6002 8.20385C12.0812 7.71785 12.0815 7.71786 13.3375 7.11986L13.4323 7.07397C13.5743 7.00797 13.5837 6.96612 13.6217 6.35912C13.6737 5.53812 14.0338 5.00658 14.5358 5.00658C14.7481 5.01439 14.9522 5.09103 15.1168 5.22533C15.4078 5.44433 15.4929 5.67896 15.5309 6.36596C15.5669 6.97596 15.5754 7.0099 15.7174 7.0769L15.817 7.12279C17.073 7.72279 17.0732 7.7228 17.5592 8.2058L17.5875 8.23705C18.0573 8.64982 18.4111 9.17742 18.6159 9.7683C18.8206 10.3592 18.8692 10.9932 18.7555 11.6081C18.6964 11.7652 18.5904 11.9 18.4528 11.9958C18.3151 12.0917 18.1518 12.1433 17.984 12.1443H17.9479C17.3869 12.1443 17.0938 11.7916 16.9928 11.0046C16.936 10.4801 16.7108 9.98856 16.3502 9.60326C15.9897 9.21797 15.5134 8.95948 14.9938 8.86791C14.4742 8.77634 13.9389 8.8566 13.4684 9.09545C12.9979 9.33431 12.6182 9.71957 12.3854 10.1931C12.1868 10.6513 12.1261 11.1572 12.2116 11.6492C12.297 12.1412 12.5244 12.5973 12.8659 12.9617C13.3294 13.4209 13.9555 13.6787 14.6081 13.6794H14.6803C15.5531 13.7389 16.3905 14.046 17.0954 14.5642C17.8002 15.0824 18.3428 15.7909 18.6598 16.6062C18.9251 17.3606 18.9661 18.1749 18.777 18.9519C18.588 19.7289 18.1776 20.435 17.5954 20.9831L17.5622 21.0154C17.0812 21.5014 17.081 21.5014 15.82 22.0984L15.7272 22.1423C15.5852 22.2113 15.5758 22.2511 15.5368 22.8611C15.4798 23.8001 15.2105 24.1609 14.5885 24.1609C13.9665 24.1609 13.6855 23.7804 13.6315 22.8494Z" fill="black"/>
</svg>
