<svg width="30" height="30" viewBox="0 0 30 30" fill="none" xmlns="http://www.w3.org/2000/svg">
<path d="M4.29411 25.0579C2.94087 23.713 1.86637 22.1142 1.13219 20.3532C0.398001 18.5922 0.018571 16.7036 0.0156421 14.7957C0.0127131 12.8878 0.386343 10.9981 1.11512 9.23481C1.84389 7.47157 2.91348 5.86949 4.26258 4.52039C5.61168 3.17129 7.21376 2.1017 8.977 1.37293C10.7402 0.644155 12.63 0.270526 14.5379 0.273455C16.4458 0.276384 18.3344 0.655814 20.0954 1.39C21.8564 2.12418 23.4552 3.19868 24.8001 4.55192C26.1533 5.89687 27.2278 7.49566 27.962 9.25665C28.6962 11.0177 29.0756 12.9062 29.0786 14.8141C29.0815 16.722 28.7079 18.6118 27.9791 20.375C27.2503 22.1383 26.1807 23.7403 24.8316 25.0894C23.4825 26.4385 21.8805 27.5081 20.1172 28.2369C18.354 28.9657 16.4642 29.3393 14.5563 29.3364C12.6484 29.3335 10.7598 28.954 8.99884 28.2198C7.23785 27.4857 5.63906 26.4112 4.29411 25.0579ZM1.54711 14.8049C1.54711 17.3761 2.30954 19.8895 3.738 22.0273C5.16646 24.1652 7.19678 25.8314 9.57222 26.8154C11.9477 27.7993 14.5615 28.0567 17.0833 27.5551C19.605 27.0535 21.9214 25.8154 23.7395 23.9973C25.5576 22.1792 26.7957 19.8628 27.2973 17.3411C27.7989 14.8193 27.5415 12.2055 26.5575 9.83003C25.5736 7.45459 23.9074 5.42427 21.7695 3.99581C19.6317 2.56735 17.1183 1.80492 14.5471 1.80492C11.1007 1.80942 7.79668 3.1805 5.35969 5.6175C2.92269 8.0545 1.5516 11.3585 1.54711 14.8049ZM18.9121 22.1249C18.6611 22.0529 14.5351 18.3859 13.0251 16.8929L12.0371 15.9109V11.8159C12.0371 7.87992 12.0371 7.87992 12.7051 7.59692L12.7541 7.57592C12.9227 7.49065 13.111 7.45155 13.2996 7.46262C13.4882 7.47369 13.6706 7.53451 13.8281 7.63892L13.8411 7.64792C14.3761 7.96192 14.3761 7.96192 14.4071 11.6559V11.7459L14.4391 15.2609L17.3391 17.9119C18.9391 19.3729 20.2891 20.6729 20.3461 20.8119C20.388 20.9942 20.3798 21.1844 20.3224 21.3623C20.265 21.5403 20.1606 21.6995 20.0201 21.8229C19.782 22.0349 19.4739 22.1514 19.1551 22.1499C19.0729 22.1489 18.9909 22.1406 18.9101 22.1249H18.9121Z" fill="black"/>
</svg>
