<svg width="57" height="57" viewBox="0 0 57 57" fill="none" xmlns="http://www.w3.org/2000/svg">
<path opacity="0.1" d="M40.4805 0.5H16.4805C7.64391 0.5 0.480469 7.66344 0.480469 16.5V40.5C0.480469 49.3366 7.64391 56.5 16.4805 56.5H40.4805C49.317 56.5 56.4805 49.3366 56.4805 40.5V16.5C56.4805 7.66344 49.317 0.5 40.4805 0.5Z" fill="#3A4B4C"/>
<path d="M28.9216 17.4766C27.0613 17.4766 25.2427 18.0282 23.6959 19.0618C22.1491 20.0953 20.9435 21.5643 20.2316 23.283C19.5197 25.0018 19.3334 26.893 19.6964 28.7176C20.0593 30.5422 20.9551 32.2182 22.2706 33.5336C23.586 34.8491 25.262 35.7449 27.0866 36.1078C28.9112 36.4708 30.8024 36.2845 32.5212 35.5726C34.2399 34.8607 35.7089 33.6551 36.7424 32.1083C37.776 30.5614 38.3276 28.7429 38.3276 26.8826C38.3276 25.6473 38.0843 24.4242 37.6116 23.283C37.1389 22.1419 36.4461 21.1049 35.5727 20.2315C34.6992 19.3581 33.6623 18.6652 32.5212 18.1926C31.38 17.7199 30.1568 17.4766 28.9216 17.4766ZM28.9216 34.5886C27.3975 34.5886 25.9077 34.1366 24.6404 33.2899C23.3732 32.4431 22.3855 31.2396 21.8022 29.8315C21.219 28.4234 21.0664 26.874 21.3637 25.3792C21.661 23.8844 22.395 22.5113 23.4727 21.4336C24.5504 20.3559 25.9234 19.622 27.4183 19.3246C28.9131 19.0273 30.4625 19.1799 31.8706 19.7631C33.2787 20.3464 34.4822 21.3341 35.3289 22.6013C36.1757 23.8686 36.6276 25.3585 36.6276 26.8826C36.6276 27.8945 36.4283 28.8966 36.041 29.8315C35.6538 30.7665 35.0862 31.616 34.3706 32.3315C33.655 33.0471 32.8055 33.6147 31.8706 34.002C30.9357 34.3892 29.9336 34.5886 28.9216 34.5886Z" fill="#3A4B4C"/>
<path d="M38.4266 17.4368C36.9495 15.9599 35.1486 14.8475 33.1667 14.1879C31.1848 13.5283 29.0765 13.3396 27.0089 13.6368C24.9414 13.9339 22.9715 14.7088 21.2557 15.9C19.5398 17.0911 18.1251 18.6657 17.1238 20.4988C16.1225 22.332 15.5621 24.3732 15.4872 26.4607C15.4122 28.5481 15.8248 30.6243 16.692 32.5245C17.5593 34.4248 18.8574 36.0968 20.4835 37.4079C22.1095 38.719 24.0187 39.6331 26.0596 40.0778L28.9236 43.8928L31.7876 40.0768C34.1454 39.5623 36.3213 38.4225 38.0867 36.7772C39.8522 35.1318 41.1422 33.0415 41.8213 30.7257C42.5003 28.4099 42.5435 25.954 41.9462 23.6158C41.3489 21.2775 40.1332 19.1432 38.4266 17.4368ZM31.1066 38.3938L30.7656 38.4578L28.9196 40.9188L27.0736 38.4568L26.7336 38.3928C23.8832 37.8488 21.3381 36.2613 19.5959 33.9406C17.8537 31.6199 17.0397 28.7329 17.3129 25.8439C17.5861 22.9549 18.927 20.2717 21.0733 18.3187C23.2197 16.3658 26.0172 15.2835 28.9191 15.2835C31.821 15.2835 34.6186 16.3658 36.7649 18.3187C38.9113 20.2717 40.2521 22.9549 40.5253 25.8439C40.7986 28.7329 39.9845 31.6199 38.2423 33.9406C36.5001 36.2613 33.955 37.8488 31.1046 38.3928L31.1066 38.3938Z" fill="#3A4B4C"/>
</svg>
