<svg width="62" height="62" viewBox="0 0 62 62" fill="none" xmlns="http://www.w3.org/2000/svg">
<path fill-rule="evenodd" clip-rule="evenodd" d="M43.875 21.125H40.7812L39.75 19.0625C39.1426 17.8632 38.826 17 37.6875 17H25.3125C24.174 17 23.7966 17.9838 23.25 19.0625L22.2188 21.125H19.125C16.847 21.125 15 22.972 15 25.25V41.75C15 44.028 16.847 45.875 19.125 45.875H43.875C46.153 45.875 48 44.028 48 41.75V25.25C48 22.972 46.153 21.125 43.875 21.125ZM31.5 41.75C26.9439 41.75 23.25 38.0561 23.25 33.5C23.25 28.9439 26.9439 25.25 31.5 25.25C36.0561 25.25 39.75 28.9439 39.75 33.5C39.75 38.0561 36.0561 41.75 31.5 41.75ZM31.5 27.3125C28.0835 27.3125 25.3125 30.0835 25.3125 33.5C25.3125 36.9165 28.0835 39.6875 31.5 39.6875C34.9165 39.6875 37.6875 36.9165 37.6875 33.5C37.6875 30.0835 34.9165 27.3125 31.5 27.3125Z" fill="#3A4B4C"/>
<path d="M61.3243 31.1622C61.3243 14.5041 47.8203 1 31.1622 1C14.5041 1 1 14.5041 1 31.1622C1 47.8203 14.5041 61.3243 31.1622 61.3243C47.8203 61.3243 61.3243 47.8203 61.3243 31.1622Z" stroke="#B1B1B1"/>
</svg>
