<svg width="22" height="22" viewBox="0 0 22 22" fill="none" xmlns="http://www.w3.org/2000/svg">
<path fill-rule="evenodd" clip-rule="evenodd" d="M0 10.5968C0 7.78635 1.11645 5.09102 3.10373 3.10373C5.09102 1.11645 7.78635 0 10.5968 0C13.4072 0 16.1026 1.11645 18.0899 3.10373C20.0772 5.09102 21.1936 7.78635 21.1936 10.5968C21.1936 13.4072 20.0772 16.1026 18.0899 18.0899C16.1026 20.0772 13.4072 21.1936 10.5968 21.1936C7.78635 21.1936 5.09102 20.0772 3.10373 18.0899C1.11645 16.1026 0 13.4072 0 10.5968ZM10.5968 1.52C8.18948 1.52 5.88076 2.4763 4.17853 4.17853C2.4763 5.88076 1.52 8.18948 1.52 10.5968C1.52 13.0041 2.4763 15.3128 4.17853 17.0151C5.88076 18.7173 8.18948 19.6736 10.5968 19.6736C13.0041 19.6736 15.3128 18.7173 17.0151 17.0151C18.7173 15.3128 19.6736 13.0041 19.6736 10.5968C19.6736 8.18948 18.7173 5.88076 17.0151 4.17853C15.3128 2.4763 13.0041 1.52 10.5968 1.52ZM14.3632 6.832C14.5132 6.98202 14.5974 7.18547 14.5974 7.3976C14.5974 7.60973 14.5132 7.81318 14.3632 7.9632L11.728 10.5968L14.3632 13.2304C14.5134 13.3806 14.5978 13.5844 14.5978 13.7968C14.5978 14.0092 14.5134 14.213 14.3632 14.3632C14.213 14.5134 14.0092 14.5978 13.7968 14.5978C13.5844 14.5978 13.3806 14.5134 13.2304 14.3632L10.5968 11.728L7.9632 14.3632C7.88882 14.4376 7.80052 14.4966 7.70333 14.5368C7.60615 14.5771 7.50199 14.5978 7.3968 14.5978C7.29161 14.5978 7.18745 14.5771 7.09027 14.5368C6.99308 14.4966 6.90478 14.4376 6.8304 14.3632C6.75602 14.2888 6.69702 14.2005 6.65676 14.1033C6.61651 14.0062 6.59579 13.902 6.59579 13.7968C6.59579 13.6916 6.61651 13.5875 6.65676 13.4903C6.69702 13.3931 6.75602 13.3048 6.8304 13.2304L9.4656 10.5968L6.8304 7.9632C6.68018 7.81298 6.59579 7.60924 6.59579 7.3968C6.59579 7.18436 6.68018 6.98062 6.8304 6.8304C6.98062 6.68018 7.18436 6.59579 7.3968 6.59579C7.60924 6.59579 7.81298 6.68018 7.9632 6.8304L10.5968 9.4656L13.2304 6.8304C13.3047 6.7559 13.393 6.69679 13.4902 6.65646C13.5874 6.61613 13.6916 6.59537 13.7968 6.59537C13.902 6.59537 14.0062 6.61613 14.1034 6.65646C14.2006 6.69679 14.2889 6.7575 14.3632 6.832Z" fill="#FF0000"/>
</svg>
