<svg width="22" height="22" viewBox="0 0 22 22" fill="none" xmlns="http://www.w3.org/2000/svg">
<path fill-rule="evenodd" clip-rule="evenodd" d="M2.85712 10.617C2.95193 10.7768 3.07762 10.9805 3.23333 11.2157C3.63327 11.8199 4.22555 12.6233 4.99448 13.4234C6.54818 15.0403 8.72041 16.5413 11.4101 16.5413C14.0998 16.5413 16.2721 15.0403 17.8258 13.4234C18.5947 12.6233 19.187 11.8199 19.5869 11.2157C19.7426 10.9805 19.8683 10.7768 19.9631 10.617C19.8683 10.4571 19.7426 10.2534 19.5869 10.0182C19.187 9.41407 18.5947 8.61066 17.8258 7.81049C16.2721 6.19368 14.0998 4.69266 11.4101 4.69266C8.72041 4.69266 6.54818 6.19368 4.99448 7.81049C4.22555 8.61066 3.63327 9.41407 3.23333 10.0182C3.07762 10.2534 2.95193 10.4571 2.85712 10.617ZM20.9527 10.617C21.7287 10.2385 21.7285 10.2382 21.7284 10.2379L21.727 10.2352L21.724 10.2294L21.7141 10.2106C21.7058 10.1949 21.6941 10.1729 21.6791 10.1451C21.6489 10.0894 21.6051 10.0103 21.5479 9.91112C21.4335 9.71278 21.2652 9.43339 21.0444 9.0999C20.6039 8.43455 19.9492 7.54529 19.0915 6.65281C17.3921 4.8843 14.793 3 11.4101 3C8.02726 3 5.42819 4.8843 3.72872 6.65281C2.87108 7.54529 2.21631 8.43455 1.77585 9.0999C1.55508 9.43339 1.38673 9.71278 1.27237 9.91112C1.21516 10.0103 1.17137 10.0894 1.14119 10.1451C1.1261 10.1729 1.1144 10.1949 1.10613 10.2106L1.09629 10.2294L1.09329 10.2352L1.09228 10.2371C1.09212 10.2374 1.09159 10.2385 1.86751 10.617L1.09159 10.2385C0.969471 10.4767 0.969471 10.7572 1.09159 10.9955L1.86751 10.617C1.09159 10.9955 1.09143 10.9951 1.09159 10.9955L1.09228 10.9968L1.09329 10.9988L1.09629 11.0046L1.10613 11.0234C1.1144 11.0391 1.1261 11.061 1.14119 11.0888C1.17137 11.1445 1.21516 11.2236 1.27237 11.3228C1.38673 11.5212 1.55508 11.8005 1.77585 12.134C2.21631 12.7994 2.87108 13.6886 3.72872 14.5811C5.42819 16.3496 8.02726 18.2339 11.4101 18.2339C14.793 18.2339 17.3921 16.3496 19.0915 14.5811C19.9492 13.6886 20.6039 12.7994 21.0444 12.134C21.2652 11.8005 21.4335 11.5212 21.5479 11.3228C21.6051 11.2236 21.6489 11.1445 21.6791 11.0888C21.6941 11.061 21.7058 11.0391 21.7141 11.0234L21.724 11.0046L21.727 10.9988L21.728 10.9968C21.7281 10.9965 21.7287 10.9955 20.9527 10.617ZM20.9527 10.617L21.7287 10.9955C21.8508 10.7572 21.8505 10.4761 21.7284 10.2379L20.9527 10.617ZM11.4101 8.92432C10.4519 8.92432 9.67512 9.68215 9.67512 10.617C9.67512 11.5518 10.4519 12.3096 11.4101 12.3096C12.3684 12.3096 13.1452 11.5518 13.1452 10.617C13.1452 9.68215 12.3684 8.92432 11.4101 8.92432ZM7.9401 10.617C7.9401 8.74732 9.49369 7.23166 11.4101 7.23166C13.3266 7.23166 14.8802 8.74732 14.8802 10.617C14.8802 12.4866 13.3266 14.0023 11.4101 14.0023C9.49369 14.0023 7.9401 12.4866 7.9401 10.617Z" fill="#333333"/>
<path d="M1 21L21 1" stroke="#333333" stroke-width="1.4" stroke-linecap="round" stroke-linejoin="round"/>
</svg>
