<svg width="40" height="40" viewBox="0 0 40 40" fill="none" xmlns="http://www.w3.org/2000/svg">
<g clip-path="url(#clip0_3_200765)">
<path d="M39.0581 20.1337C39.0581 18.5143 38.9267 17.3325 38.6423 16.1069H20.1494V23.4164H31.0043C30.7855 25.233 29.6037 27.9686 26.9775 29.8068L26.9407 30.0516L32.7878 34.5812L33.1929 34.6217C36.9133 31.1857 39.0581 26.1302 39.0581 20.1337Z" fill="#4285F4"/>
<path d="M20.1493 39.393C25.4673 39.393 29.9318 37.6421 33.1928 34.6221L26.9774 29.8073C25.3142 30.9672 23.0818 31.7769 20.1493 31.7769C14.9407 31.7769 10.52 28.3411 8.9441 23.592L8.71312 23.6117L2.63322 28.3169L2.55371 28.538C5.79266 34.9721 12.4457 39.393 20.1493 39.393Z" fill="#34A853"/>
<path d="M8.9454 23.5923C8.5296 22.3667 8.28895 21.0535 8.28895 19.6967C8.28895 18.3398 8.5296 17.0267 8.92353 15.8012L8.91251 15.5402L2.75643 10.7593L2.55501 10.8551C1.22009 13.5251 0.454102 16.5234 0.454102 19.6967C0.454102 22.87 1.22009 25.8682 2.55501 28.5382L8.9454 23.5923Z" fill="#FBBC05"/>
<path d="M20.1493 7.61594C23.8478 7.61594 26.3427 9.21353 27.7653 10.5486L33.324 5.12109C29.9101 1.94778 25.4673 0 20.1493 0C12.4457 0 5.79266 4.42074 2.55371 10.8549L8.92223 15.801C10.52 11.0519 14.9407 7.61594 20.1493 7.61594Z" fill="#EB4335"/>
</g>
<defs>
<clipPath id="clip0_3_200765">
<rect width="39.5288" height="39.5288" fill="white"/>
</clipPath>
</defs>
</svg>
