<svg width="52" height="52" viewBox="0 0 52 52" fill="none" xmlns="http://www.w3.org/2000/svg">
<circle cx="26" cy="26" r="26" fill="#3A4B4C"/>
<path d="M25.4996 27.2732C25.0383 27.2749 24.5903 27.4183 24.2246 27.6813C23.8588 27.9443 23.5955 28.3125 23.4752 28.7291C23.3549 29.1457 23.3842 29.5878 23.5586 29.9873C23.7329 30.3868 24.0428 30.7217 24.4404 30.9405V33.7499H26.5846V30.9405C26.8992 30.7664 27.1603 30.5191 27.3425 30.2227C27.5247 29.9263 27.6218 29.5908 27.6244 29.2489V29.2489C27.6244 28.9884 27.5693 28.7305 27.4624 28.49C27.3554 28.2495 27.1987 28.0312 27.0012 27.8476C26.8038 27.664 26.5694 27.5187 26.3117 27.4201C26.054 27.3216 25.778 27.2716 25.4996 27.2732V27.2732Z" stroke="white" stroke-width="1.5" stroke-linecap="round" stroke-linejoin="round"/>
<path d="M33.4376 22.7361H17.5566C16.0157 22.7361 14.7666 23.9046 14.7666 25.3461V35.6713C14.7666 37.1128 16.0157 38.2813 17.5566 38.2813H33.4376C34.9785 38.2813 36.2276 37.1128 36.2276 35.6713V25.3461C36.2276 23.9046 34.9785 22.7361 33.4376 22.7361Z" stroke="white" stroke-width="2" stroke-linecap="round" stroke-linejoin="round"/>
<path d="M18.6221 22.736V21.1592C18.6221 19.4511 19.3474 17.8129 20.6385 16.6051C21.9296 15.3973 23.6807 14.7188 25.5067 14.7188C27.3326 14.7188 29.0837 15.3973 30.3748 16.6051C31.6659 17.8129 32.3912 19.4511 32.3912 21.1592V22.736" stroke="white" stroke-width="2" stroke-linecap="round" stroke-linejoin="round"/>
</svg>
