<svg width="121" height="121" viewBox="0 0 121 121" fill="none" xmlns="http://www.w3.org/2000/svg">
<g filter="url(#filter0_d_6_332224)">
<circle cx="60" cy="60" r="50" fill="white"/>
<path d="M60.5 10C73.8934 10 86.7383 15.3205 96.2089 24.7911C105.679 34.2617 111 47.1066 111 60.5C111 73.8934 105.679 86.7383 96.2089 96.2089C86.7383 105.679 73.8934 111 60.5 111C47.1066 111 34.2617 105.679 24.7911 96.2089C15.3205 86.7383 10 73.8934 10 60.5C10 47.1066 15.3205 34.2617 24.7911 24.7911C34.2617 15.3205 47.1066 10 60.5 10ZM60.5 31.6429C59.5841 31.6421 58.6781 31.8323 57.8398 32.2015C57.0016 32.5706 56.2495 33.1105 55.6317 33.7867C55.0139 34.4629 54.5439 35.2605 54.2518 36.1286C53.9596 36.9967 53.8517 37.9162 53.935 38.8283L56.5682 67.7287C56.6703 68.7004 57.1286 69.5998 57.8546 70.2535C58.5806 70.9073 59.523 71.269 60.5 71.269C61.477 71.269 62.4194 70.9073 63.1454 70.2535C63.8714 69.5998 64.3297 68.7004 64.4318 67.7287L67.0578 38.8283C67.141 37.9168 67.0333 36.9979 66.7416 36.1303C66.4499 35.2627 65.9805 34.4655 65.3635 33.7894C64.7465 33.1133 63.9953 32.5732 63.1579 32.2037C62.3205 31.8341 61.4153 31.6431 60.5 31.6429ZM60.5 89.3571C62.0307 89.3571 63.4987 88.7491 64.581 87.6667C65.6634 86.5844 66.2714 85.1164 66.2714 83.5857C66.2714 82.055 65.6634 80.5871 64.581 79.5047C63.4987 78.4223 62.0307 77.8143 60.5 77.8143C58.9693 77.8143 57.5013 78.4223 56.419 79.5047C55.3366 80.5871 54.7286 82.055 54.7286 83.5857C54.7286 85.1164 55.3366 86.5844 56.419 87.6667C57.5013 88.7491 58.9693 89.3571 60.5 89.3571Z" fill="#4AEAB1"/>
</g>
<defs>
<filter id="filter0_d_6_332224" x="0" y="0" width="121" height="121" filterUnits="userSpaceOnUse" color-interpolation-filters="sRGB">
<feFlood flood-opacity="0" result="BackgroundImageFix"/>
<feColorMatrix in="SourceAlpha" type="matrix" values="0 0 0 0 0 0 0 0 0 0 0 0 0 0 0 0 0 0 127 0" result="hardAlpha"/>
<feOffset/>
<feGaussianBlur stdDeviation="5"/>
<feComposite in2="hardAlpha" operator="out"/>
<feColorMatrix type="matrix" values="0 0 0 0 0 0 0 0 0 0 0 0 0 0 0 0 0 0 0.25 0"/>
<feBlend mode="normal" in2="BackgroundImageFix" result="effect1_dropShadow_6_332224"/>
<feBlend mode="normal" in="SourceGraphic" in2="effect1_dropShadow_6_332224" result="shape"/>
</filter>
</defs>
</svg>
