<svg width="52" height="52" viewBox="0 0 52 52" fill="none" xmlns="http://www.w3.org/2000/svg">
<circle cx="26" cy="26" r="26" fill="#3A4B4C"/>
<path d="M37.1429 17L14.8571 17C14.383 17 14 17.3656 14 17.8182L14 34.1818C14 34.6344 14.383 35 14.8571 35L37.1429 35C37.617 35 38 34.6344 38 34.1818L38 17.8182C38 17.3656 37.617 17 37.1429 17ZM36.0714 19.833L36.0714 33.1591L15.9286 33.1591L15.9286 19.833L15.1893 19.2832L16.242 17.992L17.3884 18.8435L34.6143 18.8435L35.7607 17.992L36.8134 19.2832L36.0714 19.833ZM34.6143 18.8409L26 25.233L17.3857 18.8409L16.2393 17.9895L15.1866 19.2807L15.9259 19.8304L25.0759 26.6213C25.339 26.8164 25.6628 26.9224 25.996 26.9224C26.3292 26.9224 26.6529 26.8164 26.9161 26.6213L36.0714 19.833L36.8107 19.2832L35.758 17.992L34.6143 18.8409Z" fill="white"/>
</svg>
