<svg width="120" height="121" viewBox="0 0 120 121" fill="none" xmlns="http://www.w3.org/2000/svg">
<g filter="url(#filter0_d_3_40550)">
<circle cx="60" cy="60" r="40" fill="#4AEAB1"/>
<path d="M60 10C32.4 10 10 32.624 10 60.5C10 88.376 32.4 111 60 111C87.6 111 110 88.376 110 60.5C110 32.624 87.6 10 60 10ZM60 85.75C57.25 85.75 55 83.4775 55 80.7V60.5C55 57.7225 57.25 55.45 60 55.45C62.75 55.45 65 57.7225 65 60.5V80.7C65 83.4775 62.75 85.75 60 85.75ZM65 45.35H55V35.25H65V45.35Z" fill="white"/>
</g>
<defs>
<filter id="filter0_d_3_40550" x="0" y="0" width="120" height="121" filterUnits="userSpaceOnUse" color-interpolation-filters="sRGB">
<feFlood flood-opacity="0" result="BackgroundImageFix"/>
<feColorMatrix in="SourceAlpha" type="matrix" values="0 0 0 0 0 0 0 0 0 0 0 0 0 0 0 0 0 0 127 0" result="hardAlpha"/>
<feOffset/>
<feGaussianBlur stdDeviation="5"/>
<feComposite in2="hardAlpha" operator="out"/>
<feColorMatrix type="matrix" values="0 0 0 0 0 0 0 0 0 0 0 0 0 0 0 0 0 0 0.25 0"/>
<feBlend mode="normal" in2="BackgroundImageFix" result="effect1_dropShadow_3_40550"/>
<feBlend mode="normal" in="SourceGraphic" in2="effect1_dropShadow_3_40550" result="shape"/>
</filter>
</defs>
</svg>
