<svg width="62" height="62" viewBox="0 0 62 62" fill="none" xmlns="http://www.w3.org/2000/svg">
<path d="M61.3243 31.1622C61.3243 14.5041 47.8203 1 31.1622 1C14.5041 1 1 14.5041 1 31.1622C1 47.8203 14.5041 61.3243 31.1622 61.3243C47.8203 61.3243 61.3243 47.8203 61.3243 31.1622Z" stroke="#B1B1B1"/>
<path d="M29.4298 44.875H21.1364C18.3412 44.875 15.9533 43.9604 13.9727 42.1311C11.9909 40.3018 11 38.066 11 35.4236C11 33.1588 11.7218 31.1408 13.1655 29.3695C14.6092 27.5983 16.4982 26.4659 18.8326 25.9723C19.6006 23.3009 21.1364 21.1377 23.4401 19.4826C25.7438 17.8275 28.3547 17 31.2727 17C34.8665 17 37.9148 18.1829 40.4176 20.5488C42.9216 22.9159 44.1736 25.798 44.1736 29.1953C46.293 29.4276 48.0518 30.2912 49.45 31.7859C50.847 33.2819 51.5455 35.0316 51.5455 37.0352C51.5455 39.2129 50.7395 41.0643 49.1275 42.5893C47.5143 44.1131 45.5558 44.875 43.2521 44.875H33.1157V32.4184L36.0645 35.1188L38.6446 32.6797L31.2727 25.7109L23.9008 32.6797L26.481 35.1188L29.4298 32.4184V44.875Z" fill="#3A4B4C"/>
</svg>
