<svg width="10" height="16" viewBox="0 0 10 16" fill="none" xmlns="http://www.w3.org/2000/svg">
<path d="M3.75057 8.06283L9.15057 13.4628C9.29816 13.6112 9.38101 13.812 9.38101 14.0213C9.38101 14.2306 9.29816 14.4314 9.15057 14.5798L8.67757 15.0528C8.52929 15.2007 8.32845 15.2837 8.11907 15.2837C7.90968 15.2837 7.70884 15.2007 7.56057 15.0528L1.12957 8.62283C0.982685 8.47324 0.900391 8.27197 0.900391 8.06233C0.900391 7.85268 0.982685 7.65142 1.12957 7.50183L7.55657 1.07583C7.70484 0.92799 7.90568 0.844971 8.11507 0.844971C8.32445 0.844971 8.52529 0.92799 8.67357 1.07583L9.14657 1.54483C9.29441 1.6931 9.37743 1.89394 9.37743 2.10333C9.37743 2.31271 9.29441 2.51356 9.14657 2.66183L3.75057 8.06283Z" fill="#4AEAB1"/>
</svg>
