<svg width="9" height="16" viewBox="0 0 9 16" fill="none" xmlns="http://www.w3.org/2000/svg">
<path d="M5.65178 8.06276L0.251777 13.4628C0.177509 13.5362 0.118515 13.6237 0.0781918 13.7201C0.0378685 13.8165 0.0170126 13.9199 0.0168266 14.0243C0.0166407 14.1288 0.0371284 14.2323 0.0771084 14.3288C0.117088 14.4254 0.175772 14.513 0.249777 14.5868L0.722777 15.0558C0.871051 15.2036 1.07189 15.2866 1.28128 15.2866C1.49066 15.2866 1.6915 15.2036 1.83978 15.0558L8.27278 8.62376C8.41966 8.47417 8.50195 8.27291 8.50195 8.06326C8.50195 7.85362 8.41966 7.65235 8.27278 7.50276L1.84578 1.07676C1.6975 0.928924 1.49666 0.845905 1.28728 0.845905C1.07789 0.845905 0.877051 0.928924 0.728777 1.07676L0.255777 1.54976C0.107938 1.69804 0.0249186 1.89888 0.0249186 2.10826C0.0249186 2.31765 0.107938 2.51849 0.255777 2.66676L5.65178 8.06276Z" fill="#4AEAB1"/>
</svg>
