<svg width="97" height="96" viewBox="0 0 97 96" fill="none" xmlns="http://www.w3.org/2000/svg">
<path opacity="0.1" d="M75 0H22C9.84974 0 0 9.79375 0 21.875V73.5794C0 85.6606 9.84974 95.4544 22 95.4544H75C87.1503 95.4544 97 85.6606 97 73.5794V21.875C97 9.79375 87.1503 0 75 0Z" fill="white"/>
<path d="M60.034 67.7736H59.895C54.831 67.7736 47.162 63.4643 40.359 56.7924C33.354 49.9207 29 42.2814 29 36.8514C29 34.3298 29.211 33.944 32.23 30.9422C34.603 28.5797 34.83 28.3947 35.712 28.1233C36.052 28.0419 36.4003 28.0005 36.75 28C37.7012 27.9994 38.6271 28.3042 39.39 28.869C41.6466 30.9416 43.7907 33.1322 45.813 35.4315C46.2122 36.1397 46.3695 36.9576 46.2613 37.7622C46.1531 38.5669 45.7853 39.315 45.213 39.894C44.691 40.3812 44.0671 40.7476 43.386 40.9669C42.8854 41.2086 42.4431 41.5547 42.089 41.9816C41.7349 42.4085 41.4774 42.9061 41.334 43.4407C40.54 46.722 46.264 53.5151 51.214 55.1637C52.1308 55.5146 53.15 55.4908 54.0493 55.0974C54.9485 54.704 55.6548 53.9729 56.014 53.0637C56.1805 52.5662 56.4416 52.1051 56.783 51.7055C57.1463 51.3225 57.5842 51.0171 58.0701 50.8079C58.5559 50.5986 59.0795 50.4899 59.609 50.4885C60.4348 50.4861 61.2392 50.7494 61.902 51.2392C64.2675 53.3563 66.4797 55.637 68.522 58.0641C68.7947 58.6323 68.9318 59.2554 68.9226 59.8849C68.9134 60.5144 68.7582 61.1333 68.469 61.6934C66.8428 63.7212 64.985 65.5541 62.933 67.1552C62.0229 67.5683 61.0334 67.78 60.033 67.7756L60.034 67.7736Z" fill="white"/>
</svg>
