<svg width="31" height="30" viewBox="0 0 31 30" fill="none" xmlns="http://www.w3.org/2000/svg">
<path d="M21.3883 28.6179C19.1845 29.6217 16.7584 30.0462 14.3423 29.8508C11.9863 29.7094 9.69984 29.0024 7.67873 27.7902C5.65762 26.578 3.9621 24.8968 2.73734 22.8906C1.56047 21.0527 0.827347 18.969 0.59534 16.8024C0.257055 13.9088 0.78793 10.9803 2.12104 8.38624C3.45414 5.79216 5.5298 3.64857 8.08634 2.22573C9.79629 1.25965 11.6865 0.650645 13.6413 0.435966C16.8206 0.0661026 20.035 0.727876 22.8052 2.32263C25.5754 3.91738 27.753 6.35968 29.0133 9.28537C29.9729 11.4172 30.3727 13.7562 30.1753 16.0835C30.02 18.7765 29.1164 21.3738 27.5651 23.5867C26.0138 25.7995 23.8756 27.5411 21.3883 28.6179ZM9.63533 7.87444C11.4193 9.64764 13.204 11.4205 14.9893 13.193C15.3953 13.5908 15.3133 13.6087 15.7423 13.1821C16.2757 12.6558 16.8043 12.1278 17.3283 11.5982C17.4103 11.5156 17.5283 11.453 17.5443 11.3088C17.5143 11.27 17.4823 11.2253 17.4443 11.1845C16.3318 9.87713 15.4616 8.38369 14.8743 6.77374C14.4396 5.56859 14.1591 4.31385 14.0393 3.03908C13.9953 2.58965 13.9453 2.57076 13.4983 2.64135C11.2767 2.98066 9.18508 3.89907 7.43633 5.30314C7.37033 5.35584 7.28033 5.39263 7.28133 5.54973C8.03733 6.29547 8.81833 7.06606 9.63033 7.87146M6.81833 8.16976L5.68834 7.04816C4.05038 8.93703 3.04265 11.285 2.80434 13.7678C6.04242 13.9649 9.12546 15.2153 11.5783 17.3264C12.2423 16.6642 12.8703 16.0199 13.5223 15.3994C13.7523 15.1797 13.7503 15.0494 13.5223 14.8247C11.2933 12.6233 9.07633 10.4109 6.82233 8.16876M19.5393 13.2268C19.4043 13.1364 19.3113 12.9882 19.1023 12.9285C18.4633 13.5679 17.8183 14.2212 17.1583 14.8675C16.9583 15.0594 16.9733 15.1797 17.1663 15.3716C19.5083 17.6917 21.846 20.0147 24.1793 22.3408C24.4563 22.6162 24.7403 22.8846 25.0473 23.1809C26.666 21.2801 27.6759 18.9414 27.9473 16.4653C24.8747 16.28 21.9361 15.1493 19.5383 13.2298M19.5833 26.9822C20.9991 26.4755 22.3125 25.7212 23.4613 24.755C23.3803 24.6605 23.3283 24.5909 23.2673 24.5312C20.7113 21.9864 18.1557 19.4413 15.6003 16.8959C15.4153 16.7109 15.3003 16.7119 15.1173 16.8959C14.5643 17.4626 14.0083 18.0264 13.4353 18.5723C13.2003 18.796 13.1693 18.9511 13.3973 19.2166C14.1445 20.0976 14.7731 21.0716 15.2673 22.114C16.0357 23.7177 16.5143 25.4433 16.6813 27.2119C16.7243 27.6315 16.7693 27.6554 17.1993 27.5848C18.0098 27.4563 18.8073 27.2567 19.5823 26.9882M14.4763 27.5848C14.4763 27.4317 14.4813 27.2765 14.4633 27.1254C14.2283 25.0268 13.4625 23.0215 12.2373 21.2967C12.0696 21.0202 11.868 20.7654 11.6373 20.5381L7.29734 24.8395C7.31343 24.8625 7.33223 24.8835 7.35334 24.9021C7.44534 24.9807 7.53733 25.0592 7.63334 25.1318C9.29632 26.411 11.2567 27.2529 13.3333 27.5798C13.7066 27.6949 14.1059 27.6969 14.4803 27.5858M22.9603 5.99916C23.157 5.8238 23.3341 5.62778 23.4883 5.4145C21.4302 3.71202 18.8804 2.70522 16.2083 2.53994C16.3781 5.21007 17.4075 7.75502 19.1443 9.79845L22.9593 6.00016M25.4393 13.8662C26.0309 14.0376 26.6356 14.1603 27.2473 14.2331C27.9863 14.3325 27.9923 14.3166 27.9103 13.5858C27.6659 11.4413 26.8528 9.39998 25.5543 7.6706C25.4384 7.47232 25.2947 7.29153 25.1273 7.13368L20.7883 11.4192C22.1457 12.5549 23.7314 13.3892 25.4393 13.8662ZM4.13033 20.9258C4.53088 21.6997 5.01797 22.4262 5.58234 23.0915L9.93233 18.8298C9.82533 18.7423 9.70233 18.631 9.57233 18.5315C7.68492 17.0688 5.4159 16.1738 3.03333 15.9523C2.73333 15.9214 2.72433 16.0776 2.74733 16.2824C2.9129 17.9 3.38237 19.4724 4.13134 20.9179L4.13033 20.9258Z" fill="black"/>
</svg>
