<svg width="27" height="31" viewBox="0 0 27 31" fill="none" xmlns="http://www.w3.org/2000/svg">
<path d="M13.4412 4.63477C11.5808 4.63477 9.76228 5.18328 8.21547 6.21095C6.66866 7.23862 5.46307 8.69929 4.75115 10.4082C4.03923 12.1172 3.85296 13.9977 4.21589 15.8119C4.57883 17.6261 5.47466 19.2926 6.79011 20.6005C8.10557 21.9085 9.78156 22.7993 11.6061 23.1601C13.4307 23.521 15.322 23.3358 17.0407 22.6279C18.7594 21.92 20.2284 20.7213 21.262 19.1833C22.2955 17.6453 22.8472 15.8371 22.8472 13.9873C22.8472 12.7591 22.6039 11.5429 22.1312 10.4082C21.6585 9.27354 20.9656 8.24253 20.0922 7.37406C19.2188 6.5056 18.1819 5.81669 17.0407 5.34668C15.8995 4.87668 14.6764 4.63477 13.4412 4.63477ZM13.4412 21.6495C11.9171 21.6495 10.4272 21.2001 9.15994 20.3582C7.89269 19.5163 6.90499 18.3196 6.32174 16.9195C5.7385 15.5194 5.58589 13.9788 5.88323 12.4925C6.18057 11.0062 6.9145 9.64089 7.9922 8.56931C9.0699 7.49773 10.443 6.76798 11.9378 6.47233C13.4326 6.17668 14.982 6.32842 16.3901 6.90835C17.7982 7.48829 19.0017 8.47037 19.8485 9.73042C20.6952 10.9905 21.1472 12.4719 21.1472 13.9873C21.1472 14.9935 20.9478 15.9899 20.5606 16.9195C20.1733 17.8491 19.6057 18.6938 18.8901 19.4053C18.1746 20.1168 17.3251 20.6812 16.3901 21.0663C15.4552 21.4513 14.4531 21.6495 13.4412 21.6495Z" fill="black"/>
<path d="M22.9462 4.5961C21.4691 3.12758 19.6682 2.02151 17.6863 1.36563C15.7043 0.70976 13.596 0.522125 11.5285 0.817616C9.46092 1.11311 7.49108 1.88359 5.7752 3.06795C4.05932 4.25231 2.64461 5.81795 1.6433 7.64068C0.642 9.46341 0.0816485 11.4931 0.00670352 13.5686C-0.0682415 15.6442 0.344282 17.7086 1.21155 19.598C2.07881 21.4875 3.37696 23.15 5.003 24.4536C6.62905 25.7573 8.53825 26.6663 10.5792 27.1084L13.4432 30.9017L16.3072 27.1074C18.665 26.5958 20.8408 25.4625 22.6063 23.8265C24.3717 22.1905 25.6617 20.1121 26.3408 17.8094C27.0199 15.5068 27.063 13.0649 26.4657 10.7399C25.8684 8.41498 24.6527 6.29279 22.9462 4.5961ZM15.6262 25.434L15.2852 25.4976L13.4392 27.9446L11.5932 25.4966L11.2532 25.433C8.40273 24.8921 5.85766 23.3136 4.11547 21.0061C2.37328 18.6986 1.55922 15.8279 1.83244 12.9554C2.10566 10.0828 3.4465 7.41483 5.59286 5.47298C7.73922 3.53113 10.5368 2.45502 13.4387 2.45502C16.3405 2.45502 19.1381 3.53113 21.2844 5.47298C23.4308 7.41483 24.7716 10.0828 25.0449 12.9554C25.3181 15.8279 24.504 18.6986 22.7618 21.0061C21.0196 23.3136 18.4746 24.8921 15.6242 25.433L15.6262 25.434Z" fill="black"/>
</svg>
