<svg width="27" height="25" viewBox="0 0 27 25" fill="none" xmlns="http://www.w3.org/2000/svg">
<path d="M15.7139 24.7659C11.2859 24.7659 6.88289 24.7659 2.48089 24.7659C2.00748 24.7929 1.53754 24.6711 1.13753 24.4179C0.737524 24.1647 0.4277 23.7929 0.251887 23.355C0.0948323 22.9867 0.0138947 22.5907 0.0138881 22.1907C-0.000778555 16.2042 -0.00411402 10.2178 0.00388598 4.23131C-0.0129402 4.11111 -0.00243673 3.9887 0.0346248 3.87308C0.0716863 3.75745 0.134364 3.65156 0.218035 3.56322C0.301707 3.47487 0.404248 3.40631 0.5181 3.36259C0.631951 3.31886 0.754213 3.30109 0.875888 3.31058C3.11189 3.31058 5.34789 3.31058 7.58389 3.31058H7.90989C7.89155 2.94981 7.89355 2.58831 7.91589 2.22776C7.94811 1.63462 8.20613 1.07589 8.63756 0.665004C9.069 0.254119 9.64151 0.0218713 10.2389 0.0154119C12.3269 -0.0051373 14.4149 -0.0051373 16.5029 0.0154119C16.8217 0.0234748 17.1357 0.0944072 17.4268 0.224088C17.7178 0.35377 17.9801 0.539618 18.1983 0.770859C18.4165 1.0021 18.5864 1.27413 18.6981 1.57116C18.8098 1.8682 18.861 2.18432 18.8489 2.5012C18.8549 2.75674 18.8489 3.01327 18.8489 3.3056H25.7859C26.4569 3.3056 26.7319 3.59595 26.7319 4.30887C26.7319 10.2496 26.7319 16.1903 26.7319 22.131C26.7762 22.6901 26.6254 23.2473 26.3048 23.7088C25.9842 24.1703 25.5135 24.5078 24.9719 24.6645C24.7199 24.7316 24.4597 24.7628 24.1989 24.757C21.3799 24.7629 18.5609 24.757 15.7159 24.757M21.7979 23.1064H24.1729C24.8919 23.1064 25.1659 22.8191 25.1659 22.0644C25.1659 17.9207 25.1659 13.7777 25.1659 9.63542V9.35403C25.1166 9.40919 25.0822 9.47591 25.0659 9.54792C24.7026 10.692 24.3396 11.8358 23.9769 12.9793C23.8574 13.535 23.5417 14.0298 23.0869 14.374C22.6321 14.7182 22.0684 14.8891 21.4979 14.8556H17.2819C17.2819 15.135 17.2819 15.3905 17.2819 15.6451C17.2911 15.7569 17.2765 15.8694 17.2389 15.9751C17.2013 16.0809 17.1416 16.1776 17.0638 16.2588C16.986 16.34 16.8918 16.404 16.7874 16.4464C16.6829 16.4889 16.5706 16.5089 16.4579 16.5051C14.3959 16.5091 12.3342 16.5091 10.2729 16.5051C10.1601 16.5084 10.0479 16.4878 9.94364 16.4449C9.8394 16.4019 9.74547 16.3376 9.66803 16.2559C9.59058 16.1743 9.53138 16.0774 9.4943 15.9714C9.45723 15.8654 9.44311 15.7529 9.45289 15.6411C9.45289 15.3865 9.45289 15.132 9.45289 14.8566H9.17889C7.83089 14.8566 6.47889 14.8566 5.13389 14.8566C4.60902 14.8677 4.09548 14.7039 3.67506 14.3913C3.25463 14.0787 2.95149 13.6352 2.81389 13.1314C2.70489 12.8133 2.60788 12.4911 2.50588 12.1709L1.60589 9.35005L1.56489 9.35602V9.62448C1.56489 13.7767 1.56489 17.9293 1.56489 22.0823C1.56489 22.835 1.83889 23.1203 2.56489 23.1203H21.7979M23.2239 10.1525L24.8569 4.97307H1.89289C1.89225 5.00207 1.8946 5.03105 1.89989 5.05958C2.69256 7.56459 3.48622 10.0696 4.28089 12.5746C4.31963 12.7734 4.43264 12.9503 4.59719 13.0697C4.76175 13.189 4.96565 13.242 5.16789 13.2179C6.53389 13.2179 7.90055 13.2179 9.26789 13.2179C9.32589 13.2179 9.38389 13.211 9.45389 13.207C9.45389 12.9435 9.45389 12.6969 9.45389 12.4513C9.44274 12.3376 9.45611 12.2229 9.4931 12.1147C9.53009 12.0065 9.58985 11.9075 9.6684 11.8241C9.74695 11.7407 9.84248 11.675 9.94862 11.6312C10.0548 11.5875 10.169 11.5667 10.2839 11.5704C12.3366 11.5664 14.3896 11.5664 16.4429 11.5704C16.5598 11.5653 16.6764 11.5855 16.7847 11.6296C16.8931 11.6736 16.9905 11.7404 17.0704 11.8254C17.1503 11.9105 17.2108 12.0117 17.2476 12.1221C17.2845 12.2325 17.2968 12.3496 17.2839 12.4652C17.2839 12.7098 17.2839 12.9544 17.2839 13.2169H21.5039C21.6172 13.234 21.7328 13.2285 21.8439 13.2006C21.955 13.1727 22.0594 13.123 22.1509 13.0545C22.2425 12.986 22.3194 12.9 22.3771 12.8015C22.4347 12.7031 22.4721 12.5941 22.4869 12.4812C22.7299 11.7185 22.9689 10.9549 23.2259 10.1515M16.9789 1.84097C16.7993 1.75861 16.6092 1.70107 16.4139 1.66996C15.5529 1.65206 14.6919 1.662 13.8319 1.662C12.6489 1.662 11.4669 1.662 10.2839 1.662C10.0807 1.65148 9.88139 1.72002 9.72814 1.85309C9.5749 1.98616 9.47976 2.17332 9.46289 2.37493C9.43489 2.68018 9.45789 2.99041 9.45789 3.29666H17.2819C17.2819 3.03714 17.2819 2.79154 17.2819 2.54594C17.2874 2.4124 17.2628 2.27932 17.2099 2.15646C17.1569 2.03361 17.077 1.92411 16.9759 1.83601M11.3599 13.213H11.0309V14.8486H15.7019V13.213H11.3599Z" fill="black"/>
</svg>
