<svg width="27" height="26" viewBox="0 0 27 26" fill="none" xmlns="http://www.w3.org/2000/svg">
<path d="M22.7979 25.8799H5.00781C3.93604 25.8788 2.90834 25.4531 2.15039 24.6953C1.39244 23.9375 0.966167 22.9097 0.964844 21.8379V6.06738C0.966167 4.99535 1.39274 3.96694 2.15088 3.20898C2.90902 2.45103 3.93675 2.02547 5.00879 2.02441H6.27295V1.01172C6.27348 0.743655 6.37988 0.486519 6.56934 0.296875C6.75879 0.107231 7.01563 0.000792571 7.28369 0C7.55176 0.000527555 7.80889 0.107419 7.99854 0.296875C8.18818 0.486331 8.29511 0.742679 8.2959 1.01074V2.02441H12.8428V1.01172C12.843 0.743574 12.9496 0.486576 13.1392 0.296875C13.3287 0.107174 13.5859 0.000529278 13.854 0C14.1221 0.000527555 14.3787 0.107419 14.5684 0.296875C14.758 0.486331 14.8649 0.742679 14.8657 1.01074V2.02441H19.4658V1.01172C19.4661 0.743666 19.5727 0.487393 19.7622 0.297852C19.9517 0.10831 20.209 0.00124131 20.4771 0.000976562C20.7452 0.00124074 21.0022 0.107362 21.1919 0.296875C21.3816 0.486388 21.4882 0.743574 21.4888 1.01172V2.02441H22.8037C23.8756 2.02547 24.9035 2.45125 25.6616 3.20898C26.4197 3.96672 26.8461 4.99454 26.8477 6.06641V21.8389C26.8453 22.9114 26.418 23.9397 25.6587 24.6973C24.8994 25.4548 23.8704 25.8799 22.7979 25.8799ZM20.6909 18.4805C20.563 18.4806 20.4365 18.5056 20.3184 18.5547C20.2002 18.6038 20.0928 18.6751 20.0024 18.7656C19.9121 18.8562 19.8403 18.9638 19.7915 19.082C19.7427 19.2003 19.7176 19.3272 19.7178 19.4551C19.7188 19.7124 19.822 19.959 20.0044 20.1406C20.1868 20.3222 20.4336 20.4238 20.6909 20.4238C20.9479 20.4233 21.1943 20.3215 21.376 20.1396C21.5576 19.9578 21.6594 19.7111 21.6597 19.4541C21.6636 19.3238 21.6415 19.1937 21.5942 19.0723C21.547 18.9508 21.4757 18.8405 21.3848 18.7471C21.2938 18.6536 21.1852 18.5796 21.0649 18.5293C20.9447 18.479 20.8154 18.4533 20.6851 18.4541L20.6909 18.4805ZM16.312 18.4805C16.0543 18.4813 15.8073 18.584 15.6255 18.7666C15.4436 18.9492 15.3415 19.1964 15.3418 19.4541C15.3414 19.5816 15.3665 19.7083 15.415 19.8262C15.4636 19.9441 15.5349 20.0504 15.625 20.1406C15.7151 20.231 15.8221 20.3027 15.9399 20.3516C16.0578 20.4005 16.1844 20.4258 16.312 20.4258C16.5701 20.4258 16.8175 20.3231 17 20.1406C17.1825 19.9582 17.2847 19.7112 17.2847 19.4531C17.2885 19.3228 17.2662 19.1928 17.2188 19.0713C17.1713 18.9498 17.0999 18.8394 17.0088 18.7461C16.9177 18.6528 16.8087 18.5787 16.6885 18.5283C16.5682 18.478 16.4394 18.4525 16.3091 18.4531L16.312 18.4805ZM11.5518 18.4805C11.4239 18.4806 11.2973 18.5056 11.1792 18.5547C11.0611 18.6038 10.9536 18.6751 10.8633 18.7656C10.7729 18.8562 10.7017 18.9638 10.6528 19.082C10.604 19.2003 10.579 19.3272 10.5791 19.4551C10.5799 19.7126 10.6824 19.9588 10.8647 20.1406C11.0471 20.3224 11.2942 20.4248 11.5518 20.4248C11.8091 20.424 12.056 20.3218 12.2378 20.1396C12.4196 19.9575 12.5217 19.7105 12.522 19.4531C12.5257 19.3233 12.5031 19.1943 12.4561 19.0732C12.409 18.9522 12.3385 18.8413 12.248 18.748C12.1572 18.6544 12.048 18.5798 11.9277 18.5293C11.8074 18.4788 11.6783 18.4533 11.5479 18.4541L11.5518 18.4805ZM7.17188 18.4805C6.91364 18.481 6.6663 18.5838 6.48389 18.7666C6.30147 18.9494 6.19873 19.1968 6.19873 19.4551C6.19952 19.7126 6.30248 19.9588 6.48486 20.1406C6.66725 20.3224 6.91434 20.4248 7.17188 20.4248C7.42976 20.4251 7.67723 20.3227 7.85986 20.1406C8.0425 19.9586 8.14547 19.712 8.146 19.4541C8.14968 19.3242 8.12732 19.1943 8.08008 19.0732C8.03284 18.9521 7.96179 18.8421 7.87109 18.749C7.78037 18.6551 7.67157 18.581 7.55127 18.5303C7.43096 18.4796 7.30145 18.4535 7.1709 18.4541L7.17188 18.4805ZM20.6919 14.1064C20.4344 14.1059 20.1875 14.2072 20.0049 14.3887C19.8223 14.5702 19.7188 14.8168 19.7178 15.0742C19.7178 15.3324 19.8205 15.5801 20.0029 15.7627C20.1854 15.9453 20.4328 16.0476 20.6909 16.0479C20.9485 16.0473 21.1956 15.9451 21.3774 15.7627C21.5593 15.5803 21.6614 15.3328 21.6611 15.0752C21.67 14.9424 21.6507 14.8087 21.6055 14.6836C21.5602 14.5585 21.4897 14.4441 21.3979 14.3477C21.3062 14.2517 21.1955 14.1756 21.0732 14.124C20.951 14.0724 20.8197 14.0466 20.687 14.0479L20.6919 14.1064ZM16.313 14.1064C16.0562 14.1064 15.8098 14.2074 15.6279 14.3887C15.4461 14.5699 15.3436 14.8165 15.3428 15.0732C15.3422 15.2011 15.367 15.3271 15.4155 15.4453C15.464 15.5636 15.5354 15.6711 15.6255 15.7617C15.7156 15.8524 15.8225 15.9244 15.9404 15.9736C16.0584 16.0228 16.1852 16.0486 16.313 16.0488C16.571 16.0478 16.8179 15.9444 17 15.7617C17.1821 15.579 17.2844 15.3322 17.2847 15.0742C17.2927 14.9415 17.2736 14.8085 17.228 14.6836C17.1824 14.5587 17.1116 14.444 17.02 14.3477C16.9283 14.2517 16.8176 14.1756 16.6953 14.124C16.573 14.0724 16.4418 14.0466 16.3091 14.0479L16.313 14.1064ZM11.5527 14.1064C11.2955 14.1062 11.0486 14.2072 10.8662 14.3887C10.6838 14.5701 10.5811 14.8169 10.5801 15.0742C10.5803 15.3323 10.6828 15.5791 10.8652 15.7617C11.0476 15.9443 11.2947 16.0473 11.5527 16.0479C11.8104 16.0471 12.0574 15.9443 12.2393 15.7617C12.4211 15.5791 12.5232 15.3319 12.5229 15.0742C12.5311 14.9418 12.512 14.8093 12.4668 14.6846C12.4216 14.5599 12.3509 14.445 12.2598 14.3486C12.169 14.2519 12.0593 14.1747 11.9375 14.1221C11.8157 14.0694 11.6844 14.0428 11.5518 14.043L11.5527 14.1064ZM7.17285 14.1064C6.91558 14.1062 6.66872 14.2072 6.48633 14.3887C6.30394 14.5701 6.20077 14.8169 6.19971 15.0742C6.19997 15.3323 6.30248 15.5791 6.48486 15.7617C6.66725 15.9443 6.91479 16.0473 7.17285 16.0479C7.3007 16.0481 7.42724 16.0234 7.54541 15.9746C7.66358 15.9258 7.77092 15.8541 7.86133 15.7637C7.95173 15.6733 8.02346 15.5654 8.07227 15.4473C8.12107 15.3291 8.14626 15.203 8.146 15.0752C8.15426 14.9426 8.13509 14.8095 8.08984 14.6846C8.0446 14.5597 7.97407 14.4452 7.88281 14.3486C7.792 14.2519 7.68232 14.1757 7.56055 14.123C7.43877 14.0704 7.30747 14.0428 7.1748 14.043L7.17285 14.1064ZM20.6919 9.72461C20.4339 9.72487 20.1868 9.82833 20.0044 10.0107C19.822 10.1932 19.719 10.4403 19.7188 10.6982C19.7186 10.8261 19.7437 10.9521 19.7925 11.0703C19.8413 11.1885 19.9131 11.2962 20.0034 11.3867C20.0938 11.4773 20.2012 11.5496 20.3193 11.5986C20.4375 11.6477 20.564 11.6727 20.6919 11.6729C20.9496 11.6718 21.1963 11.5685 21.3779 11.3857C21.5596 11.203 21.6617 10.956 21.6611 10.6982C21.6635 10.5688 21.6399 10.4396 21.5918 10.3193C21.5437 10.1991 21.4718 10.0902 21.3809 9.99805C21.2899 9.90631 21.1818 9.83379 21.0625 9.78418C20.9432 9.73457 20.8152 9.70881 20.686 9.70898L20.6919 9.72461ZM16.313 9.72461C16.0555 9.7254 15.8086 9.82833 15.627 10.0107C15.4453 10.1932 15.3435 10.4408 15.3438 10.6982C15.3434 10.8258 15.3685 10.9523 15.417 11.0703C15.4655 11.1883 15.5365 11.2953 15.6265 11.3857C15.7165 11.4762 15.8236 11.5486 15.9414 11.5977C16.0592 11.6468 16.1854 11.6716 16.313 11.6719C16.4409 11.672 16.5674 11.6466 16.6855 11.5977C16.8037 11.5487 16.9111 11.4772 17.0015 11.3867C17.0919 11.2962 17.1636 11.1885 17.2124 11.0703C17.2612 10.9521 17.2864 10.8261 17.2861 10.6982C17.2884 10.5687 17.2646 10.4396 17.2163 10.3193C17.168 10.1991 17.096 10.0901 17.0049 9.99805C16.9133 9.90585 16.8043 9.83266 16.6841 9.7832C16.5639 9.73375 16.4347 9.70893 16.3047 9.70996L16.313 9.72461ZM11.5527 9.72461C11.2948 9.72487 11.0476 9.82833 10.8652 10.0107C10.6828 10.1932 10.5803 10.4403 10.5801 10.6982C10.5801 10.9565 10.6823 11.2039 10.8647 11.3867C11.0472 11.5695 11.2945 11.6723 11.5527 11.6729C11.8107 11.6721 12.0582 11.5695 12.2402 11.3867C12.4223 11.2039 12.5242 10.9562 12.5239 10.6982C12.5264 10.5689 12.503 10.4405 12.4551 10.3203C12.4072 10.2001 12.3359 10.0903 12.2451 9.99805C12.1546 9.90615 12.0467 9.83299 11.9277 9.7832C11.8088 9.73341 11.6807 9.70795 11.5518 9.70801L11.5527 9.72461ZM7.17383 9.72461C6.91577 9.72461 6.66831 9.82729 6.48584 10.0098C6.30337 10.1922 6.20068 10.4402 6.20068 10.6982C6.20055 10.8261 6.22559 10.9521 6.27441 11.0703C6.32324 11.1885 6.395 11.2962 6.48535 11.3867C6.5757 11.4773 6.68315 11.5496 6.80127 11.5986C6.91939 11.6477 7.04592 11.6727 7.17383 11.6729C7.30174 11.6727 7.42827 11.6477 7.54639 11.5986C7.66451 11.5496 7.77195 11.4773 7.8623 11.3867C7.95266 11.2962 8.02442 11.1885 8.07324 11.0703C8.12207 10.9521 8.1471 10.8261 8.14697 10.6982C8.14933 10.5688 8.12572 10.4396 8.07764 10.3193C8.02955 10.1991 7.95768 10.0902 7.8667 9.99805C7.77614 9.90624 7.66828 9.83299 7.54932 9.7832C7.43035 9.73342 7.30279 9.70806 7.17383 9.70801V9.72461Z" fill="white"/>
</svg>
