<svg width="46" height="46" viewBox="0 0 46 46" fill="none" xmlns="http://www.w3.org/2000/svg">
<path d="M46 23C46 10.2975 35.7025 0 23 0C10.2975 0 0 10.2975 0 23C0 35.7025 10.2975 46 23 46C35.7025 46 46 35.7025 46 23Z" fill="#4AEAB1"/>
<path d="M30 34.6673C29.0278 34.6673 28.2014 34.327 27.5208 33.6465C26.8403 32.9659 26.5 32.1395 26.5 31.1673C26.5 31.0312 26.5097 30.89 26.5292 30.7438C26.5486 30.5976 26.5778 30.4665 26.6167 30.3506L18.3917 25.5673C18.0611 25.859 17.6917 26.0877 17.2833 26.2533C16.875 26.419 16.4472 26.5014 16 26.5007C15.0278 26.5007 14.2014 26.1604 13.5208 25.4798C12.8403 24.7993 12.5 23.9729 12.5 23.0007C12.5 22.0284 12.8403 21.202 13.5208 20.5215C14.2014 19.8409 15.0278 19.5007 16 19.5007C16.4472 19.5007 16.875 19.5835 17.2833 19.7492C17.6917 19.9148 18.0611 20.1431 18.3917 20.434L26.6167 15.6507C26.5778 15.534 26.5486 15.4029 26.5292 15.2575C26.5097 15.112 26.5 14.9709 26.5 14.834C26.5 13.8618 26.8403 13.0354 27.5208 12.3548C28.2014 11.6743 29.0278 11.334 30 11.334C30.9722 11.334 31.7986 11.6743 32.4792 12.3548C33.1597 13.0354 33.5 13.8618 33.5 14.834C33.5 15.8062 33.1597 16.6326 32.4792 17.3132C31.7986 17.9937 30.9722 18.334 30 18.334C29.5528 18.334 29.125 18.2515 28.7167 18.0867C28.3083 17.9218 27.9389 17.6931 27.6083 17.4007L19.3833 22.184C19.4222 22.3007 19.4514 22.4321 19.4708 22.5783C19.4903 22.7245 19.5 22.8653 19.5 23.0007C19.5 23.136 19.4903 23.2772 19.4708 23.4242C19.4514 23.5712 19.4222 23.7022 19.3833 23.8173L27.6083 28.6006C27.9389 28.309 28.3083 28.0807 28.7167 27.9158C29.125 27.7509 29.5528 27.6681 30 27.6673C30.9722 27.6673 31.7986 28.0076 32.4792 28.6882C33.1597 29.3687 33.5 30.1951 33.5 31.1673C33.5 32.1395 33.1597 32.9659 32.4792 33.6465C31.7986 34.327 30.9722 34.6673 30 34.6673Z" fill="#3A4B4C"/>
</svg>
