<svg width="29" height="29" viewBox="0 0 29 29" fill="none" xmlns="http://www.w3.org/2000/svg">
<path d="M0.393748 10.7814C1.85775 4.68138 6.78575 0.600378 13.3787 0.0213776C14.6178 -0.0490204 15.8605 0.0546555 17.0707 0.329378C16.9953 0.964379 16.8797 1.59397 16.7247 2.21438C16.4959 2.19699 16.2682 2.16661 16.0427 2.12338C13.0716 1.61069 10.017 2.25476 7.50575 3.92338C5.63695 5.13838 4.13885 6.84456 3.17574 8.85479C2.21263 10.865 1.82172 13.1017 2.04588 15.3194C2.27004 17.5371 3.10061 19.6503 4.4465 21.4272C5.79239 23.204 7.60162 24.5759 9.67575 25.3924C12.2943 26.3616 15.1597 26.4389 17.8267 25.6124C19.5196 25.0515 21.0703 24.1295 22.3718 22.9104C23.6733 21.6912 24.6945 20.204 25.3647 18.5514C25.4647 18.3044 25.5647 18.1514 25.6047 18.1584C25.6447 18.1654 26.0577 18.3234 26.5137 18.5054L27.3477 18.8354L27.2377 19.1224C27.1747 19.2804 27.0677 19.5434 27.0017 19.7174C26.0623 21.8091 24.6421 23.6494 22.8567 25.0884C22.6917 25.2204 22.5457 25.3404 22.5297 25.3594C21.3811 26.1912 20.1242 26.8621 18.7937 27.3534C17.27 27.8858 15.6679 28.1596 14.0537 28.1634C11.9259 28.16 9.82653 27.6743 7.91346 26.7427C6.00038 25.8111 4.32341 24.4579 3.00862 22.7849C1.69384 21.1119 0.775463 19.1626 0.322553 17.0835C-0.130357 15.0044 -0.106015 12.8497 0.393748 10.7814ZM7.33275 21.3004C6.01643 19.9958 5.08819 18.3514 4.65149 16.5503C4.21478 14.7492 4.28675 12.8622 4.85938 11.0997C5.43201 9.33708 6.48281 7.76812 7.89468 6.56761C9.30655 5.3671 11.024 4.5822 12.8557 4.30038C20.7357 3.02038 26.8287 11.3714 23.3177 18.6384C22.4905 20.316 21.2064 21.7258 19.613 22.7056C18.0197 23.6854 16.1821 24.1952 14.3117 24.1764C13.0159 24.1838 11.7315 23.9333 10.5333 23.4395C9.33516 22.9458 8.24719 22.2186 7.33275 21.3004ZM14.0397 8.47938C13.5327 8.71538 13.5397 8.63738 13.5397 11.9104V14.8194L14.2247 15.5674C15.2437 16.6814 18.1177 19.4954 18.2907 19.5464C18.4277 19.5746 18.5696 19.5682 18.7034 19.5278C18.8373 19.4874 18.959 19.4142 19.0575 19.315C19.156 19.2157 19.2282 19.0934 19.2675 18.9592C19.3068 18.825 19.3121 18.6831 19.2827 18.5464C19.2427 18.4464 18.3097 17.4534 17.2037 16.3464L15.2037 14.3314L15.1797 11.6544C15.1597 8.75438 15.1597 8.77338 14.7797 8.52838C14.6632 8.44392 14.5237 8.39684 14.3797 8.39338C14.2614 8.39654 14.1453 8.42592 14.0397 8.47938ZM26.0767 16.0794C26.0711 15.8975 26.0842 15.7156 26.1157 15.5364C26.1517 15.2494 26.1787 14.5724 26.1787 14.0364C26.1787 13.2894 26.1987 13.0474 26.2537 13.0444C26.3087 13.0414 26.6707 13.0054 27.0917 12.9664C27.5127 12.9274 27.9147 12.8824 27.9817 12.8794C28.2217 12.8624 28.1817 16.2284 27.9427 16.3794H27.9247C27.3041 16.3106 26.6873 16.2105 26.0767 16.0794ZM25.5017 10.0304C25.5017 10.0174 25.4357 9.86538 25.3687 9.68438C25.1075 9.02848 24.797 8.39332 24.4397 7.78438C24.2537 7.47338 24.1837 7.30338 24.2227 7.26338C24.2617 7.22338 24.6127 6.98538 25.0097 6.71338C25.4067 6.44138 25.7457 6.21938 25.7497 6.21338C26.335 7.10588 26.8305 8.05418 27.2287 9.04438L27.3517 9.37738L27.1937 9.44138C26.8557 9.57238 25.5477 10.0234 25.5027 10.0234L25.5017 10.0304ZM21.8497 4.78738C21.307 4.3453 20.732 3.94419 20.1297 3.58738L19.5827 3.26438L19.9337 2.60838C20.1227 2.24638 20.3237 1.86438 20.3777 1.75738C20.5007 1.52238 20.4567 1.51238 21.0237 1.83938C22.4087 2.63938 23.4607 3.46538 23.3107 3.65038C23.0627 3.96538 22.1497 4.98138 22.1177 4.98138C22.021 4.92768 21.931 4.86255 21.8497 4.78738Z" fill="white"/>
</svg>
