<svg width="36" height="36" viewBox="0 0 36 36" fill="none" xmlns="http://www.w3.org/2000/svg">
<path fill-rule="evenodd" clip-rule="evenodd" d="M16.0869 0.0581322C11.7793 0.478631 7.772 2.45264 4.81335 5.61152C1.8547 8.77041 0.146968 12.8982 0.00905524 17.2241C-0.128857 21.5499 1.31248 25.7781 4.06391 29.1191C6.81534 32.46 10.6887 34.6852 14.9608 35.3793C19.2329 36.0733 23.6115 35.1886 27.279 32.8905C30.9466 30.5924 33.6522 27.0379 34.8908 22.8909C36.1294 18.7438 35.8162 14.2877 34.0097 10.3547C32.2031 6.42164 29.0268 3.28061 25.0739 1.51813C22.2381 0.31972 19.1562 -0.180954 16.0869 0.0581322ZM19.2119 5.54013C20.4902 5.84862 21.627 6.57961 22.4382 7.61472C23.2493 8.64983 23.6872 9.92844 23.6811 11.2435C23.6749 12.5585 23.2251 13.833 22.4043 14.8605C21.5835 15.888 20.44 16.6083 19.1588 16.9048C17.8776 17.2014 16.5338 17.0567 15.3451 16.4943C14.1563 15.9319 13.1923 14.9847 12.609 13.8061C12.0257 12.6275 11.8573 11.2865 12.1312 10.0003C12.405 8.71403 13.105 7.55791 14.1179 6.71913C14.8163 6.13912 15.6406 5.73044 16.5251 5.52573C17.4096 5.32102 18.3297 5.32595 19.2119 5.54013ZM22.2649 20.0831C26.2539 20.7301 28.6899 25.8291 26.0259 27.9541C23.7217 29.819 20.8507 30.8427 17.8866 30.8563C14.9224 30.8699 12.0421 29.8727 9.72088 28.0291C9.21323 27.6839 8.82977 27.1848 8.6269 26.6054C8.42403 26.0259 8.41245 25.3967 8.59388 24.8101C8.83158 23.6439 9.40828 22.5738 10.2517 21.7339C11.0951 20.8941 12.1676 20.3219 13.3349 20.0891C13.8649 20.0001 21.7239 19.9971 22.2659 20.0891" fill="black"/>
</svg>
