<svg width="35" height="35" viewBox="0 0 35 35" fill="none" xmlns="http://www.w3.org/2000/svg">
<path d="M33.9537 15.18L19.7187 0.943038C19.4209 0.644129 19.0669 0.406959 18.6772 0.245131C18.2875 0.0833028 17.8697 0 17.4477 0C17.0257 0 16.6079 0.0833028 16.2182 0.245131C15.8285 0.406959 15.4746 0.644129 15.1767 0.943038L0.950724 15.17L0.936723 15.184C0.496902 15.6248 0.194928 16.184 0.0676744 16.7935C-0.0595789 17.403 -0.00660385 18.0363 0.220131 18.6162C0.446865 19.1961 0.837547 19.6974 1.34447 20.0589C1.85139 20.4205 2.45261 20.6265 3.07472 20.652H3.73972V31.126C3.73999 32.1241 4.13667 33.0813 4.84253 33.7869C5.54839 34.4926 6.50562 34.889 7.50372 34.889H13.0717C13.3437 34.8882 13.6042 34.7795 13.796 34.5868C13.9878 34.394 14.0953 34.133 14.0947 33.861V25.654C14.0952 25.2004 14.2753 24.7654 14.5955 24.444C14.9157 24.1227 15.3501 23.9412 15.8037 23.939H19.0937C19.5475 23.9409 19.9822 24.1223 20.3026 24.4437C20.623 24.7651 20.8032 25.2002 20.8037 25.654V33.861C20.8035 33.9959 20.8298 34.1294 20.8812 34.2541C20.9325 34.3787 21.008 34.492 21.1032 34.5875C21.1984 34.6829 21.3114 34.7587 21.4359 34.8105C21.5604 34.8622 21.6939 34.8889 21.8287 34.889H27.4037C28.3996 34.8872 29.3541 34.4908 30.0583 33.7866C30.7625 33.0824 31.1589 32.1279 31.1607 31.132V20.667H31.6867C32.3218 20.6669 32.9425 20.4785 33.4706 20.1258C33.9986 19.773 34.4103 19.2717 34.6537 18.6851C34.897 18.0985 34.961 17.453 34.8377 16.8301C34.7144 16.2071 34.4092 15.6347 33.9607 15.185L33.9537 15.18Z" fill="black"/>
</svg>
