<svg width="46" height="47" viewBox="0 0 46 47" fill="none" xmlns="http://www.w3.org/2000/svg">
<path d="M2.64762 46.0538C2.18462 46.0538 1.76564 46.0608 1.34764 46.0488C0.992828 46.0339 0.657589 45.8821 0.412319 45.6253C0.167048 45.3685 0.030814 45.0266 0.0322376 44.6715C0.0336612 44.3164 0.172627 43.9756 0.419948 43.7208C0.66727 43.466 1.00372 43.3169 1.35864 43.3048C1.89564 43.2918 2.43463 43.2858 2.97163 43.3048C3.10364 43.3187 3.23677 43.2924 3.35362 43.2294C3.47047 43.1664 3.56561 43.0697 3.62663 42.9518C6.1733 38.9085 8.7253 34.8681 11.2826 30.8308C14.5226 25.7061 17.767 20.5845 21.0156 15.4658C21.1466 15.3113 21.2185 15.1153 21.2185 14.9128C21.2185 14.7102 21.1466 14.5143 21.0156 14.3598C20.1826 13.1208 19.3986 11.8488 18.5996 10.5868C18.4073 10.3377 18.277 10.0463 18.2196 9.7368C18.1671 9.42389 18.2271 9.1025 18.3889 8.82959C18.5507 8.55667 18.8039 8.34986 19.1036 8.2458C19.4003 8.13362 19.7267 8.12793 20.0271 8.2297C20.3275 8.33147 20.5832 8.5344 20.7506 8.8038C21.3686 9.7378 21.9566 10.6918 22.5596 11.6358C22.6588 11.8345 22.7899 12.0155 22.9476 12.1718C23.1756 12.1408 23.2316 11.9488 23.3226 11.8068C23.9696 10.8068 24.5896 9.77981 25.2556 8.78981C25.3838 8.58045 25.5659 8.40934 25.7828 8.29438C25.9997 8.17942 26.2435 8.12481 26.4888 8.13626C26.734 8.1477 26.9716 8.22478 27.1769 8.35945C27.3822 8.49411 27.5475 8.68142 27.6556 8.90181C27.7726 9.14583 27.8203 9.41729 27.7935 9.68658C27.7667 9.95587 27.6664 10.2126 27.5036 10.4288C26.6656 11.7358 25.8556 13.0618 24.9916 14.3518C24.8614 14.5098 24.7902 14.7081 24.7902 14.9128C24.7902 15.1175 24.8614 15.3158 24.9916 15.4738C28.125 20.4025 31.2483 25.3358 34.3616 30.2738C37.0036 34.4518 39.642 38.6321 42.2766 42.8148C42.3554 42.9812 42.485 43.1183 42.6468 43.2062C42.8086 43.2941 42.9941 43.3283 43.1766 43.3038C43.6516 43.2688 44.1326 43.2888 44.6096 43.2988C44.7899 43.3001 44.9682 43.3369 45.1343 43.4071C45.3004 43.4774 45.451 43.5796 45.5776 43.708C45.7041 43.8364 45.8042 43.9885 45.8719 44.1556C45.9397 44.3227 45.9739 44.5015 45.9726 44.6818C45.9713 44.8621 45.9345 45.0404 45.8643 45.2065C45.7941 45.3725 45.6918 45.5232 45.5634 45.6497C45.435 45.7763 45.2829 45.8763 45.1158 45.9441C44.9487 46.0119 44.7699 46.0461 44.5896 46.0448C40.0336 46.0508 35.4776 46.0448 30.9216 46.0558C30.7904 46.0624 30.6606 46.0258 30.5523 45.9516C30.4439 45.8773 30.3629 45.7696 30.3216 45.6448C28.4116 41.8081 26.497 37.9748 24.5776 34.1448C24.4576 33.9048 24.3376 33.6638 24.2116 33.4268C24.0956 33.2009 23.9186 33.0121 23.7006 32.8818C23.4826 32.7514 23.2325 32.6848 22.9786 32.6895C22.7247 32.6942 22.4772 32.77 22.2642 32.9083C22.0512 33.0465 21.8812 33.2418 21.7736 33.4718C20.5543 35.9178 19.3323 38.3625 18.1076 40.8058C17.3076 42.4058 16.4946 44.0058 15.7076 45.6178C15.6532 45.7615 15.5522 45.8828 15.4208 45.9626C15.2895 46.0423 15.1352 46.0758 14.9826 46.0578C10.8786 46.0478 6.78562 46.0528 2.64762 46.0538Z" fill="black"/>
<path d="M0.790092 17.3058C0.42337 16.8088 0.175335 16.2345 0.0650245 15.6268C-0.0452855 15.0192 -0.0149378 14.3943 0.153724 13.8002C0.322385 13.206 0.624892 12.6584 1.03803 12.1993C1.45117 11.7403 1.96396 11.3819 2.53709 11.1518C2.65043 11.1006 2.75232 11.0271 2.83668 10.9357C2.92103 10.8443 2.98612 10.7369 3.02808 10.6198C3.33733 9.90571 3.84472 9.2952 4.49016 8.86052C5.13561 8.42585 5.89208 8.18521 6.67004 8.16712C7.44799 8.14902 8.21484 8.35422 8.8798 8.75841C9.54476 9.1626 10.08 9.74886 10.4221 10.4478C10.4751 10.5837 10.5719 10.6981 10.6973 10.7727C10.8226 10.8473 10.9693 10.878 11.1141 10.8598C11.8434 10.8007 12.5775 10.8506 13.2921 11.0078C14.2313 11.2784 15.0416 11.8784 15.5745 12.6979C16.1073 13.5173 16.327 14.5013 16.1934 15.4696C16.0598 16.4378 15.5818 17.3255 14.8469 17.97C14.112 18.6145 13.1695 18.9726 12.1921 18.9788C9.51908 18.9848 6.84609 18.9788 4.17309 18.9788C3.51572 18.9957 2.86414 18.8522 2.2747 18.5607C1.68525 18.2692 1.17569 17.8385 0.790092 17.3058Z" fill="black"/>
<path d="M35.9691 10.8748C36.1197 10.7367 36.279 10.6084 36.4461 10.4908C36.9484 10.2189 37.3476 9.78976 37.5824 9.26915C37.8172 8.74854 37.8747 8.16525 37.7461 7.6088C37.602 7.05534 37.2875 6.56122 36.8471 6.19637C36.4067 5.83152 35.8627 5.61442 35.2921 5.5758C35.1435 5.56903 34.9946 5.57841 34.8481 5.6038C34.5747 5.65484 34.2924 5.62431 34.0363 5.516C33.7801 5.4077 33.5615 5.22642 33.4077 4.99475C33.2538 4.76308 33.1715 4.49125 33.1711 4.21315C33.1706 3.93505 33.252 3.66297 33.4051 3.4308C33.9483 2.50394 34.7049 1.72018 35.6121 1.14467C36.5192 0.56917 37.5507 0.218568 38.6206 0.122029C39.6906 0.0254902 40.768 0.185803 41.7636 0.589635C42.7591 0.993466 43.6438 1.62914 44.3441 2.4438C45.1421 3.37836 45.6709 4.51241 45.8737 5.72447C46.0766 6.93653 45.9459 8.18095 45.4957 9.32442C45.0454 10.4679 44.2926 11.4674 43.3178 12.2157C42.343 12.9641 41.1831 13.4332 39.9621 13.5728C38.8293 13.7231 37.6769 13.5577 36.6321 13.0948C36.4142 13.026 36.2165 12.9048 36.0562 12.7419C35.8958 12.5791 35.7778 12.3794 35.7124 12.1605C35.647 11.9415 35.6362 11.7098 35.681 11.4857C35.7257 11.2616 35.8246 11.0519 35.9691 10.8748Z" fill="black"/>
<path d="M22.9406 37.0389C23.1466 37.0249 23.1655 37.186 23.2205 37.296C24.6205 40.0826 26.0159 42.8706 27.4066 45.6599C27.4421 45.7088 27.4669 45.7646 27.4795 45.8237C27.4921 45.8828 27.4921 45.9438 27.4796 46.0029H18.5186C18.4576 45.8499 18.5406 45.7509 18.5926 45.6469C20.0059 42.8182 21.4205 39.9899 22.8365 37.1619C22.8642 37.1155 22.8993 37.0739 22.9406 37.0389Z" fill="black"/>
<path d="M25.3778 2.82791C25.0861 2.76202 24.824 2.60235 24.6317 2.37335C24.4393 2.14434 24.3273 1.85862 24.3128 1.55991C24.2853 1.29892 24.3375 1.03572 24.4625 0.804941C24.5874 0.574157 24.7793 0.38659 25.0128 0.266908C25.2547 0.132112 25.5317 0.0733857 25.8075 0.0984054C26.0833 0.123425 26.3451 0.231023 26.5588 0.407152C26.7725 0.58328 26.9282 0.819759 27.0054 1.0857C27.0826 1.35165 27.0779 1.6347 26.9918 1.8979C26.9074 2.16976 26.7392 2.40799 26.5113 2.57859C26.2834 2.74919 26.0074 2.84345 25.7228 2.84791C25.6075 2.84765 25.4923 2.84097 25.3778 2.82791Z" fill="black"/>
<path d="M13.3925 3.3936C13.503 3.5651 13.5747 3.75869 13.6025 3.9608C13.6304 4.16291 13.6137 4.36867 13.5537 4.56366C13.4937 4.75865 13.3918 4.93816 13.2551 5.08964C13.1185 5.24112 12.9503 5.3609 12.7625 5.4406C12.5865 5.51345 12.3973 5.54889 12.2069 5.54466C12.0164 5.54043 11.829 5.49662 11.6564 5.41601C11.4838 5.33541 11.3299 5.21978 11.2044 5.07647C11.0789 4.93317 10.9846 4.76532 10.9275 4.5836C10.8259 4.28455 10.8319 3.9594 10.9446 3.66433C11.0573 3.36927 11.2695 3.12283 11.5445 2.9676C11.8489 2.79023 12.2095 2.73555 12.5529 2.81469C12.8962 2.89384 13.1964 3.10085 13.3925 3.3936Z" fill="black"/>
<path d="M31.2901 13.5571C31.5861 13.6038 31.8585 13.7466 32.0652 13.9635C32.272 14.1804 32.4016 14.4593 32.4341 14.7571C32.4659 15.0325 32.4139 15.3111 32.2847 15.5565C32.1555 15.8018 31.9553 16.0024 31.7102 16.1321C31.4652 16.2618 31.1866 16.3145 30.9111 16.2832C30.6356 16.252 30.376 16.1383 30.1662 15.9571C29.9626 15.7804 29.8159 15.5473 29.7447 15.2872C29.6735 15.0272 29.681 14.7519 29.7661 14.4961C29.8468 14.2307 30.0075 13.9967 30.2262 13.8261C30.445 13.6555 30.7111 13.5567 30.9881 13.5431C31.089 13.5422 31.1898 13.5468 31.2901 13.5571Z" fill="black"/>
</svg>
