<svg width="47" height="44" viewBox="0 0 47 44" fill="none" xmlns="http://www.w3.org/2000/svg">
<path d="M11.8378 15.0485C11.2738 16.6075 10.7118 18.1236 10.1788 19.6486C10.1441 19.8056 10.0511 19.9436 9.91853 20.0348C9.78601 20.1259 9.62383 20.1634 9.46477 20.1396C6.7981 20.1242 4.12877 20.1242 1.45677 20.1396C1.37388 20.1534 1.28902 20.1499 1.20755 20.1293C1.12608 20.1087 1.04977 20.0714 0.983429 20.0198C0.917088 19.9682 0.862156 19.9035 0.822113 19.8296C0.782069 19.7557 0.757778 19.6743 0.75077 19.5906C0.20527 17.6511 -0.045529 15.6406 0.00677455 13.6266C0.103557 10.2468 1.25458 6.98181 3.29877 4.28856C4.62904 2.56376 6.46101 1.29347 8.54273 0.652386C10.6245 0.011306 12.8537 0.030928 14.9238 0.708554C17.706 1.59871 20.2515 3.10511 22.3708 5.11555C23.1618 5.82555 23.1708 5.82855 23.9658 5.11555C25.9179 3.28299 28.218 1.86091 30.7298 0.93356C33.2966 -0.0721962 36.1511 -0.0575647 38.7075 0.974453C41.264 2.00647 43.3285 3.97764 44.4778 6.48356C45.4465 8.40666 46.0542 10.4912 46.2708 12.6336C46.4525 14.9704 46.2213 17.3209 45.5878 19.5776C45.5798 19.6653 45.5536 19.7505 45.5108 19.8276C45.4681 19.9047 45.4098 19.972 45.3396 20.0254C45.2695 20.0787 45.189 20.1168 45.1033 20.1374C45.0175 20.1579 44.9285 20.1603 44.8418 20.1446C41.1418 20.1266 37.4358 20.1506 33.7338 20.1226C33.3214 20.0875 32.9075 20.171 32.541 20.3632C32.1744 20.5554 31.8704 20.8484 31.6648 21.2076C31.3438 21.7366 30.9748 22.2376 30.6158 22.7425C30.5158 22.8885 30.4448 23.0846 30.2248 23.1366C30.0507 22.9465 29.9329 22.7118 29.8848 22.4586C29.1188 20.4676 28.3728 18.4686 27.5948 16.4826C27.5179 16.2289 27.3788 15.9985 27.19 15.8124C27.0012 15.6263 26.7689 15.4905 26.5141 15.4173C26.2593 15.3441 25.9903 15.3359 25.7315 15.3934C25.4728 15.4509 25.2325 15.5723 25.0328 15.7466C24.7998 15.9528 24.6238 16.2156 24.5218 16.5096C23.5218 19.0369 22.5174 21.5629 21.5088 24.0876C21.4428 24.2536 21.4348 24.4616 21.2398 24.5556C21.0568 24.4896 21.0398 24.3186 20.9878 24.1816C19.3971 20.0742 17.8088 15.9662 16.2228 11.8576C15.7558 10.6516 14.7658 10.2055 13.7928 10.7575C13.412 11.002 13.1361 11.3796 13.0188 11.8166C12.6258 12.8776 12.2388 13.9425 11.8378 15.0485Z" fill="black"/>
<path d="M39.9188 23.3675H44.1248C44.0784 23.7758 43.937 24.1677 43.7118 24.5115C42.1276 27.673 40.0763 30.578 37.6268 33.1285C34.1518 36.7733 30.1861 39.9161 25.8438 42.4665C25.0746 42.9844 24.1706 43.2657 23.2433 43.2759C22.3161 43.286 21.4061 43.0245 20.6258 42.5235C14.8628 39.2377 9.80624 34.8452 5.74678 29.5985C4.43634 27.8667 3.31245 26.0013 2.39379 24.0335C2.30979 23.8525 2.1708 23.6795 2.2268 23.4495C2.43094 23.3583 2.6579 23.3311 2.8778 23.3715C5.46113 23.3675 8.04479 23.3675 10.6288 23.3715C11.1145 23.4541 11.6131 23.3405 12.0151 23.0557C12.4172 22.7708 12.6897 22.3381 12.7728 21.8525C13.3168 20.3478 13.8628 18.8438 14.4108 17.3405C14.4668 17.1875 14.4818 17.0005 14.7218 16.8765C15.0638 17.7445 15.4048 18.6015 15.7378 19.4615C17.0498 22.8468 18.3608 26.2328 19.6708 29.6195C19.7714 29.9527 19.9757 30.2451 20.2539 30.4543C20.5321 30.6634 20.8698 30.7784 21.2178 30.7825C21.5573 30.7705 21.8851 30.6551 22.1573 30.4517C22.4295 30.2483 22.633 29.9667 22.7408 29.6445C23.7021 27.2305 24.6618 24.8158 25.6198 22.4005C25.7328 22.1155 25.8558 21.8345 25.9798 21.5405C26.2198 21.6675 26.2418 21.8845 26.3118 22.0685C26.9518 23.7395 27.5988 25.4085 28.2198 27.0865C28.3099 27.4133 28.4968 27.7052 28.756 27.9236C29.0152 28.1421 29.3344 28.277 29.6718 28.3105C29.9841 28.3288 30.2952 28.2581 30.569 28.1068C30.8428 27.9555 31.0681 27.7296 31.2188 27.4555C32.0608 26.2375 32.9188 25.0315 33.7498 23.8045C33.8355 23.6586 33.9607 23.5398 34.1108 23.4618C34.261 23.3838 34.4301 23.3497 34.5988 23.3635C36.3558 23.3755 38.1098 23.3675 39.9188 23.3675Z" fill="black"/>
</svg>
