<svg width="46" height="46" viewBox="0 0 46 46" fill="none" xmlns="http://www.w3.org/2000/svg">
<path d="M22.541 33.0065C23.4231 34.3896 24.43 35.689 25.5491 36.8885C25.5153 36.9579 25.4655 37.0184 25.4038 37.0648C25.342 37.1112 25.2702 37.1423 25.1941 37.1555C23.7421 37.7025 22.2781 38.2215 20.8401 38.8025C20.6427 38.8988 20.4196 38.9293 20.2037 38.8895C19.9877 38.8497 19.7901 38.7418 19.64 38.5815C16.1271 35.6469 13.6403 31.6696 12.5401 27.2265C12.0317 25.2443 11.8208 23.1976 11.9141 21.1535C12.0247 18.5103 12.6227 15.9103 13.6781 13.4845C13.7042 13.433 13.7336 13.3832 13.766 13.3355C13.998 13.3045 14.0871 13.4895 14.2061 13.6075C15.6141 15.0075 17.0061 16.4245 18.4281 17.8135C18.5829 17.9492 18.7034 18.1196 18.7798 18.3108C18.8563 18.5019 18.8865 18.7084 18.8681 18.9135C18.7062 21.7789 19.0681 24.6498 19.9361 27.3855C20.5626 29.362 21.4379 31.2508 22.541 33.0065Z" fill="black"/>
<path d="M10.8126 30.3967C12.1996 34.1026 14.4602 37.4191 17.4026 40.0647C16.6306 40.3597 15.9556 40.6197 15.2786 40.8747C14.2596 41.2587 13.2336 41.6267 12.2206 42.0267C12.0884 42.0915 11.9387 42.1112 11.7942 42.0829C11.6497 42.0545 11.5185 41.9797 11.4206 41.8697C8.33842 39.1131 6.12393 35.52 5.04664 31.5277C4.97257 31.2844 4.98172 31.0233 5.07264 30.7857C6.41731 27.2097 7.75863 23.6327 9.09663 20.0547C9.11422 19.9462 9.15326 19.8423 9.21147 19.7491C9.26967 19.6559 9.34588 19.5752 9.43563 19.5117C9.05079 23.1977 9.52203 26.9227 10.8126 30.3967Z" fill="black"/>
<path d="M41.8781 3.89014C41.8851 3.34714 41.8461 2.82814 41.8561 2.30914C41.8591 1.62902 42.1188 0.975129 42.5831 0.478143C42.8131 0.218578 43.1302 0.052181 43.4745 0.0103624C43.8188 -0.0314563 44.1666 0.05419 44.4521 0.251138C44.7381 0.447887 44.9367 0.747826 45.0063 1.08795C45.0758 1.42807 45.0109 1.7819 44.8251 2.07514C44.6238 2.40696 44.5623 2.80505 44.6541 3.18214C44.8547 3.86951 44.9345 4.58647 44.8901 5.30114C44.8639 5.55517 44.7855 5.80104 44.6597 6.02325C44.5338 6.24546 44.3633 6.43919 44.1589 6.59223C43.9544 6.74528 43.7205 6.85431 43.4718 6.91247C43.2232 6.97063 42.9652 6.97664 42.7141 6.93014C42.1531 6.85514 41.596 6.75213 41.039 6.64913C40.392 6.53013 40.2551 6.67015 40.3571 7.30815C40.505 7.93261 40.6023 8.56801 40.6481 9.20814C40.6726 9.47788 40.6372 9.74973 40.5443 10.0042C40.4514 10.2586 40.3033 10.4893 40.1107 10.6797C39.9181 10.8702 39.6857 11.0156 39.4302 11.1055C39.1747 11.1955 38.9025 11.2278 38.6331 11.2001C38.0228 11.1682 37.4169 11.0795 36.8231 10.9351C36.1391 10.8041 36.0041 10.9201 36.0881 11.6071C36.1541 12.1531 36.2961 12.6911 36.3441 13.2381C36.4911 14.9051 35.412 15.7031 33.755 15.4521C33.269 15.3781 32.789 15.2641 32.302 15.2051C31.815 15.1461 31.7471 15.2361 31.7841 15.7231C31.8311 16.3321 32.0261 16.9161 32.0661 17.5311C32.1265 17.858 32.1023 18.1949 31.9955 18.5097C31.8888 18.8245 31.7031 19.1066 31.4563 19.3293C31.2095 19.5519 30.9098 19.7076 30.5857 19.7815C30.2616 19.8553 29.924 19.8449 29.6051 19.7511C29.2241 19.6811 28.8411 19.6201 28.4641 19.5331C28.2517 19.4691 28.0281 19.4509 27.8081 19.4797C27.5882 19.5085 27.3768 19.5836 27.1881 19.7001C26.895 19.8753 26.546 19.9314 26.2128 19.857C25.8797 19.7826 25.5877 19.5833 25.397 19.3001C25.2043 19.0121 25.1221 18.6641 25.1657 18.3203C25.2092 17.9765 25.3756 17.66 25.634 17.4291C26.0201 17.1081 26.4737 16.8784 26.961 16.7572C27.4482 16.636 27.9566 16.6264 28.4481 16.7291C28.657 16.7904 28.8799 16.7841 29.0851 16.7111C28.9971 15.4661 28.8151 14.1821 29.8631 13.1971C30.8761 12.2441 32.1151 12.3321 33.4091 12.5441C33.2171 11.2341 33.1031 9.97214 34.0961 8.96414C35.0891 7.95614 36.3681 8.08915 37.6751 8.25215C37.6521 8.01415 37.644 7.81015 37.612 7.61015C37.4691 7.09186 37.4673 6.54481 37.6066 6.02554C37.7458 5.50627 38.0213 5.03362 38.4044 4.65643C38.7875 4.27924 39.2643 4.01119 39.7857 3.87999C40.3071 3.74879 40.8541 3.7592 41.3701 3.91014C41.5369 3.96047 41.7157 3.95343 41.8781 3.89014Z" fill="black"/>
<path d="M30.8555 30.2454C31.4895 30.8804 32.1055 31.4884 32.7125 32.1054C32.907 32.2669 33.0539 32.4783 33.1374 32.717C33.2209 32.9557 33.2379 33.2126 33.1865 33.4601C33.1351 33.7077 33.0173 33.9367 32.8457 34.1224C32.6741 34.3081 32.4552 34.4436 32.2125 34.5144C31.0595 34.9634 29.8955 35.3844 28.7415 35.8304C28.6211 35.8866 28.4855 35.9013 28.356 35.8721C28.2264 35.843 28.1102 35.7717 28.0255 35.6694C24.6113 32.4028 22.3755 28.0972 21.6675 23.4254C21.5675 22.7934 21.5005 22.1574 21.4255 21.5254C21.3867 21.3143 21.4129 21.0964 21.5005 20.9004L30.8555 30.2454Z" fill="black"/>
<path d="M2.83742 36.754C3.03742 36.236 3.22842 35.7541 3.42142 35.2661C3.43042 35.2441 3.46643 35.234 3.56643 35.166C4.82913 38.1278 6.65957 40.8137 8.95443 43.072C8.92643 43.28 8.80542 43.299 8.71642 43.332C6.45542 44.18 4.19743 45.0321 1.93043 45.8621C1.74051 45.9438 1.53471 45.9821 1.32809 45.974C1.12148 45.9659 0.919287 45.9117 0.736342 45.8153C0.553397 45.7189 0.394336 45.5829 0.270804 45.4171C0.147273 45.2512 0.0624031 45.0599 0.0224217 44.8571C-0.0328601 44.5317 0.0146806 44.1971 0.158423 43.9C1.04642 41.531 1.93642 39.159 2.83742 36.754Z" fill="black"/>
<path d="M25.4232 0.95828C25.7824 0.912513 26.1452 1.01052 26.4325 1.23097C26.7198 1.45142 26.9084 1.77645 26.9572 2.13528C27.5947 4.81436 27.2764 7.63199 26.0572 10.1013C25.2622 11.7941 24.1726 13.332 22.8392 14.6433C22.7149 14.7885 22.5621 14.9066 22.3902 14.9901C22.2184 15.0737 22.0311 15.1209 21.8402 15.1289C21.6492 15.1369 21.4587 15.1054 21.2804 15.0365C21.1022 14.9676 20.9401 14.8626 20.8041 14.7283C20.673 14.5904 20.5703 14.4281 20.502 14.2505C20.4336 14.073 20.4009 13.8837 20.4057 13.6935C20.4106 13.5033 20.4528 13.3159 20.5301 13.1421C20.6074 12.9682 20.7182 12.8113 20.8561 12.6803C22.4984 11.0961 23.6673 9.08608 24.2322 6.87527C24.5637 5.52361 24.5723 4.11287 24.2571 2.75728C24.1923 2.56192 24.1721 2.35448 24.1982 2.1503C24.2243 1.94611 24.296 1.7504 24.408 1.57766C24.5199 1.40492 24.6693 1.25957 24.845 1.15236C25.0208 1.04514 25.2183 0.978817 25.4232 0.95828Z" fill="black"/>
<path d="M32.6209 21.9688C34.6799 20.2207 37.2026 19.109 39.882 18.7688C41.2323 18.592 42.6041 18.6817 43.92 19.0328C44.2812 19.1124 44.5971 19.3297 44.8007 19.6386C45.0042 19.9474 45.0793 20.3234 45.01 20.6868C44.9722 20.8715 44.8969 21.0465 44.7887 21.2009C44.6806 21.3553 44.5418 21.4858 44.3811 21.5843C44.2204 21.6829 44.0411 21.7474 43.8545 21.7738C43.6678 21.8002 43.4777 21.7879 43.296 21.7378C41.8012 21.4187 40.2533 21.4445 38.7699 21.813C37.2865 22.1816 35.9066 22.8832 34.735 23.8648C34.2099 24.2601 33.712 24.6904 33.2449 25.1528C33.1164 25.289 32.9617 25.3978 32.7901 25.4726C32.6184 25.5475 32.4334 25.5869 32.2462 25.5885C32.0589 25.59 31.8733 25.5537 31.7005 25.4816C31.5276 25.4096 31.3711 25.3034 31.2404 25.1693C31.1096 25.0353 31.0073 24.8762 30.9396 24.7016C30.872 24.527 30.8402 24.3405 30.8465 24.1534C30.8527 23.9662 30.8967 23.7822 30.9758 23.6125C31.055 23.4428 31.1676 23.2909 31.3069 23.1658C31.7199 22.7588 32.1639 22.3808 32.6209 21.9688Z" fill="black"/>
<path d="M31.99 6.54176C31.7243 6.49366 31.4784 6.36885 31.2827 6.18271C31.087 5.99656 30.95 5.75723 30.8887 5.4942C30.8274 5.23117 30.8443 4.95594 30.9375 4.70244C31.0307 4.44893 31.196 4.22823 31.4131 4.06753C31.6302 3.90683 31.8895 3.81316 32.1592 3.79806C32.4288 3.78296 32.697 3.8471 32.9307 3.98256C33.1643 4.11802 33.3532 4.31889 33.4741 4.56041C33.595 4.80193 33.6426 5.07353 33.611 5.34176C33.5908 5.5302 33.5317 5.71239 33.4375 5.87683C33.3432 6.04127 33.2159 6.18439 33.0636 6.29715C32.9113 6.40991 32.7373 6.48988 32.5525 6.53198C32.3677 6.57408 32.1762 6.57741 31.99 6.54176Z" fill="black"/>
<path d="M43.1324 14.8007C42.9324 15.6427 42.4084 16.1077 41.7264 16.0917C41.4122 16.0796 41.1109 15.9631 40.8702 15.7606C40.6296 15.5582 40.4632 15.2813 40.3974 14.9737C40.3178 14.6301 40.3754 14.2689 40.5581 13.967C40.7408 13.6652 41.034 13.4466 41.3754 13.3577C41.7146 13.2615 42.0778 13.2996 42.3896 13.464C42.7015 13.6284 42.9381 13.9065 43.0504 14.2407C43.0952 14.4244 43.1227 14.6119 43.1324 14.8007Z" fill="black"/>
<path d="M18.016 8.13C17.7741 7.9077 17.6154 7.60948 17.5661 7.2847C17.5168 6.95992 17.5799 6.62804 17.745 6.34399C17.9231 6.06398 18.1955 5.85683 18.5129 5.7599C18.8303 5.66298 19.1719 5.68265 19.4761 5.81538C19.7803 5.94811 20.027 6.18516 20.1719 6.48378C20.3167 6.7824 20.3501 7.12295 20.266 7.444C20.2176 7.6284 20.1315 7.80072 20.0129 7.95001C19.8944 8.09931 19.7461 8.22231 19.5775 8.31119C19.4088 8.40007 19.2236 8.45288 19.0334 8.46628C18.8433 8.47967 18.6524 8.45337 18.473 8.38901C18.3137 8.31559 18.1608 8.22895 18.016 8.13Z" fill="black"/>
<path d="M40.7637 26.9626C40.9948 27.1841 41.1463 27.4758 41.1945 27.7923C41.2428 28.1087 41.1853 28.4322 41.0308 28.7126C40.8612 28.9971 40.5952 29.2113 40.2811 29.3164C39.9671 29.4214 39.6257 29.4104 39.3191 29.2853C39.0125 29.1602 38.7609 28.9293 38.61 28.6344C38.4591 28.3396 38.4189 28.0005 38.4968 27.6786C38.539 27.4925 38.62 27.3173 38.7345 27.1646C38.849 27.0118 38.9944 26.885 39.1612 26.7922C39.328 26.6995 39.5126 26.6429 39.7027 26.6263C39.8929 26.6096 40.0844 26.6332 40.2648 26.6956C40.439 26.7691 40.606 26.8584 40.7637 26.9626Z" fill="black"/>
</svg>
