<svg width="40" height="43" viewBox="0 0 40 43" fill="none" xmlns="http://www.w3.org/2000/svg">
<path d="M7.92829 42.2468C6.08189 42.2881 4.28157 41.6679 2.85244 40.498C1.42331 39.3282 0.459579 37.6859 0.13529 35.8678C0.0451793 35.373 0.00265195 34.8707 0.00829028 34.3678C0.00362361 26.5318 0.00129028 18.6941 0.00129028 10.8548C-0.0333025 8.95974 0.628729 7.1179 1.86184 5.67854C3.09495 4.23917 4.81339 3.30237 6.69129 3.04577C7.20702 2.98592 7.72619 2.96087 8.24529 2.97077C8.85529 2.95877 9.46629 2.97077 10.1253 2.97077C10.1253 2.54077 10.1253 2.15277 10.1253 1.76577C10.107 1.5536 10.133 1.33994 10.2015 1.13829C10.2699 0.936634 10.3795 0.751363 10.5231 0.594163C10.6668 0.436964 10.8415 0.311249 11.0362 0.224952C11.2309 0.138655 11.4413 0.0936489 11.6543 0.0927734C11.8629 0.0942867 12.069 0.139043 12.2594 0.224216C12.4499 0.309389 12.6206 0.433128 12.7608 0.587618C12.901 0.742108 13.0076 0.923994 13.074 1.12179C13.1403 1.31958 13.165 1.52898 13.1463 1.73677C13.1513 2.12577 13.1463 2.51577 13.1463 2.93677H26.3013C26.3013 2.53677 26.3013 2.13677 26.3013 1.73677C26.2826 1.52915 26.3072 1.31991 26.3734 1.12226C26.4397 0.924599 26.5461 0.742809 26.6861 0.588348C26.8261 0.433888 26.9966 0.310109 27.1868 0.224814C27.377 0.13952 27.5828 0.0945616 27.7913 0.0927734C28.0039 0.0931651 28.2141 0.137579 28.4087 0.223218C28.6033 0.308856 28.7781 0.433865 28.922 0.590369C29.0659 0.746874 29.1759 0.931484 29.245 1.13257C29.314 1.33366 29.3407 1.54687 29.3233 1.75877C29.3293 2.14777 29.3233 2.53577 29.3233 2.96877C30.0893 2.96877 30.8093 2.96177 31.5303 2.96877C33.295 2.93053 35.0196 3.49737 36.4175 4.57507C37.8154 5.65278 38.8023 7.17643 39.2143 8.89277C39.3644 9.53321 39.4392 10.189 39.4373 10.8468C39.452 18.6861 39.4546 26.5251 39.4453 34.3638C39.4628 35.4067 39.2696 36.4424 38.8773 37.4088C38.485 38.3753 37.9017 39.2526 37.1623 39.9883C36.4229 40.7239 35.5426 41.3028 34.5742 41.6902C33.6057 42.0776 32.5691 42.2655 31.5263 42.2428C30.2523 42.2428 28.9773 42.2428 27.6563 42.2428H7.92829V42.2468ZM20.3463 32.4338C21.2273 32.9138 22.1123 33.3868 23.0153 33.8248C23.6577 34.1708 24.3873 34.3214 25.1142 34.258C25.8411 34.1945 26.5336 33.9199 27.1063 33.4678C27.6922 33.0629 28.1474 32.4962 28.4165 31.8368C28.6855 31.1774 28.7567 30.4539 28.6213 29.7548C28.4813 28.8258 28.3363 27.8968 28.1513 26.9768C28.0751 26.7141 28.0782 26.4348 28.16 26.1739C28.2418 25.9129 28.3988 25.6819 28.6113 25.5098C29.3403 24.8648 30.0333 24.1778 30.7113 23.4778C31.1466 23.034 31.4684 22.4917 31.6494 21.8969C31.8303 21.3021 31.865 20.6725 31.7506 20.0614C31.6361 19.4504 31.3759 18.8759 30.9919 18.387C30.608 17.898 30.1117 17.5089 29.5453 17.2528C28.9573 17.0509 28.3511 16.9066 27.7353 16.8218C26.9903 16.7068 26.2473 16.5678 25.4983 16.4868C25.2947 16.4754 25.0984 16.4071 24.9318 16.2895C24.7653 16.1719 24.6351 16.0098 24.5563 15.8218C24.1483 14.9768 23.7273 14.1378 23.3153 13.2948C23.0213 12.5929 22.5223 11.9961 21.8835 11.5825C21.2448 11.1689 20.496 10.9578 19.7353 10.9768C18.9745 10.9554 18.225 11.1642 17.5848 11.5758C16.9446 11.9874 16.4436 12.5827 16.1473 13.2838C15.7253 14.1398 15.3013 14.9938 14.8833 15.8518C14.8095 16.0251 14.6901 16.1751 14.5377 16.2859C14.3854 16.3966 14.2059 16.464 14.0183 16.4808C13.0183 16.6118 12.0283 16.7728 11.0343 16.9248C10.3094 16.9982 9.62226 17.2834 9.05851 17.7449C8.49476 18.2064 8.07941 18.8237 7.86429 19.5198C7.60277 20.2163 7.55607 20.9753 7.73022 21.6987C7.90438 22.422 8.2914 23.0766 8.84129 23.5778C9.48229 24.2248 10.1223 24.8778 10.8073 25.4778C11.033 25.658 11.1998 25.9015 11.2862 26.1772C11.3726 26.4528 11.3747 26.7479 11.2923 27.0248C11.0708 28.0343 10.9019 29.0547 10.7863 30.0818C10.7374 30.7618 10.8681 31.4427 11.1653 32.0563C11.4625 32.6698 11.9157 33.1945 12.4795 33.5778C13.0433 33.961 13.698 34.1894 14.3779 34.2399C15.0578 34.2905 15.739 34.1614 16.3533 33.8658C17.2893 33.4268 18.2023 32.9358 19.1093 32.4378C19.2957 32.3223 19.5105 32.2611 19.7298 32.2611C19.949 32.2611 20.1639 32.3223 20.3503 32.4378L20.3463 32.4338ZM14.1383 31.0458C13.9893 30.9297 13.8797 30.7707 13.8242 30.5902C13.7687 30.4096 13.7702 30.2164 13.8283 30.0368C14.0123 29.0678 14.1643 28.0928 14.3343 27.0788C14.4463 26.3953 14.379 25.6944 14.1388 25.0448C13.8987 24.3952 13.494 23.819 12.9643 23.3728C12.3263 22.7908 11.7253 22.1728 11.0993 21.5728C10.9297 21.458 10.8007 21.2924 10.7308 21.0999C10.661 20.9074 10.6538 20.6977 10.7103 20.5008C10.8703 20.0098 11.2693 19.9178 11.7103 19.8558C12.7103 19.7128 13.7013 19.5758 14.6923 19.4078C15.3081 19.3113 15.8907 19.0648 16.3887 18.69C16.8868 18.3153 17.285 17.8237 17.5483 17.2588C17.9963 16.3814 18.4313 15.4971 18.8533 14.6058C18.9167 14.4232 19.0357 14.265 19.1934 14.1534C19.3512 14.0418 19.5399 13.9822 19.7331 13.9831C19.9264 13.984 20.1146 14.0452 20.2713 14.1583C20.428 14.2714 20.5455 14.4306 20.6073 14.6138C21.0233 15.4898 21.4583 16.3568 21.8923 17.2238C22.1841 17.8446 22.6327 18.3787 23.1939 18.7732C23.755 19.1678 24.4093 19.4092 25.0923 19.4738C26.0273 19.5968 26.9583 19.7418 27.8923 19.8738C28.0823 19.8768 28.2665 19.9396 28.4188 20.0532C28.5711 20.1668 28.6838 20.3255 28.7408 20.5067C28.7979 20.688 28.7965 20.8826 28.7369 21.063C28.6772 21.2433 28.5622 21.4004 28.4083 21.5118C27.7083 22.1858 27.0163 22.8748 26.3083 23.5468C25.8189 23.9929 25.4525 24.5575 25.2444 25.1863C25.0364 25.815 24.9936 26.4867 25.1203 27.1368C25.2743 28.1108 25.4383 29.0838 25.6203 30.0538C25.676 30.2348 25.6737 30.4286 25.6139 30.6083C25.554 30.7879 25.4396 30.9444 25.2865 31.0559C25.1334 31.1673 24.9493 31.2282 24.76 31.23C24.5706 31.2318 24.3854 31.1743 24.2303 31.0658C23.3593 30.6008 22.4783 30.1528 21.6033 29.6958C21.0173 29.3686 20.3564 29.1994 19.6853 29.2046C19.0142 29.2099 18.356 29.3895 17.7753 29.7258C16.9183 30.1828 16.0493 30.6198 15.1913 31.0768C15.028 31.1713 14.8439 31.2242 14.6553 31.2308C14.4671 31.2289 14.285 31.1638 14.1383 31.0458Z" fill="#010101"/>
</svg>
