<svg width="22" height="27" viewBox="0 0 22 27" fill="none" xmlns="http://www.w3.org/2000/svg">
<path fill-rule="evenodd" clip-rule="evenodd" d="M21.0081 21.6329C20.8957 21.6333 20.7845 21.6107 20.6812 21.5663C20.578 21.5219 20.485 21.4568 20.4081 21.3749L18.7491 19.7159V22.6429C18.7459 23.7099 18.3198 24.7321 17.5642 25.4855C16.8085 26.2389 15.7851 26.6619 14.718 26.6619H7.11006C6.04489 26.6595 5.02401 26.2353 4.27081 25.4821C3.51762 24.7289 3.09343 23.7081 3.09105 22.6429V19.7549L1.46906 21.3769C1.30767 21.5383 1.08878 21.629 0.86055 21.629C0.632318 21.629 0.413444 21.5383 0.25206 21.3769C0.0906757 21.2155 7.21442e-09 20.9966 0 20.7684C-7.21445e-09 20.5402 0.0906757 20.3213 0.25206 20.1599L3.09105 17.3209V7.83291C3.09105 6.80479 3.29355 5.78673 3.687 4.83688C4.08044 3.88702 4.65712 3.02396 5.38411 2.29697C6.1111 1.56998 6.97417 0.993298 7.92403 0.599854C8.87388 0.206409 9.89194 0.00390625 10.9201 0.00390625C11.9482 0.00390625 12.9662 0.206409 13.9161 0.599854C14.8659 0.993298 15.729 1.56998 16.456 2.29697C17.183 3.02396 17.7597 3.88702 18.1531 4.83688C18.5466 5.78673 18.7491 6.80479 18.7491 7.83291V14.1429L17.0251 12.4269V7.8269C17.0251 6.20682 16.3815 4.6531 15.2359 3.50754C14.0904 2.36197 12.5366 1.71841 10.9165 1.71841C9.29647 1.71841 7.74276 2.36197 6.5972 3.50754C5.45163 4.6531 4.80806 6.20682 4.80806 7.8269V15.5949L9.19606 11.2069C9.65775 10.7466 10.2831 10.4881 10.9351 10.4881C11.587 10.4881 12.2124 10.7466 12.6741 11.2069L21.6221 20.1549C21.7417 20.2765 21.8228 20.4308 21.8552 20.5983C21.8876 20.7658 21.8699 20.9391 21.8042 21.0966C21.7385 21.254 21.6279 21.3886 21.4861 21.4835C21.3443 21.5784 21.1777 21.6293 21.007 21.6299L21.0081 21.6329ZM17.0251 17.9949L11.4571 12.4269C11.3171 12.291 11.1297 12.2149 10.9346 12.2149C10.7394 12.2149 10.552 12.291 10.412 12.4269L4.81206 18.0269V22.6429C4.81206 22.9449 4.87155 23.244 4.98714 23.5231C5.10272 23.8021 5.27213 24.0557 5.4857 24.2692C5.69928 24.4828 5.95284 24.6522 6.23189 24.7678C6.51094 24.8834 6.81002 24.9429 7.11206 24.9429H14.7201C15.3305 24.9429 15.916 24.7007 16.3482 24.2696C16.7803 23.8384 17.0237 23.2534 17.0251 22.6429V17.9949Z" fill="#3A4B4C"/>
</svg>
