<svg width="26" height="26" viewBox="0 0 26 26" fill="none" xmlns="http://www.w3.org/2000/svg">
<path d="M21.443 3.67851C19.6864 1.92203 17.4484 0.725869 15.012 0.241293C12.5757 -0.243283 10.0503 0.00548679 7.75529 0.956143C5.46029 1.9068 3.49873 3.51665 2.11865 5.58211C0.738567 7.64758 0.00195313 10.0759 0.00195312 12.56C0.00195312 15.0441 0.738567 17.4724 2.11865 19.5379C3.49873 21.6034 5.46029 23.2132 7.75529 24.1639C10.0503 25.1145 12.5757 25.3633 15.012 24.8787C17.4484 24.3941 19.6864 23.198 21.443 21.4415C22.6094 20.2752 23.5346 18.8906 24.1658 17.3667C24.7971 15.8428 25.122 14.2095 25.122 12.56C25.122 10.9105 24.7971 9.27724 24.1658 7.75335C23.5346 6.22945 22.6094 4.84482 21.443 3.67851ZM6.30198 21.6995C6.56148 20.2268 7.33161 18.8927 8.47708 17.9314C9.62255 16.9701 11.0701 16.4432 12.5655 16.4432C14.0608 16.4432 15.5084 16.9701 16.6539 17.9314C17.7993 18.8927 18.5695 20.2268 18.829 21.6995C16.9854 22.9652 14.8017 23.6427 12.5655 23.6427C10.3293 23.6427 8.14551 22.9652 6.30198 21.6995ZM8.56898 10.9805C8.56898 10.1906 8.80322 9.41837 9.24209 8.76156C9.68095 8.10475 10.3047 7.59283 11.0345 7.29053C11.7643 6.98823 12.5674 6.90914 13.3422 7.06325C14.1169 7.21736 14.8286 7.59775 15.3872 8.15632C15.9457 8.71489 16.3261 9.42655 16.4802 10.2013C16.6343 10.9761 16.5552 11.7791 16.253 12.5089C15.9507 13.2388 15.4387 13.8625 14.7819 14.3014C14.1251 14.7403 13.3529 14.9745 12.563 14.9745C11.5037 14.9745 10.4878 14.5537 9.73879 13.8047C8.98977 13.0557 8.56898 12.0398 8.56898 10.9805ZM20.099 20.6805C19.776 19.5377 19.1977 18.4832 18.4078 17.5965C17.6179 16.7097 16.637 16.0139 15.539 15.5615C16.5273 14.9193 17.2817 13.9749 17.6894 12.869C18.0972 11.7631 18.1366 10.5551 17.8017 9.42498C17.4668 8.29489 16.7756 7.30332 15.8312 6.59815C14.8867 5.89298 13.7396 5.51198 12.561 5.51198C11.3823 5.51198 10.2352 5.89298 9.29077 6.59815C8.34632 7.30332 7.65512 8.29489 7.32024 9.42498C6.98535 10.5551 7.02474 11.7631 7.43251 12.869C7.84029 13.9749 8.5946 14.9193 9.58298 15.5615C8.48494 16.0139 7.50397 16.7096 6.71406 17.5964C5.92414 18.4831 5.34591 19.5377 5.02298 20.6805C3.38861 19.1653 2.2488 17.1926 1.75222 15.02C1.25563 12.8473 1.42531 10.5754 2.23914 8.50057C3.05296 6.42576 4.47315 4.64436 6.31447 3.3887C8.15578 2.13304 10.3328 1.46141 12.5615 1.46141C14.7902 1.46141 16.9672 2.13304 18.8085 3.3887C20.6498 4.64436 22.07 6.42576 22.8838 8.50057C23.6976 10.5754 23.8673 12.8473 23.3707 15.02C22.8741 17.1926 21.7333 19.1653 20.099 20.6805Z" fill="#3A4B4C"/>
</svg>
