<svg width="41" height="40" viewBox="0 0 41 40" fill="none" xmlns="http://www.w3.org/2000/svg">
<g clip-path="url(#clip0_3_200781)">
<path d="M20.412 0C9.4957 0 0.648438 8.84727 0.648438 19.7635C0.648438 30.6798 9.4957 39.5271 20.412 39.5271C31.3282 39.5271 40.1755 30.6798 40.1755 19.7635C40.1755 8.84727 31.3282 0 20.412 0ZM21.1145 10.9703C21.8402 10.0902 23.0754 9.41856 24.1331 9.34135C24.3106 10.5457 23.8165 11.7192 23.1681 12.5529C22.4732 13.4485 21.2766 14.1356 20.1186 14.097C19.9179 12.9467 20.4583 11.7655 21.1145 10.9703ZM27.6226 26.2407C26.7888 27.5068 25.6153 29.0894 24.1562 29.1049C22.8592 29.1203 22.5273 28.2634 20.7748 28.2711C19.0223 28.2788 18.6518 29.1203 17.3548 29.1049C15.8957 29.0894 14.784 27.6612 13.9502 26.3951C11.6187 22.8439 11.3717 18.6827 12.8154 16.467C13.8344 14.8921 15.4479 13.9734 16.9688 13.9734C18.5128 13.9734 19.4778 14.8226 20.7594 14.8226C21.9946 14.8226 22.7512 13.9734 24.5345 13.9734C25.8855 13.9734 27.3138 14.7068 28.3328 15.9807C24.9977 17.8103 25.5381 22.5737 28.9118 23.8475C28.4409 24.8665 28.217 25.3297 27.6226 26.2407Z" fill="black"/>
</g>
<defs>
<clipPath id="clip0_3_200781">
<rect width="39.5271" height="39.5271" fill="white" transform="translate(0.648438)"/>
</clipPath>
</defs>
</svg>
