<svg width="22" height="17" viewBox="0 0 22 17" fill="none" xmlns="http://www.w3.org/2000/svg">
<path fill-rule="evenodd" clip-rule="evenodd" d="M2.05633 8.50539C2.15115 8.66524 2.27684 8.86894 2.43255 9.10415C2.83249 9.70829 3.42477 10.5117 4.1937 11.3119C5.7474 12.9287 7.91963 14.4297 10.6093 14.4297C13.299 14.4297 15.4713 12.9287 17.025 11.3119C17.7939 10.5117 18.3862 9.70829 18.7861 9.10415C18.9418 8.86894 19.0675 8.66524 19.1623 8.50539C19.0675 8.34555 18.9418 8.14185 18.7861 7.90664C18.3862 7.3025 17.7939 6.49909 17.025 5.69892C15.4713 4.0821 13.299 2.58109 10.6093 2.58109C7.91963 2.58109 5.7474 4.0821 4.1937 5.69892C3.42477 6.49909 2.83249 7.3025 2.43255 7.90664C2.27684 8.14185 2.15115 8.34555 2.05633 8.50539ZM20.152 8.50539C20.9279 8.1269 20.9277 8.12662 20.9276 8.12631L20.9262 8.12359L20.9232 8.11781L20.9133 8.09901C20.9051 8.08331 20.8934 8.06134 20.8783 8.03351C20.8481 7.97788 20.8043 7.89877 20.7471 7.79955C20.6327 7.60121 20.4644 7.32182 20.2436 6.98833C19.8032 6.32297 19.1484 5.43372 18.2907 4.54124C16.5913 2.77273 13.9922 0.888428 10.6093 0.888428C7.22648 0.888428 4.62741 2.77273 2.92794 4.54124C2.07029 5.43372 1.41552 6.32297 0.975064 6.98833C0.754295 7.32182 0.585948 7.60121 0.471592 7.79955C0.414382 7.89877 0.370587 7.97788 0.340409 8.03351C0.325317 8.06134 0.313622 8.08331 0.305348 8.09901L0.295504 8.11781L0.29251 8.12359L0.291496 8.12556C0.291336 8.12587 0.290804 8.1269 1.06673 8.50539L0.290804 8.1269C0.16869 8.36517 0.16869 8.64562 0.290804 8.88388L1.06673 8.50539C0.290804 8.88389 0.290645 8.88357 0.290804 8.88388L0.291496 8.88523L0.29251 8.8872L0.295504 8.89298L0.305348 8.91178C0.313622 8.92748 0.325317 8.94945 0.340409 8.97728C0.370587 9.03291 0.414382 9.11202 0.471592 9.21124C0.585948 9.40958 0.754295 9.68897 0.975064 10.0225C1.41552 10.6878 2.07029 11.5771 2.92794 12.4696C4.62741 14.2381 7.22648 16.1224 10.6093 16.1224C13.9922 16.1224 16.5913 14.2381 18.2907 12.4696C19.1484 11.5771 19.8032 10.6878 20.2436 10.0225C20.4644 9.68897 20.6327 9.40958 20.7471 9.21124C20.8043 9.11202 20.8481 9.03291 20.8783 8.97728C20.8934 8.94945 20.9051 8.92748 20.9133 8.91178L20.9232 8.89298L20.9262 8.8872L20.9272 8.88523C20.9273 8.88492 20.9279 8.88389 20.152 8.50539ZM20.152 8.50539L20.9279 8.88388C21.05 8.64562 21.0497 8.36457 20.9276 8.12631L20.152 8.50539ZM10.6094 6.81275C9.65113 6.81275 8.87433 7.57058 8.87433 8.50541C8.87433 9.44024 9.65113 10.1981 10.6094 10.1981C11.5676 10.1981 12.3444 9.44024 12.3444 8.50541C12.3444 7.57058 11.5676 6.81275 10.6094 6.81275ZM7.13931 8.50541C7.13931 6.63575 8.6929 5.12009 10.6094 5.12009C12.5258 5.12009 14.0794 6.63575 14.0794 8.50541C14.0794 10.3751 12.5258 11.8907 10.6094 11.8907C8.6929 11.8907 7.13931 10.3751 7.13931 8.50541Z" fill="#333333"/>
</svg>
