<svg width="41" height="40" viewBox="0 0 41 40" fill="none" xmlns="http://www.w3.org/2000/svg">
<path d="M20.5886 39.5288C31.5042 39.5288 40.353 30.68 40.353 19.7644C40.353 8.84883 31.5042 0 20.5886 0C9.67305 0 0.824219 8.84883 0.824219 19.7644C0.824219 30.68 9.67305 39.5288 20.5886 39.5288Z" fill="url(#paint0_linear_3_200776)"/>
<path d="M27.9871 25.8382L28.8651 20.2597H23.3728V16.6413C23.3728 15.1148 24.1387 13.6259 26.5987 13.6259H29.0972V8.87668C29.0972 8.87668 26.8306 8.49976 24.6647 8.49976C20.1394 8.49976 17.1845 11.1721 17.1845 16.008V20.2597H12.1562V25.8382H17.1845V39.3245C18.1939 39.4791 19.2265 39.5581 20.2786 39.5581C21.3306 39.5581 22.3634 39.4791 23.3728 39.3245V25.8382H27.9871Z" fill="white"/>
<defs>
<linearGradient id="paint0_linear_3_200776" x1="20.5886" y1="0" x2="20.5886" y2="39.4116" gradientUnits="userSpaceOnUse">
<stop stop-color="#18ACFE"/>
<stop offset="1" stop-color="#0163E0"/>
</linearGradient>
</defs>
</svg>
