<svg width="40" height="40" viewBox="0 0 40 40" fill="none" xmlns="http://www.w3.org/2000/svg">
<g clip-path="url(#clip0_3_200772)">
<path opacity="0.987" fill-rule="evenodd" clip-rule="evenodd" d="M18.423 -0.0383301C19.6067 -0.0383301 20.7905 -0.0383301 21.9742 -0.0383301C28.8948 0.80223 34.1059 4.22482 37.6075 10.2294C38.8963 12.659 39.6812 15.2324 39.9621 17.9496C39.9621 19.1333 39.9621 20.3171 39.9621 21.5008C39.1215 28.4215 35.699 33.6325 29.6943 37.1341C27.2647 38.423 24.6914 39.2078 21.9742 39.4887C20.7905 39.4887 19.6067 39.4887 18.423 39.4887C11.5023 38.6482 6.29125 35.2256 2.7897 29.221C1.50085 26.7914 0.715963 24.218 0.435059 21.5008C0.435059 20.3171 0.435059 19.1333 0.435059 17.9496C1.27559 11.029 4.69817 5.81795 10.7028 2.31631C13.1324 1.02746 15.7058 0.242574 18.423 -0.0383301ZM8.69559 11.8507C16.3513 11.7606 24.02 11.7478 31.7016 11.8121C28.2018 15.3118 24.702 18.8117 21.2022 22.3114C20.5331 22.3629 19.8641 22.3629 19.195 22.3114C15.7054 18.809 12.2056 15.322 8.69559 11.8507ZM7.69198 12.8543C10.1093 15.2202 12.5025 17.6134 14.8717 20.034C12.5052 22.4391 10.1249 24.8323 7.73058 27.2137C7.69198 22.4273 7.67911 17.6408 7.69198 12.8543ZM32.628 12.8543C32.7179 17.6278 32.7308 22.4143 32.6666 27.2137C30.2723 24.8323 27.8919 22.4391 25.5255 20.034C27.8946 17.6391 30.2621 15.2459 32.628 12.8543ZM15.8753 21.0376C16.7604 21.8841 17.6353 22.7462 18.5002 23.6239C19.0586 23.7113 19.6247 23.7499 20.1986 23.7397C20.7725 23.7499 21.3386 23.7113 21.897 23.6239C22.7591 22.7618 23.6211 21.8997 24.4833 21.0376C26.6835 23.2379 28.8837 25.4381 31.084 27.6383C23.827 27.6898 16.5701 27.6898 9.31321 27.6383C11.5161 25.4483 13.7035 23.248 15.8753 21.0376Z" fill="#4AEAB1"/>
</g>
<defs>
<clipPath id="clip0_3_200772">
<rect width="39.5271" height="39.5271" fill="white" transform="translate(0.472656)"/>
</clipPath>
</defs>
</svg>
