<svg width="121" height="121" viewBox="0 0 121 121" fill="none" xmlns="http://www.w3.org/2000/svg">
<g filter="url(#filter0_d_11_765478)">
<ellipse cx="60.5" cy="60" rx="50.5" ry="50" fill="white"/>
<path d="M60.5 10C73.8934 10 86.7383 15.3205 96.2089 24.7911C105.679 34.2617 111 47.1066 111 60.5C111 73.8934 105.679 86.7383 96.2089 96.2089C86.7383 105.679 73.8934 111 60.5 111C47.1066 111 34.2617 105.679 24.7911 96.2089C15.3205 86.7383 10 73.8934 10 60.5C10 47.1066 15.3205 34.2617 24.7911 24.7911C34.2617 15.3205 47.1066 10 60.5 10Z" fill="#4AEAB1"/>
<path d="M80.896 59.5C78.3241 57.6405 75.0545 56.6534 71.6995 56.7237H50.1338C49.1505 56.7451 48.1723 56.5951 47.2578 56.2828C46.3433 55.9705 45.5112 55.5023 44.8115 54.9061C44.1117 54.3099 43.5586 53.598 43.1852 52.8131C42.8119 52.0282 42.626 51.1864 42.6387 50.3381C42.6147 50.0079 42.6147 49.6767 42.6387 49.3466C42.9286 47.8307 43.8501 46.4583 45.2302 45.487C46.6103 44.5157 48.3539 44.0124 50.1338 44.0715H71.3776C73.1105 44.0702 74.7876 44.5998 76.1099 45.566C77.4321 46.5321 78.3135 47.872 78.5968 49.3466H85.4942C85.2055 46.2884 83.593 43.4359 80.9775 41.3562C78.362 39.2766 74.9349 38.1221 71.3776 38.1222H64.1124V29H58.3646V38.1222H50.1338C46.5765 38.1221 43.1494 39.2766 40.5339 41.3562C37.9184 43.4359 36.3059 46.2884 36.0172 49.3466C35.9943 49.6768 35.9943 50.0079 36.0172 50.3381C36.0172 51.9371 36.3823 53.5204 37.0918 54.9977C37.8012 56.475 38.841 57.8173 40.1519 58.948C42.7992 61.2315 46.3898 62.5143 50.1338 62.5143H71.9294C72.9049 62.4931 73.8754 62.6406 74.7838 62.948C75.6922 63.2555 76.52 63.7166 77.2185 64.3043C77.917 64.892 78.4721 65.5944 78.8509 66.37C79.2298 67.1457 79.4248 67.9789 79.4245 68.8205C79.4723 69.2691 79.4723 69.7205 79.4245 70.169C79.0594 71.5646 78.1551 72.8115 76.8599 73.7052C75.5648 74.5989 73.9558 75.0862 72.2973 75.0871H50.6856C49.027 75.0862 47.418 74.5989 46.1229 73.7052C44.8278 72.8115 43.9234 71.5646 43.5583 70.169H36.615C37.0101 73.1491 38.6626 75.8995 41.2574 77.8963C43.8523 79.8931 47.2081 80.9967 50.6856 80.9967H58.3646V90H64.1124V80.9967H71.9294C75.4068 80.9967 78.7627 79.8931 81.3575 77.8963C83.9524 75.8995 85.6048 73.1491 86 70.169V68.8205C85.9945 67.0391 85.5343 65.2805 84.6522 63.6697C83.7701 62.0588 82.4877 60.6353 80.896 59.5Z" fill="white"/>
</g>
<defs>
<filter id="filter0_d_11_765478" x="0" y="0" width="121" height="121" filterUnits="userSpaceOnUse" color-interpolation-filters="sRGB">
<feFlood flood-opacity="0" result="BackgroundImageFix"/>
<feColorMatrix in="SourceAlpha" type="matrix" values="0 0 0 0 0 0 0 0 0 0 0 0 0 0 0 0 0 0 127 0" result="hardAlpha"/>
<feOffset/>
<feGaussianBlur stdDeviation="5"/>
<feComposite in2="hardAlpha" operator="out"/>
<feColorMatrix type="matrix" values="0 0 0 0 0 0 0 0 0 0 0 0 0 0 0 0 0 0 0.25 0"/>
<feBlend mode="normal" in2="BackgroundImageFix" result="effect1_dropShadow_11_765478"/>
<feBlend mode="normal" in="SourceGraphic" in2="effect1_dropShadow_11_765478" result="shape"/>
</filter>
</defs>
</svg>
