<svg width="50" height="49" viewBox="0 0 50 49" fill="none" xmlns="http://www.w3.org/2000/svg">
<ellipse cx="25" cy="24.5" rx="25" ry="24.5" fill="white"/>
<g clip-path="url(#clip0_1138_5)">
<path d="M33.582 22.5078C33.1406 22.5078 32.7852 22.1523 32.7852 21.7109C32.7852 18.7969 30.4102 16.4219 27.4961 16.4219C27.0547 16.4219 26.6992 16.0664 26.6992 15.625C26.6992 15.1836 27.0547 14.8281 27.4961 14.8281C31.293 14.8281 34.3789 17.9141 34.3789 21.7109C34.3789 22.1523 34.0234 22.5078 33.582 22.5078Z" fill="white"/>
<path d="M27.4961 17.9023C29.5977 17.9023 31.3086 19.6133 31.3086 21.7148C31.3086 22.1562 30.9531 22.5117 30.5117 22.5117C30.0703 22.5117 29.7148 22.1562 29.7148 21.7148C29.7148 20.4922 28.7227 19.5 27.5 19.5C27.0586 19.5 26.7031 19.1445 26.7031 18.7031C26.6992 18.2578 27.0547 17.9023 27.4961 17.9023Z" fill="white"/>
<path d="M16.5823 15.768C17.2463 15.1001 18.0706 14.6626 18.9729 14.4946C20.3088 14.2485 21.7776 14.6743 22.5862 15.5844C25.3948 18.7407 22.387 21.643 22.3674 21.6586C23.1604 23.4555 25.5549 25.8579 27.3088 26.6235C27.3284 26.604 30.176 23.6196 33.3713 26.3852C34.9495 27.7485 34.9065 30.6977 33.2073 32.4047C32.6291 32.9907 31.9377 33.3579 31.1604 33.4985C29.9104 33.7251 28.6448 33.3383 27.5627 32.9399C22.7463 31.1626 18.1057 26.8383 16.0549 21.4047C15.3674 19.5844 14.8909 17.4672 16.5823 15.768V15.768ZM17.6916 20.8149C20.387 27.5922 25.7424 30.3305 28.1526 31.3032C30.7424 32.3501 31.6409 31.5102 31.9729 31.1782C32.9963 30.1469 33.1331 28.4829 32.1409 27.6118C30.3166 26.018 28.5784 27.7211 28.3049 28.1469C28.1096 28.4477 27.7268 28.5727 27.3791 28.4829C24.8752 27.8422 21.2112 24.1821 20.5041 21.6157C20.4065 21.268 20.551 20.9086 20.8323 20.6821C21.2737 20.3227 22.9377 18.7446 21.3557 16.8188C20.9299 16.2993 19.2112 15.604 17.8166 16.9985C17.0002 17.811 16.9338 18.9047 17.6916 20.8149V20.8149Z" fill="black"/>
</g>
<defs>
<clipPath id="clip0_1138_5">
<rect width="20" height="20" fill="white" transform="matrix(-1 0 0 1 35 14)"/>
</clipPath>
</defs>
</svg>
