<svg width="33" height="33" viewBox="0 0 33 33" fill="none" xmlns="http://www.w3.org/2000/svg">
<path opacity="0.2" d="M0.629862 13.1011C2.28667 6.19785 7.86451 1.57971 15.3268 0.924499C16.7294 0.844963 18.1362 0.962454 19.5061 1.27354C19.4206 1.9921 19.2896 2.70453 19.1141 3.40656C18.8551 3.38718 18.5975 3.3531 18.3423 3.3045C14.9787 2.72555 11.521 3.45592 8.67913 5.34567C6.565 6.72084 4.87037 8.65136 3.78098 10.9256C2.6916 13.1999 2.24952 15.7301 2.5032 18.2389C2.75689 20.7477 3.69654 23.1383 5.21917 25.1486C6.74179 27.1588 8.78861 28.7112 11.1353 29.6356C14.0993 30.7324 17.3426 30.8199 20.3615 29.8846C22.2776 29.2498 24.0329 28.2066 25.506 26.827C26.9791 25.4474 28.135 23.7645 28.8937 21.8944C29.007 21.6148 29.1203 21.4413 29.1652 21.4495C29.2101 21.4576 29.6756 21.6362 30.1942 21.8424L31.1385 22.2159L31.0139 22.5405C30.9425 22.7191 30.822 23.0171 30.7465 23.214C29.6819 25.5814 28.0729 27.6639 26.0507 29.2916C25.8638 29.4406 25.6985 29.5764 25.6801 29.5978C24.3801 30.5391 22.9575 31.2983 21.4518 31.8543C19.7271 32.4575 17.9135 32.768 16.0863 32.7728C13.678 32.7684 11.3021 32.2182 9.13713 31.1635C6.97217 30.1089 5.07452 28.5773 3.58685 26.684C2.09918 24.7906 1.06021 22.5846 0.548048 20.232C0.0358845 17.8794 0.0638567 15.4413 0.629862 13.1011ZM8.48415 25.0041C6.99557 23.5274 5.94609 21.6667 5.45252 19.629C4.95895 17.5914 5.04066 15.4567 5.68855 13.4628C6.33644 11.4688 7.5251 9.69366 9.12222 8.33499C10.7193 6.97632 12.6623 6.08739 14.7347 5.76717C23.6537 4.31896 30.5505 13.7685 26.5764 21.9944C25.64 23.8928 24.1864 25.4881 22.3829 26.5968C20.5794 27.7054 18.4994 28.2822 16.3823 28.2608C14.9156 28.2691 13.4618 27.9856 12.1057 27.4269C10.7496 26.8681 9.51814 26.0453 8.48313 25.0062L8.48415 25.0041ZM16.0751 10.4945C15.5014 10.7619 15.5095 10.6731 15.5095 14.3727V17.6641L16.2854 18.5102C17.4389 19.7706 20.6913 22.9548 20.8873 23.013C21.0424 23.0451 21.203 23.038 21.3546 22.9923C21.5063 22.9466 21.6441 22.8638 21.7556 22.7514C21.8671 22.639 21.9488 22.5005 21.9933 22.3486C22.0378 22.1966 22.0436 22.0359 22.0102 21.8812C21.9653 21.7679 20.9087 20.6442 19.6572 19.392L17.393 17.1181L17.3654 14.089C17.3429 10.8078 17.3429 10.8293 16.9122 10.5517C16.7801 10.4559 16.622 10.4025 16.4589 10.3986C16.3246 10.4036 16.1932 10.4385 16.074 10.5006L16.0751 10.4945ZM29.7001 19.096C29.6938 18.8909 29.7085 18.6857 29.744 18.4836C29.7849 18.1591 29.8155 17.3926 29.8155 16.7864C29.8155 15.9414 29.8379 15.6638 29.9002 15.6638C29.9625 15.6638 30.3718 15.6199 30.8486 15.576C31.3253 15.5321 31.7806 15.4811 31.8561 15.4739C32.1277 15.4545 32.0828 19.2634 31.8122 19.4348H31.7918C31.0893 19.3572 30.3912 19.2441 29.7001 19.096ZM29.0488 12.2509C29.0488 12.2366 28.9743 12.0642 28.8988 11.859C28.6015 11.1169 28.2483 10.3984 27.8422 9.70968C27.6319 9.35758 27.5523 9.16571 27.5962 9.11979C27.6401 9.07386 28.0372 8.80544 28.4874 8.49723C28.9376 8.18901 29.3204 7.93795 29.3245 7.93183C29.987 8.9418 30.5478 10.0149 30.9986 11.1354L31.1375 11.512L30.9588 11.5845C30.576 11.7325 29.0958 12.2428 29.0448 12.2428L29.0488 12.2509ZM24.9155 6.31828C24.3012 5.81786 23.6505 5.36381 22.9688 4.95989L22.3491 4.59452L22.7462 3.85255C22.9606 3.44432 23.1872 3.01057 23.2485 2.88912C23.3873 2.62275 23.3383 2.61152 23.9794 2.982C25.5474 3.88725 26.7356 4.81905 26.5682 5.03133C26.2875 5.38751 25.2544 6.53771 25.2177 6.53771C25.1071 6.47718 25.0043 6.4035 24.9114 6.31828H24.9155Z" fill="black"/>
</svg>
