<svg width="31" height="37" viewBox="0 0 31 37" fill="none" xmlns="http://www.w3.org/2000/svg">
<path fill-rule="evenodd" clip-rule="evenodd" d="M14.7447 0.224836C14.3962 0.398902 14.0752 0.623471 13.7923 0.891277C11.2279 3.30494 7.88766 4.72682 4.37001 4.90217C2.14868 5.1216 0.97574 5.98195 0.414282 7.80267C0.221281 11.0657 0.221281 14.3373 0.414282 17.6003C1.47084 27.1039 5.64401 32.662 14.1016 35.8259C15.6706 36.4137 16.2719 36.3147 19.0445 35.0359C26.2761 31.6925 29.8653 26.3691 30.8361 17.5666C31.0307 14.3155 31.0307 11.0558 30.8361 7.80471C30.2747 5.98297 29.1007 5.12262 26.8804 4.90421C23.3623 4.72685 20.0221 3.30404 17.4571 0.890257C17.1222 0.521558 16.6849 0.261172 16.2012 0.142443C15.7174 0.0237149 15.2092 0.0520484 14.7417 0.223816M17.3867 9.35396C19.0314 9.68523 20.5498 10.4724 21.7683 11.6256C22.9867 12.7787 23.8561 14.2513 24.2771 15.8751C24.698 17.4988 24.6536 19.2082 24.1488 20.8079C23.644 22.4076 22.6993 23.8331 21.4225 24.9214C20.1458 26.0097 18.5886 26.7169 16.9288 26.9623C15.269 27.2077 13.5737 26.9813 12.0365 26.309C10.4994 25.6367 9.18239 24.5457 8.2361 23.1605C7.28982 21.7754 6.7524 20.152 6.68526 18.4759C6.63187 17.1233 6.88628 15.7761 7.42934 14.536C7.97239 13.2959 8.78992 12.1952 9.8203 11.3169C10.8507 10.4386 12.067 9.8056 13.3777 9.46557C14.6883 9.12554 16.0591 9.08738 17.3867 9.35396ZM14.4262 11.3288C12.8805 11.5952 11.4713 12.3788 10.4297 13.5513C9.38804 14.7237 8.7759 16.2152 8.69365 17.7811C8.61141 19.3471 9.06395 20.8945 9.97703 22.1695C10.8901 23.4445 12.2095 24.3714 13.7188 24.7982C15.2281 25.225 16.8377 25.1262 18.2835 24.5182C19.7292 23.9101 20.9254 22.8289 21.6757 21.4518C22.426 20.0748 22.6859 18.4837 22.4128 16.9395C22.1397 15.3953 21.3497 13.9898 20.1725 12.9536C19.3975 12.2707 18.479 11.7705 17.4848 11.4898C16.4906 11.2091 15.4461 11.1551 14.4283 11.3318M19.3834 15.1805C19.5891 15.2743 19.7579 15.4337 19.8632 15.6337C19.9685 15.8338 20.0044 16.0631 19.9653 16.2858C18.2505 18.2667 16.42 20.1444 14.4834 21.9092C13.9168 22.2092 13.6565 22.0643 12.2998 20.6937C10.9881 19.3669 10.8972 19.1628 11.3392 18.5372C11.819 17.8564 12.3713 17.9656 13.3533 18.9332L14.0057 19.5761L16.1035 17.49C18.7046 14.9029 18.7658 14.86 19.3844 15.1794" fill="#4AEAB1"/>
</svg>
