<svg width="179" height="56" viewBox="0 0 179 56" fill="none" xmlns="http://www.w3.org/2000/svg">
<path d="M82.815 38.7652H61.494L82.437 17.1492C82.6583 16.9368 82.8091 16.6617 82.8691 16.361C82.9292 16.0603 82.8957 15.7483 82.773 15.4672C82.6482 15.1804 82.4425 14.9362 82.1811 14.7644C81.9196 14.5927 81.6138 14.5009 81.301 14.5002H59.643C59.4764 14.4971 59.3109 14.5276 59.1564 14.5899C59.0019 14.6523 58.8615 14.7451 58.7437 14.8629C58.6259 14.9807 58.533 15.1211 58.4707 15.2756C58.4084 15.4301 58.3779 15.5956 58.381 15.7622C58.3818 16.0967 58.515 16.4172 58.7515 16.6537C58.988 16.8902 59.3085 17.0234 59.643 17.0242H79.072L57.872 38.8922C57.6652 39.0875 57.5255 39.3431 57.4727 39.6225C57.4199 39.902 57.4567 40.191 57.578 40.4482C57.6872 40.7013 57.869 40.9163 58.1004 41.066C58.3318 41.2157 58.6024 41.2934 58.878 41.2892H82.807C83.1415 41.2884 83.462 41.1552 83.6985 40.9187C83.935 40.6822 84.0682 40.3617 84.069 40.0272C84.0609 39.6951 83.9253 39.3788 83.6904 39.1438C83.4555 38.9089 83.1392 38.7733 82.807 38.7652H82.815Z" fill="#3A4B4C"/>
<path d="M114.061 15.0915L102.917 25.3915L91.6886 15.0915C91.5648 14.9773 91.4196 14.8889 91.2614 14.8312C91.1032 14.7736 90.9352 14.748 90.767 14.7558C90.5988 14.7636 90.4339 14.8047 90.2817 14.8768C90.1295 14.9488 89.9932 15.0504 89.8806 15.1755C89.6595 15.4217 89.5443 15.7452 89.56 16.0757C89.5757 16.4063 89.7211 16.7174 89.9646 16.9415L101.656 27.6655L101.614 40.0295C101.61 40.1961 101.641 40.3616 101.703 40.5161C101.766 40.6706 101.858 40.811 101.976 40.9288C102.094 41.0466 102.234 41.1395 102.389 41.2018C102.543 41.2641 102.709 41.2946 102.876 41.2915C103.042 41.2946 103.208 41.2641 103.362 41.2018C103.517 41.1395 103.657 41.0466 103.775 40.9288C103.893 40.811 103.986 40.6706 104.048 40.5161C104.11 40.3616 104.141 40.1961 104.138 40.0295L104.18 27.6655L115.787 16.9415C115.914 16.8299 116.018 16.6938 116.092 16.5414C116.166 16.3889 116.208 16.2231 116.217 16.0539C116.225 15.8846 116.2 15.7154 116.142 15.5562C116.084 15.3971 115.994 15.2511 115.879 15.1272C115.763 15.0032 115.624 14.9037 115.469 14.8346C115.315 14.7655 115.148 14.7282 114.978 14.7249C114.809 14.7215 114.641 14.7523 114.483 14.8152C114.326 14.8782 114.183 14.9722 114.063 15.0915H114.061Z" fill="#3A4B4C"/>
<path d="M147.704 14.6708C147.555 14.592 147.392 14.5436 147.224 14.5285C147.057 14.5134 146.888 14.5319 146.727 14.5828C146.567 14.6338 146.418 14.7161 146.29 14.8251C146.161 14.9341 146.056 15.0676 145.98 15.2178L134.667 36.7498L123.312 15.2178C123.239 15.0696 123.138 14.9376 123.013 14.8295C122.889 14.7214 122.743 14.6394 122.587 14.5884C122.43 14.5373 122.264 14.5184 122.1 14.5325C121.936 14.5467 121.776 14.5937 121.63 14.6708C121.48 14.7469 121.346 14.8523 121.237 14.9806C121.128 15.1089 121.046 15.2576 120.995 15.4181C120.944 15.5786 120.926 15.7476 120.941 15.9153C120.956 16.0829 121.004 16.2459 121.083 16.3948L133.405 39.8188C133.526 40.0483 133.708 40.2402 133.93 40.3736C134.153 40.5071 134.407 40.577 134.667 40.5758C134.921 40.5764 135.17 40.5058 135.385 40.372C135.601 40.2382 135.775 40.0465 135.887 39.8188L148.209 16.3948C148.365 16.0981 148.4 15.7522 148.306 15.4304C148.212 15.1086 147.996 14.8361 147.704 14.6708Z" fill="#3A4B4C"/>
<path fill-rule="evenodd" clip-rule="evenodd" d="M178.866 27.959C178.862 30.673 178.054 33.3249 176.543 35.5797C175.033 37.8346 172.888 39.5913 170.38 40.6279C167.872 41.6645 165.113 41.9346 162.451 41.4041C159.789 40.8735 157.345 39.5661 155.426 37.6469C153.507 35.7278 152.199 33.283 151.669 30.6213C151.139 27.9597 151.409 25.2005 152.446 22.6924C153.483 20.1842 155.239 18.0396 157.494 16.5294C159.749 15.0191 162.401 14.211 165.115 14.207C166.921 14.2066 168.71 14.5621 170.378 15.2531C172.047 15.944 173.563 16.957 174.84 18.2341C176.117 19.5112 177.13 21.0273 177.821 22.696C178.511 24.3646 178.867 26.153 178.866 27.959ZM176.343 27.959C176.347 25.7425 175.694 23.5745 174.466 21.7292C173.238 19.8839 171.491 18.4442 169.444 17.5922C167.398 16.7401 165.145 16.5139 162.971 16.9423C160.796 17.3706 158.797 18.4343 157.227 19.9987C155.656 21.563 154.585 23.558 154.149 25.7311C153.712 27.9042 153.93 30.158 154.774 32.2074C155.619 34.2568 157.052 36.0097 158.893 37.2446C160.733 38.4795 162.899 39.1409 165.115 39.145C168.084 39.1385 170.93 37.9592 173.033 35.864C175.136 33.7688 176.326 30.9275 176.343 27.959Z" fill="#3A4B4C"/>
<path fill-rule="evenodd" clip-rule="evenodd" d="M39.8359 46.4662C39.6221 46.4676 39.4104 46.425 39.2139 46.3408C39.0174 46.2567 38.8403 46.1329 38.6939 45.9772L35.5479 42.8312V48.3782C35.5418 50.4015 34.7338 52.3399 33.3009 53.7684C31.868 55.197 29.9272 55.9992 27.9039 55.9992H13.4779C11.4581 55.9944 9.52247 55.1899 8.09428 53.7618C6.6661 52.3336 5.86164 50.3979 5.85689 48.3782V42.9012L2.7809 45.9772C2.47497 46.2831 2.06004 46.455 1.6274 46.455C1.19475 46.455 0.779819 46.2831 0.473892 45.9772C0.167965 45.6712 -0.00390624 45.2563 -0.00390625 44.8237C-0.00390626 44.391 0.167965 43.9761 0.473892 43.6702L5.85789 38.2861V14.7242C5.89004 10.808 7.46827 7.06315 10.2489 4.3053C13.0294 1.54744 16.7871 0 20.7034 0C24.6197 0 28.3773 1.54744 31.1579 4.3053C33.9385 7.06315 35.5167 10.808 35.5489 14.7242V31.2012L32.2859 27.9382V14.7242C32.2859 11.6521 31.0655 8.70597 28.8933 6.53374C26.7211 4.3615 23.7749 3.14116 20.7029 3.14116C17.6309 3.14116 14.6847 4.3615 12.5125 6.53374C10.3402 8.70597 9.11989 11.6521 9.11989 14.7242V35.0242L17.4399 26.7042C18.3155 25.8297 19.5024 25.3385 20.7399 25.3385C21.9774 25.3385 23.1643 25.8297 24.0399 26.7042L41.0059 43.6712C41.2342 43.9014 41.3893 44.194 41.4517 44.5122C41.514 44.8304 41.4809 45.1599 41.3563 45.4593C41.2317 45.7587 41.0214 46.0145 40.7517 46.1946C40.4821 46.3746 40.1651 46.4709 39.8409 46.4712L39.8359 46.4662ZM32.2849 39.5662L21.7259 29.0102C21.4606 28.7523 21.1053 28.608 20.7354 28.608C20.3655 28.608 20.0101 28.7523 19.7449 29.0102L9.11789 39.6372V48.3772C9.12 49.5323 9.57983 50.6396 10.3967 51.4564C11.2135 52.2732 12.3207 52.733 13.4759 52.7352H27.9019C29.0606 52.7378 30.173 52.2803 30.9945 51.4631C31.816 50.6459 32.2795 49.5359 32.2829 48.3772L32.2849 39.5662Z" fill="#3A4B4C"/>
</svg>
