<svg width="20" height="20" viewBox="0 0 20 20" fill="none" xmlns="http://www.w3.org/2000/svg">
<path opacity="0.967" fill-rule="evenodd" clip-rule="evenodd" d="M9.5511 -0.0195312C9.83755 -0.0195312 10.124 -0.0195312 10.4105 -0.0195312C11.7171 0.378273 12.303 1.26369 12.1683 2.63672C14.1197 3.40978 15.4413 4.79 16.1331 6.77734C16.2592 7.18633 16.3504 7.60301 16.4066 8.02734C16.4555 9.60219 16.4816 11.1777 16.4847 12.7539C16.52 12.8008 16.5655 12.8334 16.6214 12.8516C18.0599 12.9359 18.8672 13.6911 19.0433 15.1172C18.9606 16.3254 18.3356 17.0806 17.1683 17.3828C15.7361 17.4023 14.3038 17.4089 12.8714 17.4023C12.64 18.8055 11.8328 19.6649 10.4495 19.9805C10.137 19.9805 9.82454 19.9805 9.51204 19.9805C8.1288 19.6649 7.32153 18.8055 7.09016 17.4023C5.65782 17.4089 4.22552 17.4023 2.79329 17.3828C1.53986 17.0536 0.921374 16.2398 0.937819 14.9414C1.18536 13.6155 1.98614 12.9189 3.34016 12.8516C3.39605 12.8334 3.44163 12.8008 3.47688 12.7539C3.4802 11.1387 3.50624 9.5241 3.55501 7.91016C3.95571 5.33664 5.36196 3.56582 7.77376 2.59766C7.66946 1.24184 8.26192 0.369443 9.5511 -0.0195312ZM9.74641 1.30859C10.45 1.25704 10.8276 1.58257 10.8792 2.28516C10.2806 2.18613 9.68165 2.18613 9.08235 2.28516C9.08196 1.80296 9.30333 1.47744 9.74641 1.30859ZM9.70735 3.53516C11.8722 3.5591 13.4802 4.50961 14.5316 6.38672C14.8106 6.95563 14.9928 7.55457 15.0784 8.18359C15.1159 9.82527 15.1549 11.4659 15.1956 13.1055C15.3881 13.6234 15.7461 13.9685 16.2699 14.1406C16.5308 14.1773 16.7912 14.2164 17.0511 14.2578C17.688 14.574 17.8508 15.0493 17.5394 15.6836C17.3999 15.8606 17.2241 15.9843 17.012 16.0547C12.3245 16.0807 7.63704 16.0807 2.94954 16.0547C2.29435 15.7557 2.11857 15.2805 2.42219 14.6289C2.55168 14.4602 2.71444 14.3365 2.91048 14.2578C3.74499 14.2999 4.35048 13.9549 4.72688 13.2227C4.75899 13.1333 4.78505 13.0421 4.80501 12.9492C4.80774 11.3079 4.8338 9.66727 4.88313 8.02734C5.23739 5.9282 6.41575 4.51547 8.41829 3.78906C8.84528 3.66232 9.27497 3.57768 9.70735 3.53516ZM8.41829 17.4414C9.45333 17.3959 10.495 17.3895 11.5433 17.4219C11.2101 18.3961 10.533 18.7867 9.51204 18.5938C8.96454 18.3784 8.59997 17.9943 8.41829 17.4414Z" fill="black"/>
</svg>
