<svg width="20" height="20" viewBox="0 0 20 20" fill="none" xmlns="http://www.w3.org/2000/svg">
<path opacity="0.964" fill-rule="evenodd" clip-rule="evenodd" d="M9.31622 1.85514C12.8235 1.72992 15.4472 3.17523 17.1873 6.19108C18.2943 8.4496 18.3984 10.7543 17.4998 13.1051C16.3635 15.6475 14.443 17.2556 11.7381 17.9294C8.38126 18.5338 5.62735 17.5247 3.47638 14.902C1.66958 12.3258 1.35708 9.57839 2.53888 6.65983C3.9172 3.82473 6.1763 2.22316 9.31622 1.85514ZM9.39435 3.14421C12.2295 3.02833 14.3974 4.16112 15.8983 6.54264C17.064 8.71698 17.1161 10.9175 16.0545 13.1442C14.5452 15.7579 12.2731 16.9754 9.2381 16.7966C6.64423 16.4149 4.78876 15.0412 3.67169 12.6755C2.68749 10.0839 3.05207 7.70112 4.76544 5.52702C6.00161 4.13745 7.54458 3.34316 9.39435 3.14421Z" fill="black"/>
<path opacity="0.959" fill-rule="evenodd" clip-rule="evenodd" d="M9.47331 5.91857C10.5657 5.83665 11.4185 6.24032 12.0319 7.1295C12.4881 8.11325 12.3448 8.99868 11.6022 9.78575C11.2376 10.0983 10.8991 10.4368 10.5866 10.8014C10.4387 11.0814 10.3735 11.3809 10.3913 11.6998C10.2911 11.9976 10.0828 12.1538 9.76628 12.1686C9.30991 12.0906 9.09507 11.8172 9.12175 11.3483C9.13597 10.7734 9.32476 10.2656 9.68815 9.82482C10.106 9.42001 10.5096 9.00337 10.8991 8.57482C11.1041 7.89782 10.8632 7.46161 10.1764 7.26622C9.29972 7.08947 8.74632 7.43454 8.51628 8.30138C8.19034 8.68173 7.83878 8.70779 7.46159 8.3795C7.28624 8.05868 7.28624 7.73318 7.46159 7.40294C7.85128 6.52466 8.52187 6.02989 9.47331 5.91857Z" fill="black"/>
<path opacity="0.925" fill-rule="evenodd" clip-rule="evenodd" d="M9.59022 12.7539C10.3299 12.7751 10.5578 13.1267 10.2738 13.8086C9.97033 14.0907 9.65131 14.1102 9.31678 13.8672C8.98979 13.3868 9.08096 13.0157 9.59022 12.7539Z" fill="black"/>
</svg>
