<svg width="20" height="20" viewBox="0 0 20 20" fill="none" xmlns="http://www.w3.org/2000/svg">
<g clip-path="url(#clip0_148_11962)">
<path opacity="0.965" fill-rule="evenodd" clip-rule="evenodd" d="M19.9805 4.94122C19.9805 8.91259 19.9805 12.8839 19.9805 16.8553C19.9228 16.9454 19.8446 17.017 19.7461 17.0701C13.2357 17.0962 6.72527 17.0962 0.214844 17.0701C0.116304 17.017 0.0381794 16.9454 -0.0195312 16.8553C-0.0195312 12.8839 -0.0195312 8.91259 -0.0195312 4.94122C0.0629758 4.8411 0.167143 4.7695 0.292969 4.72638C0.722461 4.70685 1.15215 4.70032 1.58203 4.70685C1.57553 4.35505 1.58204 4.00349 1.60156 3.65216C1.63221 3.58239 1.67778 3.5238 1.73828 3.47638C3.04077 2.92293 4.39492 2.74063 5.80078 2.9295C7.32684 3.15803 8.72004 3.71142 9.98047 4.58966C12.2387 2.9987 14.7127 2.52344 17.4023 3.16388C17.6849 3.24503 17.9584 3.3492 18.2227 3.47638C18.2832 3.5238 18.3287 3.58239 18.3594 3.65216C18.3789 4.00349 18.3854 4.35505 18.3789 4.70685C18.8088 4.70032 19.2385 4.70685 19.668 4.72638C19.7938 4.7695 19.898 4.8411 19.9805 4.94122ZM4.19922 3.73028C6.17082 3.66462 7.94816 4.21149 9.53125 5.37091C9.56379 8.84755 9.5573 12.3241 9.51172 15.8006C7.31051 14.4246 4.95375 14.06 2.44141 14.7068C2.42839 11.1781 2.44141 7.64946 2.48047 4.12091C3.04371 3.92505 3.61663 3.79485 4.19922 3.73028ZM14.707 3.73028C15.6581 3.67828 16.5826 3.80849 17.4805 4.12091C17.5195 7.64946 17.5325 11.1781 17.5195 14.7068C15.0057 14.0522 12.6489 14.4168 10.4492 15.8006C10.4036 12.3241 10.3971 8.84755 10.4297 5.37091C11.7109 4.44263 13.1366 3.89574 14.707 3.73028ZM0.839844 5.56622C1.08724 5.56622 1.33464 5.56622 1.58203 5.56622C1.56271 8.91579 1.58224 12.2621 1.64062 15.6053C1.7392 15.7164 1.86289 15.7815 2.01172 15.8006C4.22016 14.9586 6.36859 15.0953 8.45703 16.2108C5.91801 16.2303 3.37894 16.2368 0.839844 16.2303C0.839844 12.6756 0.839844 9.12091 0.839844 5.56622ZM18.3789 5.56622C18.6263 5.56622 18.8737 5.56622 19.1211 5.56622C19.1211 9.12091 19.1211 12.6756 19.1211 16.2303C16.582 16.2368 14.0429 16.2303 11.5039 16.2108C13.5923 15.0953 15.7408 14.9586 17.9492 15.8006C18.098 15.7815 18.2218 15.7164 18.3203 15.6053C18.3787 12.2621 18.3982 8.91579 18.3789 5.56622Z" fill="black"/>
</g>
<defs>
<clipPath id="clip0_148_11962">
<rect width="20" height="20" fill="white"/>
</clipPath>
</defs>
</svg>
