<svg width="24" height="26" viewBox="0 0 24 26" fill="none" xmlns="http://www.w3.org/2000/svg">
<path d="M6.50057 25.7023C5.51686 25.7028 4.55071 25.4423 3.70064 24.9473C3.19423 24.6603 2.7371 24.2939 2.34663 23.8622C1.94935 23.4392 1.62639 22.952 1.39156 22.4213C0.88201 21.2683 0.808096 19.9696 1.18355 18.7662C1.31355 18.3062 3.71859 14.0563 5.74959 10.5573C7.84159 6.92025 10.2636 2.83128 10.6016 2.45728C11.1073 1.89418 11.6957 1.41131 12.3466 1.02527C12.9759 0.650674 13.6578 0.372569 14.3696 0.200258C14.9386 0.0669682 15.5211 -0.000155466 16.1055 0.00024593C16.2055 0.00024593 16.2966 0.000264973 16.3916 0.00726497L16.5736 0.0132464C17.3525 0.0619082 18.121 0.21875 18.8566 0.47925C19.0702 0.561407 19.2763 0.661764 19.4726 0.779238C20.182 1.18231 20.8455 1.66115 21.4516 2.20728C22.413 3.19203 23.0935 4.41597 23.4226 5.75226C23.7275 7.07492 23.6646 8.45581 23.2406 9.74524C23.0666 10.3032 21.4346 13.1682 20.7496 14.3732C19.978 15.7905 19.1259 17.1624 18.1976 18.4822C17.9984 18.5924 17.7742 18.6493 17.5466 18.6473C17.3165 18.6424 17.0919 18.5764 16.8956 18.4562C16.7134 18.3578 16.5651 18.2065 16.4705 18.0223L16.4185 17.9222H16.4096C16.1496 17.4272 16.1496 17.4273 18.1196 13.9683C18.2936 13.6683 18.4495 13.3913 18.6055 13.1003L18.6486 13.0183C20.8966 9.03725 20.9406 8.96127 21.0356 8.46027C21.2498 7.42563 21.1278 6.3496 20.6875 5.38916C20.2471 4.42872 19.5114 3.63413 18.5876 3.12128C17.6249 2.54069 16.4881 2.31891 15.3778 2.49512C14.2675 2.67132 13.2552 3.23413 12.5196 4.08423C12.2196 4.41723 8.9776 9.98427 7.9886 11.6843C5.9886 15.1083 3.76057 19.0293 3.63057 19.4023C3.40371 20.043 3.40692 20.7426 3.6396 21.3812C3.88553 22.0149 4.34208 22.5446 4.93257 22.8812C5.41473 23.1635 5.96764 23.3021 6.52596 23.2805C7.08427 23.2588 7.62469 23.078 8.08357 22.7593L8.45662 22.4993L11.7116 16.9092L14.9666 11.3093L14.9146 11.0093C14.8974 10.8947 14.8528 10.7859 14.7846 10.6923C14.722 10.5972 14.639 10.5172 14.5416 10.4583C14.4317 10.3979 14.3105 10.3611 14.1856 10.3503H14.1165C14.0734 10.3448 14.03 10.3414 13.9865 10.3403C13.6395 10.3403 13.4395 10.6662 11.6165 13.7712L11.3295 14.2653C9.25455 17.7723 9.09855 18.0323 8.88155 18.1453C8.70371 18.2349 8.50767 18.2824 8.30855 18.2842C8.08842 18.2831 7.87261 18.223 7.68355 18.1102C7.50289 18.0107 7.35287 17.8638 7.24959 17.6852C7.14372 17.5089 7.08394 17.3088 7.07564 17.1033V16.7383L9.28853 12.9012C11.9105 8.35425 11.9106 8.35428 13.2126 8.00128C13.6317 7.88715 14.0693 7.85733 14.5 7.91364C14.9307 7.96994 15.346 8.11119 15.7216 8.32923C16.3631 8.70132 16.8682 9.26957 17.1626 9.95026C17.464 10.6648 17.495 11.4646 17.2496 12.2003C17.1626 12.4683 16.1296 14.2832 13.8206 18.2632L10.5206 23.9323L10.0435 24.3572C9.58092 24.7643 9.05292 25.0902 8.48164 25.3212C7.95659 25.538 7.39947 25.667 6.8326 25.7032C6.7236 25.7022 6.61357 25.7023 6.50057 25.7023Z" fill="#3A4B4C"/>
</svg>
