<svg width="50" height="69" viewBox="0 0 50 69" fill="none" xmlns="http://www.w3.org/2000/svg">
<g filter="url(#filter0_ddf_3_20299)">
<path fill-rule="evenodd" clip-rule="evenodd" d="M44.3436 51.319C44.126 51.3212 43.9104 51.2782 43.7103 51.1926C43.5102 51.1069 43.3301 50.9806 43.1812 50.8215L39.9949 47.6256V53.2596C39.9888 55.3146 39.1706 57.2834 37.7197 58.7343C36.2687 60.1853 34.3035 61 32.2547 61H17.6525C15.6073 60.9952 13.6472 60.1782 12.201 58.7276C10.7548 57.277 9.94027 55.311 9.9355 53.2596V47.6968L6.82031 50.8215C6.51048 51.1323 6.09025 51.3068 5.65209 51.3068C5.21393 51.3068 4.79372 51.1323 4.4839 50.8215C4.17407 50.5107 4 50.0892 4 49.6498C4 49.2103 4.17407 48.7888 4.4839 48.478L9.9355 43.0098V19.0786C9.9355 15.0795 11.5193 11.2442 14.3385 8.41643C17.1578 5.58864 20.9815 4 24.9684 4C28.9554 4 32.7791 5.58864 35.5983 8.41643C38.4176 11.2442 40.0014 15.0795 40.0014 19.0786V35.8148L36.6976 32.501V19.0799C36.6976 15.9597 35.4619 12.9673 33.2622 10.7609C31.0626 8.55461 28.0792 7.3151 24.9684 7.3151C21.8577 7.3151 18.8743 8.55461 16.6747 10.7609C14.475 12.9673 13.2393 15.9597 13.2393 19.0799V39.6973L21.664 31.247C22.5504 30.3601 23.7513 29.862 25.0033 29.862C26.2553 29.862 27.4562 30.3601 28.3426 31.247L45.5201 48.4767C45.7505 48.7107 45.9068 49.0077 45.9694 49.3305C46.032 49.6533 45.9981 49.9875 45.872 50.291C45.7459 50.5945 45.5331 50.8539 45.2605 51.0366C44.9879 51.2192 44.6675 51.317 44.3397 51.3177L44.3436 51.319ZM36.6976 44.3118L26.0075 33.5892C25.7389 33.3273 25.3792 33.1808 25.0046 33.1808C24.6301 33.1808 24.2703 33.3273 24.0017 33.5892L13.2406 44.383V53.2596C13.2426 54.433 13.7082 55.5577 14.5354 56.3874C15.3626 57.2171 16.484 57.6841 17.6538 57.6862H32.2624C33.4359 57.6889 34.5624 57.2242 35.3943 56.3941C36.2262 55.564 36.6955 54.4366 36.6989 53.2596L36.6976 44.3118Z" fill="#2DEF0D"/>
</g>
<g filter="url(#filter1_dd_3_20299)">
<path fill-rule="evenodd" clip-rule="evenodd" d="M44.3436 51.319C44.126 51.3212 43.9104 51.2782 43.7103 51.1926C43.5102 51.1069 43.3301 50.9806 43.1812 50.8215L39.9949 47.6256V53.2596C39.9888 55.3146 39.1706 57.2834 37.7197 58.7343C36.2687 60.1853 34.3035 61 32.2547 61H17.6525C15.6073 60.9952 13.6472 60.1782 12.201 58.7276C10.7548 57.277 9.94027 55.311 9.9355 53.2596V47.6968L6.82031 50.8215C6.51048 51.1323 6.09025 51.3068 5.65209 51.3068C5.21393 51.3068 4.79372 51.1323 4.4839 50.8215C4.17407 50.5107 4 50.0892 4 49.6498C4 49.2103 4.17407 48.7888 4.4839 48.478L9.9355 43.0098V19.0786C9.9355 15.0795 11.5193 11.2442 14.3385 8.41643C17.1578 5.58864 20.9815 4 24.9684 4C28.9554 4 32.7791 5.58864 35.5983 8.41643C38.4176 11.2442 40.0014 15.0795 40.0014 19.0786V35.8148L36.6976 32.501V19.0799C36.6976 15.9597 35.4619 12.9673 33.2622 10.7609C31.0626 8.55461 28.0792 7.3151 24.9684 7.3151C21.8577 7.3151 18.8743 8.55461 16.6747 10.7609C14.475 12.9673 13.2393 15.9597 13.2393 19.0799V39.6973L21.664 31.247C22.5504 30.3601 23.7513 29.862 25.0033 29.862C26.2553 29.862 27.4562 30.3601 28.3426 31.247L45.5201 48.4767C45.7505 48.7107 45.9068 49.0077 45.9694 49.3305C46.032 49.6533 45.9981 49.9875 45.872 50.291C45.7459 50.5945 45.5331 50.8539 45.2605 51.0366C44.9879 51.2192 44.6675 51.317 44.3397 51.3177L44.3436 51.319ZM36.6976 44.3118L26.0075 33.5892C25.7389 33.3273 25.3792 33.1808 25.0046 33.1808C24.6301 33.1808 24.2703 33.3273 24.0017 33.5892L13.2406 44.383V53.2596C13.2426 54.433 13.7082 55.5577 14.5354 56.3874C15.3626 57.2171 16.484 57.6841 17.6538 57.6862H32.2624C33.4359 57.6889 34.5624 57.2242 35.3943 56.3941C36.2262 55.564 36.6955 54.4366 36.6989 53.2596L36.6976 44.3118Z" fill="#3A4B4C"/>
</g>
<defs>
<filter id="filter0_ddf_3_20299" x="0" y="0" width="50" height="69" filterUnits="userSpaceOnUse" color-interpolation-filters="sRGB">
<feFlood flood-opacity="0" result="BackgroundImageFix"/>
<feColorMatrix in="SourceAlpha" type="matrix" values="0 0 0 0 0 0 0 0 0 0 0 0 0 0 0 0 0 0 127 0" result="hardAlpha"/>
<feOffset dy="4"/>
<feGaussianBlur stdDeviation="2"/>
<feComposite in2="hardAlpha" operator="out"/>
<feColorMatrix type="matrix" values="0 0 0 0 1 0 0 0 0 1 0 0 0 0 1 0 0 0 0.25 0"/>
<feBlend mode="normal" in2="BackgroundImageFix" result="effect1_dropShadow_3_20299"/>
<feColorMatrix in="SourceAlpha" type="matrix" values="0 0 0 0 0 0 0 0 0 0 0 0 0 0 0 0 0 0 127 0" result="hardAlpha"/>
<feOffset dy="4"/>
<feGaussianBlur stdDeviation="2"/>
<feComposite in2="hardAlpha" operator="out"/>
<feColorMatrix type="matrix" values="0 0 0 0 0 0 0 0 0 0 0 0 0 0 0 0 0 0 0.25 0"/>
<feBlend mode="normal" in2="effect1_dropShadow_3_20299" result="effect2_dropShadow_3_20299"/>
<feBlend mode="normal" in="SourceGraphic" in2="effect2_dropShadow_3_20299" result="shape"/>
<feGaussianBlur stdDeviation="2" result="effect3_foregroundBlur_3_20299"/>
</filter>
<filter id="filter1_dd_3_20299" x="0" y="4" width="50" height="65" filterUnits="userSpaceOnUse" color-interpolation-filters="sRGB">
<feFlood flood-opacity="0" result="BackgroundImageFix"/>
<feColorMatrix in="SourceAlpha" type="matrix" values="0 0 0 0 0 0 0 0 0 0 0 0 0 0 0 0 0 0 127 0" result="hardAlpha"/>
<feOffset dy="4"/>
<feGaussianBlur stdDeviation="2"/>
<feComposite in2="hardAlpha" operator="out"/>
<feColorMatrix type="matrix" values="0 0 0 0 1 0 0 0 0 1 0 0 0 0 1 0 0 0 0.25 0"/>
<feBlend mode="normal" in2="BackgroundImageFix" result="effect1_dropShadow_3_20299"/>
<feColorMatrix in="SourceAlpha" type="matrix" values="0 0 0 0 0 0 0 0 0 0 0 0 0 0 0 0 0 0 127 0" result="hardAlpha"/>
<feOffset dy="4"/>
<feGaussianBlur stdDeviation="2"/>
<feComposite in2="hardAlpha" operator="out"/>
<feColorMatrix type="matrix" values="0 0 0 0 0 0 0 0 0 0 0 0 0 0 0 0 0 0 0.25 0"/>
<feBlend mode="normal" in2="effect1_dropShadow_3_20299" result="effect2_dropShadow_3_20299"/>
<feBlend mode="normal" in="SourceGraphic" in2="effect2_dropShadow_3_20299" result="shape"/>
</filter>
</defs>
</svg>
