<svg width="30" height="40" viewBox="0 0 30 40" fill="none" xmlns="http://www.w3.org/2000/svg">
<path fill-rule="evenodd" clip-rule="evenodd" d="M28.8094 33.1906C28.6548 33.1917 28.5017 33.1612 28.3596 33.1011C28.2175 33.041 28.0895 32.9525 27.9836 32.8413L25.7086 30.5941V34.5563C25.7042 36.0016 25.1199 37.3862 24.0837 38.4066C23.0476 39.427 21.6441 40 20.181 40H9.7491C8.28856 39.9966 6.88882 39.422 5.85605 38.4018C4.82329 37.3817 4.24156 35.999 4.23812 34.5563V30.6441L2.01378 32.8413C1.79255 33.0598 1.4925 33.1826 1.17964 33.1826C0.866785 33.1826 0.566736 33.0598 0.345511 32.8413C0.124285 32.6228 9.88955e-09 32.3264 0 32.0174C-9.88955e-09 31.7083 0.124285 31.412 0.345511 31.1934L4.23885 27.3477V10.5174C4.26209 7.72011 5.40337 5.04518 7.41409 3.07526C9.42481 1.10533 12.1421 0 14.9741 0C17.8061 0 20.5234 1.10533 22.5341 3.07526C24.5448 5.04518 25.6861 7.72011 25.7093 10.5174V22.2869L23.3498 19.9561V10.5174C23.3498 8.32309 22.4673 6.21864 20.8965 4.66703C19.3257 3.11541 17.1952 2.24372 14.9737 2.24372C12.7523 2.24372 10.6218 3.11541 9.05099 4.66703C7.48018 6.21864 6.5977 8.32309 6.5977 10.5174V25.0176L12.6142 19.0747C13.2473 18.4501 14.1056 18.0992 15.0005 18.0992C15.8954 18.0992 16.7536 18.4501 17.3868 19.0747L29.6555 31.1942C29.8206 31.3586 29.9327 31.5676 29.9778 31.7949C30.0229 32.0222 29.9989 32.2576 29.9088 32.4714C29.8188 32.6853 29.6667 32.868 29.4717 32.9966C29.2767 33.1252 29.0475 33.194 28.813 33.1942L28.8094 33.1906ZM23.349 28.262L15.7135 20.7219C15.5217 20.5377 15.2647 20.4346 14.9972 20.4346C14.7297 20.4346 14.4728 20.5377 14.281 20.7219L6.59625 28.3127V34.5556C6.59778 35.3808 6.93029 36.1717 7.52097 36.7551C8.11164 37.3386 8.91232 37.667 9.74766 37.6685H20.1796C21.0175 37.6704 21.8219 37.3436 22.4159 36.7599C23.01 36.1762 23.3451 35.3833 23.3476 34.5556L23.349 28.262Z" fill="#3A4B4C"/>
</svg>
