<svg width="34" height="42" viewBox="0 0 34 42" fill="none" xmlns="http://www.w3.org/2000/svg">
<path fill-rule="evenodd" clip-rule="evenodd" d="M14.8616 6.3008C14.4447 8.41195 13.7443 11.5785 11.1816 14.1411C10.9479 14.3749 10.6921 14.6216 10.4212 14.8829C8.04235 17.1773 4.50016 20.5938 4.50016 26.2096C4.50016 29.2584 5.81177 32.1459 7.83547 34.2821C9.8717 36.4313 12.4778 37.668 14.9168 37.668H25.3335C26.0662 37.668 26.6795 37.4786 27.0425 37.2365C27.3435 37.0359 27.4168 36.8598 27.4168 36.6263C27.4168 36.3928 27.3435 36.2167 27.0425 36.0161C26.6795 35.774 26.0662 35.5846 25.3335 35.5846H23.2502C22.0995 35.5846 21.1668 34.6519 21.1668 33.5013C21.1668 32.3507 22.0995 31.418 23.2502 31.418H25.3335H26.3752C27.1079 31.418 27.7212 31.2286 28.0841 30.9865C28.3852 30.7859 28.4585 30.6098 28.4585 30.3763C28.4585 30.1428 28.3852 29.9667 28.0841 29.7661C27.7212 29.524 27.1079 29.3346 26.3752 29.3346H24.2918C23.1412 29.3346 22.2085 28.4019 22.2085 27.2513C22.2085 26.1007 23.1412 25.168 24.2918 25.168H26.3752H27.4168C28.1495 25.168 28.7629 24.9786 29.1258 24.7365C29.4268 24.5359 29.5002 24.3598 29.5002 24.1263C29.5002 23.8928 29.4268 23.7167 29.1258 23.5161C28.7629 23.274 28.1495 23.0846 27.4168 23.0846H25.3335C24.1829 23.0846 23.2502 22.1519 23.2502 21.0013C23.2502 19.8507 24.1829 18.918 25.3335 18.918H27.4168C28.1495 18.918 28.7629 18.7286 29.1258 18.4865C29.4268 18.2859 29.5002 18.1098 29.5002 17.8763C29.5002 17.6428 29.4268 17.4667 29.1258 17.2661C28.7629 17.024 28.1495 16.8346 27.4168 16.8346H18.0418C17.3693 16.8346 16.7383 16.5101 16.3472 15.9631C15.9564 15.4167 15.8531 14.7153 16.0697 14.0794L16.0706 14.0772L16.0766 14.0593L16.1045 13.9735C16.1297 13.8948 16.1677 13.7746 16.2141 13.6188C16.307 13.3067 16.4341 12.855 16.5647 12.3114C16.8293 11.2099 17.0935 9.79516 17.145 8.42324C17.1983 6.99789 17.0091 5.90491 16.6281 5.23724C16.4025 4.84222 16.0622 4.48407 15.2718 4.37128C15.1727 4.71384 15.0814 5.17989 14.9477 5.86291C14.921 5.99989 14.8925 6.14559 14.8616 6.3008ZM20.7575 12.668C21.011 11.5055 21.2531 10.0577 21.3085 8.57936C21.3722 6.87972 21.2035 4.8477 20.2466 3.17161C19.1818 1.3062 17.3054 0.167969 14.7085 0.167969C13.9137 0.167969 13.1679 0.431011 12.5631 0.959927C12.0138 1.44043 11.7015 2.03557 11.5086 2.51424C11.2003 3.2792 11.0098 4.2703 10.849 5.10676C10.8234 5.24011 10.7985 5.36953 10.774 5.49347C10.3681 7.54899 9.83939 9.5908 8.23535 11.1948C8.0516 11.3786 7.82831 11.5903 7.57491 11.8305C5.23573 14.0481 0.333496 18.6955 0.333496 26.2096C0.333496 30.4526 2.14689 34.3359 4.81068 37.1476C7.46195 39.9463 11.1058 41.8346 14.9168 41.8346H25.3335C26.6841 41.8346 28.1541 41.5032 29.3537 40.7036C30.6152 39.8625 31.5835 38.4761 31.5835 36.6263C31.5835 35.6498 31.3137 34.8023 30.8733 34.0961C31.8933 33.2423 32.6252 31.9844 32.6252 30.3763C32.6252 29.3998 32.3554 28.5523 31.915 27.8461C32.935 26.9923 33.6668 25.7344 33.6668 24.1263C33.6668 22.858 33.2116 21.8076 32.5187 21.0013C33.2116 20.1951 33.6668 19.1446 33.6668 17.8763C33.6668 16.0265 32.6985 14.6401 31.437 13.7991C30.2375 12.9993 28.7675 12.668 27.4168 12.668H20.7575Z" fill="black"/>
</svg>
