<svg width="26" height="26" viewBox="0 0 26 26" fill="none" xmlns="http://www.w3.org/2000/svg">
<path d="M0.723633 23.0705H25.522V25.5503H0.723633V23.0705ZM3.20347 13.1511H5.68331V21.8306H3.20347V13.1511ZM9.40306 13.1511H11.8829V21.8306H9.40306V13.1511ZM14.3627 13.1511H16.8426V21.8306H14.3627V13.1511ZM20.5623 13.1511H23.0422V21.8306H20.5623V13.1511ZM0.723633 6.95154L13.1228 0.751953L25.522 6.95154V11.9112H0.723633V6.95154ZM3.20347 8.48408V9.43138H23.0422V8.48408L13.1228 3.52441L3.20347 8.48408ZM13.1228 8.19146C12.794 8.19146 12.4786 8.06083 12.2461 7.8283C12.0135 7.59577 11.8829 7.28039 11.8829 6.95154C11.8829 6.6227 12.0135 6.30732 12.2461 6.07479C12.4786 5.84226 12.794 5.71163 13.1228 5.71163C13.4517 5.71163 13.767 5.84226 13.9996 6.07479C14.2321 6.30732 14.3627 6.6227 14.3627 6.95154C14.3627 7.28039 14.2321 7.59577 13.9996 7.8283C13.767 8.06083 13.4517 8.19146 13.1228 8.19146Z" fill="white"/>
</svg>
