<svg width="42" height="39" viewBox="0 0 42 39" fill="none" xmlns="http://www.w3.org/2000/svg">
<path opacity="0.2" d="M36.8906 38.7637H4.89062C3.65206 38.7602 2.46467 38.2674 1.58887 37.3916C0.713065 36.5158 0.219251 35.3284 0.21582 34.0898V4.68164C0.216084 3.44102 0.709247 2.25184 1.58594 1.37402C2.46263 0.496208 3.65196 0.00185442 4.89258 0H36.8926C38.1337 0.00105837 39.3234 0.494687 40.2012 1.37207C41.0789 2.24945 41.5726 3.43862 41.5742 4.67969V34.0898C41.5741 34.7036 41.4529 35.311 41.2178 35.8779C40.9827 36.4449 40.6384 36.9599 40.2041 37.3936C39.7698 37.8273 39.2547 38.1719 38.6875 38.4062C38.1203 38.6406 37.5122 38.7604 36.8984 38.7598L36.8906 38.7637ZM14.7354 16.1641C14.4676 16.1847 14.2105 16.2804 13.9941 16.4395C13.7778 16.5985 13.6113 16.8141 13.5117 17.0635L5.75879 32.4189C5.62497 32.6319 5.54987 32.8766 5.54004 33.1279C5.53021 33.3792 5.58634 33.6279 5.70312 33.8506C5.84897 34.0531 6.04534 34.2149 6.27246 34.3184C6.49958 34.4218 6.74951 34.4643 6.99805 34.4414H35.4131C35.6466 34.4719 35.8842 34.4368 36.0996 34.3418C36.3151 34.2468 36.5008 34.0953 36.6357 33.9023C36.7187 33.6817 36.7382 33.4424 36.6934 33.2109C36.6485 32.9795 36.5403 32.7645 36.3809 32.5908L31.4502 25.54C31.2852 25.2838 31.0601 25.0724 30.7939 24.9238C30.5278 24.7753 30.2285 24.6935 29.9238 24.6875C29.6685 24.6905 29.4172 24.7455 29.1836 24.8486C28.95 24.9518 28.7396 25.1014 28.5654 25.2881L26.6562 27.2256C26.2861 27.6091 25.779 27.8305 25.2461 27.8408C24.9434 27.8361 24.646 27.7618 24.377 27.623C24.1079 27.4843 23.8746 27.2849 23.6953 27.041L15.9033 16.8516C15.7622 16.6403 15.5711 16.4677 15.3467 16.3486C15.1222 16.2296 14.8713 16.1682 14.6172 16.1699L14.7354 16.1641ZM21.6836 10.8643C21.5129 10.8639 21.3434 10.8969 21.1855 10.9619C21.0277 11.0269 20.8846 11.1227 20.7637 11.2432C20.5197 11.4865 20.3815 11.8166 20.3809 12.1611C20.3809 12.5059 20.5179 12.8363 20.7617 13.0801C21.0055 13.3239 21.3369 13.4609 21.6816 13.4609H26.0811C26.1159 13.4582 26.1509 13.4631 26.1836 13.4756C26.2163 13.488 26.2463 13.5079 26.2705 13.5332C26.2948 13.5582 26.3136 13.5876 26.3262 13.6201C26.3387 13.6526 26.3439 13.6869 26.3428 13.7217V18.1221C26.3446 18.4656 26.483 18.7948 26.7266 19.0371C26.9702 19.2794 27.3 19.415 27.6436 19.415C27.9871 19.415 28.316 19.2794 28.5596 19.0371C28.8032 18.7948 28.9415 18.4656 28.9434 18.1221V13.7217C28.9422 13.6869 28.9485 13.6522 28.9619 13.6201C28.9754 13.588 28.9959 13.5597 29.0215 13.5361C29.0713 13.4876 29.1375 13.4602 29.207 13.46H33.6074C33.9522 13.46 34.2826 13.3229 34.5264 13.0791C34.7702 12.8353 34.9072 12.5049 34.9072 12.1602C34.9079 11.9894 34.8746 11.82 34.8096 11.6621C34.7445 11.5042 34.6491 11.361 34.5283 11.2402C34.407 11.1199 34.2627 11.0247 34.1045 10.96C33.9463 10.8953 33.7774 10.8624 33.6064 10.8633H29.2061C29.1367 10.8633 29.0699 10.8358 29.0205 10.7871C28.9711 10.7385 28.9434 10.6719 28.9424 10.6025V6.20312C28.9452 6.03223 28.9134 5.86225 28.8486 5.7041C28.7838 5.54595 28.6873 5.403 28.5654 5.2832C28.3217 5.03938 27.9912 4.90247 27.6465 4.90234C27.4757 4.90141 27.3064 4.93396 27.1484 4.99902C26.9905 5.06409 26.8472 5.16027 26.7266 5.28125C26.4833 5.52726 26.3469 5.85908 26.3467 6.20508V10.6045C26.3462 10.6738 26.3178 10.7403 26.2686 10.7891C26.2193 10.8378 26.1523 10.8655 26.083 10.8652L21.6836 10.8643Z" fill="black"/>
</svg>
