<svg width="59" height="51" viewBox="0 0 59 51" fill="none" xmlns="http://www.w3.org/2000/svg">
<path d="M5.964 44.404H2.628L2.076 46H0.312L3.324 37.612H5.28L8.292 46H6.516L5.964 44.404ZM5.508 43.06L4.296 39.556L3.084 43.06H5.508ZM8.98584 42.652C8.98584 41.98 9.11784 41.384 9.38184 40.864C9.65384 40.344 10.0218 39.944 10.4858 39.664C10.9498 39.384 11.4658 39.244 12.0338 39.244C12.4658 39.244 12.8778 39.34 13.2698 39.532C13.6618 39.716 13.9738 39.964 14.2058 40.276V37.12H15.9098V46H14.2058V45.016C13.9978 45.344 13.7058 45.608 13.3298 45.808C12.9538 46.008 12.5178 46.108 12.0218 46.108C11.4618 46.108 10.9498 45.964 10.4858 45.676C10.0218 45.388 9.65384 44.984 9.38184 44.464C9.11784 43.936 8.98584 43.332 8.98584 42.652ZM14.2178 42.676C14.2178 42.268 14.1378 41.92 13.9778 41.632C13.8178 41.336 13.6018 41.112 13.3298 40.96C13.0578 40.8 12.7658 40.72 12.4538 40.72C12.1418 40.72 11.8538 40.796 11.5898 40.948C11.3258 41.1 11.1098 41.324 10.9418 41.62C10.7818 41.908 10.7018 42.252 10.7018 42.652C10.7018 43.052 10.7818 43.404 10.9418 43.708C11.1098 44.004 11.3258 44.232 11.5898 44.392C11.8618 44.552 12.1498 44.632 12.4538 44.632C12.7658 44.632 13.0578 44.556 13.3298 44.404C13.6018 44.244 13.8178 44.02 13.9778 43.732C14.1378 43.436 14.2178 43.084 14.2178 42.676ZM17.1187 42.652C17.1187 41.98 17.2507 41.384 17.5147 40.864C17.7867 40.344 18.1547 39.944 18.6187 39.664C19.0827 39.384 19.5987 39.244 20.1667 39.244C20.5987 39.244 21.0107 39.34 21.4027 39.532C21.7947 39.716 22.1067 39.964 22.3387 40.276V37.12H24.0427V46H22.3387V45.016C22.1307 45.344 21.8387 45.608 21.4627 45.808C21.0867 46.008 20.6507 46.108 20.1547 46.108C19.5947 46.108 19.0827 45.964 18.6187 45.676C18.1547 45.388 17.7867 44.984 17.5147 44.464C17.2507 43.936 17.1187 43.332 17.1187 42.652ZM22.3507 42.676C22.3507 42.268 22.2707 41.92 22.1107 41.632C21.9507 41.336 21.7347 41.112 21.4627 40.96C21.1907 40.8 20.8987 40.72 20.5867 40.72C20.2747 40.72 19.9867 40.796 19.7227 40.948C19.4587 41.1 19.2427 41.324 19.0747 41.62C18.9147 41.908 18.8347 42.252 18.8347 42.652C18.8347 43.052 18.9147 43.404 19.0747 43.708C19.2427 44.004 19.4587 44.232 19.7227 44.392C19.9947 44.552 20.2827 44.632 20.5867 44.632C20.8987 44.632 21.1907 44.556 21.4627 44.404C21.7347 44.244 21.9507 44.02 22.1107 43.732C22.2707 43.436 22.3507 43.084 22.3507 42.676ZM37.6748 37.624V46H35.9948V40.552L33.7508 46H32.4788L30.2228 40.552V46H28.5428V37.624H30.4508L33.1148 43.852L35.7788 37.624H37.6748ZM42.2878 46.108C41.6478 46.108 41.0718 45.968 40.5598 45.688C40.0478 45.4 39.6438 44.996 39.3478 44.476C39.0598 43.956 38.9158 43.356 38.9158 42.676C38.9158 41.996 39.0638 41.396 39.3598 40.876C39.6638 40.356 40.0758 39.956 40.5958 39.676C41.1158 39.388 41.6958 39.244 42.3358 39.244C42.9758 39.244 43.5558 39.388 44.0758 39.676C44.5958 39.956 45.0038 40.356 45.2998 40.876C45.6038 41.396 45.7558 41.996 45.7558 42.676C45.7558 43.356 45.5998 43.956 45.2878 44.476C44.9838 44.996 44.5678 45.4 44.0398 45.688C43.5198 45.968 42.9358 46.108 42.2878 46.108ZM42.2878 44.644C42.5918 44.644 42.8758 44.572 43.1398 44.428C43.4118 44.276 43.6278 44.052 43.7878 43.756C43.9478 43.46 44.0278 43.1 44.0278 42.676C44.0278 42.044 43.8598 41.56 43.5238 41.224C43.1958 40.88 42.7918 40.708 42.3118 40.708C41.8318 40.708 41.4278 40.88 41.0998 41.224C40.7798 41.56 40.6198 42.044 40.6198 42.676C40.6198 43.308 40.7758 43.796 41.0878 44.14C41.4078 44.476 41.8078 44.644 42.2878 44.644ZM48.6682 40.384C48.8842 40.032 49.1642 39.756 49.5082 39.556C49.8602 39.356 50.2602 39.256 50.7082 39.256V41.02H50.2642C49.7362 41.02 49.3362 41.144 49.0642 41.392C48.8002 41.64 48.6682 42.072 48.6682 42.688V46H46.9882V39.352H48.6682V40.384ZM58.0197 42.532C58.0197 42.772 58.0037 42.988 57.9717 43.18H53.1117C53.1517 43.66 53.3197 44.036 53.6157 44.308C53.9117 44.58 54.2757 44.716 54.7077 44.716C55.3317 44.716 55.7757 44.448 56.0397 43.912H57.8517C57.6597 44.552 57.2917 45.08 56.7477 45.496C56.2037 45.904 55.5357 46.108 54.7437 46.108C54.1037 46.108 53.5277 45.968 53.0157 45.688C52.5117 45.4 52.1157 44.996 51.8277 44.476C51.5477 43.956 51.4077 43.356 51.4077 42.676C51.4077 41.988 51.5477 41.384 51.8277 40.864C52.1077 40.344 52.4997 39.944 53.0037 39.664C53.5077 39.384 54.0877 39.244 54.7437 39.244C55.3757 39.244 55.9397 39.38 56.4357 39.652C56.9397 39.924 57.3277 40.312 57.5997 40.816C57.8797 41.312 58.0197 41.884 58.0197 42.532ZM56.2797 42.052C56.2717 41.62 56.1157 41.276 55.8117 41.02C55.5077 40.756 55.1357 40.624 54.6957 40.624C54.2797 40.624 53.9277 40.752 53.6397 41.008C53.3597 41.256 53.1877 41.604 53.1237 42.052H56.2797Z" fill="#CCCCCC"/>
<path d="M28.9979 25H28.9913C25.7679 25 22.6599 23.8465 20.2726 21.7639C17.8822 19.6849 16.3821 16.8246 16.0647 13.7404C15.7433 10.6565 16.6269 7.56784 18.5436 5.07593C20.4567 2.58143 23.2668 0.860964 26.4268 0.249522C27.2766 0.0841597 28.1414 0.000515604 29.0084 7.71974e-08C30.3882 -0.000147782 31.759 0.212107 33.0689 0.628864C34.3599 1.03989 35.5762 1.64278 36.6732 2.41565C38.9365 3.99887 40.603 6.24701 41.4207 8.82085C42.3732 11.7817 42.145 14.9774 40.7812 17.7855C39.4217 20.5955 37.0231 22.8184 34.0524 24.0207C32.4531 24.67 30.7339 25.0031 28.9979 25ZM24.7849 11.79C24.5402 11.7902 24.3055 11.8835 24.1324 12.05C23.9593 12.2164 23.8622 12.4421 23.862 12.6774C23.8624 12.9127 23.9597 13.1383 24.1327 13.3046C24.3058 13.4708 24.5403 13.5644 24.7849 13.5646H27.9446C27.994 13.5647 28.0416 13.5836 28.0764 13.6173C28.1112 13.6509 28.1305 13.6965 28.1305 13.7439V16.7602C28.1365 16.9922 28.2367 17.2128 28.4092 17.3751C28.5817 17.5374 28.8131 17.6285 29.0545 17.6291C29.2957 17.6286 29.5272 17.5375 29.6994 17.3751C29.8716 17.2127 29.9711 16.9921 29.9763 16.7602V13.7411C29.9765 13.6938 29.996 13.6483 30.0308 13.6148C30.0656 13.5813 30.1129 13.5627 30.1622 13.5625H33.3001C33.5417 13.5583 33.7718 13.4627 33.9407 13.2965C34.1096 13.1304 34.2035 12.907 34.2023 12.6747C34.2009 12.4432 34.1061 12.2214 33.9378 12.0559C33.7694 11.8904 33.5407 11.7944 33.3001 11.7879H30.1622C30.1377 11.7879 30.1133 11.783 30.0907 11.7739C30.0681 11.7649 30.0477 11.7519 30.0304 11.7352C30.0131 11.7185 29.9994 11.6987 29.9901 11.6769C29.9808 11.6552 29.9762 11.632 29.9763 11.6085V8.59367C29.9799 8.43542 29.9393 8.27925 29.8591 8.14104C29.7789 8.00283 29.6617 7.88753 29.5198 7.80741C29.3781 7.72728 29.2167 7.68515 29.0523 7.68527C28.8877 7.68523 28.7261 7.72735 28.5841 7.80741C28.4424 7.88768 28.3252 8.00285 28.2451 8.14104C28.1651 8.27923 28.1247 8.43551 28.1283 8.59367V11.6106C28.1284 11.6342 28.1238 11.6576 28.1145 11.6794C28.1052 11.7012 28.0915 11.7209 28.0742 11.7376C28.0569 11.7544 28.0366 11.7676 28.014 11.7767C27.9914 11.7858 27.967 11.7906 27.9425 11.7907L24.7849 11.79Z" fill="#CCCCCC"/>
</svg>
