<svg width="25" height="26" viewBox="0 0 25 26" fill="none" xmlns="http://www.w3.org/2000/svg">
<path d="M22.89 1.96582H1.76C0.787979 1.96582 0 2.7538 0 3.72582V3.72682C0 4.69884 0.787979 5.48682 1.76 5.48682H22.89C23.862 5.48682 24.65 4.69884 24.65 3.72682V3.72582C24.65 2.7538 23.862 1.96582 22.89 1.96582Z" fill="black"/>
<path d="M7.32422 7C9.25722 7 10.8242 5.433 10.8242 3.5C10.8242 1.567 9.25722 0 7.32422 0C5.39122 0 3.82422 1.567 3.82422 3.5C3.82422 5.433 5.39122 7 7.32422 7Z" fill="black"/>
<path d="M22.89 20.7471H1.76C0.787979 20.7471 0 21.535 0 22.5071V22.5081C0 23.4801 0.787979 24.2681 1.76 24.2681H22.89C23.862 24.2681 24.65 23.4801 24.65 22.5081V22.5071C24.65 21.535 23.862 20.7471 22.89 20.7471Z" fill="black"/>
<path d="M7.32422 26C9.25722 26 10.8242 24.433 10.8242 22.5C10.8242 20.567 9.25722 19 7.32422 19C5.39122 19 3.82422 20.567 3.82422 22.5C3.82422 24.433 5.39122 26 7.32422 26Z" fill="black"/>
<path d="M22.89 11.3564H1.76C0.787979 11.3564 0 12.1444 0 13.1164V13.1174C0 14.0895 0.787979 14.8774 1.76 14.8774H22.89C23.862 14.8774 24.65 14.0895 24.65 13.1174V13.1164C24.65 12.1444 23.862 11.3564 22.89 11.3564Z" fill="black"/>
<path d="M17.3242 17C19.2572 17 20.8242 15.2091 20.8242 13C20.8242 10.7909 19.2572 9 17.3242 9C15.3912 9 13.8242 10.7909 13.8242 13C13.8242 15.2091 15.3912 17 17.3242 17Z" fill="black"/>
</svg>
