<svg width="20" height="25" viewBox="0 0 20 25" fill="none" xmlns="http://www.w3.org/2000/svg">
<path fill-rule="evenodd" clip-rule="evenodd" d="M1.09696 0.204102H19.1453C19.6131 0.204102 19.9981 0.587166 19.9981 1.05692V24.1255C19.9981 24.5952 19.6151 24.9783 19.1453 24.9783H1.09696C0.629221 24.9783 0.244141 24.5952 0.244141 24.1255V1.05692C0.244141 0.587166 0.627205 0.204102 1.09696 0.204102ZM13.1534 3.85329H14.5728V5.00853H13.1534V3.85329ZM15.6574 3.85329H17.0768V5.00853H15.6574V3.85329ZM2.25422 9.29885H4.61712C4.81873 9.29885 4.98607 9.46417 4.98607 9.6678V11.6618C4.98607 11.8634 4.82075 12.0307 4.61712 12.0307H2.25422C2.05261 12.0307 1.88527 11.8654 1.88527 11.6618V9.6678C1.88728 9.46417 2.05261 9.29885 2.25422 9.29885ZM15.8469 20.6275H18.2078C18.4094 20.6275 18.5768 20.7928 18.5768 20.9964V22.9904C18.5768 23.192 18.4115 23.3593 18.2078 23.3593H15.8469C15.6453 23.3593 15.478 23.194 15.478 22.9904V20.9964C15.478 20.7928 15.6453 20.6275 15.8469 20.6275ZM11.3167 20.6275H13.6776C13.8792 20.6275 14.0445 20.7928 14.0445 20.9964V22.9904C14.0445 23.192 13.8792 23.3593 13.6776 23.3593H11.3167C11.1151 23.3593 10.9478 23.194 10.9478 22.9904V20.9964C10.9478 20.7928 11.1131 20.6275 11.3167 20.6275ZM6.78647 20.6275H9.14937C9.35098 20.6275 9.51832 20.7928 9.51832 20.9964V22.9904C9.51832 23.192 9.353 23.3593 9.14937 23.3593H6.78647C6.58486 23.3593 6.41752 23.194 6.41752 22.9904V20.9964C6.41752 20.7928 6.58284 20.6275 6.78647 20.6275ZM2.25422 20.6275H4.61712C4.81873 20.6275 4.98607 20.7928 4.98607 20.9964V22.9904C4.98607 23.192 4.82075 23.3593 4.61712 23.3593H2.25422C2.05261 23.3593 1.88527 23.194 1.88527 22.9904V20.9964C1.88728 20.7928 2.05261 20.6275 2.25422 20.6275ZM15.8469 16.8513H18.2078C18.4094 16.8513 18.5768 17.0166 18.5768 17.2202V19.2142C18.5768 19.4178 18.4115 19.5831 18.2078 19.5831H15.8469C15.6453 19.5831 15.478 19.4178 15.478 19.2142V17.2202C15.478 17.0166 15.6453 16.8513 15.8469 16.8513ZM11.3167 16.8513H13.6776C13.8792 16.8513 14.0445 17.0166 14.0445 17.2202V19.2142C14.0445 19.4178 13.8792 19.5831 13.6776 19.5831H11.3167C11.1151 19.5831 10.9478 19.4178 10.9478 19.2142V17.2202C10.9478 17.0166 11.1131 16.8513 11.3167 16.8513ZM6.78647 16.8513H9.14937C9.35098 16.8513 9.51832 17.0166 9.51832 17.2202V19.2142C9.51832 19.4178 9.353 19.5831 9.14937 19.5831H6.78647C6.58486 19.5831 6.41752 19.4178 6.41752 19.2142V17.2202C6.41752 17.0166 6.58284 16.8513 6.78647 16.8513ZM2.25422 16.8513H4.61712C4.81873 16.8513 4.98607 17.0166 4.98607 17.2202V19.2142C4.98607 19.4178 4.82075 19.5831 4.61712 19.5831H2.25422C2.05261 19.5831 1.88527 19.4178 1.88527 19.2142V17.2202C1.88728 17.0166 2.05261 16.8513 2.25422 16.8513ZM15.8469 13.0751H18.2078C18.4094 13.0751 18.5768 13.2404 18.5768 13.444V15.438C18.5768 15.6396 18.4115 15.8069 18.2078 15.8069H15.8469C15.6453 15.8069 15.478 15.6416 15.478 15.438V13.444C15.478 13.2404 15.6453 13.0751 15.8469 13.0751ZM11.3167 13.0751H13.6776C13.8792 13.0751 14.0445 13.2404 14.0445 13.444V15.438C14.0445 15.6396 13.8792 15.8069 13.6776 15.8069H11.3167C11.1151 15.8069 10.9478 15.6416 10.9478 15.438V13.444C10.9478 13.2404 11.1131 13.0751 11.3167 13.0751ZM6.78647 13.0751H9.14937C9.35098 13.0751 9.51832 13.2404 9.51832 13.444V15.438C9.51832 15.6396 9.353 15.8069 9.14937 15.8069H6.78647C6.58486 15.8069 6.41752 15.6416 6.41752 15.438V13.444C6.41752 13.2404 6.58284 13.0751 6.78647 13.0751ZM2.25422 13.0751H4.61712C4.81873 13.0751 4.98607 13.2404 4.98607 13.444V15.438C4.98607 15.6396 4.82075 15.8069 4.61712 15.8069H2.25422C2.05261 15.8069 1.88527 15.6416 1.88527 15.438V13.444C1.88728 13.2404 2.05261 13.0751 2.25422 13.0751ZM15.8469 9.29885H18.2078C18.4094 9.29885 18.5768 9.46417 18.5768 9.6678V11.6618C18.5768 11.8634 18.4115 12.0307 18.2078 12.0307H15.8469C15.6453 12.0307 15.478 11.8654 15.478 11.6618V9.6678C15.478 9.46417 15.6453 9.29885 15.8469 9.29885ZM11.3167 9.29885H13.6776C13.8792 9.29885 14.0445 9.46417 14.0445 9.6678V11.6618C14.0445 11.8634 13.8792 12.0307 13.6776 12.0307H11.3167C11.1151 12.0307 10.9478 11.8654 10.9478 11.6618V9.6678C10.9478 9.46417 11.1131 9.29885 11.3167 9.29885ZM6.78647 9.29885H9.14937C9.35098 9.29885 9.51832 9.46417 9.51832 9.6678V11.6618C9.51832 11.8634 9.353 12.0307 9.14937 12.0307H6.78647C6.58486 12.0307 6.41752 11.8654 6.41752 11.6618V9.6678C6.41752 9.46417 6.58284 9.29885 6.78647 9.29885ZM2.06269 1.94402H18.0062C18.1615 1.94402 18.2865 2.07104 18.2865 2.22426V6.0791C18.2865 6.23434 18.1615 6.35934 18.0062 6.35934H2.06269C1.90744 6.35934 1.78245 6.23232 1.78245 6.0791V2.22426C1.78245 2.07104 1.90946 1.94402 2.06269 1.94402Z" fill="white"/>
</svg>
