<svg width="38" height="13" viewBox="0 0 38 13" fill="none" xmlns="http://www.w3.org/2000/svg">
<path fill-rule="evenodd" clip-rule="evenodd" d="M9.63748 12.1276H6.43747L4.03748 2.9856C3.99343 2.78342 3.90737 2.59277 3.78488 2.42601C3.66239 2.25925 3.50622 2.12009 3.32648 2.01759C2.40369 1.55112 1.41649 1.22487 0.397461 1.0496V0.697594H5.54547C5.8678 0.696225 6.17983 0.811 6.42444 1.0209C6.66905 1.23081 6.82988 1.5218 6.87747 1.8406L8.12149 8.4356L11.3155 0.697594H14.4225L9.63748 12.1276ZM16.2065 12.1276H13.1935L15.6785 0.697594H18.6935L16.2065 12.1276ZM22.5965 3.86459C22.6457 3.57733 22.8005 3.31883 23.0304 3.13976C23.2604 2.96068 23.5489 2.87396 23.8395 2.8966C24.8457 2.80609 25.8578 2.98812 26.7695 3.4236L27.3025 0.962601C26.4256 0.618118 25.4926 0.438762 24.5505 0.433594C21.6215 0.433594 19.4895 2.0166 19.4895 4.2146C19.4895 5.8866 20.9995 6.7636 22.0655 7.29259C23.2185 7.81959 23.6655 8.17159 23.5735 8.69859C23.5735 9.48959 22.6855 9.8416 21.7985 9.8416C20.725 9.82999 19.6662 9.59143 18.6915 9.14159L18.1585 11.6036C19.2031 12.019 20.3183 12.2282 21.4425 12.2196C24.7275 12.3066 26.7685 10.7196 26.7685 8.35059C26.7685 5.36059 22.5955 5.1856 22.5955 3.8676L22.5965 3.86459ZM37.3315 12.1276L34.9315 0.697594H32.3575C32.0854 0.699983 31.8205 0.785454 31.5984 0.942551C31.3762 1.09965 31.2074 1.32087 31.1145 1.5766L26.6765 12.1266H29.7835L30.4035 10.4566H34.2215L34.5765 12.1266L37.3315 12.1276ZM32.8055 3.7756L33.6925 8.0836H31.2075L32.8055 3.7756Z" fill="#172B85"/>
</svg>
