<svg width="16" height="10" viewBox="0 0 16 10" fill="none" xmlns="http://www.w3.org/2000/svg">
<path fill-rule="evenodd" clip-rule="evenodd" d="M0.756035 0.0343802C0.526251 0.103072 0.326673 0.247931 0.190178 0.445132C0.0536825 0.642332 -0.0116062 0.880133 0.00502784 1.11939C0.00502784 1.65339 -0.294987 1.31939 3.74001 5.35239C7.79201 9.40739 7.46204 9.11638 8.00204 9.11638C8.54204 9.11638 8.21103 9.41038 12.277 5.33638C16.302 1.30438 15.999 1.64739 15.999 1.11939C16.0126 0.971076 15.9936 0.821572 15.9431 0.681444C15.8927 0.541316 15.8121 0.413973 15.707 0.308382C15.6022 0.202765 15.4756 0.121218 15.3361 0.0694143C15.1965 0.0176105 15.0474 -0.00321251 14.899 0.00837919C14.35 0.00837919 14.665 -0.263623 11.12 3.27538L8.00002 6.39238L4.87801 3.27538C1.37201 -0.224622 1.64902 0.0183825 1.14602 0.00238248C1.01516 -0.00526103 0.883896 0.00550851 0.756035 0.0343802Z" fill="black"/>
</svg>
