<svg width="38" height="34" viewBox="0 0 38 34" fill="none" xmlns="http://www.w3.org/2000/svg">
<path d="M18.8921 33.929C18.0975 33.9286 17.3301 33.6401 16.7321 33.117C15.3191 31.883 13.9811 30.738 12.7321 29.676C9.5462 27.1254 6.56999 24.3234 3.83206 21.297C1.45258 18.7301 0.0902325 15.384 6.17339e-05 11.885V11.874C-0.0559063 8.78661 1.0559 5.79191 3.11306 3.48901L3.12406 3.47701C4.12741 2.38261 5.3472 1.50861 6.70609 0.910417C8.06498 0.312223 9.53333 0.00288506 11.0181 0.00201444H11.1261C13.4002 0.00504143 15.6072 0.772875 17.3921 2.18201C17.9319 2.60298 18.4362 3.06754 18.9001 3.57101C19.3649 3.06784 19.8699 2.60331 20.4101 2.18201C22.1968 0.772645 24.4054 0.00485223 26.6811 0.00201444H26.7691C28.2547 0.00167754 29.7241 0.310245 31.0841 0.908126C32.4441 1.50601 33.6649 2.38014 34.6691 3.47501L34.6801 3.48701C36.7371 5.78913 37.8486 8.78329 37.7921 11.87V11.879C37.704 15.3778 36.3433 18.7244 33.9651 21.292C31.2242 24.3156 28.2453 27.1146 25.0571 29.662C24.0851 30.491 22.6161 31.745 21.0451 33.112C20.4497 33.6355 19.6849 33.9257 18.8921 33.929ZM2.40006 11.827C2.47774 14.7423 3.61542 17.5292 5.60006 19.666L5.61106 19.678C8.269 22.6151 11.1586 25.3338 14.2521 27.808L14.2801 27.831C15.4801 28.856 16.8891 30.053 18.3181 31.306C18.4771 31.4449 18.6809 31.5216 18.8921 31.522H18.9001C19.1114 31.521 19.3153 31.4436 19.4741 31.304C21.0571 29.915 22.5401 28.655 23.5181 27.821L23.5471 27.796C26.6402 25.3247 29.5298 22.609 32.1881 19.675L32.1971 19.666C34.1798 17.5272 35.3144 14.7386 35.3881 11.823C35.4316 9.34466 34.5389 6.94105 32.8881 5.09201C32.1101 4.24479 31.1647 3.56827 30.1118 3.10524C29.0589 2.6422 27.9213 2.40275 26.7711 2.40201H26.6831C24.9465 2.40538 23.2617 2.99329 21.9001 4.07101C21.1317 4.67136 20.4532 5.37852 19.8851 6.17101L18.9001 7.54201L17.9231 6.17201C17.3588 5.37926 16.6832 4.67198 15.9171 4.07201C14.5551 2.99569 12.87 2.41014 11.1341 2.41001H11.0301C9.88038 2.41037 8.74327 2.64917 7.69057 3.11132C6.63787 3.57347 5.69245 4.24892 4.91406 5.09501C3.2588 6.94272 2.36109 9.34661 2.40006 11.827Z" fill="#3A4B4C"/>
</svg>
