<svg width="34" height="34" viewBox="0 0 34 34" fill="none" xmlns="http://www.w3.org/2000/svg">
<path d="M34 17C34 7.61116 26.3888 0 17 0C7.61116 0 0 7.61116 0 17C0 26.3888 7.61116 34 17 34C26.3888 34 34 26.3888 34 17Z" fill="#4AEAB1"/>
<path d="M21.5948 28.2734C21.5182 28.2735 21.4418 28.2634 21.3678 28.2434C21.2612 28.2064 21.1644 28.1455 21.0848 28.0654C21.0048 27.9804 20.0338 26.3224 17.9378 22.6914L18.0988 22.6654C18.1928 22.6474 18.4748 22.5994 18.7208 22.5654C18.9668 22.5314 19.3678 22.4364 19.6128 22.3654C19.8578 22.2944 20.2218 22.1744 20.4398 22.0864C20.6578 21.9984 21.0398 21.8284 21.2668 21.7124C21.5108 21.5884 21.8408 21.3964 22.0068 21.2904C22.1728 21.1844 22.4648 20.9794 22.6598 20.8334C22.8548 20.6874 23.2448 20.3334 23.5348 20.0454C23.8352 19.7406 24.1187 19.4194 24.3838 19.0834C24.5588 18.8484 24.7608 18.5554 24.8318 18.4394C24.9028 18.3234 24.9628 18.2394 24.9898 18.2394C25.0098 18.2474 25.6758 19.3804 26.6088 20.9934C27.4958 22.5274 28.2158 23.8064 28.2498 23.8874C28.2814 23.9841 28.2903 24.0868 28.2758 24.1874C28.2549 24.2905 28.2167 24.3892 28.1628 24.4794C28.0942 24.5784 28.0012 24.6579 27.8928 24.7104C27.7984 24.7561 27.697 24.7855 27.5928 24.7974C27.5308 24.7974 26.5548 24.5454 25.4168 24.2364C24.1938 23.9054 23.4558 23.7234 23.3398 23.7234C23.3308 23.7234 23.3238 23.7234 23.3238 23.7234C23.3068 23.7494 23.0598 24.6494 22.7628 25.7724C22.4818 26.8324 22.2078 27.8184 22.1748 27.8824C22.1243 27.9682 22.0593 28.0447 21.9828 28.1084C21.8971 28.1826 21.7938 28.2336 21.6828 28.2564C21.654 28.2645 21.6246 28.2702 21.5948 28.2734ZM12.7138 28.2734C12.6803 28.2739 12.6468 28.2712 12.6138 28.2654C12.4943 28.2389 12.3843 28.1801 12.2958 28.0954C12.2027 28.008 12.13 27.9011 12.0828 27.7824C12.0528 27.7004 11.8518 26.9664 11.5168 25.7154C11.2168 24.5964 11.0018 23.7894 10.9818 23.7534C10.9758 23.7404 10.9588 23.7344 10.9278 23.7344C10.2371 23.8627 9.55458 24.0316 8.88381 24.2404C7.74581 24.5504 6.76881 24.8014 6.70781 24.8014C6.60291 24.7852 6.50149 24.7514 6.40781 24.7014C6.27509 24.6406 6.16862 24.5342 6.10781 24.4014C6.05568 24.3023 6.02181 24.1946 6.00781 24.0834C6.01666 23.9852 6.04308 23.8893 6.08581 23.8004C6.12781 23.7154 6.83681 22.4694 7.72281 20.9284C8.59781 19.4104 9.29881 18.2214 9.32281 18.2214C9.34681 18.2214 9.41381 18.3114 9.47981 18.4214C9.54581 18.5314 9.75981 18.8454 9.92381 19.0654C10.1889 19.4014 10.4724 19.7226 10.7728 20.0274C11.0628 20.3134 11.4558 20.6664 11.6478 20.8154C11.8398 20.9644 12.1358 21.1664 12.3008 21.2724C12.4658 21.3784 12.8008 21.5724 13.0408 21.6944C13.2808 21.8164 13.6558 21.9864 13.8678 22.0684C14.0798 22.1504 14.4508 22.2764 14.6948 22.3474C14.9388 22.4184 15.3408 22.5054 15.5868 22.5474C15.8328 22.5894 16.0868 22.6284 16.3698 22.6784L14.8508 25.3234C14.0108 26.7744 13.2758 28.0074 13.2108 28.0734C13.1349 28.1519 13.0408 28.2103 12.9368 28.2434C12.8631 28.2633 12.7871 28.2734 12.7108 28.2734H12.7138ZM17.1548 21.2944C16.7914 21.296 16.4281 21.277 16.0668 21.2374C15.8538 21.2054 15.4948 21.1294 15.2838 21.0764C15.0468 21.0174 14.6998 20.9114 14.5088 20.8414C14.3178 20.7714 13.9958 20.6304 13.7948 20.5324C13.5938 20.4344 13.2698 20.2494 13.0858 20.1324C12.9018 20.0154 12.6318 19.8394 12.4978 19.7324C12.3638 19.6254 12.0888 19.3884 11.8708 19.1844C11.6414 18.9664 11.4247 18.7353 11.2218 18.4924C11.0738 18.3084 10.8538 18.0004 10.7218 17.8094C10.5898 17.6184 10.4078 17.2774 10.2948 17.0564C10.1731 16.813 10.0642 16.5633 9.96881 16.3084C9.89881 16.1184 9.79281 15.7704 9.73381 15.5334C9.68081 15.3224 9.60481 14.9624 9.57281 14.7504C9.53326 14.3891 9.51423 14.0259 9.51581 13.6624C9.51422 13.299 9.53325 12.9357 9.57281 12.5744C9.60481 12.3614 9.68081 12.0024 9.73381 11.7914C9.78681 11.5804 9.89481 11.2234 9.97181 11.0234C10.0662 10.7665 10.1751 10.5151 10.2978 10.2704C10.3978 10.0704 10.5918 9.72744 10.7248 9.52244C10.8578 9.31744 11.0828 9.00644 11.2248 8.83444C11.4277 8.59156 11.6444 8.36051 11.8738 8.14244C12.0908 7.94244 12.3738 7.69244 12.5008 7.59444C12.6278 7.49644 12.9008 7.30644 13.0888 7.19444C13.2768 7.08244 13.5888 6.89444 13.7978 6.79444C14.0068 6.69444 14.3108 6.55144 14.5108 6.48244C14.7108 6.41344 15.0488 6.30644 15.2858 6.24744C15.5228 6.18844 15.8698 6.12344 16.0658 6.09544L16.1748 6.08144C16.3438 6.05944 16.5188 6.03744 16.5868 6.03044C16.6268 6.03044 16.7308 6.02344 16.8788 6.02344C17.0268 6.02344 17.2018 6.02344 17.3698 6.03044C17.7043 6.03774 18.0382 6.06378 18.3698 6.10844C18.5758 6.14344 18.8978 6.20844 19.0878 6.26044C19.3458 6.3289 19.6001 6.41033 19.8498 6.50444C20.0758 6.59144 20.4498 6.75944 20.6768 6.87844C20.9038 6.99744 21.2398 7.19644 21.4388 7.32644C21.6951 7.50676 21.9421 7.70001 22.1788 7.90544C22.4371 8.1371 22.6828 8.38245 22.9148 8.64044C23.1187 8.87565 23.3106 9.12096 23.4898 9.37544C23.6208 9.57544 23.8208 9.91844 23.9378 10.1374C24.0548 10.3564 24.2258 10.7374 24.3118 10.9644C24.4134 11.2349 24.4992 11.511 24.5688 11.7914C24.6218 12.0024 24.6978 12.3624 24.7298 12.5744C24.7694 12.9357 24.7884 13.299 24.7868 13.6624C24.7884 14.0259 24.7694 14.3891 24.7298 14.7504C24.6978 14.9634 24.6218 15.3224 24.5688 15.5334C24.4992 15.8138 24.4134 16.09 24.3118 16.3604C24.2248 16.5864 24.0568 16.9604 23.9378 17.1874C23.8188 17.4144 23.6198 17.7514 23.4898 17.9484C23.3106 18.2029 23.1187 18.4482 22.9148 18.6834C22.6828 18.9414 22.4371 19.1868 22.1788 19.4184C21.9421 19.6238 21.6951 19.8171 21.4388 19.9974C21.2388 20.1284 20.8958 20.3274 20.6768 20.4454C20.4578 20.5634 20.0768 20.7324 19.8498 20.8194C19.5793 20.921 19.3032 21.0068 19.0228 21.0764C18.8118 21.1294 18.4518 21.2054 18.2398 21.2374C17.8792 21.2769 17.5166 21.2959 17.1538 21.2944H17.1548ZM17.1548 16.3164C17.1898 16.3164 17.6548 16.5014 18.1548 16.7164C18.7068 16.9504 19.1548 17.1254 19.2208 17.1344C19.2459 17.1387 19.2714 17.1407 19.2968 17.1404C19.3671 17.1411 19.437 17.1303 19.5038 17.1084C19.6157 17.0617 19.7176 16.9938 19.8038 16.9084C19.8612 16.8595 19.9064 16.7979 19.9359 16.7285C19.9654 16.659 19.9784 16.5837 19.9738 16.5084C19.9818 16.3814 19.9668 15.9474 19.9388 15.4984C19.9118 15.0734 19.8768 14.6224 19.8648 14.4984L19.8388 14.2594C21.0168 12.7894 21.2388 12.4784 21.2618 12.4234C21.2982 12.3408 21.3202 12.2525 21.3268 12.1624C21.3128 12.0513 21.2789 11.9436 21.2268 11.8444C21.1753 11.7369 21.1017 11.6415 21.0108 11.5644C20.6389 11.4285 20.2592 11.3146 19.8738 11.2234C19.5183 11.1398 19.168 11.0353 18.8248 10.9104C18.7998 10.8814 18.5328 10.4514 18.2328 9.94044C18.0444 9.58502 17.8198 9.24992 17.5628 8.94044C17.4504 8.87867 17.325 8.8444 17.1968 8.84044C17.1658 8.84044 17.1348 8.84044 17.1068 8.84044C17.0058 8.83765 16.9056 8.85818 16.8138 8.90044C16.7094 8.96435 16.6203 9.05037 16.5528 9.15244C16.4828 9.25244 16.2078 9.70144 15.9528 10.1314C15.6728 10.6024 15.4688 10.9364 15.4528 10.9454C15.4368 10.9544 15.1978 11.0174 14.8588 11.1084H14.8438L14.4338 11.2234C14.0502 11.3142 13.6722 11.4274 13.3018 11.5624C13.2066 11.6351 13.1279 11.7271 13.0708 11.8324C13.0187 11.9316 12.9848 12.0393 12.9708 12.1504C12.9774 12.2405 12.9994 12.3288 13.0358 12.4114C13.0688 12.4824 13.3948 12.9194 13.7798 13.3994L14.4588 14.2474C14.4228 14.5824 14.3878 15.0234 14.3588 15.4874C14.3308 15.9364 14.3158 16.3704 14.3238 16.4974C14.3192 16.5727 14.3322 16.648 14.3617 16.7175C14.3912 16.7869 14.4364 16.8485 14.4938 16.8974C14.58 16.9828 14.6819 17.0507 14.7938 17.0974C14.8634 17.1228 14.9368 17.1359 15.0108 17.1364C15.0363 17.1367 15.0617 17.1347 15.0868 17.1304C15.1528 17.1224 15.6008 16.9464 16.1528 16.7124C16.6598 16.4974 17.1178 16.3164 17.1538 16.3164H17.1548Z" fill="black"/>
</svg>
