<svg width="42" height="42" viewBox="0 0 42 42" fill="none" xmlns="http://www.w3.org/2000/svg">
<path opacity="0.1" d="M29.9379 0H11.9752C5.36146 0 0 5.36146 0 11.9752V29.9379C0 36.5516 5.36146 41.913 11.9752 41.913H29.9379C36.5516 41.913 41.913 36.5516 41.913 29.9379V11.9752C41.913 5.36146 36.5516 0 29.9379 0Z" fill="#3A4B4C"/>
<path d="M22.3649 32.0586C18.5998 32.0586 14.8559 32.0586 11.1128 32.0586C10.7103 32.0815 10.3107 31.9779 9.97057 31.7627C9.63044 31.5474 9.367 31.2312 9.2175 30.8588C9.08396 30.5457 9.01514 30.209 9.01513 29.8688C9.00266 24.7785 8.99982 19.6882 9.00663 14.5979C8.99232 14.4957 9.00125 14.3916 9.03276 14.2933C9.06428 14.195 9.11757 14.1049 9.18872 14.0298C9.25986 13.9547 9.34706 13.8964 9.44386 13.8592C9.54067 13.822 9.64463 13.8069 9.74809 13.815C11.6494 13.815 13.5507 13.815 15.4519 13.815H15.7291C15.7135 13.5082 15.7152 13.2008 15.7342 12.8943C15.7616 12.3899 15.981 11.9148 16.3479 11.5655C16.7147 11.2161 17.2015 11.0186 17.7095 11.0131C19.4849 10.9956 21.2604 10.9956 23.0358 11.0131C23.3069 11.02 23.5739 11.0803 23.8214 11.1905C24.0689 11.3008 24.2918 11.4588 24.4774 11.6555C24.663 11.8521 24.8074 12.0834 24.9024 12.336C24.9974 12.5885 25.0409 12.8573 25.0306 13.1268C25.0357 13.3441 25.0306 13.5622 25.0306 13.8108H30.9292C31.4997 13.8108 31.7335 14.0576 31.7335 14.6638C31.7335 19.7153 31.7335 24.7667 31.7335 29.8181C31.7712 30.2935 31.643 30.7673 31.3704 31.1597C31.0978 31.5521 30.6975 31.8391 30.237 31.9723C30.0228 32.0294 29.8015 32.0559 29.5797 32.051C27.1827 32.056 24.7857 32.051 22.3666 32.051M27.5381 30.6475H29.5576C30.169 30.6475 30.402 30.4031 30.402 29.7614C30.402 26.2381 30.402 22.7153 30.402 19.193V18.9538C30.36 19.0007 30.3308 19.0574 30.3169 19.1186C30.008 20.0915 29.6993 21.0641 29.391 22.0364C29.2894 22.5089 29.0209 22.9296 28.6342 23.2223C28.2475 23.515 27.7682 23.6602 27.2831 23.6318H23.6982C23.6982 23.8693 23.6982 24.0866 23.6982 24.3031C23.706 24.3981 23.6936 24.4938 23.6616 24.5837C23.6296 24.6737 23.5789 24.7558 23.5127 24.8249C23.4466 24.894 23.3665 24.9484 23.2777 24.9845C23.1889 25.0206 23.0934 25.0376 22.9975 25.0344C21.2442 25.0378 19.4912 25.0378 17.7384 25.0344C17.6425 25.0371 17.5471 25.0197 17.4584 24.9832C17.3698 24.9466 17.2899 24.8919 17.2241 24.8225C17.1582 24.7531 17.1079 24.6707 17.0764 24.5805C17.0448 24.4904 17.0328 24.3947 17.0412 24.2997C17.0412 24.0832 17.0412 23.8668 17.0412 23.6326H16.8082C15.662 23.6326 14.5123 23.6326 13.3687 23.6326C12.9224 23.6421 12.4857 23.5028 12.1282 23.237C11.7707 22.9712 11.513 22.5941 11.396 22.1657C11.3033 21.8952 11.2208 21.6212 11.1341 21.349L10.3688 18.9504L10.334 18.9555V19.1837C10.334 22.7144 10.334 26.2454 10.334 29.7766C10.334 30.4167 10.5669 30.6593 11.1843 30.6593H27.5381M28.7507 19.6327L30.1392 15.2286H10.6128C10.6123 15.2533 10.6143 15.2779 10.6188 15.3022C11.2928 17.4322 11.9677 19.5622 12.6434 21.6923C12.6763 21.8613 12.7724 22.0117 12.9123 22.1132C13.0523 22.2147 13.2256 22.2597 13.3976 22.2393C14.5591 22.2393 15.7212 22.2393 16.8838 22.2393C16.9332 22.2393 16.9825 22.2333 17.042 22.23C17.042 22.0059 17.042 21.7962 17.042 21.5874C17.0325 21.4907 17.0439 21.3931 17.0753 21.3012C17.1068 21.2092 17.1576 21.125 17.2244 21.0541C17.2912 20.9832 17.3724 20.9273 17.4627 20.8901C17.5529 20.8529 17.6501 20.8352 17.7477 20.8383C19.4931 20.8349 21.2388 20.8349 22.9848 20.8383C23.0842 20.8341 23.1833 20.8512 23.2755 20.8887C23.3676 20.9261 23.4504 20.9829 23.5184 21.0552C23.5863 21.1275 23.6377 21.2136 23.669 21.3075C23.7004 21.4014 23.7109 21.5009 23.6999 21.5992C23.6999 21.8072 23.6999 22.0152 23.6999 22.2384H27.2882C27.3845 22.253 27.4828 22.2482 27.5773 22.2245C27.6717 22.2008 27.7605 22.1586 27.8383 22.1003C27.9162 22.042 27.9816 21.9689 28.0306 21.8852C28.0797 21.8015 28.1114 21.7089 28.124 21.6128C28.3306 20.9643 28.5339 20.315 28.7524 19.6318M23.4405 12.5654C23.2878 12.4954 23.1262 12.4464 22.9601 12.42C22.228 12.4048 21.4959 12.4132 20.7646 12.4132C19.7587 12.4132 18.7537 12.4132 17.7477 12.4132C17.575 12.4043 17.4055 12.4625 17.2752 12.5757C17.1449 12.6888 17.064 12.848 17.0496 13.0194C17.0258 13.279 17.0454 13.5428 17.0454 13.8032H23.6982C23.6982 13.5825 23.6982 13.3737 23.6982 13.1648C23.7029 13.0513 23.682 12.9381 23.637 12.8336C23.5919 12.7292 23.5239 12.6361 23.438 12.5612M18.6627 22.235H18.3829V23.6258H22.3547V22.235H18.6627Z" fill="#3A4B4C"/>
</svg>
