<svg width="87" height="87" viewBox="0 0 87 87" fill="none" xmlns="http://www.w3.org/2000/svg">
<rect x="0.302734" width="86.5067" height="86.5067" rx="25.952" fill="#EFE9E9"/>
<g clip-path="url(#clip0_1078_22)">
<path d="M39.0633 58.1223C34.4184 58.1223 30.6378 54.3417 30.6378 49.6968V29.377H27.1686C24.1612 29.377 21.7168 31.821 21.7168 34.8284V61.5914C21.7168 64.5989 24.1612 67.0433 27.1686 67.0433H51.949C54.9564 67.0433 57.4008 64.5989 57.4008 61.5914V58.1223H39.0633Z" fill="#7D7E93"/>
<path d="M65.3303 24.9167C65.3303 21.9053 62.8899 19.4648 59.8788 19.4648H39.0632C36.0518 19.4648 33.6113 21.9053 33.6113 24.9167V49.697C33.6113 52.7084 36.0518 55.1488 39.0632 55.1488H59.8788C62.8899 55.1488 65.3303 52.7084 65.3303 49.697V24.9167Z" fill="#9B9CA8"/>
</g>
<defs>
<clipPath id="clip0_1078_22">
<rect width="47.5787" height="47.5787" fill="white" transform="translate(19.7656 19.4648)"/>
</clipPath>
</defs>
</svg>
