<svg width="87" height="87" viewBox="0 0 87 87" fill="none" xmlns="http://www.w3.org/2000/svg">
<rect y="0.227539" width="86.5067" height="86.5067" rx="25.952" fill="url(#paint0_radial_1080_10003)"/>
<rect y="0.227539" width="86.5067" height="86.5067" rx="25.952" fill="url(#paint1_radial_1080_10003)"/>
<rect y="0.227539" width="86.5067" height="86.5067" rx="25.952" fill="url(#paint2_radial_1080_10003)"/>
<path d="M43.2531 66.9095C36.9474 66.9095 36.1146 66.8821 33.5924 66.7686C31.649 66.7272 29.7265 66.3591 27.9054 65.6795C26.3416 65.0917 24.9253 64.169 23.7559 62.976C22.5635 61.8057 21.6415 60.3889 21.0542 58.8247C20.3747 57.0036 20.0065 55.0811 19.9652 53.1377C19.8517 50.6191 19.8242 49.7845 19.8242 43.4806C19.8242 37.2189 19.8517 36.3769 19.9652 33.8199C20.0044 31.8765 20.372 29.9537 21.0524 28.1329C21.6423 26.5698 22.5654 25.1538 23.7577 23.9834C24.9273 22.791 26.3435 21.8689 27.9072 21.2818C29.7282 20.6017 31.6508 20.2336 33.5942 20.1927C36.1146 20.0792 36.9493 20.0518 43.2531 20.0518C49.5569 20.0518 50.3916 20.0792 52.9084 20.1927C54.8535 20.2339 56.7779 20.6021 58.6009 21.2818C60.1631 21.8696 61.578 22.7916 62.7467 23.9834C63.939 25.1538 64.8621 26.5698 65.452 28.1329C66.1276 29.9551 66.4956 31.877 66.5411 33.8199C66.6545 36.3422 66.682 37.1841 66.682 43.4806C66.682 49.7772 66.6545 50.6191 66.5429 53.1414C66.4973 55.0837 66.1293 57.0049 65.4538 58.8266C64.851 60.3826 63.9304 61.7959 62.7508 62.9761C61.5712 64.1564 60.1584 65.0777 58.6027 65.6813C56.7803 66.3608 54.8566 66.7289 52.912 66.7704C50.3916 66.8839 49.5569 66.9095 43.2531 66.9095ZM41.1537 24.2616C36.7992 24.2616 35.9737 24.2946 33.7882 24.3934C32.3022 24.4105 30.8302 24.6842 29.4374 25.2025C28.4195 25.5783 27.4989 26.1775 26.7431 26.956C25.9646 27.7118 25.3654 28.6324 24.9896 29.6503C24.4727 31.0428 24.1997 32.514 24.1824 33.9993C24.0707 36.4575 24.0469 37.1969 24.0469 43.4642C24.0469 49.7314 24.0707 50.4745 24.1824 52.9309C24.1997 54.4162 24.4727 55.8874 24.9896 57.2799C25.3655 58.2971 25.9647 59.2172 26.7431 59.9724C27.4989 60.7509 28.4195 61.35 29.4374 61.7259C30.831 62.241 32.3025 62.514 33.7882 62.5331C36.2757 62.6466 37.0188 62.6704 43.2549 62.6704C49.491 62.6704 50.2324 62.6466 52.7217 62.5331C54.2069 62.5158 55.6781 62.2427 57.0707 61.7259C58.0806 61.3359 58.9978 60.7391 59.7634 59.9738C60.5291 59.2084 61.1263 58.2915 61.5167 57.2817C62.0334 55.8892 62.3065 54.418 62.3239 52.9327C62.4373 50.4453 62.4611 49.7021 62.4611 43.4697C62.4611 37.2372 62.4373 36.4941 62.3239 34.0066C62.3066 32.5213 62.0335 31.0501 61.5167 29.6576C61.1403 28.64 60.5412 27.7195 59.7632 26.9633C59.0078 26.1847 58.0869 25.586 57.0688 25.2116C55.6763 24.6948 54.2051 24.4217 52.7198 24.4044C50.2616 24.2928 49.5222 24.269 43.2531 24.269H41.1537V24.2616ZM43.2531 55.5099C40.8735 55.5099 38.5473 54.8043 36.5688 53.4822C34.5903 52.1601 33.0482 50.281 32.1376 48.0825C31.2271 45.884 30.9889 43.4648 31.4533 41.131C31.9177 38.7971 33.0637 36.6534 34.7465 34.9709C36.4292 33.2884 38.5732 32.1427 40.9071 31.6787C43.241 31.2147 45.6601 31.4532 47.8585 32.3641C50.0568 33.2749 51.9357 34.8173 53.2575 36.796C54.5793 38.7748 55.2846 41.101 55.2842 43.4806C55.2798 46.67 54.0108 49.7274 51.7555 51.9825C49.5001 54.2375 46.4424 55.506 43.2531 55.5099V55.5099ZM43.2531 35.6704C41.709 35.6711 40.1997 36.1297 38.9162 36.988C37.6326 37.8464 36.6324 39.066 36.0419 40.4928C35.4514 41.9195 35.2972 43.4893 35.5987 45.0037C35.9003 46.5181 36.644 47.9091 37.736 49.0008C38.828 50.0926 40.2192 50.836 41.7336 51.1372C43.2481 51.4384 44.8179 51.2838 46.2445 50.693C47.6711 50.1022 48.8905 49.1017 49.7486 47.8179C50.6066 46.5341 51.0648 45.0248 51.0652 43.4806C51.0628 41.4098 50.2388 39.4246 48.7742 37.9606C47.3095 36.4967 45.3239 35.6737 43.2531 35.6722V35.6704ZM55.7601 33.7796C55.2038 33.7793 54.6601 33.6139 54.1979 33.3044C53.7356 32.9949 53.3756 32.5553 53.1633 32.0411C52.951 31.5269 52.896 30.9613 53.0053 30.4158C53.1145 29.8704 53.3832 29.3696 53.7772 28.9769C54.1712 28.5842 54.6728 28.3172 55.2186 28.2097C55.7644 28.1022 56.3299 28.159 56.8433 28.373C57.3568 28.587 57.7953 28.9484 58.1033 29.4117C58.4112 29.875 58.5749 30.4192 58.5734 30.9755C58.571 31.72 58.2735 32.4332 57.7462 32.9589C57.2188 33.4845 56.5047 33.7796 55.7601 33.7796V33.7796Z" fill="white"/>
<defs>
<radialGradient id="paint0_radial_1080_10003" cx="0" cy="0" r="1" gradientUnits="userSpaceOnUse" gradientTransform="translate(30.8952 65.1075) rotate(-55.3758) scale(78.8434)">
<stop stop-color="#B13589"/>
<stop offset="0.79309" stop-color="#C62F94"/>
<stop offset="1" stop-color="#8A3AC8"/>
</radialGradient>
<radialGradient id="paint1_radial_1080_10003" cx="0" cy="0" r="1" gradientUnits="userSpaceOnUse" gradientTransform="translate(27.8057 89.8237) rotate(-65.1363) scale(69.8055)">
<stop stop-color="#E0E8B7"/>
<stop offset="0.444662" stop-color="#FB8A2E"/>
<stop offset="0.71474" stop-color="#E2425C"/>
<stop offset="1" stop-color="#E2425C" stop-opacity="0"/>
</radialGradient>
<radialGradient id="paint2_radial_1080_10003" cx="0" cy="0" r="1" gradientUnits="userSpaceOnUse" gradientTransform="translate(-4.63428 3.31706) rotate(-8.1301) scale(120.154 25.6998)">
<stop offset="0.156701" stop-color="#406ADC"/>
<stop offset="0.467799" stop-color="#6A45BE"/>
<stop offset="1" stop-color="#6A45BE" stop-opacity="0"/>
</radialGradient>
</defs>
</svg>
