<svg width="50" height="49" viewBox="0 0 50 49" fill="none" xmlns="http://www.w3.org/2000/svg">
<ellipse cx="25" cy="24.5" rx="25" ry="24.5" fill="white"/>
<path d="M25.3625 11C20.2 11 16 15.4221 16 20.8577C16 26.1202 24.5353 36.9884 24.8986 37.4485C25.0132 37.5935 25.1832 37.6775 25.3625 37.6775C25.5417 37.6775 25.7117 37.5936 25.8264 37.4485C26.1898 36.9883 34.725 26.1202 34.725 20.8577C34.725 15.4221 30.525 11 25.3625 11ZM25.3625 36.0344C24.6057 35.0393 23.0332 32.9194 21.4772 30.4959C18.6833 26.1445 17.2065 22.8117 17.2065 20.8577C17.2065 16.1226 20.8653 12.2704 25.3625 12.2704C29.8597 12.2704 33.5184 16.1226 33.5184 20.8577C33.5184 22.8116 32.0417 26.1445 29.2478 30.4959C27.6917 32.9194 26.1193 35.0393 25.3625 36.0344Z" fill="black"/>
<path d="M28.4323 29.1206C28.1562 28.9242 27.7811 29.0008 27.5947 29.2914C26.7806 30.5603 25.8686 31.8901 24.8841 33.2439C24.6816 33.5225 24.7317 33.9211 24.9963 34.1344C25.1057 34.2226 25.2346 34.2653 25.3626 34.2653C25.5439 34.2653 25.7233 34.1795 25.842 34.0162C26.841 32.6426 27.7671 31.2922 28.5944 30.0026C28.781 29.7119 28.7084 29.317 28.4323 29.1206Z" fill="black"/>
<path d="M25.3628 15.8711C22.6352 15.8711 20.416 18.2076 20.416 21.0796C20.416 23.9515 22.6352 26.288 25.3628 26.288C28.0905 26.288 30.3096 23.9515 30.3096 21.0796C30.3096 18.2076 28.0905 15.8711 25.3628 15.8711ZM25.3628 25.0177C23.3004 25.0177 21.6226 23.251 21.6226 21.0796C21.6226 18.9081 23.3004 17.1415 25.3628 17.1415C27.4253 17.1415 29.1031 18.9081 29.1031 21.0796C29.1031 23.251 27.4253 25.0177 25.3628 25.0177Z" fill="black"/>
</svg>
