<svg width="50" height="49" viewBox="0 0 50 49" fill="none" xmlns="http://www.w3.org/2000/svg">
<ellipse cx="25" cy="24.5" rx="25" ry="24.5" fill="white"/>
<path d="M25 16L15 21.9742V31.1178C15 32.4648 16.096 33.5608 17.443 33.5608H32.557C33.904 33.5608 35 32.4648 35 31.1178V21.9742L25 16ZM32.4303 22.2953L25.0972 26.8678L25.0592 26.8883C25.0531 26.8914 25.0473 26.8944 25.039 26.8975L25.0303 26.8997C25.0096 26.9047 25 26.905 24.9997 26.905C24.9997 26.905 24.9899 26.9047 24.9641 26.8986L24.9596 26.8975C24.953 26.8949 24.9458 26.8914 24.9363 26.8867C24.9259 26.8808 24.9153 26.875 24.9046 26.8694L17.5699 22.2953L25 17.8565L32.4303 22.2953ZM32.557 31.9673H17.443C16.9747 31.9673 16.5938 31.5864 16.5938 31.1183V23.5647L24.0815 28.2336C24.1088 28.2509 24.1365 28.2663 24.1654 28.2812C24.1811 28.2897 24.1965 28.2979 24.2111 28.3051C24.3274 28.3651 24.4459 28.4108 24.5577 28.44L24.6194 28.4546C24.7485 28.4839 24.8762 28.4987 25.0008 28.4987C25.1246 28.4987 25.2531 28.4836 25.383 28.4538L25.4362 28.4416C25.5538 28.4111 25.6726 28.3651 25.7865 28.3062C25.803 28.2979 25.8192 28.2894 25.8362 28.2801L33.4062 23.5639V31.1178C33.4062 31.5864 33.0253 31.9673 32.557 31.9673Z" fill="black"/>
</svg>
