<svg width="50" height="50" viewBox="0 0 50 50" fill="none" xmlns="http://www.w3.org/2000/svg">
<path opacity="0.946" fill-rule="evenodd" clip-rule="evenodd" d="M11.5723 5.2239C14.375 4.96673 15.6445 6.23626 15.3809 9.03249C17.5293 9.03249 19.6777 9.03249 21.8262 9.03249C21.668 5.96817 23.1003 4.74747 26.1231 5.37038C27.0688 5.7148 27.6384 6.38212 27.832 7.37233C27.8808 7.92476 27.8971 8.47815 27.8809 9.03249C30.0293 9.03249 32.1777 9.03249 34.3262 9.03249C34.1909 5.82569 35.6884 4.63754 38.8184 5.46804C39.5419 5.83317 40.014 6.40283 40.2344 7.17702C40.2832 7.79466 40.2994 8.41314 40.2832 9.03249C41.4556 9.01623 42.6274 9.0325 43.7988 9.08132C45.2499 9.32807 46.1776 10.1582 46.582 11.5716C46.7423 16.9395 46.7749 22.3106 46.6797 27.6848C46.354 28.4174 45.8657 28.5476 45.2148 28.0755C45.0696 24.6334 45.0208 21.1829 45.0684 17.7239C40.7388 17.7402 36.4094 17.7239 32.0801 17.6751C31.5812 17.3464 31.4672 16.9069 31.7383 16.3567C31.8265 16.2394 31.9403 16.158 32.0801 16.1126C36.4094 16.0637 40.7388 16.0474 45.0684 16.0637C45.0847 14.7938 45.0684 13.5243 45.0195 12.2551C44.8478 11.465 44.3758 10.9604 43.6035 10.7415C41.5853 10.709 39.5671 10.6763 37.5488 10.6438C37.0499 10.3151 36.9359 9.87565 37.207 9.32546C37.2952 9.20813 37.4091 9.12675 37.5488 9.08132C37.9055 9.03263 38.2635 9.01635 38.6231 9.03249C39.0211 7.33137 38.3701 6.63149 36.6699 6.93288C36.3606 7.04682 36.1491 7.2584 36.0352 7.56765C35.97 9.13015 35.97 10.6926 36.0352 12.2551C36.1165 12.5969 36.3281 12.8086 36.6699 12.8899C37.1257 12.9224 37.5814 12.955 38.0371 12.9876C38.4833 13.2357 38.6298 13.6101 38.4766 14.1106C38.3952 14.3222 38.2487 14.4687 38.0371 14.5501C35.2368 14.7931 33.9998 13.5074 34.3262 10.6926C31.2336 10.709 28.1411 10.6926 25.0488 10.6438C24.5499 10.3151 24.4359 9.87565 24.707 9.32546C24.7952 9.20813 24.9091 9.12675 25.0488 9.08132C25.4381 9.03261 25.8287 9.01633 26.2207 9.03249C26.4943 7.20622 25.7456 6.5389 23.9746 7.03054C23.7679 7.19957 23.6214 7.41116 23.5352 7.6653C23.47 9.16269 23.47 10.6601 23.5352 12.1575C23.6403 12.4908 23.852 12.7349 24.1699 12.8899C24.6257 12.9224 25.0814 12.955 25.5371 12.9876C26.2904 13.5145 26.2904 14.0354 25.5371 14.5501C22.7417 14.798 21.5048 13.5122 21.8262 10.6926C18.7336 10.709 15.6411 10.6926 12.5488 10.6438C11.7676 10.123 11.7676 9.60215 12.5488 9.08132C12.9381 9.03261 13.3287 9.01633 13.7207 9.03249C14.0161 7.0801 13.2349 6.44533 11.377 7.12819C11.2597 7.21633 11.1782 7.33026 11.1328 7.46999C11.0677 9.0976 11.0677 10.7252 11.1328 12.3528C11.2095 12.5272 11.3233 12.6737 11.4746 12.7923C11.9873 12.9069 12.5082 12.972 13.0371 12.9876C13.565 13.1809 13.744 13.5553 13.5742 14.1106C13.4929 14.3222 13.3464 14.4687 13.1348 14.5501C11.8319 14.8475 10.7414 14.5057 9.86328 13.5247C9.67697 13.2595 9.54677 12.9666 9.47266 12.6458C9.42387 11.9956 9.40759 11.3445 9.42383 10.6926C8.31658 10.6763 7.20981 10.6926 6.10352 10.7415C5.23794 10.9883 4.76594 11.558 4.6875 12.4505C4.63868 13.6545 4.62241 14.8589 4.63867 16.0637C12.9396 16.0474 21.2403 16.0637 29.541 16.1126C30.3223 16.6334 30.3223 17.1543 29.541 17.6751C21.2403 17.7239 12.9396 17.7402 4.63867 17.7239C4.6224 24.8854 4.63867 32.0468 4.6875 39.2083C4.76594 40.1008 5.23794 40.6705 6.10352 40.9173C13.916 40.9498 21.7285 40.9824 29.541 41.0149C30.3223 41.5357 30.3223 42.0566 29.541 42.5774C21.6634 42.6426 13.7858 42.6426 5.90821 42.5774C4.4302 42.3029 3.50246 41.4403 3.125 39.9895C3.0599 30.5169 3.0599 21.0442 3.125 11.5716C3.52936 10.1582 4.45709 9.32807 5.90821 9.08132C7.07963 9.0325 8.25151 9.01623 9.42383 9.03249C9.10766 7.58695 9.53083 6.43135 10.6934 5.56569C10.9933 5.43916 11.2862 5.32523 11.5723 5.2239Z" fill="black"/>
<path opacity="0.928" fill-rule="evenodd" clip-rule="evenodd" d="M8.25175 19.971C10.4655 19.9547 12.6791 19.971 14.8924 20.0198C15.3913 20.3485 15.5053 20.788 15.2342 21.3381C15.0956 21.4319 14.9491 21.5132 14.7947 21.5823C12.6463 21.6474 10.4978 21.6474 8.34941 21.5823C7.92762 21.4726 7.73231 21.196 7.76347 20.7522C7.76796 20.3902 7.93072 20.1298 8.25175 19.971Z" fill="black"/>
<path opacity="0.93" fill-rule="evenodd" clip-rule="evenodd" d="M8.15444 23.1936C10.4333 23.1773 12.712 23.1936 14.9904 23.2424C15.5037 23.7381 15.5037 24.2264 14.9904 24.7073C14.8602 24.7398 14.7299 24.7724 14.5998 24.8049C12.5815 24.8701 10.5633 24.8701 8.54506 24.8049C7.84392 24.6902 7.59978 24.2833 7.81264 23.5842C7.87999 23.4036 7.99393 23.2733 8.15444 23.1936Z" fill="black"/>
<path opacity="0.93" fill-rule="evenodd" clip-rule="evenodd" d="M37.6464 27.4889C41.8017 27.4487 44.6989 29.3205 46.3379 33.1042C47.4647 36.8 46.6509 39.9901 43.8964 42.6745C41.1121 44.7297 38.0847 45.1529 34.8144 43.944C31.8622 42.5522 30.1857 40.2247 29.7851 36.9616C29.5957 32.5693 31.5326 29.5583 35.5957 27.9284C36.283 27.7316 36.9666 27.5851 37.6464 27.4889ZM37.1582 29.2467C40.1286 28.9057 42.4561 29.9473 44.1406 32.3717C45.9137 35.7442 45.4417 38.7552 42.7246 41.4049C39.9077 43.4754 37.0431 43.5406 34.1308 41.6002C31.45 39.2913 30.7501 36.4755 32.0312 33.153C33.1091 31.0166 34.8181 29.7144 37.1582 29.2467Z" fill="black"/>
<path opacity="0.917" fill-rule="evenodd" clip-rule="evenodd" d="M41.748 33.0566C42.6427 33.2158 42.8869 33.7041 42.4804 34.5215C41.0612 35.9731 39.6777 37.4543 38.33 38.9648C38.0045 39.1602 37.6789 39.1602 37.3535 38.9648C36.3932 38.0696 35.4329 37.1745 34.4726 36.2793C34.2132 35.3669 34.555 34.96 35.498 35.0586C36.2918 35.6895 37.0569 36.3568 37.7929 37.0605C38.9032 35.918 39.9774 34.7461 41.0156 33.5449C41.2275 33.3181 41.4716 33.1553 41.748 33.0566Z" fill="black"/>
</svg>
