<svg width="35" height="30" viewBox="0 0 35 30" fill="none" xmlns="http://www.w3.org/2000/svg">
<path opacity="0.2" fill-rule="evenodd" clip-rule="evenodd" d="M14.9954 0.954018C9.62586 1.52452 7.71793 2.79617 6.06111 6.91626L5.59766 8.07055L4.72076 8.11647C4.43056 8.0803 4.13617 8.13155 3.87528 8.26366C3.61438 8.39577 3.39887 8.60272 3.25634 8.85801C3.1138 9.11331 3.05073 9.40533 3.07519 9.69668C3.09966 9.98803 3.21056 10.2655 3.39368 10.4934C3.59784 10.8465 3.54782 10.9404 2.96391 11.3864C1.77464 12.2886 1.46532 12.9938 1.19684 15.4453C0.732345 19.3776 0.87419 23.358 1.61743 27.2473C1.6505 27.4875 1.73937 27.7167 1.87693 27.9164C2.01449 28.1162 2.19691 28.2809 2.40959 28.3975C2.5862 28.4434 2.62601 28.4996 2.62601 28.6925C2.65639 29.0819 2.83771 29.4441 3.13132 29.7018C4.83264 29.98 6.56786 29.98 8.26918 29.7018C8.56577 29.4416 8.74741 29.0748 8.77449 28.6812C8.77449 28.4414 8.78878 28.4322 9.1328 28.4322C9.55279 28.3852 9.96697 28.296 10.369 28.1658C15.2511 27.1531 20.2891 27.1531 25.1711 28.1658C25.5644 28.2886 25.9673 28.3777 26.3757 28.4322C26.635 28.4322 26.6554 28.4516 26.6554 28.6812C26.6825 29.0748 26.8641 29.4416 27.1607 29.7018C28.862 29.98 30.5973 29.98 32.2986 29.7018C32.5831 29.4512 32.7634 29.1031 32.8039 28.7261C32.8039 28.573 32.8733 28.4863 33.0836 28.373C33.6226 28.0944 33.7727 27.6984 34.0912 25.7134C34.6287 21.8974 34.6177 18.0242 34.0585 14.2114C34.0268 13.6503 33.8667 13.1039 33.5906 12.6143C33.3145 12.1248 32.9298 11.705 32.466 11.3874C31.8698 10.9272 31.8341 10.8578 32.0352 10.5046C32.2183 10.2767 32.3292 9.99926 32.3537 9.70791C32.3781 9.41656 32.3151 9.12454 32.1725 8.86924C32.03 8.61394 31.8145 8.40699 31.5536 8.27489C31.2927 8.14278 30.9983 8.09153 30.7081 8.1277L29.8312 8.08177L29.3678 6.92749C27.7875 3.00233 26.2409 1.85825 21.4818 1.10302C19.321 0.90713 17.1491 0.863479 14.9822 0.972386M19.6994 3.91983C21.3799 4.01823 23.0356 4.37165 24.6097 4.96797C25.9439 5.5446 26.6003 6.4121 27.4935 8.78189C27.8906 9.84126 27.9018 9.93413 27.6742 10.277L27.5088 10.5281L23.4929 10.3709C19.1033 10.1944 16.1786 10.1821 13.4387 10.3087C12.4577 10.3546 10.8131 10.4199 9.76368 10.4556L7.87309 10.5189L7.71895 10.2668C7.50763 9.91372 7.51478 9.83105 7.91699 8.77372C8.81634 6.3876 9.47376 5.52317 10.8151 4.96491C13.6578 3.95463 16.6916 3.59743 19.6913 3.91983M5.36593 14.1379C7.55664 14.8778 8.92761 15.7474 8.71528 16.2648C7.20913 16.7756 5.59663 16.8891 4.03374 16.5945C3.45289 16.324 3.24259 15.9045 3.23647 14.9921C3.2283 13.8766 3.85407 13.6266 5.36797 14.1359M32.0536 14.0971C32.189 14.4537 32.2424 14.8362 32.2097 15.2163C32.177 15.5963 32.0591 15.9641 31.8647 16.2924C31.4829 16.7404 30.0987 16.8608 27.9733 16.6312C26.8779 16.5128 26.7575 16.4781 26.7034 16.2566C26.4665 15.2881 31.4268 13.2827 32.0526 14.095M20.5917 20.0001C23.2591 20.4206 24.8792 21.0207 25.3089 21.7494C25.7724 22.5363 25.2661 23.4967 24.1972 23.8671C23.6276 24.061 11.8401 24.0437 11.2663 23.8457C10.1261 23.4579 9.63301 22.4342 10.2312 21.7025C11.4113 20.2339 16.6196 19.3817 20.5917 20.0083" fill="black"/>
</svg>
