<svg width="32" height="30" viewBox="0 0 32 30" fill="none" xmlns="http://www.w3.org/2000/svg">
<g opacity="0.2">
<path fill-rule="evenodd" clip-rule="evenodd" d="M6.00623 0.235754C5.39474 0.508238 4.85535 0.91975 4.43106 1.43749C4.00677 1.95524 3.7093 2.5649 3.56236 3.2179L3.38269 3.86801L3.40107 7.47475L3.41944 11.0815L3.61238 11.108C3.84925 11.1045 4.08466 11.0702 4.31267 11.006C4.68559 10.9217 5.06385 10.8631 5.44478 10.8304C6.15936 10.7743 6.22163 10.7355 6.2839 10.2691C6.34141 9.90067 6.47334 9.54778 6.67166 9.23196C6.86998 8.91613 7.13053 8.64397 7.43744 8.43206C9.32508 7.97237 11.2922 7.94516 13.1919 8.35246C13.5535 8.56439 13.8622 8.85567 14.0947 9.20431C14.3273 9.55295 14.4776 9.94985 14.5343 10.365L14.6241 10.7447H15.7021C16.9108 10.7447 16.8118 10.7998 16.9965 10.0303C17.1179 9.47119 17.4221 8.96844 17.8612 8.60148C18.4257 8.1514 18.5543 8.13303 21.1023 8.13303H23.4502L23.8381 8.35246C24.1997 8.56495 24.5083 8.85663 24.7409 9.20559C24.9734 9.55454 25.1237 9.95167 25.1805 10.3671L25.2704 10.7467L25.8308 10.811C26.1371 10.8468 26.6118 10.9192 26.8813 10.9733C27.147 11.0261 27.4162 11.0602 27.6867 11.0754L28.0021 11.0815L28.0205 7.47475L28.0389 3.86801L27.8592 3.2179C27.7107 2.56556 27.4127 1.95661 26.9885 1.4391C26.5644 0.921581 26.0259 0.509639 25.4153 0.235754L24.8508 0H6.5779L6.01338 0.235754M4.22488 12.3062C3.17796 12.702 2.25248 13.364 1.53991 14.2269C0.827351 15.0899 0.352383 16.1238 0.161963 17.2264C-0.0539877 21.1663 -0.0539877 25.1151 0.161963 29.055C0.774463 30.2654 2.26182 29.6959 2.26284 28.2508C2.26284 27.5517 2.3935 27.1863 2.68648 27.0638C3.05807 26.9077 28.4513 26.9291 28.7626 27.0853C29.0485 27.2292 29.1546 27.5496 29.1557 28.2661C29.1557 29.6949 30.6481 30.2562 31.2565 29.055C31.4725 25.1151 31.4725 21.1663 31.2565 17.2264C31.0681 16.1185 30.5906 15.0798 29.8722 14.2154C29.1538 13.3509 28.22 12.6913 27.165 12.3031C26.3137 12.0449 5.05992 12.049 4.22386 12.3031" fill="black"/>
</g>
</svg>
