<svg width="36" height="32" viewBox="0 0 36 32" fill="none" xmlns="http://www.w3.org/2000/svg">
<path opacity="0.2" fill-rule="evenodd" clip-rule="evenodd" d="M17.1935 0.678101C16.2072 0.875794 15.3054 1.37131 14.6098 2.09773C14.0994 2.60803 2.56394 21.6725 1.47777 23.8096C1.14522 24.4793 0.963916 25.2138 0.94667 25.9612C0.929424 26.7086 1.07666 27.4507 1.37797 28.1349C1.67928 28.8192 2.12729 29.4289 2.69033 29.9209C3.25336 30.413 3.91766 30.7753 4.63623 30.9823L5.17217 31.1374H18.2143C32.847 31.1374 31.5607 31.1823 32.6714 30.6363C33.8668 30.0314 34.7775 28.9822 35.208 27.7138C35.6385 26.4454 35.5547 25.0588 34.9744 23.8515C34.4915 22.8952 22.3793 2.7009 22.0761 2.34574C21.475 1.67063 20.7096 1.16225 19.8542 0.869894C18.9987 0.577538 18.0822 0.51214 17.1935 0.678101ZM19.0994 7.13329C19.3383 7.25457 19.5509 7.422 19.7247 7.62591C19.8985 7.82982 20.0302 8.06615 20.1121 8.32125C20.2743 11.4495 20.2559 14.5845 20.0569 17.7106C19.9055 18.0745 19.6497 18.3853 19.3218 18.604C18.9939 18.8227 18.6085 18.9394 18.2143 18.9394C17.8202 18.9394 17.4348 18.8227 17.1069 18.604C16.779 18.3853 16.5232 18.0745 16.3717 17.7106C16.1727 14.5845 16.1543 11.4495 16.3166 8.32125C16.4001 8.04517 16.5431 7.79074 16.7355 7.57589C16.928 7.36104 17.1653 7.19099 17.4306 7.07773C17.6959 6.96447 17.9828 6.91074 18.2712 6.92034C18.5595 6.92994 18.8422 7.00263 19.0994 7.13329ZM19.4016 21.3306C19.8931 21.5445 20.3176 21.8872 20.6302 22.3226C20.9428 22.7579 21.1318 23.2696 21.1773 23.8036C21.2228 24.3376 21.123 24.8739 20.8885 25.3558C20.654 25.8377 20.2935 26.2473 19.8452 26.5411C19.397 26.8349 18.8775 27.0021 18.342 27.0249C17.8064 27.0478 17.2747 26.9254 16.803 26.6708C16.3313 26.4162 15.9373 26.0388 15.6626 25.5786C15.388 25.1184 15.2429 24.5925 15.2427 24.0566C15.2367 23.5612 15.3557 23.0723 15.5885 22.635C15.8214 22.1977 16.1607 21.8261 16.5751 21.5545C16.9895 21.2829 17.4657 21.12 17.9597 21.0809C18.4537 21.0417 18.9495 21.1276 19.4016 21.3306Z" fill="black"/>
</svg>
