<svg width="30" height="30" viewBox="0 0 30 30" fill="none" xmlns="http://www.w3.org/2000/svg">
<path d="M4.66823 25.5933C2.24648 23.1725 0.739429 19.9876 0.40346 16.5804C0.0674914 13.1732 0.923605 9.75468 2.82595 6.9078C4.72829 4.06092 7.55908 1.96181 10.8361 0.967686C14.1131 -0.0264348 17.6332 0.146095 20.7972 1.45605C23.9612 2.76601 26.5727 5.1323 28.1873 8.15164C29.8018 11.171 30.3196 14.6566 29.6517 18.0146C28.9839 21.3726 27.1717 24.3948 24.5246 26.567C21.8776 28.7392 18.5593 29.9265 15.1348 29.9267C13.1903 29.9318 11.2639 29.5513 9.46734 28.8075C7.6708 28.0637 6.03981 26.9713 4.66823 25.5933ZM1.86293 15.1283C1.86293 17.7524 2.64078 20.3178 4.099 22.4996C5.55721 24.6814 7.63059 26.3821 10.0555 27.3862C12.4804 28.3904 15.1484 28.6527 17.7227 28.1407C20.297 27.6288 22.6617 26.3654 24.5177 24.5099C26.3736 22.6544 27.6373 20.2903 28.1494 17.7166C28.6614 15.143 28.3992 12.4756 27.3947 10.0513C26.3903 7.62694 24.6893 5.55407 22.5069 4.09621C20.3245 2.63835 17.7585 1.8607 15.1338 1.8607C11.6157 1.86556 8.24341 3.26454 5.75586 5.75167C3.26831 8.2388 1.86752 11.6111 1.86293 15.1283ZM13.9724 23.6498C13.9377 23.0282 13.9269 22.9956 13.782 22.9252L13.6803 22.8783C12.3981 22.266 12.3979 22.266 11.9018 21.772L11.8729 21.7421C11.3936 21.3207 11.0318 20.7814 10.8231 20.1784C10.6145 19.5753 10.5662 18.9291 10.6826 18.3017C10.7412 18.1404 10.848 18.0013 10.9886 17.903C11.1293 17.8047 11.2975 17.7521 11.4691 17.7525H11.511C12.0847 17.7525 12.3831 18.1077 12.478 18.9007C12.5326 19.4381 12.7607 19.9426 13.128 20.3388C13.4953 20.7351 13.9808 21.001 14.5127 21.0963C15.0446 21.1916 15.5938 21.1112 16.0758 20.8671C16.5579 20.6229 16.9466 20.2289 17.1844 19.7438C17.4569 19.0554 17.4569 18.2885 17.1844 17.6C16.9787 17.176 16.6578 16.8185 16.2583 16.5685C15.8587 16.3185 15.3968 16.1863 14.9254 16.1867H14.8407C13.9498 16.1259 13.0948 15.8126 12.3753 15.2838C11.6559 14.755 11.1021 14.0327 10.7783 13.2007C10.5075 12.4308 10.4657 11.5987 10.6586 10.8058C10.8516 10.0128 11.2706 9.29313 11.8649 8.73369L11.8988 8.70279C12.3898 8.20679 12.3901 8.2068 13.6723 7.59649L13.769 7.54965C13.914 7.48229 13.9236 7.43959 13.9624 6.82009C14.0155 5.98219 14.383 5.43971 14.8955 5.43971C15.1123 5.44768 15.3206 5.5259 15.4887 5.66297C15.7857 5.88648 15.8726 6.12593 15.9114 6.82707C15.9481 7.44963 15.9568 7.48426 16.1018 7.55264L16.2034 7.59948C17.4856 8.21183 17.4858 8.21184 17.9819 8.70479L18.0108 8.73668C18.4904 9.15794 18.8516 9.6964 19.0606 10.2994C19.2696 10.9025 19.3192 11.5496 19.2031 12.1772C19.1428 12.3374 19.0346 12.475 18.8941 12.5728C18.7536 12.6707 18.5868 12.7233 18.4156 12.7243H18.3787C17.806 12.7243 17.5068 12.3644 17.4037 11.5612C17.3457 11.0258 17.1158 10.5242 16.7478 10.131C16.3797 9.73779 15.8935 9.47398 15.3631 9.38052C14.8326 9.28707 14.2862 9.36897 13.8059 9.61275C13.3256 9.85652 12.9379 10.2497 12.7003 10.733C12.4975 11.2006 12.4356 11.7169 12.5229 12.219C12.6101 12.7211 12.8422 13.1867 13.1908 13.5585C13.664 14.0273 14.3031 14.2903 14.9693 14.2911H15.043C15.934 14.3517 16.7889 14.6652 17.5084 15.1941C18.2279 15.7229 18.7818 16.446 19.1054 17.2781C19.3762 18.048 19.4181 18.8791 19.2251 19.6721C19.0321 20.465 18.6131 21.1857 18.0188 21.7451L17.9849 21.778C17.4939 22.274 17.4937 22.274 16.2064 22.8833L16.1117 22.9282C15.9668 22.9986 15.9571 23.0392 15.9173 23.6617C15.8591 24.62 15.5843 24.9883 14.9493 24.9883C14.3144 24.9883 14.0275 24.5999 13.9724 23.6498Z" fill="black"/>
</svg>
