<svg width="30" height="31" viewBox="0 0 30 31" fill="none" xmlns="http://www.w3.org/2000/svg">
<path opacity="0.2" fill-rule="evenodd" clip-rule="evenodd" d="M4.79979 0.965414C3.6501 1.18716 2.59269 1.74667 1.76275 2.57241C0.932809 3.39815 0.368058 4.45258 0.140703 5.6009C0.0182031 6.23571 0.0182031 25.34 0.140703 25.9769C0.352493 27.0726 0.873571 28.0848 1.64237 28.8939C2.41117 29.703 3.39557 30.2753 4.47925 30.5429C4.8396 30.645 5.33062 30.645 14.9806 30.645H25.1031L25.6136 30.4848C26.575 30.2149 27.4512 29.7029 28.1582 28.9978C28.8652 28.2927 29.3796 27.4181 29.652 26.4575L29.8143 25.934L29.8306 16.017C29.8419 9.13723 29.8306 5.98464 29.7847 5.72235C29.5805 4.55633 29.0276 3.47956 28.199 2.634C27.3703 1.78844 26.3048 1.21379 25.143 0.985825C24.6366 0.883767 5.3245 0.868458 4.79979 0.965414ZM23.0972 7.24813C23.2648 7.34863 23.405 7.48883 23.5055 7.65636L23.6505 7.90946L23.6678 10.811C23.6791 12.7409 23.6678 13.8115 23.6219 14.0064C23.5913 14.2193 23.4958 14.4175 23.3484 14.5741C23.201 14.7307 23.0089 14.838 22.7982 14.8814C22.5876 14.9248 22.3687 14.9022 22.1713 14.8167C21.974 14.7312 21.8079 14.5868 21.6956 14.4034C21.5568 14.1993 21.5547 14.1871 21.5384 12.4929C21.5292 11.555 21.5037 10.7875 21.4812 10.7875C21.4588 10.7875 20.4849 11.7407 19.3171 12.9052C17.5224 14.6953 17.1549 15.0342 16.9508 15.0944C16.7707 15.14 16.5819 15.1382 16.4028 15.0889C16.2237 15.0397 16.0605 14.9447 15.9292 14.8134C15.7979 14.6821 15.7029 14.5189 15.6536 14.3399C15.6044 14.1609 15.6025 13.9721 15.6482 13.7921C15.7084 13.588 16.0473 13.2216 17.8379 11.4264C19.0026 10.2578 19.9561 9.28317 19.9561 9.2597C19.4128 9.21713 18.8676 9.20282 18.3228 9.21683C16.3587 9.21683 16.2188 9.18213 15.933 8.62285C15.8714 8.48752 15.8381 8.341 15.8354 8.19234C15.8326 8.04367 15.8603 7.89601 15.9169 7.75848C15.9734 7.62095 16.0575 7.49646 16.1641 7.39271C16.2706 7.28896 16.3973 7.20814 16.5363 7.15525L16.7823 7.10116C16.8466 7.08687 18.234 7.07973 19.8663 7.08483L22.8328 7.09402L23.0952 7.24813M13.6014 16.5191C13.7904 16.599 13.9555 16.7265 14.0807 16.889C14.2059 17.0516 14.287 17.2437 14.316 17.4468C14.316 17.8877 14.2598 17.9571 12.0702 20.1524C10.9003 21.3209 9.94887 22.2956 9.94887 22.316C10.4922 22.3586 11.0374 22.3729 11.5822 22.3589C12.1983 22.3059 12.8188 22.3361 13.4269 22.4487C13.5946 22.5138 13.7425 22.6217 13.8557 22.7615C13.9689 22.9014 14.0436 23.0685 14.0723 23.2461C14.101 23.4238 14.0827 23.6059 14.0192 23.7743C13.9558 23.9427 13.8494 24.0915 13.7106 24.2061C13.3942 24.4848 13.4197 24.4827 10.1255 24.4827H7.0691L6.81695 24.3398C6.64939 24.2393 6.50915 24.0991 6.40862 23.9316L6.25447 23.6693L6.23712 20.7678C6.22589 18.8379 6.23712 17.7673 6.28306 17.5723C6.31363 17.3595 6.40913 17.1613 6.55654 17.0047C6.70394 16.8481 6.89607 16.7408 7.10672 16.6973C7.31737 16.6539 7.5363 16.6765 7.73363 16.7621C7.93096 16.8476 8.09709 16.9919 8.20937 17.1753C8.3482 17.3795 8.35024 17.3917 8.36658 19.0859C8.37577 20.0238 8.40231 20.7913 8.42477 20.7913C8.44722 20.7913 9.39558 19.8595 10.5307 18.7205C12.9123 16.3323 13.0022 16.2711 13.6014 16.5191Z" fill="black"/>
</svg>
