<svg width="16" height="16" viewBox="0 0 16 16" fill="none" xmlns="http://www.w3.org/2000/svg">
<path d="M14.3947 1.65625H1.96373C1.39157 1.65625 0.927734 2.12008 0.927734 2.69225C0.927734 3.26442 1.39157 3.72825 1.96373 3.72825H14.3947C14.9669 3.72825 15.4307 3.26442 15.4307 2.69225C15.4307 2.12008 14.9669 1.65625 14.3947 1.65625Z" fill="#3A4B4C"/>
<path d="M5.23869 4.618C6.37584 4.618 7.29769 3.69615 7.29769 2.559C7.29769 1.42185 6.37584 0.5 5.23869 0.5C4.10153 0.5 3.17969 1.42185 3.17969 2.559C3.17969 3.69615 4.10153 4.618 5.23869 4.618Z" fill="#3A4B4C"/>
<path d="M14.3947 12.707H1.96373C1.39157 12.707 0.927734 13.1709 0.927734 13.743C0.927734 14.3152 1.39157 14.779 1.96373 14.779H14.3947C14.9669 14.779 15.4307 14.3152 15.4307 13.743C15.4307 13.1709 14.9669 12.707 14.3947 12.707Z" fill="#3A4B4C"/>
<path d="M5.23869 15.7977C6.37584 15.7977 7.29769 14.8758 7.29769 13.7387C7.29769 12.6015 6.37584 11.6797 5.23869 11.6797C4.10153 11.6797 3.17969 12.6015 3.17969 13.7387C3.17969 14.8758 4.10153 15.7977 5.23869 15.7977Z" fill="#3A4B4C"/>
<path d="M14.3947 7.18359H1.96373C1.39157 7.18359 0.927734 7.64743 0.927734 8.21959C0.927734 8.79176 1.39157 9.25559 1.96373 9.25559H14.3947C14.9669 9.25559 15.4307 8.79176 15.4307 8.21959C15.4307 7.64743 14.9669 7.18359 14.3947 7.18359Z" fill="#3A4B4C"/>
<path d="M11.1215 10.5029C12.2587 10.5029 13.1805 9.4494 13.1805 8.14987C13.1805 6.85035 12.2587 5.79688 11.1215 5.79688C9.98435 5.79688 9.0625 6.85035 9.0625 8.14987C9.0625 9.4494 9.98435 10.5029 11.1215 10.5029Z" fill="#3A4B4C"/>
</svg>
