<svg width="18" height="18" viewBox="0 0 18 18" fill="none" xmlns="http://www.w3.org/2000/svg">
<path d="M16.5631 14.197H1.92611C1.36609 14.197 0.912109 14.651 0.912109 15.211C0.912109 15.771 1.36609 16.225 1.92611 16.225H16.5631C17.1231 16.225 17.5771 15.771 17.5771 15.211C17.5771 14.651 17.1231 14.197 16.5631 14.197Z" fill="white"/>
<path d="M5.86405 17.577C7.17075 17.577 8.23005 16.5177 8.23005 15.211C8.23005 13.9043 7.17075 12.845 5.86405 12.845C4.55734 12.845 3.49805 13.9043 3.49805 15.211C3.49805 16.5177 4.55734 17.577 5.86405 17.577Z" fill="white"/>
<path d="M16.5631 1.35199H1.92611C1.36609 1.35199 0.912109 1.80597 0.912109 2.36599C0.912109 2.92601 1.36609 3.37999 1.92611 3.37999H16.5631C17.1231 3.37999 17.5771 2.92601 17.5771 2.36599C17.5771 1.80597 17.1231 1.35199 16.5631 1.35199Z" fill="white"/>
<path d="M5.86405 4.732C7.17075 4.732 8.23005 3.67271 8.23005 2.366C8.23005 1.05929 7.17075 0 5.86405 0C4.55734 0 3.49805 1.05929 3.49805 2.366C3.49805 3.67271 4.55734 4.732 5.86405 4.732Z" fill="white"/>
<path d="M16.5631 7.77502H1.92611C1.36609 7.77502 0.912109 8.22901 0.912109 8.78902C0.912109 9.34904 1.36609 9.80302 1.92611 9.80302H16.5631C17.1231 9.80302 17.5771 9.34904 17.5771 8.78902C17.5771 8.22901 17.1231 7.77502 16.5631 7.77502Z" fill="white"/>
<path d="M5.86405 11.155C7.17075 11.155 8.23005 10.0957 8.23005 8.78897C8.23005 7.48227 7.17075 6.42297 5.86405 6.42297C4.55734 6.42297 3.49805 7.48227 3.49805 8.78897C3.49805 10.0957 4.55734 11.155 5.86405 11.155Z" fill="white"/>
</svg>
