<svg width="64" height="26" viewBox="0 0 64 26" fill="none" xmlns="http://www.w3.org/2000/svg">
<path d="M11.6944 3.33971C10.9444 4.21459 9.74414 4.90488 8.54401 4.80618C8.39401 3.62324 8.98151 2.36612 9.66914 1.5897C10.4191 0.690171 11.7319 0.0492891 12.7945 0C12.9195 1.23235 12.4319 2.44006 11.6944 3.33971ZM12.7821 5.04043C11.0444 4.94185 9.55676 6.01389 8.73164 6.01389C7.89414 6.01389 6.63139 5.08972 5.25626 5.11436C3.46864 5.139 1.80589 6.13711 0.893263 7.72693C-0.981987 10.9064 0.405763 15.6142 2.21839 18.2021C3.10601 19.4837 4.16864 20.8886 5.56876 20.8393C6.89401 20.79 7.41901 19.9891 9.01926 19.9891C10.6319 19.9891 11.0945 20.8393 12.4946 20.8147C13.9448 20.79 14.8574 19.5331 15.745 18.2514C16.7575 16.7972 17.1701 15.3799 17.1951 15.306C17.1701 15.2813 14.3949 14.234 14.3699 11.079C14.3449 8.44174 16.5576 7.18475 16.6576 7.11082C15.4074 5.28687 13.4573 5.08972 12.7821 5.04043ZM22.8209 1.46647V20.6792H25.8461V14.1107H30.0341C33.8595 14.1107 36.5474 11.5228 36.5474 7.77634C36.5474 4.03 33.9095 1.4666 30.1341 1.4666L22.8209 1.46647ZM25.8461 3.98059H29.334C31.9594 3.98059 33.4595 5.36081 33.4595 7.78854C33.4595 10.2163 31.9594 11.6089 29.3215 11.6089H25.8461V3.98059ZM42.0729 20.827C43.9731 20.827 45.7358 19.8782 46.5359 18.3746H46.5984V20.6791H49.3988V11.1159C49.3988 8.34317 47.1485 6.55619 43.6855 6.55619C40.4726 6.55619 38.0974 8.36781 38.0099 10.8572H40.7353C40.9603 9.67409 42.0728 8.89767 43.598 8.89767C45.4483 8.89767 46.4859 9.74803 46.4859 11.3132V12.3729L42.7104 12.5947C39.1975 12.8042 37.2974 14.2215 37.2974 16.6863C37.2974 19.1757 39.26 20.827 42.0729 20.827ZM42.8854 18.5471C41.2729 18.5471 40.2476 17.7831 40.2476 16.6123C40.2476 15.4047 41.2353 14.7022 43.123 14.5913L46.4859 14.3818V15.4662C46.4859 17.2655 44.9356 18.5471 42.8854 18.5471ZM53.1368 25.9044C56.0871 25.9044 57.4748 24.7954 58.6874 21.4309L64.0004 6.74102H60.925L57.3621 18.0911H57.2996L53.7368 6.74102H50.5739L55.6994 20.7284L55.4244 21.5788C54.9619 23.0206 54.2118 23.5752 52.8741 23.5752C52.6366 23.5752 52.1741 23.5506 51.9865 23.5259V25.8304C52.1615 25.8797 52.9116 25.9044 53.1368 25.9044Z" fill="black"/>
</svg>
