<svg width="235" height="37" viewBox="0 0 235 37" fill="none" xmlns="http://www.w3.org/2000/svg">
<path d="M225.966 1H189.967C185.549 1 181.967 4.58172 181.967 9V28.42C181.967 32.8383 185.549 36.42 189.967 36.42H225.966C230.385 36.42 233.966 32.8383 233.966 28.42V9C233.966 4.58172 230.385 1 225.966 1Z" fill="white" stroke="#D9D9D9"/>
<path fill-rule="evenodd" clip-rule="evenodd" d="M197.604 25.1266H194.404L192.004 15.9846C191.96 15.7824 191.874 15.5918 191.752 15.425C191.629 15.2583 191.473 15.1191 191.293 15.0166C190.37 14.5501 189.383 14.2239 188.364 14.0486V13.6966H193.512C193.835 13.6952 194.147 13.81 194.391 14.0199C194.636 14.2298 194.797 14.5208 194.844 14.8396L196.088 21.4346L199.282 13.6966H202.389L197.604 25.1266ZM204.173 25.1266H201.16L203.645 13.6966H206.66L204.173 25.1266ZM210.563 16.8636C210.612 16.5764 210.767 16.3179 210.997 16.1388C211.227 15.9597 211.516 15.873 211.806 15.8956C212.813 15.8051 213.825 15.9871 214.736 16.4226L215.269 13.9616C214.392 13.6171 213.459 13.4378 212.517 13.4326C209.588 13.4326 207.456 15.0156 207.456 17.2136C207.456 18.8856 208.966 19.7626 210.032 20.2916C211.185 20.8186 211.632 21.1706 211.54 21.6976C211.54 22.4886 210.652 22.8406 209.765 22.8406C208.692 22.829 207.633 22.5905 206.658 22.1406L206.125 24.6026C207.17 25.0181 208.285 25.2272 209.409 25.2186C212.694 25.3056 214.735 23.7186 214.735 21.3496C214.735 18.3596 210.562 18.1846 210.562 16.8666L210.563 16.8636ZM225.298 25.1266L222.898 13.6966H220.324C220.052 13.699 219.787 13.7845 219.565 13.9416C219.343 14.0987 219.174 14.3199 219.081 14.5756L214.643 25.1256H217.75L218.37 23.4556H222.188L222.543 25.1256L225.298 25.1266ZM220.772 16.7746L221.659 21.0826H219.174L220.772 16.7746Z" fill="#172B85"/>
<path d="M45.0742 1H9.0752C4.65692 1 1.0752 4.58172 1.0752 9V28.42C1.0752 32.8383 4.65692 36.42 9.0752 36.42H45.0742C49.4925 36.42 53.0742 32.8383 53.0742 28.42V9C53.0742 4.58172 49.4925 1 45.0742 1Z" fill="#1F72CD" stroke="#D9D9D9"/>
<path fill-rule="evenodd" clip-rule="evenodd" d="M10.1562 13.4336L5.22021 24.3546H11.1292L11.8612 22.6126H13.5352L14.2682 24.3546H20.7682V23.0256L21.3482 24.3546H24.7122L25.2912 22.9976V24.3546H38.8212L40.4662 22.6546L42.0062 24.3546L48.9532 24.3686L44.0022 18.9236L48.9532 13.4316H42.1132L40.5132 15.0966L39.0222 13.4316H24.3062L23.0452 16.2546L21.7452 13.4336H15.8452V14.7176L15.1892 13.4336H10.1562ZM30.3562 14.9846H38.1232L40.4992 17.5506L42.9452 14.9846H45.3252L41.7152 18.9236L45.3252 22.8176H42.8452L40.4692 20.2176L38.0042 22.8176H30.3542L30.3562 14.9846ZM32.2742 18.0376V16.6066H37.1212L39.2362 18.8946L37.0272 21.1946H32.2722V19.6326H36.5092V18.0376H32.2742ZM11.2992 14.9846H14.1792L17.4532 22.3906V14.9846H20.6082L23.1372 20.2946L25.4672 14.9846H28.6062V22.8216H26.6962L26.6812 16.6806L23.8962 22.8216H22.1872L19.3872 16.6806V22.8216H15.4572L14.7122 21.0646H10.6872L9.94421 22.8206H7.83821L11.2992 14.9846ZM11.3742 19.4406L12.7002 16.3106L14.0252 19.4406H11.3742Z" fill="white"/>
<path d="M165.668 1H129.669C125.251 1 121.669 4.58172 121.669 9V28.42C121.669 32.8383 125.251 36.42 129.669 36.42H165.668C170.086 36.42 173.668 32.8383 173.668 28.42V9C173.668 4.58172 170.086 1 165.668 1Z" fill="white" stroke="#D9D9D9"/>
<path fill-rule="evenodd" clip-rule="evenodd" d="M148.045 26.4822C146.193 28.0868 143.824 28.9691 141.374 28.9672C138.632 28.9403 136.012 27.8323 134.082 25.884C132.153 23.9357 131.071 21.3046 131.071 18.5627C131.071 15.8208 132.153 13.1897 134.082 11.2414C136.012 9.29309 138.632 8.18509 141.374 8.15821C143.824 8.15626 146.193 9.03862 148.045 10.6432C149.897 9.0387 152.265 8.15635 154.716 8.15821C157.458 8.18509 160.078 9.29309 162.007 11.2414C163.937 13.1897 165.019 15.8208 165.019 18.5627C165.019 21.3046 163.937 23.9357 162.007 25.884C160.078 27.8323 157.458 28.9403 154.716 28.9672C152.265 28.9691 149.897 28.0867 148.045 26.4822Z" fill="#ED0006"/>
<path fill-rule="evenodd" clip-rule="evenodd" d="M148.045 26.4822C149.179 25.498 150.089 24.2817 150.712 22.9154C151.336 21.5492 151.658 20.0649 151.658 18.5632C151.658 17.0614 151.336 15.5772 150.712 14.2109C150.089 12.8447 149.179 11.6283 148.045 10.6442C149.897 9.03968 152.266 8.15733 154.716 8.15918C157.458 8.18606 160.078 9.29407 162.007 11.2424C163.937 13.1907 165.019 15.8218 165.019 18.5637C165.019 21.3056 163.937 23.9367 162.007 25.885C160.078 27.8333 157.458 28.9413 154.716 28.9682C152.265 28.9698 149.897 28.087 148.045 26.4822Z" fill="#F9A000"/>
<path fill-rule="evenodd" clip-rule="evenodd" d="M148.045 26.4825C149.18 25.4985 150.089 24.2822 150.713 22.9159C151.337 21.5496 151.659 20.0653 151.659 18.5635C151.659 17.0617 151.337 15.5774 150.713 14.2112C150.089 12.8449 149.18 11.6286 148.045 10.6445C146.911 11.6286 146.001 12.8449 145.377 14.2112C144.754 15.5774 144.431 17.0617 144.431 18.5635C144.431 20.0653 144.754 21.5496 145.377 22.9159C146.001 24.2822 146.911 25.4985 148.045 26.4825Z" fill="#FF5E00"/>
<path d="M105.371 1H69.3721C64.9538 1 61.3721 4.58172 61.3721 9V28.42C61.3721 32.8383 64.9538 36.42 69.3721 36.42H105.371C109.789 36.42 113.371 32.8383 113.371 28.42V9C113.371 4.58172 109.789 1 105.371 1Z" fill="white" stroke="#D9D9D9"/>
<path fill-rule="evenodd" clip-rule="evenodd" d="M73.5729 14.0869C73.9306 14.0928 74.2848 14.0156 74.6076 13.8613C74.9304 13.7071 75.2129 13.4799 75.4329 13.1978C75.9013 12.6316 76.1337 11.9068 76.0819 11.1738C75.3647 11.2422 74.7027 11.5882 74.2369 12.1378C74.0034 12.403 73.8245 12.7117 73.7106 13.0461C73.5966 13.3806 73.5499 13.7343 73.5729 14.0869ZM82.0009 23.7089V12.0629H86.3179C86.8244 12.0405 87.33 12.1244 87.802 12.3092C88.2741 12.494 88.7023 12.7757 89.0589 13.136C89.4156 13.4963 89.6928 13.9273 89.8728 14.4012C90.0528 14.8752 90.1315 15.3816 90.1039 15.8878C90.1276 16.3988 90.0443 16.9092 89.8594 17.3861C89.6745 17.8631 89.392 18.2961 89.0301 18.6576C88.6681 19.0191 88.2347 19.301 87.7575 19.4853C87.2803 19.6696 86.7699 19.7522 86.2589 19.7278H83.7879V23.7098L82.0009 23.7089ZM76.0729 14.2318C75.5008 14.2323 74.9359 14.3598 74.4189 14.6049C74.1869 14.7172 73.9378 14.7905 73.6819 14.8218C73.415 14.7923 73.1552 14.7168 72.9139 14.5988C72.512 14.4069 72.0758 14.2975 71.6309 14.2769C71.1003 14.2918 70.583 14.446 70.1309 14.724C69.6787 15.002 69.3076 15.3941 69.0549 15.8608C67.9479 17.7878 68.7669 20.6418 69.8369 22.2108C70.3609 22.9878 70.9879 23.8399 71.8149 23.8109C72.1281 23.7907 72.4341 23.708 72.7149 23.5678C73.0698 23.3918 73.4598 23.2985 73.8559 23.2949C74.2364 23.2979 74.6111 23.3886 74.9509 23.5598C75.2468 23.7129 75.5748 23.7935 75.9079 23.7949C76.7639 23.7799 77.3029 23.0178 77.8269 22.2408C78.1943 21.6944 78.4813 21.098 78.6789 20.4698V20.4558L78.6589 20.4459C78.1678 20.2242 77.7511 19.8655 77.4587 19.4128C77.1664 18.9601 77.0109 18.4327 77.0109 17.8939C77.0151 17.4162 77.1389 16.9471 77.3708 16.5294C77.6028 16.1118 77.9356 15.7588 78.3389 15.5028L78.3609 15.4879C78.1036 15.1149 77.7627 14.8072 77.3655 14.5891C76.9683 14.3711 76.5257 14.2487 76.0729 14.2318ZM93.3639 23.8008C93.8964 23.8141 94.4224 23.6829 94.8862 23.421C95.35 23.1592 95.7342 22.7766 95.9979 22.3138H96.0349V23.7138H97.6879V17.9138C97.6879 16.2328 96.3599 15.1498 94.3149 15.1498C92.4149 15.1498 91.0149 16.2498 90.9649 17.7568H92.5729C92.6632 17.3879 92.8842 17.0641 93.195 16.8457C93.5058 16.6273 93.8852 16.5289 94.2629 16.5688C95.3549 16.5688 95.9629 17.0838 95.9629 18.0328V18.6758L93.7339 18.8098C91.6599 18.9368 90.5339 19.7959 90.5339 21.2899C90.5365 21.6468 90.6142 21.9991 90.7619 22.324C90.9096 22.649 91.124 22.9391 91.3912 23.1758C91.6584 23.4124 91.9724 23.5902 92.3128 23.6975C92.6531 23.8049 93.0123 23.8394 93.3669 23.7988L93.3639 23.8008ZM93.8429 22.4188C92.8909 22.4188 92.2859 21.9558 92.2859 21.2458C92.2859 20.5138 92.8689 20.0878 93.9859 20.0208L95.9709 19.8939V20.5508C95.9606 20.8151 95.8966 21.0745 95.7829 21.3132C95.6692 21.552 95.5081 21.7652 95.3094 21.9397C95.1107 22.1142 94.8786 22.2466 94.6272 22.3286C94.3758 22.4106 94.1103 22.4406 93.8469 22.4168L93.8429 22.4188ZM103.171 24.1668C102.455 26.2058 101.636 26.8788 99.8939 26.8788C99.6668 26.8796 99.4399 26.8646 99.2149 26.8339V25.4338C99.3259 25.4488 99.5989 25.4638 99.7389 25.4638C100.096 25.4886 100.45 25.3778 100.729 25.1536C101.008 24.9293 101.192 24.608 101.245 24.2538L101.407 23.7388L98.3809 15.2598H100.253L102.353 22.1398H102.39L104.49 15.2598H106.305L103.171 24.1668ZM83.7879 13.5869H85.8469C86.1605 13.5714 86.4739 13.6198 86.7681 13.7292C87.0624 13.8386 87.3313 14.0068 87.5585 14.2234C87.7857 14.44 87.9665 14.7005 88.0899 14.9892C88.2133 15.2779 88.2767 15.5886 88.2762 15.9025C88.2757 16.2165 88.2114 16.527 88.0871 16.8153C87.9629 17.1036 87.7813 17.3636 87.5534 17.5795C87.3255 17.7954 87.0561 17.9627 86.7615 18.0712C86.467 18.1798 86.1534 18.2273 85.8399 18.2108H83.7879V13.5869Z" fill="black"/>
</svg>
