<svg width="24" height="24" viewBox="0 0 24 24" fill="none" xmlns="http://www.w3.org/2000/svg">
<path d="M22.5639 11.5778C22.8388 11.3099 23.0332 10.9706 23.1253 10.5981C23.2195 10.2242 23.2054 9.83145 23.0846 9.46535C22.9632 9.09762 22.7445 8.76944 22.4517 8.51603C22.1548 8.2679 21.7938 8.10899 21.4104 8.05707L16.5717 7.35292C16.4507 7.33494 16.3354 7.28918 16.2347 7.21987C16.1406 7.14274 16.0611 7.0494 15.9999 6.94429L13.8358 2.55598C13.6698 2.2101 13.4075 1.91967 13.0804 1.71928C12.7536 1.51242 12.3749 1.40234 11.9881 1.40234C11.6014 1.40234 11.2225 1.51242 10.8958 1.71928C10.5681 1.9222 10.3031 2.21169 10.1301 2.55598L7.96597 6.94429C7.91419 7.05576 7.83304 7.15104 7.7312 7.21987C7.63272 7.29328 7.51647 7.33946 7.39437 7.35292L2.55563 8.05707C2.17528 8.10911 1.81763 8.26811 1.52458 8.51603C1.22862 8.76874 1.00642 9.09685 0.881447 9.46535C0.764489 9.83251 0.753841 10.2251 0.850792 10.5981C0.942941 10.9706 1.13746 11.3099 1.4123 11.5778L4.91369 14.9968C5.0025 15.0814 5.06918 15.1869 5.10771 15.3033C5.14013 15.4195 5.14711 15.541 5.12815 15.6601L4.30121 20.4875C4.23929 20.8658 4.28163 21.2541 4.42371 21.6102C4.56756 21.9709 4.81212 22.2825 5.12815 22.5082C5.43993 22.732 5.80704 22.8666 6.18973 22.8964C6.57553 22.9273 6.96198 22.8458 7.3024 22.6617L11.6309 20.3858C11.7428 20.3334 11.8646 20.3055 11.9881 20.3041C12.1084 20.3054 12.2269 20.3334 12.3352 20.3858L16.6635 22.6617C17.0047 22.8437 17.3905 22.9251 17.7762 22.8964C18.162 22.8666 18.5325 22.7322 18.8481 22.5082C19.1579 22.2828 19.3984 21.9756 19.5423 21.6207C19.6942 21.2634 19.7368 20.8689 19.6648 20.4875L18.8379 15.6706C18.8174 15.5475 18.828 15.4213 18.8685 15.3033C18.9094 15.188 18.9756 15.0831 19.0624 14.9968L22.5639 11.5778Z" stroke="#FCA800"/>
</svg>
