<svg width="39" height="40" viewBox="0 0 39 40" fill="none" xmlns="http://www.w3.org/2000/svg">
<path d="M5.76914 34.0435C3.96375 32.248 2.53037 30.1139 1.55113 27.7635C0.571883 25.4132 0.0660193 22.8927 0.0625183 20.3465C0.0590173 17.8002 0.557948 15.2784 1.53072 12.9253C2.5035 10.5722 3.931 8.43424 5.73145 6.63379C7.53189 4.83335 9.66989 3.40584 12.023 2.43307C14.376 1.46029 16.8979 0.961361 19.4441 0.964862C21.9903 0.968363 24.5108 1.47423 26.8612 2.45347C29.2116 3.43271 31.3456 4.86609 33.1411 6.67148C34.9465 8.46697 36.3799 10.601 37.3591 12.9514C38.3384 15.3018 38.8443 17.8223 38.8478 20.3685C38.8513 22.9147 38.3523 25.4366 37.3795 27.7897C36.4068 30.1427 34.9793 32.2807 33.1788 34.0812C31.3784 35.8816 29.2404 37.3091 26.8873 38.2819C24.5343 39.2547 22.0124 39.7536 19.4662 39.7501C16.9199 39.7466 14.3995 39.2407 12.0491 38.2615C9.69869 37.2822 7.56462 35.8489 5.76914 34.0435ZM2.10014 20.3575C2.10014 23.79 3.11799 27.1454 5.02498 29.9994C6.93197 32.8534 9.64245 35.0778 12.8137 36.3914C15.9849 37.705 19.4744 38.0487 22.8409 37.379C26.2075 36.7094 29.2998 35.0565 31.727 32.6293C34.1541 30.2022 35.807 27.1098 36.4767 23.7433C37.1463 20.3767 36.8026 16.8872 35.4891 13.716C34.1755 10.5448 31.9511 7.83432 29.0971 5.92732C26.243 4.02033 22.8876 3.00248 19.4551 3.00248C14.8539 3.00777 10.4427 4.83794 7.18914 8.09149C3.9356 11.345 2.10543 15.7563 2.10014 20.3575ZM25.2791 30.1275C24.9431 30.0275 19.4361 25.1365 17.4211 23.1435L16.1001 21.8325V16.3675C16.1001 11.1145 16.1001 11.1145 16.9911 10.7365L17.0561 10.7085C17.2813 10.5945 17.5326 10.5423 17.7845 10.557C18.0364 10.5718 18.2798 10.653 18.4901 10.7925L18.5071 10.8045C19.2211 11.2225 19.2211 11.2225 19.2631 16.1555V16.2765L19.3051 20.9685L23.1831 24.5025C25.3201 26.4525 27.1211 28.1885 27.1971 28.3695C27.2532 28.6128 27.2423 28.8668 27.1657 29.1044C27.0891 29.3421 26.9497 29.5546 26.7621 29.7195C26.4443 30.0027 26.0329 30.1583 25.6071 30.1565C25.4968 30.1571 25.3867 30.1477 25.2781 30.1285L25.2791 30.1275Z" fill="#3A4B4C"/>
</svg>
