<svg width="39" height="39" viewBox="0 0 39 39" fill="none" xmlns="http://www.w3.org/2000/svg">
<path d="M9.82866 36.1434L9.63566 36.0324L1.48271 38.6544C1.37762 38.6925 1.26647 38.7112 1.15471 38.7094C0.990407 38.7097 0.828436 38.6702 0.68266 38.5944C0.534046 38.5183 0.405305 38.4085 0.306684 38.2738C0.208063 38.139 0.1423 37.9831 0.114667 37.8184C0.0885742 37.6541 0.101557 37.4858 0.152631 37.3274L2.78361 29.1784L2.66765 28.9864C0.333845 24.9182 -0.442963 20.1408 0.481733 15.5428C1.40643 10.9448 3.9697 6.83909 7.69475 3.98935C11.4198 1.13961 16.053 -0.260194 20.7328 0.0502806C25.4126 0.360755 29.8205 2.36037 33.1364 5.67723C36.4523 8.99409 38.4506 13.4024 38.7598 18.0823C39.069 22.7622 37.668 27.3951 34.8172 31.1193C31.9664 34.8436 27.8599 37.4057 23.2616 38.3291C18.6633 39.2525 13.8862 38.4744 9.81865 36.1394L9.82866 36.1434ZM10.3287 33.9844C13.008 35.6559 16.0948 36.5598 19.2526 36.5974H19.4646C23.2845 36.5948 26.9952 35.3236 30.0143 32.9835C33.0334 30.6434 35.1899 27.3669 36.1451 23.6684C37.1002 19.97 36.8001 16.059 35.2917 12.5496C33.7833 9.04023 31.152 6.13117 27.8112 4.2792C24.4704 2.42724 20.6091 1.73724 16.8337 2.31756C13.0582 2.89787 9.58228 4.71564 6.95183 7.48543C4.32138 10.2552 2.68529 13.8202 2.30046 17.6206C1.91563 21.421 2.8038 25.2416 4.8256 28.4824C4.90951 28.6116 4.96228 28.7584 4.97966 28.9114C4.99762 29.0638 4.98124 29.2183 4.93168 29.3634L2.79265 36.0134L9.44267 33.8734C9.5491 33.8415 9.65956 33.825 9.77067 33.8244C9.96845 33.8234 10.1614 33.8789 10.3287 33.9844ZM25.2867 19.3514C25.2829 18.9673 25.3974 18.5913 25.6147 18.2744C25.8259 17.9554 26.1278 17.7071 26.4816 17.5614C26.8358 17.4153 27.2254 17.3775 27.6011 17.4526C27.9768 17.5277 28.3219 17.7124 28.5927 17.9834C28.8623 18.2553 29.0465 18.6002 29.1226 18.9754C29.2004 19.3518 29.1599 19.743 29.0066 20.0954C28.8614 20.4494 28.6145 20.7523 28.2972 20.9659C27.9798 21.1795 27.6062 21.2942 27.2237 21.2954C26.969 21.2967 26.7166 21.2467 26.4816 21.1484C26.2438 21.0511 26.0277 20.9077 25.8456 20.7264C25.6694 20.5446 25.529 20.3312 25.4317 20.0974C25.3354 19.8606 25.2854 19.6071 25.2867 19.3514ZM17.5286 19.3514C17.5248 18.9673 17.6394 18.5913 17.8566 18.2744C18.0678 17.9554 18.3698 17.707 18.7237 17.5614C19.0779 17.4153 19.4674 17.3775 19.8431 17.4526C20.2188 17.5277 20.5638 17.7124 20.8346 17.9834C21.1042 18.2554 21.2885 18.6002 21.3647 18.9754C21.4428 19.352 21.4055 19.7435 21.2576 20.0985C21.1097 20.4535 20.8581 20.7557 20.5357 20.9654C20.2716 21.1419 19.9681 21.2506 19.652 21.2818C19.336 21.313 19.0172 21.2658 18.7237 21.1444C18.4876 21.0494 18.2743 20.9056 18.0977 20.7224C17.9152 20.5437 17.7709 20.3297 17.6736 20.0934C17.5775 19.8579 17.5282 19.6059 17.5286 19.3514ZM9.76066 19.3514C9.7613 18.9685 9.87508 18.5943 10.0877 18.2759C10.3003 17.9574 10.6022 17.7089 10.9556 17.5614C11.2209 17.4513 11.5074 17.4015 11.7944 17.4154C12.0813 17.4293 12.3616 17.5066 12.615 17.6418C12.8685 17.7771 13.0888 17.9668 13.2601 18.1974C13.4314 18.428 13.5494 18.6937 13.6056 18.9754C13.6741 19.3521 13.6342 19.7405 13.4906 20.0954C13.3448 20.451 13.0964 20.755 12.777 20.9687C12.4577 21.1824 12.0819 21.2962 11.6977 21.2954C11.4432 21.2947 11.1912 21.2448 10.9556 21.1484C10.7222 21.0485 10.5098 20.9053 10.3296 20.7264C10.1501 20.5472 10.0093 20.3332 9.91569 20.0974C9.81149 19.8627 9.75794 19.6083 9.76066 19.3514Z" fill="#3A4B4C"/>
</svg>
