<svg width="32" height="32" viewBox="0 0 32 32" fill="none" xmlns="http://www.w3.org/2000/svg">
<path d="M32 16C32 7.16344 24.8366 0 16 0C7.16344 0 0 7.16344 0 16C0 24.8366 7.16344 32 16 32C24.8366 32 32 24.8366 32 16Z" fill="#4AEAB1"/>
<path d="M17.632 21.65V17.308C17.632 17.2742 17.6386 17.2407 17.6516 17.2095C17.6646 17.1782 17.6836 17.1498 17.7076 17.126C17.7316 17.1021 17.76 17.0832 17.7913 17.0703C17.8226 17.0575 17.8561 17.0509 17.89 17.051H22.23C22.5686 17.051 22.8934 16.9165 23.1329 16.677C23.3724 16.4375 23.507 16.1127 23.507 15.774C23.507 15.4354 23.3724 15.1106 23.1329 14.8711C22.8934 14.6316 22.5686 14.497 22.23 14.497H17.887C17.8188 14.497 17.7534 14.47 17.7052 14.4218C17.657 14.3736 17.63 14.3082 17.63 14.24V9.90005C17.63 9.73235 17.5969 9.56629 17.5328 9.41136C17.4686 9.25643 17.3745 9.11565 17.2559 8.99707C17.1374 8.87849 16.9966 8.78443 16.8416 8.72025C16.6867 8.65608 16.5207 8.62305 16.353 8.62305C16.1853 8.62305 16.0192 8.65608 15.8643 8.72025C15.7093 8.78443 15.5686 8.87849 15.45 8.99707C15.3314 9.11565 15.2373 9.25643 15.1732 9.41136C15.109 9.56629 15.076 9.73235 15.076 9.90005V14.243C15.076 14.3112 15.0489 14.3766 15.0007 14.4248C14.9525 14.473 14.8871 14.5 14.819 14.5H10.477C10.1383 14.5 9.81347 14.6346 9.57398 14.8741C9.3345 15.1136 9.19996 15.4384 9.19996 15.777C9.19996 16.1157 9.3345 16.4405 9.57398 16.68C9.81347 16.9195 10.1383 17.054 10.477 17.054H14.823C14.8911 17.054 14.9565 17.0811 15.0047 17.1293C15.0529 17.1775 15.08 17.2429 15.08 17.311V21.653C15.08 21.9917 15.2145 22.3165 15.454 22.556C15.6935 22.7955 16.0183 22.93 16.357 22.93C16.6956 22.93 17.0204 22.7955 17.2599 22.556C17.4994 22.3165 17.634 21.9917 17.634 21.653L17.632 21.65Z" fill="#3A4B4C"/>
</svg>
