<svg width="30" height="30" viewBox="0 0 30 30" fill="none" xmlns="http://www.w3.org/2000/svg">
<circle cx="15" cy="15" r="15" fill="#4AEAB1"/>
<path d="M10.112 14.692C10.416 14.74 10.692 14.864 10.94 15.064C11.196 15.264 11.396 15.512 11.54 15.808C11.692 16.104 11.768 16.42 11.768 16.756C11.768 17.18 11.66 17.564 11.444 17.908C11.228 18.244 10.912 18.512 10.496 18.712C10.088 18.904 9.604 19 9.044 19H5.924V10.636H8.924C9.492 10.636 9.976 10.732 10.376 10.924C10.776 11.108 11.076 11.36 11.276 11.68C11.476 12 11.576 12.36 11.576 12.76C11.576 13.256 11.44 13.668 11.168 13.996C10.904 14.316 10.552 14.548 10.112 14.692ZM7.016 14.248H8.852C9.364 14.248 9.76 14.128 10.04 13.888C10.32 13.648 10.46 13.316 10.46 12.892C10.46 12.468 10.32 12.136 10.04 11.896C9.76 11.656 9.356 11.536 8.828 11.536H7.016V14.248ZM8.948 18.1C9.492 18.1 9.916 17.972 10.22 17.716C10.524 17.46 10.676 17.104 10.676 16.648C10.676 16.184 10.516 15.82 10.196 15.556C9.876 15.284 9.448 15.148 8.912 15.148H7.016V18.1H8.948ZM18.4314 10.636V11.524H16.1514V19H15.0594V11.524H12.7674V10.636H18.4314ZM20.8676 11.524V14.32H23.9156V15.22H20.8676V18.1H24.2756V19H19.7756V10.624H24.2756V11.524H20.8676Z" fill="#3A4B4C"/>
</svg>
