<svg width="9" height="15" viewBox="0 0 9 15" fill="none" xmlns="http://www.w3.org/2000/svg">
<path d="M8.432 10.3629C8.432 10.8749 8.304 11.3656 8.048 11.8349C7.792 12.2936 7.41333 12.6776 6.912 12.9869C6.42133 13.2963 5.82933 13.4723 5.136 13.5149V14.8109H4.272V13.5149C3.30133 13.4296 2.512 13.1203 1.904 12.5869C1.296 12.0429 0.986667 11.3549 0.976 10.5229H2.528C2.57067 10.9709 2.736 11.3603 3.024 11.6909C3.32267 12.0216 3.73867 12.2296 4.272 12.3149V8.31495C3.55733 8.13361 2.98133 7.94695 2.544 7.75495C2.10667 7.56295 1.73333 7.26428 1.424 6.85894C1.11467 6.45361 0.96 5.90961 0.96 5.22694C0.96 4.36294 1.25867 3.64828 1.856 3.08294C2.464 2.51761 3.26933 2.20294 4.272 2.13894V0.810945H5.136V2.13894C6.04267 2.21361 6.77333 2.50694 7.328 3.01894C7.88267 3.52028 8.20267 4.17628 8.288 4.98695H6.736C6.68267 4.61361 6.51733 4.27761 6.24 3.97894C5.96267 3.66961 5.59467 3.46695 5.136 3.37094V7.27495C5.84 7.45628 6.41067 7.64295 6.848 7.83495C7.296 8.01628 7.66933 8.30961 7.968 8.71495C8.27733 9.12028 8.432 9.66961 8.432 10.3629ZM2.448 5.14694C2.448 5.66961 2.60267 6.06961 2.912 6.34694C3.22133 6.62428 3.67467 6.85361 4.272 7.03495V3.33894C3.71733 3.39228 3.27467 3.57361 2.944 3.88295C2.61333 4.18161 2.448 4.60295 2.448 5.14694ZM5.136 12.3309C5.712 12.2669 6.16 12.0589 6.48 11.7069C6.81067 11.3549 6.976 10.9336 6.976 10.4429C6.976 9.92028 6.816 9.52028 6.496 9.24295C6.176 8.95495 5.72267 8.72561 5.136 8.55494V12.3309Z" fill="black"/>
</svg>
