<svg width="41" height="40" viewBox="0 0 41 40" fill="none" xmlns="http://www.w3.org/2000/svg">
<path d="M39.1844 17.4176L23.0844 1.31657C22.7475 0.978505 22.3472 0.710268 21.9064 0.527241C21.4657 0.344215 20.9931 0.25 20.5159 0.25C20.0386 0.25 19.5661 0.344215 19.1253 0.527241C18.6845 0.710268 18.2842 0.978505 17.9474 1.31657L1.85637 17.4066L1.84037 17.4226C1.34305 17.921 1.00161 18.5535 0.857742 19.2428C0.713877 19.932 0.773811 20.6483 1.03023 21.3041C1.28664 21.9599 1.72844 22.5268 2.30169 22.9357C2.87495 23.3445 3.55484 23.5777 4.25837 23.6066H5.01137V35.4556C5.01164 36.5834 5.45943 37.665 6.25645 38.463C7.05347 39.2609 8.13456 39.71 9.26237 39.7116H15.5624C15.8699 39.7108 16.1644 39.5879 16.3814 39.37C16.5983 39.1522 16.7199 38.857 16.7194 38.5496V29.2636C16.7202 28.7492 16.925 28.2562 17.2889 27.8927C17.6528 27.5291 18.146 27.3248 18.6604 27.3246H22.3784C22.8924 27.3254 23.3851 27.5299 23.7486 27.8934C24.112 28.2568 24.3166 28.7496 24.3174 29.2636V38.5456C24.3171 38.698 24.3469 38.849 24.405 38.9899C24.4631 39.1308 24.5484 39.2588 24.6561 39.3668C24.7637 39.4747 24.8916 39.5603 25.0323 39.6188C25.1731 39.6773 25.324 39.7074 25.4764 39.7076H31.7764C32.9023 39.7041 33.981 39.2548 34.7764 38.4579C35.5718 37.661 36.0191 36.5815 36.0204 35.4556V23.6226H36.6154C37.3335 23.6221 38.0354 23.4089 38.6324 23.0099C39.2294 22.6109 39.6949 22.0439 39.97 21.3806C40.245 20.7172 40.3174 19.9873 40.1779 19.2828C40.0385 18.5784 39.6934 17.9311 39.1864 17.4226L39.1844 17.4176ZM37.5474 20.9176C37.4254 21.0412 37.28 21.1391 37.1195 21.2056C36.9591 21.2721 36.787 21.3057 36.6134 21.3046H34.8594C34.5517 21.3046 34.2567 21.4268 34.0391 21.6443C33.8216 21.8619 33.6994 22.1569 33.6994 22.4646V35.4646C33.6986 35.9786 33.494 36.4713 33.1306 36.8348C32.7671 37.1982 32.2744 37.4028 31.7604 37.4036H26.6224V29.2726C26.6203 28.1463 26.1719 27.0668 25.3755 26.2704C24.5792 25.474 23.4996 25.0257 22.3734 25.0236H18.6564C17.5301 25.0257 16.4506 25.474 15.6542 26.2704C14.8578 27.0668 14.4095 28.1463 14.4074 29.2726V37.4026H9.26337C8.74936 37.4018 8.25663 37.1972 7.89317 36.8338C7.52971 36.4703 7.32517 35.9776 7.32437 35.4636V22.4636C7.32437 22.1559 7.20216 21.8609 6.98462 21.6433C6.76708 21.4258 6.47202 21.3036 6.16437 21.3036H4.39237C4.13316 21.2994 3.88091 21.2189 3.66716 21.0722C3.45341 20.9255 3.28763 20.7191 3.19054 20.4787C3.09345 20.2383 3.06935 19.9747 3.12125 19.7207C3.17316 19.4667 3.29876 19.2336 3.48237 19.0506L19.5844 2.95557C19.8319 2.70825 20.1675 2.56933 20.5174 2.56933C20.8673 2.56933 21.2029 2.70825 21.4504 2.95557L37.5504 19.0556C37.7964 19.3036 37.9345 19.6387 37.9345 19.9881C37.9345 20.3374 37.7964 20.6726 37.5504 20.9206L37.5474 20.9176Z" fill="#3A4B4C"/>
</svg>
