<svg width="78" height="78" viewBox="0 0 78 78" fill="none" xmlns="http://www.w3.org/2000/svg">
<path d="M66 0H12C5.37258 0 0 5.37258 0 12V66C0 72.6274 5.37258 78 12 78H66C72.6274 78 78 72.6274 78 66V12C78 5.37258 72.6274 0 66 0Z" fill="#4AEAB1"/>
<path d="M38.934 59.8794H38.923C33.3568 59.8779 28.0192 57.6656 24.0841 53.7289C20.149 49.7923 17.9387 44.4538 17.9395 38.8876C17.9402 33.3215 20.1518 27.9835 24.088 24.0479C28.0241 20.1123 33.3623 17.9014 38.9285 17.9014C44.4946 17.9014 49.8329 20.1123 53.769 24.0479C57.7051 27.9835 59.9168 33.3215 59.9175 38.8876C59.9182 44.4538 57.7079 49.7923 53.7728 53.7289C49.8377 57.6656 44.5001 59.8779 38.934 59.8794ZM34.0939 42.4394C33.8661 42.4409 33.6441 42.5115 33.4572 42.6419C33.2702 42.7722 33.1272 42.9561 33.0469 43.1694C32.8943 44.0057 32.9602 44.8673 33.2382 45.6708C33.5163 46.4742 33.997 47.1922 34.634 47.7554L34.673 47.7944C35.333 48.4574 35.333 48.4574 37.04 49.2694L37.171 49.3314C37.365 49.4244 37.377 49.4694 37.425 50.2984C37.497 51.5634 37.873 52.0794 38.725 52.0794C39.577 52.0794 39.9409 51.5794 40.0179 50.3064C40.0709 49.4784 40.085 49.4234 40.277 49.3314L40.402 49.2724C42.115 48.4584 42.1149 48.4584 42.7709 47.7994L42.816 47.7534C43.607 47.0075 44.165 46.0484 44.4223 44.9921C44.6796 43.9358 44.6254 42.8275 44.266 41.8014C43.832 40.6947 43.093 39.7338 42.1349 39.0303C41.1768 38.3267 40.0388 37.9092 38.853 37.8264H38.753C37.8657 37.8264 37.0145 37.4747 36.386 36.8484C35.9205 36.3543 35.6103 35.7344 35.4938 35.0657C35.3774 34.3969 35.4599 33.7087 35.731 33.0864C36.0469 32.4425 36.5634 31.9186 37.2027 31.5935C37.842 31.2684 38.5697 31.1597 39.2761 31.2838C39.9826 31.4078 40.6295 31.7579 41.1199 32.2814C41.6102 32.8048 41.9173 33.4733 41.9949 34.1864C42.1309 35.2594 42.531 35.7374 43.295 35.7374H43.347C43.5748 35.735 43.7966 35.6641 43.9835 35.5339C44.1705 35.4037 44.3138 35.2202 44.395 35.0074C44.5469 34.1711 44.4805 33.3098 44.2021 32.5068C43.9237 31.7038 43.4429 30.9862 42.806 30.4234L42.767 30.3844C42.107 29.7214 42.107 29.7214 40.4 28.9094L40.269 28.8474C40.075 28.7544 40.063 28.7084 40.015 27.8804C39.965 26.9484 39.849 26.6294 39.451 26.3294C39.2275 26.1471 38.9511 26.0419 38.663 26.0294C37.977 26.0294 37.489 26.7504 37.42 27.8674C37.368 28.6954 37.3529 28.7504 37.1609 28.8414L37.029 28.9034C35.323 29.7144 35.323 29.7144 34.667 30.3744L34.624 30.4174C33.8329 31.1632 33.275 32.1223 33.0176 33.1787C32.7603 34.235 32.8146 35.3433 33.174 36.3694C33.6083 37.4756 34.3472 38.4361 35.3051 39.1396C36.2629 39.8431 37.4004 40.2608 38.5859 40.3444H38.6979C39.325 40.3465 39.9391 40.5239 40.4708 40.8564C41.0024 41.189 41.4306 41.6634 41.707 42.2264C42.07 43.1451 42.07 44.1676 41.707 45.0864C41.3904 45.7323 40.872 46.2575 40.2303 46.5826C39.5886 46.9077 38.8585 47.015 38.1505 46.8882C37.4424 46.7614 36.7948 46.4075 36.3058 45.88C35.8167 45.3525 35.5128 44.68 35.4399 43.9644C35.3099 42.9054 34.9119 42.4334 34.1509 42.4334L34.0939 42.4394Z" fill="#3A4B4C"/>
</svg>
