<svg width="49" height="45" viewBox="0 0 49 45" fill="none" xmlns="http://www.w3.org/2000/svg">
<path opacity="0.2" fill-rule="evenodd" clip-rule="evenodd" d="M3.62716 0.493002C3.07022 0.653028 2.55363 0.929475 2.11156 1.30405C1.66949 1.67863 1.31203 2.14279 1.06283 2.66582L0.763724 3.29859L0.738203 18.2114C0.718808 31.8535 0.726974 33.1649 0.86887 33.5987C1.09292 34.3103 1.50949 34.946 2.07251 35.4356C2.63553 35.9251 3.32304 36.2495 4.05897 36.3726C4.37849 36.4247 7.57677 36.4635 11.6397 36.4635H18.6681L18.611 37.331C18.4068 40.4774 17.2655 42.3737 15.5872 42.3737C15.3991 42.4025 15.2227 42.483 15.0776 42.6061C14.9325 42.7293 14.8244 42.8903 14.7655 43.0712C14.7065 43.2522 14.699 43.4459 14.7437 43.6309C14.7884 43.8159 14.8836 43.9848 15.0186 44.1189L15.3382 44.4383H34.1429L34.4624 44.1189C34.5975 43.9848 34.6927 43.8159 34.7374 43.6309C34.7821 43.4459 34.7746 43.2522 34.7156 43.0712C34.6567 42.8903 34.5486 42.7293 34.4035 42.6061C34.2584 42.483 34.082 42.4025 33.8938 42.3737C32.2146 42.3737 31.0774 40.4774 30.8701 37.331L30.813 36.4635H37.8414C41.9053 36.4635 45.1026 36.4247 45.4221 36.3726C46.1581 36.2495 46.8456 35.9251 47.4086 35.4356C47.9716 34.946 48.3882 34.3103 48.6122 33.5987C48.7541 33.166 48.7653 31.8545 48.7419 18.2124L48.7174 3.29348L48.4183 2.66072C48.1675 2.13079 47.8046 1.66166 47.3546 1.28579C46.9046 0.909914 46.3783 0.63628 45.8121 0.483818C44.9862 0.268475 4.42852 0.273578 3.62716 0.483818M44.729 16.3865V28.3998H4.7511V4.37734H44.729V16.3865ZM25.5445 30.637C25.9783 30.8343 26.3239 31.1851 26.5148 31.6218C26.7057 32.0585 26.7284 32.5503 26.5785 33.0027C26.4287 33.4551 26.1169 33.8362 25.703 34.0727C25.2892 34.3092 24.8025 34.3844 24.3365 34.2839C23.8706 34.1834 23.4582 33.9143 23.1787 33.5282C22.8992 33.1422 22.7723 32.6665 22.8223 32.1926C22.8724 31.7186 23.0959 31.2799 23.4499 30.9607C23.8038 30.6416 24.2633 30.4645 24.74 30.4635C25.0164 30.473 25.2888 30.5317 25.5445 30.637Z" fill="black"/>
</svg>
