<svg width="55" height="54" viewBox="0 0 55 54" fill="none" xmlns="http://www.w3.org/2000/svg">
<path opacity="0.2" d="M18.8721 52.6556C15.5032 51.5192 12.4091 49.6912 9.78879 47.2886C7.16844 44.8859 5.07994 41.9618 3.65681 38.7043C3.06752 37.4191 2.60583 36.0792 2.27859 34.7037C2.19635 34.4073 2.20656 34.0921 2.30799 33.8017C2.40943 33.5114 2.59691 33.2589 2.84583 33.0782C3.08235 32.8804 3.37297 32.7586 3.67974 32.7273C3.9865 32.696 4.29538 32.7568 4.56699 32.9027C4.80776 33.0283 5.01617 33.2082 5.1756 33.428C5.33503 33.6478 5.44153 33.9017 5.48614 34.1695C6.15067 36.7258 7.2842 39.1363 8.82927 41.2787C11.2176 44.6449 14.4843 47.2914 18.2735 48.9291C22.0626 50.5668 26.2286 51.1333 30.3176 50.5666C32.7852 50.1993 35.1761 49.4301 37.3952 48.2902C41.8134 46.0229 45.3538 42.354 47.4614 37.8582C47.5523 37.6724 47.6218 37.4767 47.7331 37.2093C47.332 37.3123 46.9404 37.4483 46.5622 37.617C46.2575 37.7319 45.9247 37.7515 45.6087 37.6728C45.2926 37.594 45.0083 37.4209 44.7932 37.1764C44.5746 36.9462 44.4306 36.6547 44.3805 36.3412C44.3304 36.0277 44.3766 35.7062 44.5126 35.4193C44.5958 35.2259 44.7173 35.0521 44.87 34.907C45.0226 34.762 45.2029 34.6494 45.4003 34.5761C46.9244 33.927 48.4448 33.2732 49.9791 32.6466C50.183 32.5417 50.407 32.4826 50.6361 32.4722C50.8651 32.4618 51.0935 32.5008 51.306 32.5868C51.5185 32.6728 51.71 32.8037 51.8673 32.9705C52.0246 33.1373 52.1442 33.3364 52.2177 33.5536C52.8833 35.0885 53.5297 36.6327 54.1572 38.1861C54.3238 38.5766 54.329 39.0168 54.1711 39.411C54.0132 39.8051 53.7055 40.1205 53.3153 40.288C52.937 40.4614 52.5055 40.4784 52.1145 40.3359C51.7235 40.1933 51.4041 39.9027 51.2262 39.5266C51.0731 39.2347 50.9536 38.9265 50.8026 38.5877C50.6532 38.7153 50.5465 38.8851 50.4965 39.0751C48.9872 42.3708 46.7937 45.308 44.062 47.6912C41.3302 50.0744 38.1227 51.849 34.6522 52.8978C32.437 53.5835 30.1313 53.934 27.8124 53.9363C27.6409 53.9363 27.4704 53.9363 27.302 53.9363C24.4391 53.9981 21.5873 53.5649 18.8721 52.6556ZM31.4282 43.5441C30.978 43.5441 30.5228 43.5441 30.0634 43.5441H27.3897C25.1285 43.5441 22.8868 43.5441 20.6471 43.5441C20.293 43.561 19.9398 43.5028 19.6093 43.3747C19.2788 43.2465 18.9786 43.0508 18.7286 42.7996C18.4785 42.5484 18.284 42.2476 18.1573 41.9166C18.0307 41.5856 17.9748 41.2319 17.9933 40.878C17.9933 33.2019 17.9933 25.524 17.9933 17.8451C17.9763 17.4909 18.0336 17.1372 18.1618 16.8066C18.2901 16.476 18.486 16.1757 18.7375 15.9256C18.989 15.6755 19.2904 15.4809 19.6218 15.3545C19.9532 15.228 20.3074 15.1731 20.6616 15.192C20.8035 15.192 20.9262 15.192 21.0344 15.192C21.8786 15.2053 21.7489 15.213 21.7592 14.0638C21.7592 13.4902 21.752 12.9142 21.7592 12.3386C21.7592 11.9326 21.9201 11.5433 22.2073 11.2562C22.4944 10.9691 22.8843 10.8077 23.2904 10.8077C26.0637 10.7948 28.8368 10.7948 31.6101 10.8077C31.8118 10.8084 32.0115 10.8489 32.1973 10.9273C32.3831 11.0057 32.5516 11.1201 32.6927 11.2642C32.8339 11.4082 32.9446 11.5791 33.0192 11.7665C33.0938 11.9539 33.1304 12.1539 33.1269 12.3555C33.1412 13.1557 33.1402 13.9614 33.1269 14.7605C33.1269 15.0666 33.229 15.2163 33.5516 15.201C33.8129 15.1857 34.0753 15.1949 34.3366 15.201C34.6732 15.1972 35.0073 15.2606 35.3191 15.3874C35.6309 15.5141 35.9141 15.7019 36.1525 15.9395C36.3909 16.1771 36.5795 16.4594 36.7073 16.7707C36.8351 17.0821 36.8999 17.4159 36.8972 17.7525C36.902 25.5014 36.902 33.2494 36.8972 40.9957C36.9019 41.332 36.8389 41.6657 36.7123 41.9774C36.5857 42.289 36.3979 42.5717 36.16 42.8096C35.9221 43.0474 35.6388 43.2352 35.3271 43.3617C35.0153 43.4883 34.6816 43.5518 34.3451 43.5471C33.7418 43.5543 33.1391 43.5541 32.5327 43.5541L31.4282 43.5441ZM26.307 29.2001C26.353 29.44 26.1853 29.5419 26.0832 29.6735C25.7096 30.1542 25.3187 30.6269 24.9523 31.1127C24.7718 31.3296 24.6607 31.5954 24.6332 31.8762C24.6058 32.157 24.6632 32.4397 24.7982 32.6875C24.9067 32.9241 25.0758 33.1276 25.2887 33.2775C25.5016 33.4274 25.7505 33.5183 26.01 33.5406C26.2694 33.5629 26.5302 33.5164 26.7656 33.4051C27.001 33.2937 27.203 33.1214 27.3503 32.9067C28.4947 31.5228 29.6064 30.1121 30.7293 28.7078C30.954 28.4843 31.1006 28.1939 31.148 27.8806C31.1955 27.5672 31.141 27.2476 30.9925 26.9676C30.8543 26.6933 30.6361 26.4669 30.367 26.3188C30.0978 26.1707 29.7904 26.1074 29.4847 26.1374C29.1393 26.2038 28.7817 26.1585 28.4639 26.0078C28.8456 25.5118 29.201 25.045 29.5654 24.5796C29.7193 24.4301 29.8398 24.2488 29.9188 24.0494C29.9979 23.85 30.0336 23.6368 30.024 23.4225C30.0144 23.2082 29.9596 22.9981 29.863 22.8065C29.7664 22.615 29.6304 22.4463 29.4638 22.3112C29.2971 22.176 29.1034 22.0772 28.896 22.0222C28.6886 21.9671 28.4722 21.9565 28.2605 21.9913C28.0488 22.026 27.8467 22.1061 27.6678 22.2245C27.4889 22.3429 27.3374 22.4977 27.2227 22.679C26.2447 23.9037 25.2766 25.1433 24.2619 26.4354C24.0057 26.6634 23.8313 26.969 23.7649 27.3055C23.6986 27.6419 23.744 27.991 23.8945 28.2992C24.049 28.5955 24.2928 28.8357 24.5914 28.9859C24.89 29.136 25.2283 29.189 25.5584 29.1363C25.6788 29.1363 25.8038 29.1164 25.9252 29.1164C26.0575 29.1133 26.1885 29.1414 26.307 29.2001ZM50.3046 21.4172C50.062 21.2767 49.8541 21.0839 49.6965 20.8521C49.5389 20.6203 49.4353 20.3559 49.3939 20.0787C48.9709 18.5479 48.3896 17.0655 47.6588 15.6555C45.7278 11.9252 42.7859 8.81343 39.1697 6.67554C35.5534 4.53764 31.4086 3.45924 27.2088 3.56495C23.0089 3.67066 18.9234 4.95543 15.4193 7.27254C11.9152 9.58965 9.13354 12.8464 7.39272 16.6691C7.7036 16.6573 8.00706 16.5683 8.27598 16.4119C8.49057 16.3233 8.72136 16.2828 8.95338 16.2913C9.18541 16.2999 9.41331 16.3576 9.62081 16.4618C9.82831 16.5659 10.0107 16.7134 10.1561 16.8943C10.3016 17.0753 10.4066 17.2853 10.4637 17.5103C10.5657 17.8668 10.5363 18.2487 10.3815 18.5857C10.2266 18.9226 9.95632 19.1932 9.61931 19.3481C8.0115 20.0625 6.39028 20.7591 4.7549 21.4092C4.56367 21.4883 4.35873 21.5277 4.15177 21.5258C3.94482 21.5239 3.74041 21.4808 3.55064 21.3983C3.36087 21.3157 3.18961 21.1956 3.0472 21.0454C2.90479 20.8953 2.79411 20.718 2.72171 20.5242C2.0677 19.0205 1.43157 17.5097 0.81363 15.9904C0.66582 15.6451 0.625628 15.2624 0.698487 14.894C0.771345 14.5256 0.95376 14.1883 1.22186 13.9253C1.48818 13.7258 1.80772 13.6096 2.14002 13.5914C2.47231 13.5732 2.80258 13.6543 3.08907 13.8236C3.37227 14.0007 3.59355 14.2609 3.72211 14.5691L4.14031 15.513C4.35979 15.4966 4.35687 15.3293 4.41097 15.214C6.89324 9.81753 11.1778 5.45393 16.5284 2.87227C19.3215 1.46192 22.3691 0.62603 25.4911 0.414497C36.1649 -0.217244 44.3213 4.0625 49.9736 13.111C51.1443 15.0596 52.0218 17.1698 52.5771 19.374C52.6962 19.6964 52.711 20.0484 52.6194 20.3797C52.5278 20.7109 52.3345 21.0054 52.0666 21.2208C51.7891 21.4618 51.4348 21.5951 51.0672 21.5986C50.8026 21.597 50.5418 21.5344 50.3046 21.4172Z" fill="black"/>
</svg>
