<svg width="44" height="57" viewBox="0 0 44 57" fill="none" xmlns="http://www.w3.org/2000/svg">
<path opacity="0.2" fill-rule="evenodd" clip-rule="evenodd" d="M18.7957 0.797484C15.1601 1.34255 11.7252 2.81132 8.81971 5.06326C5.91426 7.3152 3.63552 10.2749 2.20154 13.6592C0.767565 17.0435 0.226346 20.7391 0.629679 24.3923C1.03301 28.0456 2.3674 31.5342 4.50515 34.5243C6.64289 37.5145 9.51245 39.9061 12.8392 41.4703C16.166 43.0345 19.8386 43.719 23.5057 43.4582C27.1727 43.1974 30.7115 42 33.7832 39.9808C36.855 37.9615 39.3571 35.1879 41.0499 31.9253C49.0788 16.4389 36.0335 -1.81011 18.7957 0.797484ZM25.0381 7.59559C28.66 8.39981 30.3403 9.74494 29.4655 11.138C28.9224 12.0025 28.1517 12.128 26.9073 11.5534C25.6274 10.9631 24.2513 10.6091 22.8454 10.5083C20.767 10.3501 19.9615 9.56838 20.5373 8.26305C20.9956 7.22614 22.4279 7.01284 25.0391 7.59253M15.5719 9.51327C16.9184 10.1256 16.7969 11.4524 15.3045 12.5556C14.1197 13.4359 13.0905 14.508 12.2593 15.7276C11.4345 16.9809 10.8302 17.285 9.94511 16.8941C8.36214 16.194 8.81504 14.5339 11.3038 11.9137C13.3261 9.78372 14.595 9.07033 15.5719 9.51327ZM24.248 14.1886C25.5448 14.5653 26.7278 15.258 27.6908 16.2045C28.6538 17.1511 29.3667 18.3218 29.7655 19.6118C30.1643 20.9017 30.2365 22.2704 29.9757 23.5951C29.7149 24.9198 29.1292 26.1591 28.2712 27.2017C27.4132 28.2443 26.3097 29.0576 25.0597 29.5687C23.8098 30.0798 22.4524 30.2726 21.1095 30.1299C19.7667 29.9872 18.4802 29.5134 17.3656 28.7511C16.2511 27.9887 15.3432 26.9616 14.7236 25.762C14.004 24.344 13.7134 22.747 13.8872 21.1665C14.061 19.5859 14.6918 18.0902 15.7023 16.8624C16.7129 15.6346 18.0595 14.7277 19.5773 14.2529C21.0952 13.778 22.7176 13.7557 24.248 14.1886ZM34.0776 14.0538C35.516 14.7805 37.3514 21.0234 36.5041 22.3083C35.4833 23.8617 33.7571 23.0983 33.5161 20.9816C33.3893 19.5006 32.9731 18.0588 32.2911 16.738C31.6786 15.4 31.6582 15.0683 32.1778 14.4519C32.3787 14.1491 32.6906 13.9374 33.0461 13.8624C33.4017 13.7874 33.7725 13.855 34.0786 14.0508M9.6164 21.2714C9.86454 21.4635 10.0671 21.708 10.2097 21.9874C10.3523 22.2669 10.4314 22.5744 10.4412 22.888C10.5639 24.5261 11.0153 26.1227 11.7683 27.5827C12.6279 29.3595 11.2783 30.9241 9.71848 29.9607C8.69765 29.332 7.25215 25.1057 7.25113 22.7635C7.25113 22.1981 7.60332 21.2959 7.83199 21.2806C7.84526 21.2806 8.0535 21.2092 8.29544 21.1234C8.51035 21.0373 8.74325 21.0056 8.97337 21.0312C9.20349 21.0569 9.4237 21.139 9.61436 21.2704M34.3185 27.3449C35.567 28.2338 34.9392 29.8821 32.3789 32.4478C29.9157 34.9115 28.6264 35.3504 27.728 34.0348C27.1625 33.2071 27.4524 32.4376 28.6631 31.5487C29.8448 30.672 30.8701 29.6024 31.696 28.3849C32.6086 27.0142 33.409 26.6979 34.3216 27.348M17.3216 32.6366C18.5408 33.1798 19.8473 33.5006 21.1794 33.5837C22.9577 33.7297 23.564 34.1491 23.564 35.235C23.564 36.6638 22.2819 37.0884 19.4868 36.6016C15.6781 35.9392 13.5864 34.4084 14.5011 32.953C15.0646 32.0559 15.8425 31.9692 17.3216 32.6356M9.01207 43.1048C9.38524 44.7879 9.84316 46.4512 10.3841 48.0883C11.0599 49.4222 12.3032 50.0713 14.1826 50.0713H15.3872V52.9564C15.3872 57.2715 14.7379 56.8837 21.9818 56.8837C29.2256 56.8837 28.5753 57.2715 28.5763 52.9564V50.0723H29.7809C31.6603 50.0723 32.9037 49.4232 33.5794 48.0893C34.1225 46.4487 34.5804 44.7813 34.9514 43.0935C34.67 43.1878 34.4021 43.3182 34.1542 43.4813C30.5761 45.5254 26.5395 46.6327 22.419 46.7005C18.2985 46.7683 14.2276 45.7944 10.5842 43.8692C10.0727 43.5872 9.54696 43.3321 9.00901 43.1048" fill="black"/>
</svg>
