<svg width="25" height="25" viewBox="0 0 25 25" fill="none" xmlns="http://www.w3.org/2000/svg">
<path fill-rule="evenodd" clip-rule="evenodd" d="M11.6857 0.0199697C9.57622 0.143718 7.53314 0.803519 5.74971 1.93698C3.96628 3.07043 2.50146 4.64008 1.49376 6.49746C0.486064 8.35485 -0.0311913 10.4386 -0.00908571 12.5516C0.0130199 14.6646 0.573754 16.7371 1.62009 18.573C2.66642 20.4089 4.16377 21.9475 5.97052 23.0434C7.77727 24.1393 9.8337 24.7562 11.9453 24.8358C14.057 24.9154 16.154 24.4551 18.0381 23.4983C19.9222 22.5415 21.5312 21.1199 22.7127 19.368C23.9966 17.4456 24.72 15.2038 24.8018 12.8936C24.8837 10.5834 24.3207 8.29596 23.1761 6.28757C22.0315 4.27919 20.3503 2.62911 18.3209 1.52215C16.2915 0.415182 13.994 -0.104961 11.6857 0.0199697ZM14.2007 1.58497C16.6387 1.98191 18.872 3.18783 20.5412 5.00853C22.2104 6.82922 23.2182 9.15872 23.4024 11.6219C23.5865 14.085 22.9363 16.5385 21.5564 18.5872C20.1765 20.6358 18.1473 22.1604 15.7955 22.9155C13.4437 23.6705 10.9062 23.612 8.59168 22.7495C6.27714 21.8869 4.32027 20.2705 3.03621 18.1604C1.75214 16.0504 1.21561 13.5696 1.51302 11.1175C1.81043 8.66546 2.92447 6.38485 4.67573 4.64297C5.90866 3.41665 7.41476 2.5001 9.07049 1.96853C10.7262 1.43696 12.4844 1.30551 14.2007 1.58497ZM13.9747 8.65997L10.2427 10.41L8.49673 14.171C7.53673 16.24 6.75873 17.94 6.76873 17.95C6.77873 17.96 8.47573 17.18 10.5397 16.218L14.2937 14.467L16.0347 10.722C16.9907 8.66197 17.7767 6.96197 17.7777 6.94297C17.7777 6.88397 17.8117 6.86997 13.9777 8.66297M12.7467 11.33C13.0215 11.4508 13.2423 11.6685 13.367 11.9417C13.4916 12.2148 13.5115 12.5242 13.4227 12.811C13.3481 13.0429 13.2051 13.2469 13.0125 13.3961C12.8199 13.5453 12.5866 13.6328 12.3434 13.647C12.1001 13.6613 11.8583 13.6016 11.6496 13.4759C11.4408 13.3502 11.275 13.1644 11.1738 12.9427C11.0726 12.721 11.0409 12.474 11.0826 12.2339C11.1244 11.9939 11.2378 11.7721 11.408 11.5977C11.5781 11.4232 11.797 11.3043 12.0359 11.2565C12.2748 11.2088 12.5226 11.2344 12.7467 11.33Z" fill="#3A4B4C"/>
</svg>
