<svg width="25" height="25" viewBox="0 0 25 25" fill="none" xmlns="http://www.w3.org/2000/svg">
<path d="M6.27733 23.322L6.15331 23.25L0.892325 24.942C0.824694 24.9664 0.753139 24.9782 0.681266 24.977C0.576809 24.9765 0.474047 24.9512 0.381339 24.903C0.285388 24.8541 0.202147 24.7834 0.138419 24.6966C0.0746908 24.6098 0.0321801 24.5092 0.0142734 24.403C-0.00260208 24.2969 0.00599061 24.1882 0.0392978 24.086L1.73925 18.828L1.6643 18.704C0.158377 16.079 -0.342872 12.9963 0.253775 10.0293C0.850423 7.06238 2.50434 4.41311 4.90795 2.57424C7.31156 0.735366 10.3012 -0.167939 13.3209 0.0323275C16.3406 0.232594 19.1849 1.5228 21.3246 3.66298C23.4643 5.80317 24.7539 8.64765 24.9535 11.6674C25.1531 14.6872 24.2492 17.6767 22.4098 20.0799C20.5704 22.4831 17.9208 24.1364 14.9537 24.7324C11.9866 25.3284 8.90403 24.8265 6.27929 23.32L6.27733 23.322ZM6.60033 21.929C8.32946 23.0076 10.3214 23.5908 12.3592 23.615H12.4963C14.9613 23.6131 17.3557 22.7927 19.3038 21.2825C21.2519 19.7723 22.6433 17.6578 23.2595 15.2712C23.8757 12.8845 23.6819 10.3608 22.7084 8.09621C21.7348 5.83167 20.0368 3.95457 17.8808 2.75965C15.7249 1.56472 13.2332 1.11964 10.7969 1.49428C8.36057 1.86893 6.11771 3.04209 4.4204 4.82955C2.72309 6.61702 1.66747 8.91757 1.4193 11.37C1.17113 13.8224 1.7445 16.2878 3.04931 18.379C3.10369 18.4624 3.1379 18.5572 3.14928 18.656C3.16097 18.7545 3.15037 18.8543 3.11828 18.948L1.73827 23.239L6.02929 21.858C6.09774 21.8374 6.16885 21.8266 6.24035 21.826C6.36873 21.8248 6.49468 21.8605 6.60326 21.929H6.60033ZM16.2523 12.486C16.2497 12.2382 16.3233 11.9956 16.4632 11.791C16.5997 11.5851 16.7948 11.4249 17.0233 11.331C17.2518 11.2367 17.5031 11.2122 17.7455 11.2607C17.9879 11.3091 18.2105 11.4282 18.3852 11.603C18.5592 11.7785 18.6781 12.0009 18.7273 12.243C18.7776 12.486 18.7515 12.7386 18.6523 12.966C18.5582 13.1937 18.3986 13.3884 18.194 13.5256C17.9893 13.6628 17.7487 13.7364 17.5023 13.737C17.3379 13.7377 17.175 13.7054 17.0233 13.642C16.87 13.5793 16.7307 13.4868 16.6133 13.37C16.4995 13.2527 16.409 13.1149 16.3463 12.964C16.2842 12.8123 16.2523 12.65 16.2523 12.486ZM11.2452 12.486C11.2429 12.2381 11.3169 11.9955 11.4573 11.791C11.5936 11.5851 11.7888 11.4248 12.0173 11.331C12.2458 11.2367 12.4971 11.2122 12.7395 11.2607C12.9819 11.3091 13.2045 11.4282 13.3793 11.603C13.5532 11.7785 13.6721 12.0009 13.7213 12.243C13.7717 12.486 13.7475 12.7386 13.6521 12.9677C13.5566 13.1968 13.3943 13.3917 13.1863 13.527C13.0159 13.6408 12.8201 13.7109 12.6162 13.7309C12.4123 13.751 12.2066 13.7205 12.0173 13.642C11.8665 13.5803 11.7302 13.4876 11.6173 13.37C11.4994 13.2547 11.4061 13.1165 11.3433 12.964C11.2801 12.8125 11.2473 12.6502 11.2463 12.486H11.2452ZM6.23327 12.486C6.23308 12.3006 6.27413 12.1174 6.35351 11.9498C6.43289 11.7821 6.54865 11.6343 6.69225 11.5169C6.83585 11.3996 7.00377 11.3156 7.18383 11.2712C7.36389 11.2267 7.55155 11.2229 7.73327 11.26C7.97578 11.3085 8.1985 11.4277 8.37328 11.6027C8.54807 11.7776 8.66713 12.0005 8.71532 12.243C8.75956 12.4862 8.7338 12.7369 8.64123 12.966C8.5466 13.1948 8.38607 13.3903 8.18005 13.5276C7.97402 13.6649 7.73182 13.7378 7.48424 13.737C7.31995 13.7365 7.15729 13.7043 7.00524 13.642C6.85606 13.5772 6.72048 13.4849 6.60534 13.37C6.48958 13.2543 6.39863 13.1162 6.33825 12.964C6.26956 12.814 6.23378 12.651 6.23327 12.486Z" fill="#3A4B4C"/>
</svg>
