<svg width="42" height="42" viewBox="0 0 42 42" fill="none" xmlns="http://www.w3.org/2000/svg">
<path opacity="0.1" d="M29.9379 0H11.9752C5.36146 0 0 5.36146 0 11.9752V29.9379C0 36.5516 5.36146 41.913 11.9752 41.913H29.9379C36.5516 41.913 41.913 36.5516 41.913 29.9379V11.9752C41.913 5.36146 36.5516 0 29.9379 0Z" fill="#3A4B4C"/>
<path d="M25.974 31.6241C24.289 32.3916 22.434 32.7162 20.5867 32.5668C18.7853 32.4587 17.0371 31.9181 15.4918 30.9913C13.9465 30.0644 12.6501 28.779 11.7136 27.2451C10.8138 25.8399 10.2533 24.2466 10.0759 22.5901C9.81723 20.3777 10.2231 18.1386 11.2424 16.1552C12.2617 14.1718 13.8487 12.5328 15.8034 11.4449C17.1108 10.7063 18.5561 10.2406 20.0507 10.0765C22.4816 9.79369 24.9393 10.2997 27.0573 11.519C29.1754 12.7383 30.8404 14.6057 31.804 16.8427C32.5377 18.4726 32.8434 20.261 32.6925 22.0404C32.5737 24.0995 31.8828 26.0853 30.6967 27.7773C29.5106 29.4692 27.8758 30.8008 25.974 31.6241ZM16.9878 15.7639C18.3518 17.1196 19.7163 18.4751 21.0814 19.8304C21.3918 20.1345 21.3291 20.1482 21.6571 19.8221C22.0649 19.4196 22.4691 19.0159 22.8698 18.611C22.9325 18.5479 23.0227 18.5 23.0349 18.3898C23.012 18.3601 22.9875 18.3259 22.9585 18.2947C22.1078 17.2951 21.4425 16.1532 20.9935 14.9223C20.6611 14.0008 20.4466 13.0415 20.355 12.0668C20.3214 11.7232 20.2832 11.7087 19.9414 11.7627C18.2427 12.0221 16.6435 12.7243 15.3064 13.7979C15.256 13.8382 15.1872 13.8663 15.1879 13.9864C15.766 14.5566 16.3631 15.1458 16.9839 15.7616M14.8339 15.9897L13.9699 15.1321C12.7176 16.5763 11.9471 18.3715 11.7649 20.2698C14.2407 20.4205 16.5979 21.3766 18.4734 22.9908C18.9811 22.4844 19.4612 21.9918 19.9597 21.5174C20.1356 21.3494 20.1341 21.2498 19.9597 21.078C18.2555 19.3948 16.5604 17.7033 14.837 15.9889M24.5603 19.8563C24.4571 19.7871 24.3859 19.6738 24.2261 19.6282C23.7376 20.117 23.2444 20.6165 22.7398 21.1107C22.5869 21.2574 22.5983 21.3494 22.7459 21.4961C24.5366 23.27 26.3239 25.0462 28.108 26.8247C28.3198 27.0353 28.5369 27.2405 28.7716 27.4671C30.0092 26.0137 30.7814 24.2255 30.9889 22.3324C28.6396 22.1907 26.3928 21.3262 24.5595 19.8585M24.5939 30.3735C25.6764 29.986 26.6806 29.4093 27.559 28.6705C27.4971 28.5983 27.4573 28.5451 27.4107 28.4995C25.4564 26.5538 23.5023 24.6078 21.5486 22.6616C21.4071 22.5202 21.3192 22.5209 21.1793 22.6616C20.7564 23.0949 20.3313 23.526 19.8932 23.9433C19.7135 24.1144 19.6898 24.233 19.8642 24.436C20.4355 25.1096 20.9161 25.8543 21.2939 26.6513C21.8814 27.8775 22.2474 29.1969 22.3751 30.5491C22.408 30.8699 22.4424 30.8882 22.7711 30.8342C23.3908 30.736 24.0006 30.5833 24.5932 30.378M20.6892 30.8342C20.6892 30.7171 20.693 30.5985 20.6792 30.483C20.4995 28.8784 19.914 27.3452 18.9772 26.0264C18.849 25.815 18.6949 25.6202 18.5185 25.4463L15.2002 28.7352C15.2125 28.7528 15.2268 28.7688 15.243 28.7831C15.3133 28.8431 15.3837 28.9032 15.4571 28.9587C16.7286 29.9367 18.2274 30.5805 19.8152 30.8304C20.1006 30.9184 20.4059 30.92 20.6922 30.835M27.1759 14.33C27.3263 14.196 27.4617 14.0461 27.5796 13.883C26.006 12.5813 24.0565 11.8115 22.0134 11.6852C22.1432 13.7267 22.9303 15.6726 24.2583 17.2349L27.1752 14.3308M29.0714 20.3451C29.5236 20.4762 29.986 20.57 30.4537 20.6256C31.0188 20.7017 31.0234 20.6895 30.9607 20.1307C30.7738 18.4911 30.1521 16.9303 29.1593 15.608C29.0707 15.4564 28.9607 15.3182 28.8328 15.1975L25.5152 18.4741C26.5531 19.3425 27.7655 19.9804 29.0714 20.3451ZM12.7787 25.7428C13.085 26.3345 13.4574 26.89 13.8889 27.3986L17.2149 24.1402C17.133 24.0733 17.039 23.9882 16.9396 23.9122C15.4965 22.7938 13.7616 22.1095 11.9399 21.9401C11.7106 21.9165 11.7037 22.0359 11.7213 22.1925C11.8479 23.4293 12.2068 24.6316 12.7795 25.7368L12.7787 25.7428Z" fill="#3A4B4C"/>
</svg>
