<svg width="42" height="42" viewBox="0 0 42 42" fill="none" xmlns="http://www.w3.org/2000/svg">
<path opacity="0.1" d="M29.9379 0H11.9752C5.36146 0 0 5.36146 0 11.9752V29.9379C0 36.5516 5.36146 41.913 11.9752 41.913H29.9379C36.5516 41.913 41.913 36.5516 41.913 29.9379V11.9752C41.913 5.36146 36.5516 0 29.9379 0Z" fill="#3A4B4C"/>
<path d="M23.894 32.6567H19.9181C19.7272 32.6604 19.5368 32.6363 19.353 32.5853C18.932 32.462 18.5603 32.2107 18.2903 31.8667C18.0203 31.5227 17.8654 31.1032 17.8475 30.6671C17.7901 30.046 17.6946 29.4279 17.6265 28.8083C17.6059 28.6281 17.4851 28.6342 17.3536 28.6342H12.1015C11.9019 28.6396 11.7025 28.6178 11.5089 28.5696C11.0722 28.4576 10.6861 28.2029 10.4127 27.8462C10.1393 27.4896 9.9946 27.0519 10.0018 26.6035C10.0018 23.2898 10.0018 19.9771 10.0018 16.6653C10.0018 15.1342 10.0018 13.603 10.0018 12.0718C9.99003 11.7986 10.0353 11.5259 10.1347 11.2709C10.2341 11.0159 10.3855 10.7842 10.5795 10.5903C10.7734 10.3964 11.0057 10.2445 11.2616 10.1442C11.5174 10.044 11.7914 9.99749 12.0663 10.0077C12.808 10.0077 13.5494 10.0077 14.2905 10.0077C15.7785 10.0123 17.2656 10.0146 18.7574 10.0009C19.3067 9.98506 19.84 10.1858 20.241 10.5594C20.6421 10.9329 20.8783 11.449 20.8983 11.995C20.9488 12.6162 21.0451 13.2335 21.1208 13.8531C21.1198 13.8791 21.1248 13.9049 21.1353 13.9286C21.1458 13.9524 21.1616 13.9734 21.1814 13.9903C21.2013 14.0071 21.2247 14.0192 21.25 14.0258C21.2752 14.0323 21.3016 14.0331 21.3272 14.028C21.393 14.0227 21.4603 14.028 21.5268 14.028H24.2236C26.3747 14.028 28.5258 14.028 30.6769 14.028C31.1705 14.0157 31.6513 14.1852 32.0267 14.5041C32.4022 14.823 32.6458 15.2686 32.7107 15.7553C32.725 15.856 32.7311 15.9577 32.7291 16.0594C32.7291 20.9104 32.7291 25.7616 32.7291 30.6131C32.7373 30.8824 32.6902 31.1505 32.5908 31.4011C32.4913 31.6518 32.3416 31.8796 32.1508 32.0708C31.9599 32.262 31.7319 32.4126 31.4806 32.5133C31.2293 32.614 30.96 32.6628 30.6891 32.6567C29.1263 32.6567 27.5631 32.6567 25.9998 32.6567H23.894ZM21.3395 15.5941C21.3953 15.9864 21.4442 16.3802 21.4924 16.7733C21.5903 17.5602 21.6858 18.347 21.786 19.1735C21.799 19.2609 21.8143 19.3476 21.825 19.435C21.9015 20.0759 21.9779 20.7175 22.0605 21.3584C22.1874 22.3635 22.3174 23.3678 22.4428 24.3729C22.5728 25.3993 22.6852 26.4256 22.8358 27.452C22.8864 27.6648 22.883 27.8868 22.826 28.0981C22.7691 28.3093 22.6602 28.5032 22.5093 28.6623C21.864 29.3465 21.2653 30.0802 20.6475 30.791C20.5145 30.9431 20.3845 31.1005 20.2522 31.2563C20.282 31.2777 20.316 31.2925 20.352 31.2997C20.388 31.307 20.4252 31.3064 20.4609 31.2981C23.8374 31.2981 27.214 31.2981 30.5905 31.2981C30.6983 31.311 30.8076 31.2988 30.9098 31.2625C31.0121 31.2263 31.1045 31.167 31.1798 31.0893C31.2551 31.0116 31.3113 30.9176 31.344 30.8147C31.3767 30.7117 31.3849 30.6027 31.3681 30.4961C31.3681 25.7252 31.3681 20.9542 31.3681 16.1833C31.3681 15.6238 31.1196 15.3813 30.5507 15.3805H21.5436C21.4182 15.3835 21.3112 15.3987 21.3395 15.5941ZM19.0066 28.8425C19.0709 29.2986 19.1183 29.7594 19.1817 30.2475C19.2865 30.3668 19.3201 30.23 19.3584 30.1874C19.7667 29.7229 20.1696 29.253 20.5726 28.7832C20.6024 28.7482 20.6544 28.7148 20.6207 28.6387C20.1383 28.6387 19.652 28.6387 19.168 28.6387H19.1634C19.0089 28.6372 18.9868 28.7034 19.0066 28.8425ZM12.1122 11.3693C12.0117 11.3593 11.9103 11.3716 11.8152 11.4052C11.7201 11.4388 11.6337 11.493 11.5622 11.5638C11.4907 11.6346 11.4359 11.7203 11.4017 11.8148C11.3674 11.9092 11.3547 12.0099 11.3644 12.1098C11.3644 16.9248 11.3644 21.7383 11.3644 26.5503C11.3535 26.6483 11.3647 26.7475 11.3972 26.8406C11.4296 26.9338 11.4826 27.0186 11.5522 27.0888C11.6217 27.1591 11.7062 27.213 11.7993 27.2468C11.8925 27.2805 11.992 27.2932 12.0907 27.2839C15.1191 27.2839 18.1475 27.2857 21.1758 27.2893C21.3762 27.2893 21.4182 27.2132 21.396 27.0399C21.2992 26.2903 21.2039 25.5407 21.1101 24.791C21.0114 24.0049 20.9159 23.2181 20.8149 22.3924C20.685 21.3805 20.5512 20.3693 20.425 19.3574C20.2721 18.1197 20.1237 16.8813 19.9708 15.6435C19.8263 14.4712 19.6772 13.2997 19.5312 12.1273C19.4669 11.6096 19.2314 11.3671 18.7597 11.3671H15.5055L12.1122 11.3693ZM28.1911 26.4583C27.7354 26.0954 27.2846 25.7264 26.8385 25.3514C26.7284 25.2586 26.6619 25.248 26.5442 25.3514C26.0938 25.7315 25.6335 26.1017 25.1717 26.4682C25.1033 26.5333 25.0222 26.5837 24.9334 26.6163C24.8445 26.6488 24.7499 26.6628 24.6554 26.6573C24.5608 26.6518 24.4685 26.627 24.3841 26.5843C24.2996 26.5417 24.225 26.4823 24.1647 26.4096C24.1039 26.3348 24.0594 26.2482 24.034 26.1553C24.0086 26.0625 24.003 25.9654 24.0173 25.8702C24.0317 25.7751 24.0658 25.684 24.1175 25.6026C24.1692 25.5213 24.2374 25.4515 24.3176 25.3977C24.7901 25.0222 25.2657 24.6512 25.7222 24.2399C25.5249 23.9441 25.3063 23.6773 25.1189 23.3868C24.7577 22.8213 24.4658 22.2149 24.2496 21.5804C24.1983 21.4284 24.141 21.3524 23.9621 21.3448C23.7896 21.3288 23.6298 21.2479 23.5155 21.1186C23.4011 20.9893 23.3408 20.8214 23.347 20.6493C23.3531 20.4772 23.4253 20.314 23.5486 20.1931C23.6719 20.0722 23.8371 20.0028 24.0102 19.9991C24.5936 19.993 25.1778 19.99 25.7612 19.9991C25.9585 19.9991 26.0281 19.9352 26.0112 19.7436C26.0031 19.6039 26.0031 19.4638 26.0112 19.324C26.0178 19.1485 26.0927 18.9825 26.2201 18.861C26.3475 18.7394 26.5174 18.6718 26.6939 18.6725C26.8705 18.6732 27.0399 18.7421 27.1663 18.8647C27.2927 18.9872 27.3663 19.1538 27.3715 19.3293C27.3545 19.5391 27.3671 19.7502 27.4089 19.9565C27.4784 19.9904 27.5562 20.0036 27.633 19.9945H28.2875C28.6484 19.9945 29.0085 19.9945 29.3694 19.9991C29.5423 20.0031 29.707 20.0726 29.83 20.1935C29.9529 20.3144 30.0248 20.4775 30.0307 20.6493C30.0367 20.8211 29.9763 20.9887 29.8621 21.1177C29.7478 21.2467 29.5882 21.3274 29.416 21.3432C29.3511 21.3391 29.2868 21.3585 29.2352 21.3979C29.1835 21.4374 29.1481 21.4941 29.1354 21.5576C28.8427 22.4554 28.3903 23.2935 27.7997 24.0323C27.6766 24.1844 27.6788 24.2809 27.8379 24.4048C28.2447 24.7226 28.6384 25.0571 29.0414 25.3795C29.1242 25.4322 29.1951 25.5015 29.2495 25.5829C29.3039 25.6643 29.3407 25.7561 29.3574 25.8525C29.3742 25.9488 29.3706 26.0476 29.3468 26.1425C29.3231 26.2373 29.2797 26.3263 29.2195 26.4036C29.1588 26.4818 29.0809 26.5452 28.9917 26.5889C28.9025 26.6325 28.8044 26.6552 28.705 26.6552C28.516 26.6501 28.3346 26.5806 28.1911 26.4583ZM26.6703 23.174C26.782 23.1261 26.8141 23.047 26.8844 22.9611C27.241 22.4752 27.5244 21.9402 27.7255 21.3729H25.6381C25.8825 22.0246 26.231 22.6327 26.6703 23.174ZM17.7473 22.606C17.6458 22.5592 17.5576 22.4879 17.4908 22.3985C17.424 22.3092 17.3808 22.2046 17.365 22.0944C17.2435 21.4976 17.1181 20.9015 17.0087 20.3024C16.9705 20.0941 16.8917 20.0059 16.6631 20.0181C16.3863 20.0333 16.1088 20.0295 15.8312 20.0265C15.7096 20.0265 15.5881 20.0265 15.4665 20.0265C15.1408 20.0265 15.1454 20.0265 15.0842 20.3374C14.971 20.9137 14.8548 21.4892 14.734 22.0632C14.7238 22.1811 14.6827 22.2942 14.6149 22.3914C14.5471 22.4886 14.4548 22.5665 14.3474 22.6173C14.24 22.6681 14.121 22.69 14.0024 22.681C13.8838 22.672 13.7696 22.6322 13.6712 22.5657C13.5508 22.4801 13.4596 22.36 13.4099 22.2214C13.3601 22.0828 13.3542 21.9323 13.3929 21.7903C13.8114 19.7122 14.2296 17.6342 14.6476 15.5561C14.6705 15.4413 14.6858 15.3235 14.7202 15.2117C14.7558 15.0545 14.8473 14.9154 14.9777 14.8198C15.1082 14.7243 15.269 14.6788 15.4306 14.6917C15.8384 14.6917 16.2444 14.6917 16.6486 14.6917C16.7379 14.6821 16.8282 14.6904 16.9143 14.7159C17.0003 14.7414 17.0804 14.7837 17.1499 14.8403C17.2194 14.8969 17.2768 14.9667 17.3188 15.0456C17.3609 15.1245 17.3867 15.211 17.3948 15.2999C17.6502 16.5353 17.8972 17.7723 18.1465 19.0092C18.3335 19.9368 18.5198 20.8643 18.7054 21.7918C18.7442 21.9234 18.7431 22.0635 18.7023 22.1945C18.6615 22.3255 18.5828 22.4417 18.476 22.5285C18.3598 22.6259 18.2128 22.6797 18.0608 22.6805C17.9511 22.6789 17.8431 22.6535 17.7443 22.606H17.7473ZM15.9199 16.216C15.8763 16.4388 15.8312 16.6615 15.7762 16.9208C15.6722 17.4385 15.5728 17.957 15.4611 18.4732C15.4267 18.6321 15.4849 18.6724 15.6278 18.6679C15.7899 18.6633 15.9528 18.6679 16.1149 18.6679C16.6662 18.6679 16.6708 18.6679 16.5652 18.1304C16.4398 17.4895 16.306 16.8508 16.1768 16.2115C16.1623 16.1392 16.1585 16.0594 16.0575 16.0533H16.0468C15.9406 16.0526 15.9352 16.1377 15.9199 16.216Z" fill="#3A4B4C"/>
</svg>
