<svg width="23" height="26" viewBox="0 0 23 26" fill="none" xmlns="http://www.w3.org/2000/svg">
<path fill-rule="evenodd" clip-rule="evenodd" d="M10.4834 1.00963C7.99602 1.24135 5.66667 2.33113 3.89473 4.09215C2.1228 5.85317 1.01864 8.17573 0.771543 10.6617C0.524451 13.1476 1.14982 15.6421 2.54043 17.7174C3.93105 19.7928 6.0003 21.3198 8.39343 22.0366L9.20643 22.2826L10.1954 23.6096C10.7394 24.3386 11.2484 25.0146 11.3264 25.1096L11.4684 25.2846L11.5684 25.1596C11.6244 25.0906 12.1424 24.4106 12.7204 23.6476C13.7024 22.3526 13.7874 22.2566 14.0124 22.1986C15.8183 21.7611 17.4803 20.864 18.8371 19.5945C20.1939 18.3249 21.1993 16.7261 21.7557 14.9533C22.3122 13.1804 22.4007 11.2938 22.0127 9.4767C21.6247 7.65955 20.7734 5.97362 19.5414 4.58263C18.4067 3.33155 16.9991 2.35858 15.4278 1.73913C13.8565 1.11969 12.1636 0.870414 10.4804 1.01063M12.8144 3.97163C19.1754 4.93363 21.5424 13.3506 16.6324 17.5486C15.6395 18.4181 14.4425 19.022 13.1532 19.3038C11.8638 19.5857 10.524 19.5364 9.25884 19.1604C7.99368 18.7845 6.84436 18.0943 5.91808 17.1541C4.99181 16.2139 4.31878 15.0544 3.96177 13.7837C3.60476 12.5131 3.57542 11.1728 3.87647 9.88773C4.17752 8.60269 4.79916 7.41485 5.68339 6.43502C6.56763 5.45518 7.68564 4.71528 8.93313 4.28435C10.1806 3.85341 11.517 3.74548 12.8174 3.97062M10.9074 5.23663C9.56792 5.35608 8.29889 5.88992 7.27678 6.76392C6.25467 7.63791 5.53026 8.80865 5.20425 10.1134C4.87824 11.4181 4.96683 12.792 5.4577 14.044C5.94858 15.2961 6.81735 16.3641 7.94325 17.0996C9.06914 17.835 10.3962 18.2015 11.74 18.1479C13.0837 18.0943 14.3774 17.6234 15.4412 16.8007C16.505 15.9779 17.286 14.8441 17.6757 13.557C18.0653 12.2698 18.0443 10.8933 17.6154 9.61863C17.1503 8.24206 16.2361 7.06171 15.0196 6.26705C13.8031 5.47238 12.3549 5.10949 10.9074 5.23663Z" fill="#A4A4A4"/>
</svg>
