<svg width="20" height="20" viewBox="0 0 20 20" fill="none" xmlns="http://www.w3.org/2000/svg">
<path d="M4.62543 19.2227C4.40835 19.2238 4.19339 19.18 3.99408 19.094C3.79478 19.0079 3.61546 18.8814 3.46743 18.7227C3.32009 18.5619 3.20651 18.3732 3.13343 18.1677C3.06129 17.9625 3.03202 17.7447 3.04743 17.5277L3.37443 12.5757L0.35143 8.79077C0.18441 8.58514 0.0722453 8.34046 0.0254264 8.07971C-0.0218786 7.81821 -0.0029703 7.54907 0.0804267 7.29675C0.162522 7.04332 0.308556 6.81533 0.50443 6.63477C0.697072 6.4514 0.934215 6.32138 1.19243 6.25769L5.70743 5.07666L8.18242 0.907715C8.33492 0.685185 8.53819 0.502085 8.77543 0.373657C9.01411 0.247556 9.27998 0.181641 9.54993 0.181641C9.81988 0.181641 10.0858 0.247556 10.3244 0.373657C10.5619 0.5018 10.7652 0.684955 10.9174 0.907715L13.3854 5.07666L17.9034 6.26477C18.1613 6.32867 18.398 6.45855 18.5904 6.64172C18.7841 6.82113 18.9296 7.0464 19.0134 7.29675C19.0969 7.549 19.1168 7.81792 19.0714 8.07971C19.0257 8.34247 18.915 8.58962 18.7494 8.79871L15.7294 12.5767L16.0564 17.5287C16.0724 17.7457 16.0433 17.9638 15.971 18.1691C15.8986 18.3743 15.7845 18.5624 15.6359 18.7214C15.4873 18.8805 15.3074 19.007 15.1075 19.0931C14.9076 19.1792 14.6921 19.223 14.4744 19.2217H14.4444C14.2385 19.2208 14.0346 19.1797 13.8444 19.1007L9.54442 17.2727H9.53843L5.24643 19.0938C5.05031 19.1784 4.83903 19.2222 4.62543 19.2227Z" fill="#FCA800"/>
</svg>
