<svg width="87" height="87" viewBox="0 0 87 87" fill="none" xmlns="http://www.w3.org/2000/svg">
<rect x="0.128906" width="86.5067" height="86.5067" rx="25.952" fill="url(#paint0_linear_1080_10026)"/>
<path d="M18.1523 68.4842L21.8448 55.0523C18.9862 50.1121 17.8447 44.3711 18.5973 38.7194C19.3499 33.0677 21.9546 27.821 26.0075 23.7928C30.0604 19.7645 35.3352 17.1798 41.0141 16.4392C46.6929 15.6987 52.4585 16.8437 57.4171 19.6968C62.3756 22.55 66.2501 26.9517 68.4398 32.2198C70.6295 37.4878 71.0121 43.3278 69.5283 48.8342C68.0445 54.3407 64.7771 59.2061 60.2328 62.6761C55.6885 66.1461 50.1211 68.0269 44.3937 68.0268H44.3846C40.0402 68.0235 35.7654 66.9397 31.9486 64.8739L18.1523 68.4842ZM32.5868 60.1927L33.3764 60.6592C37.931 63.3429 43.3159 64.2714 48.512 63.269C53.708 62.2667 58.3547 59.403 61.5724 55.2199C64.7902 51.0369 66.3558 45.8248 65.9729 40.5701C65.59 35.3154 63.2853 30.3827 59.4948 26.7056C55.7044 23.0286 50.6912 20.8623 45.4043 20.6167C40.1173 20.3712 34.9233 22.0635 30.8054 25.3733C26.6875 28.6831 23.9314 33.3807 23.0587 38.5771C22.186 43.7735 23.2573 49.1081 26.0698 53.5712L26.5858 54.3844L24.3977 62.3309L32.5832 60.1927H32.5868ZM51.1569 54.5659C50.3033 54.5704 49.4542 54.4418 48.6406 54.1847C47.3815 53.7959 46.1441 53.3409 44.9335 52.8215C40.4823 50.6395 36.6902 47.3243 33.9417 43.2123L33.8341 43.0544C32.2965 41.1355 31.3695 38.8033 31.1718 36.3566C31.1484 35.3797 31.3268 34.4084 31.696 33.5029C32.0652 32.5975 32.6173 31.7771 33.318 31.0928L33.4457 30.9549C33.6623 30.7073 33.9284 30.5074 34.2269 30.368C34.5255 30.2286 34.8501 30.1528 35.1798 30.1453C35.5974 30.1453 36.0386 30.1453 36.4252 30.1689H36.6313C37.0324 30.1689 37.4591 30.2542 37.8895 31.278C38.0718 31.6936 38.3143 32.3035 38.5824 32.9515V32.9696C39.1422 34.3273 39.7767 35.8647 39.8861 36.0844C39.9901 36.2537 40.0496 36.4464 40.0591 36.6446C40.0687 36.8429 40.028 37.0403 39.9408 37.2188L39.8515 37.4003C39.7103 37.7284 39.5217 38.0341 39.2917 38.3079C39.1823 38.435 39.0692 38.5711 38.9562 38.709C38.7374 38.9759 38.5113 39.2536 38.3161 39.4351C38.0025 39.7473 37.6469 40.1012 38.0299 40.7565C39.0054 42.4215 40.2247 43.9325 41.6476 45.2398C43.0658 46.5093 44.6898 47.5306 46.4506 48.2602C46.6329 48.3382 46.7715 48.3981 46.8773 48.4508C47.0937 48.574 47.3359 48.6454 47.5848 48.6595C47.7214 48.6551 47.8552 48.6202 47.9764 48.5573C48.0976 48.4945 48.2031 48.4053 48.285 48.2965C48.584 47.9552 49.8915 46.4342 50.3437 45.7553C50.4161 45.6133 50.5252 45.493 50.6598 45.4069C50.7944 45.3207 50.9497 45.2718 51.1095 45.2652C51.3501 45.2815 51.5862 45.338 51.8079 45.4322C52.3932 45.6464 55.5077 47.1675 56.2499 47.5377L56.6146 47.7193C56.9558 47.8336 57.2617 48.0337 57.5026 48.3001C57.6824 49.3434 57.5505 50.4164 57.1233 51.3858C56.6463 52.175 56.0096 52.8569 55.2537 53.3881C54.4978 53.9193 53.6392 54.2882 52.7324 54.4715C52.2105 54.5437 51.6839 54.5771 51.1569 54.5713V54.5659Z" fill="#FDFDFD"/>
<defs>
<linearGradient id="paint0_linear_1080_10026" x1="81.2289" y1="10.8133" x2="0.128904" y2="86.5067" gradientUnits="userSpaceOnUse">
<stop stop-color="#5BD066"/>
<stop offset="1" stop-color="#27B43E"/>
</linearGradient>
</defs>
</svg>
