<svg width="20" height="20" viewBox="0 0 20 20" fill="none" xmlns="http://www.w3.org/2000/svg">
<path opacity="0.964" fill-rule="evenodd" clip-rule="evenodd" d="M16.8164 1.03492C16.9969 1.0151 17.1662 1.04766 17.3242 1.13258C17.9688 1.77711 18.6133 2.42164 19.2578 3.06617C19.3686 3.25535 19.3816 3.45067 19.2969 3.65211C17.3763 5.57269 15.4558 7.49324 13.5352 9.41383C13.4732 9.4475 13.4081 9.47355 13.3399 9.49195C12.6497 9.51801 11.9597 9.51801 11.2695 9.49195C11.0677 9.44637 10.944 9.3227 10.8984 9.12086C10.8724 8.43074 10.8724 7.74066 10.8984 7.05055C10.9168 6.98234 10.9429 6.91723 10.9766 6.85523C12.9191 4.90621 14.8657 2.9661 16.8164 1.03492ZM16.9727 2.2068C17.3815 2.59603 17.7851 2.99317 18.1836 3.3982C16.4779 5.10394 14.7722 6.80965 13.0664 8.51539C12.663 8.53492 12.2593 8.54141 11.8555 8.53492C11.849 8.13105 11.8555 7.72742 11.875 7.32398C13.5821 5.6234 15.2813 3.91769 16.9727 2.2068Z" fill="black"/>
<path opacity="0.957" fill-rule="evenodd" clip-rule="evenodd" d="M2.55851 2.91065C5.55332 2.90413 8.54812 2.91065 11.5429 2.93018C11.8505 3.08843 11.9351 3.32931 11.7968 3.65283C11.7148 3.76872 11.6041 3.84034 11.4648 3.86768C8.53507 3.8807 5.60539 3.89372 2.6757 3.90674C2.14316 4.04857 1.78508 4.38061 1.60148 4.90283C1.53708 7.88342 1.52406 10.8652 1.56242 13.8481C1.68612 14.5447 2.09627 14.9549 2.79289 15.0786C4.45957 15.0916 6.12621 15.1047 7.79289 15.1177C7.94261 15.1633 8.04027 15.2609 8.08586 15.4106C8.09886 16.0747 8.11191 16.7388 8.12492 17.4028C9.14355 16.6363 10.1657 15.8746 11.1913 15.1177C12.871 15.1047 14.5507 15.0916 16.2304 15.0786C16.8544 14.9494 17.2516 14.5783 17.4218 13.9653C17.4348 11.6606 17.4478 9.35596 17.4609 7.05127C17.6117 6.65041 17.8786 6.55275 18.2616 6.7583C18.3218 6.81998 18.3674 6.89162 18.3984 6.97315C18.4244 9.34295 18.4244 11.7127 18.3984 14.0825C18.1394 15.227 17.4297 15.8845 16.2694 16.0552C14.6809 16.0682 13.0924 16.0812 11.5038 16.0942C10.3319 16.9797 9.16007 17.8651 7.9882 18.7505C7.77343 18.9083 7.55207 18.9213 7.32414 18.7896C7.23062 18.7133 7.17203 18.6156 7.14836 18.4966C7.12882 17.6894 7.1223 16.8821 7.12882 16.0747C5.56527 16.0924 4.00277 16.0728 2.44132 16.0161C1.64782 15.8083 1.08141 15.3331 0.742105 14.5903C0.653008 14.3642 0.600926 14.1298 0.585855 13.8872C0.547605 10.8523 0.560625 7.81846 0.624918 4.78565C0.893644 3.76816 1.53818 3.14316 2.55851 2.91065Z" fill="black"/>
<path opacity="0.952" fill-rule="evenodd" clip-rule="evenodd" d="M3.69092 5.72315C5.37064 5.71663 7.05033 5.72315 8.72998 5.74268C9.03756 5.90092 9.12221 6.14182 8.98389 6.46534C8.90185 6.58124 8.79115 6.65284 8.65185 6.68018C7.02424 6.70624 5.39666 6.70624 3.76904 6.68018C3.40287 6.53245 3.30521 6.27854 3.47607 5.91846C3.54364 5.84417 3.61525 5.77905 3.69092 5.72315Z" fill="black"/>
<path opacity="0.952" fill-rule="evenodd" clip-rule="evenodd" d="M3.69092 8.53565C5.37064 8.52913 7.05033 8.53565 8.72998 8.55518C9.03756 8.71342 9.12221 8.95432 8.98389 9.27784C8.90185 9.39374 8.79115 9.46534 8.65185 9.49268C7.02424 9.51874 5.39666 9.51874 3.76904 9.49268C3.40287 9.34495 3.30521 9.09104 3.47607 8.73096C3.54364 8.65667 3.61525 8.59155 3.69092 8.53565Z" fill="black"/>
<path opacity="0.957" fill-rule="evenodd" clip-rule="evenodd" d="M3.69092 11.3482C7.55814 11.3416 11.4253 11.3482 15.2925 11.3677C15.6001 11.5259 15.6847 11.7668 15.5464 12.0903C15.4644 12.2062 15.3537 12.2778 15.2144 12.3052C11.3992 12.3312 7.58416 12.3312 3.76904 12.3052C3.40287 12.1574 3.30521 11.9035 3.47607 11.5435C3.54364 11.4692 3.61525 11.404 3.69092 11.3482Z" fill="black"/>
</svg>
