<svg width="20" height="20" viewBox="0 0 20 20" fill="none" xmlns="http://www.w3.org/2000/svg">
<path d="M10.4386 17.5371C6.89892 17.5371 4 14.8107 4 11.4815C4 9.09951 5.31214 7.03317 7.41767 6.0287C7.44818 6.0287 7.4787 6 7.50921 6C7.53973 6 7.53973 6 7.57024 6C7.63127 6.0287 7.66179 6.0574 7.6923 6.1148C7.72282 6.17219 7.72282 6.22959 7.6923 6.25829C7.66179 6.31569 7.63127 6.34439 7.57024 6.37309C5.61729 7.29146 4.39669 9.24301 4.39669 11.4528C4.39669 14.5811 7.08201 17.1066 10.4081 17.1066C13.7343 17.1066 16.4196 14.5811 16.4196 11.4528C16.4196 9.24301 15.199 7.32016 13.2765 6.37309C13.185 6.31569 13.124 6.20089 13.185 6.1148C13.246 6.0287 13.3681 5.9713 13.4596 6.0287C15.5346 7.03317 16.8468 9.09951 16.8468 11.4528C16.8773 14.8394 13.9784 17.5371 10.4386 17.5371Z" fill="black" stroke="black" stroke-miterlimit="10"/>
<rect x="10" y="3" width="1" height="6" rx="0.5" fill="black"/>
</svg>
