<svg width="23" height="21" viewBox="0 0 23 21" fill="none" xmlns="http://www.w3.org/2000/svg">
<path fill-rule="evenodd" clip-rule="evenodd" d="M2.11941 0.0575324C1.53298 0.247143 1.04509 0.660544 0.761782 1.20788C0.47847 1.75522 0.422632 2.39225 0.606405 2.98053C0.760405 3.48853 0.716407 3.43653 4.86041 7.99053L8.67341 12.1815V16.2225C8.67341 20.1635 8.6734 20.2665 8.77341 20.4285C8.90167 20.6137 9.09604 20.7426 9.31648 20.7887C9.53692 20.8348 9.76667 20.7947 9.95841 20.6765C10.5074 20.3045 14.2394 17.2585 14.3064 17.1285C14.4266 16.2844 14.4534 15.4296 14.3864 14.5795V12.1795L18.2004 7.99053C22.3424 3.43653 22.3004 3.49053 22.4534 2.98053C22.6204 2.44545 22.5894 1.86816 22.3659 1.35408C22.1425 0.840004 21.7416 0.423462 21.2364 0.180533L20.8894 0.0165358L11.6074 0.00653369C4.2074 -0.00146631 2.28341 0.00653345 2.12041 0.0625334" fill="black"/>
</svg>
