<svg width="27" height="31" viewBox="0 0 27 31" fill="none" xmlns="http://www.w3.org/2000/svg">
<path d="M13.4431 4.2793C11.5828 4.2793 9.76423 4.83095 8.21742 5.86449C6.67061 6.89804 5.46502 8.36706 4.7531 10.0858C4.04118 11.8045 3.85491 13.6957 4.21785 15.5203C4.58078 17.3449 5.47661 19.0209 6.79207 20.3363C8.10752 21.6518 9.78351 22.5476 11.6081 22.9106C13.4327 23.2735 15.3239 23.0872 17.0426 22.3753C18.7614 21.6634 20.2304 20.4578 21.2639 18.911C22.2975 17.3642 22.8491 15.5456 22.8491 13.6853C22.8491 12.4501 22.6058 11.227 22.1331 10.0858C21.6604 8.94459 20.9676 7.90768 20.0942 7.03425C19.2207 6.16082 18.1838 5.46798 17.0426 4.99529C15.9014 4.52259 14.6783 4.2793 13.4431 4.2793ZM13.4431 21.3913C11.919 21.3913 10.4291 20.9393 9.16189 20.0926C7.89465 19.2459 6.90695 18.0423 6.3237 16.6343C5.74045 15.2262 5.58785 13.6767 5.88518 12.1819C6.18252 10.6871 6.91645 9.31404 7.99415 8.23633C9.07186 7.15863 10.4449 6.4247 11.9397 6.12737C13.4346 5.83003 14.984 5.98263 16.3921 6.56588C17.8002 7.14913 19.0037 8.13683 19.8504 9.40408C20.6972 10.6713 21.1491 12.1612 21.1491 13.6853C21.1491 14.6973 20.9498 15.6993 20.5625 16.6343C20.1753 17.5692 19.6076 18.4187 18.8921 19.1343C18.1765 19.8498 17.327 20.4174 16.3921 20.8047C15.4571 21.192 14.4551 21.3913 13.4431 21.3913Z" fill="black"/>
<path d="M22.9481 4.23957C21.471 2.76265 19.6701 1.65026 17.6882 0.990638C15.7063 0.331014 13.598 0.142307 11.5304 0.439487C9.46288 0.736667 7.49303 1.51156 5.77715 2.70269C4.06127 3.89381 2.64656 5.46841 1.64526 7.30156C0.643953 9.1347 0.0836017 11.176 0.00865665 13.2634C-0.0662884 15.3508 0.346235 17.427 1.2135 19.3273C2.08077 21.2275 3.37891 22.8995 5.00496 24.2106C6.631 25.5217 8.5402 26.4359 10.5811 26.8806L13.4451 30.6956L16.3091 26.8796C18.6669 26.365 20.8428 25.2253 22.6082 23.5799C24.3737 21.9345 25.6636 19.8442 26.3427 17.5284C27.0218 15.2126 27.065 12.7567 26.4677 10.4185C25.8704 8.08028 24.6547 5.94595 22.9481 4.23957ZM15.6281 25.1966L15.2871 25.2606L13.4411 27.7216L11.5951 25.2596L11.2551 25.1956C8.40468 24.6516 5.85961 23.064 4.11742 20.7433C2.37523 18.4226 1.56118 15.5356 1.83439 12.6466C2.10761 9.75765 3.44846 7.07441 5.59482 5.12146C7.74117 3.16851 10.5387 2.08626 13.4406 2.08626C16.3425 2.08626 19.14 3.16851 21.2864 5.12146C23.4328 7.07441 24.7736 9.75765 25.0468 12.6466C25.32 15.5356 24.506 18.4226 22.7638 20.7433C21.0216 23.064 18.4765 24.6516 15.6261 25.1956L15.6281 25.1966Z" fill="black"/>
</svg>
