<svg width="25" height="25" viewBox="0 0 25 25" fill="none" xmlns="http://www.w3.org/2000/svg">
<path d="M0.497811 23.0117C0.497811 17.5217 0.497811 12.0316 0.497811 6.51165C0.497811 5.91165 0.497811 5.33965 0.497811 4.76865C0.48557 4.56865 0.539034 4.37012 0.650058 4.20332C0.761083 4.03651 0.923583 3.91056 1.11281 3.84465C3.32881 2.96865 5.54581 2.09532 7.76381 1.22465C7.79781 1.21165 7.83581 1.20465 7.89781 1.18765V1.50765C7.89781 8.11098 7.90014 14.7146 7.90481 21.3186C7.91947 21.4193 7.89527 21.5217 7.83713 21.6051C7.77899 21.6885 7.69127 21.7466 7.59181 21.7676C5.69181 22.5036 3.80081 23.2577 1.90481 24.0016C1.73818 24.0707 1.56013 24.108 1.37981 24.1117C0.844811 24.1117 0.497811 23.7066 0.497811 23.0117ZM17.1578 23.5236C17.1578 16.899 17.1561 10.2743 17.1528 3.64965C17.1372 3.56257 17.1553 3.47282 17.2034 3.39857C17.2515 3.32431 17.326 3.27108 17.4118 3.24965C19.3278 2.50765 21.2388 1.74765 23.1528 0.994649C23.3073 0.904175 23.4843 0.859496 23.6632 0.865824C23.8422 0.872152 24.0156 0.929227 24.1633 1.03039C24.311 1.13155 24.4269 1.27263 24.4975 1.43716C24.568 1.6017 24.5903 1.78291 24.5618 1.95965C24.5618 8.01298 24.5618 14.0663 24.5618 20.1196C24.5955 20.3581 24.5397 20.6005 24.4053 20.8003C24.2709 21 24.0673 21.143 23.8338 21.2016C22.5028 21.7296 21.1698 22.2526 19.8168 22.7836C18.9288 23.1306 18.0628 23.4716 17.1578 23.8277V23.5236ZM13.6088 23.1566C12.4088 22.6846 11.2148 22.2086 10.0088 21.7466C9.92329 21.7267 9.84842 21.6753 9.79911 21.6027C9.74981 21.53 9.72971 21.4415 9.74281 21.3546C9.75081 16.3976 9.74881 11.4406 9.74881 6.45465V1.17065L11.7818 1.97065C12.8818 2.40332 13.9818 2.83432 15.0818 3.26365C15.1506 3.27747 15.2118 3.31654 15.2532 3.37317C15.2947 3.42979 15.3134 3.49988 15.3058 3.56965C15.2998 10.279 15.2981 16.9883 15.3008 23.6976C15.3008 23.7266 15.2958 23.7547 15.2898 23.8186L13.6088 23.1566Z" fill="white"/>
</svg>
