<svg width="13" height="8" viewBox="0 0 13 8" fill="none" xmlns="http://www.w3.org/2000/svg">
<path d="M6.40158 6.77914C6.34632 6.7221 6.29951 6.65744 6.26258 6.58714L1.21858 1.40414C1.06831 1.24785 0.984375 1.03945 0.984375 0.822639C0.984375 0.605825 1.06831 0.39743 1.21858 0.241139C1.29192 0.164889 1.37989 0.104228 1.47724 0.0627929C1.57458 0.0213576 1.67928 0 1.78508 0C1.89087 0 1.99558 0.0213576 2.09292 0.0627929C2.19026 0.104228 2.27824 0.164889 2.35158 0.241139L4.48458 2.43414L6.99258 5.01014L10.5846 1.32114L11.6336 0.245139C11.707 0.169014 11.795 0.108466 11.8923 0.0671111C11.9897 0.0257558 12.0943 0.00444158 12.2001 0.00444158C12.3058 0.00444158 12.4105 0.0257558 12.5078 0.0671111C12.6052 0.108466 12.6932 0.169014 12.7666 0.245139C12.9168 0.40143 13.0008 0.609825 13.0008 0.826639C13.0008 1.04345 12.9168 1.25185 12.7666 1.40814L7.72258 6.58714C7.68573 6.6575 7.63891 6.72216 7.58358 6.77914C7.50744 6.85818 7.41563 6.92045 7.31403 6.96195C7.21243 7.00345 7.10328 7.02327 6.99358 7.02014H6.96858C6.86274 7.02005 6.75799 6.99867 6.66058 6.95727C6.56317 6.91587 6.47509 6.85529 6.40158 6.77914Z" fill="black"/>
</svg>
