<svg width="31" height="30" viewBox="0 0 31 30" fill="none" xmlns="http://www.w3.org/2000/svg">
<path d="M5.24723 25.5569C3.894 24.212 2.81949 22.6132 2.08531 20.8522C1.35113 19.0912 0.971696 17.2026 0.968767 15.2947C0.965838 13.3868 1.33947 11.4971 2.06824 9.73384C2.79701 7.97059 3.8666 6.36851 5.2157 5.01941C6.5648 3.67031 8.16688 2.60073 9.93012 1.87195C11.6934 1.14318 13.5831 0.769549 15.491 0.772478C17.3989 0.775407 19.2875 1.15484 21.0485 1.88902C22.8095 2.6232 24.4083 3.69771 25.7532 5.05094C27.1065 6.39589 28.181 7.99468 28.9152 9.75568C29.6493 11.5167 30.0288 13.4052 30.0317 15.3132C30.0346 17.2211 29.661 19.1108 28.9322 20.874C28.2034 22.6373 27.1339 24.2394 25.7848 25.5885C24.4357 26.9376 22.8336 28.0072 21.0703 28.7359C19.3071 29.4647 17.4174 29.8383 15.5094 29.8354C13.6015 29.8325 11.713 29.453 9.95197 28.7189C8.19097 27.9847 6.59218 26.9102 5.24723 25.5569ZM2.50023 15.3039C2.50023 17.8751 3.26267 20.3885 4.69113 22.5264C6.11958 24.6642 8.14991 26.3304 10.5253 27.3144C12.9008 28.2983 15.5147 28.5558 18.0364 28.0541C20.5582 27.5525 22.8745 26.3144 24.6926 24.4963C26.5107 22.6782 27.7488 20.3619 28.2504 17.8401C28.752 15.3184 28.4946 12.7045 27.5107 10.3291C26.5267 7.95362 24.8605 5.92329 22.7226 4.49484C20.5848 3.06638 18.0714 2.30394 15.5002 2.30394C12.0538 2.30844 8.74981 3.67952 6.31281 6.11652C3.87581 8.55352 2.50473 11.8575 2.50023 15.3039ZM19.8652 22.6239C19.6142 22.5519 15.4882 18.8849 13.9782 17.3919L12.9902 16.4099V12.3149C12.9902 8.37894 12.9902 8.37894 13.6582 8.09594L13.7072 8.07494C13.8759 7.98967 14.0641 7.95058 14.2527 7.96164C14.4414 7.97271 14.6237 8.03354 14.7812 8.13794L14.7942 8.14694C15.3292 8.46094 15.3292 8.46094 15.3602 12.1549V12.2449L15.3922 15.7599L18.2922 18.4109C19.8922 19.8719 21.2422 21.1719 21.2992 21.3109C21.3411 21.4932 21.3329 21.6834 21.2755 21.8614C21.2181 22.0393 21.1137 22.1985 20.9732 22.3219C20.7351 22.5339 20.427 22.6504 20.1082 22.6489C20.026 22.648 19.944 22.6396 19.8632 22.6239H19.8652Z" fill="black"/>
</svg>
