<svg width="29" height="28" viewBox="0 0 29 28" fill="none" xmlns="http://www.w3.org/2000/svg">
<path d="M25.978 7.44137L22.578 5.93038L21.069 2.53438L17.369 2.92037L14.365 0.734375L11.355 2.91537L7.66403 2.53438L6.15303 5.93437L2.75403 7.43437L3.14103 11.1344L0.957031 14.1444L3.13803 17.1544L2.75103 20.8454L6.15103 22.3564L7.66403 25.7564L11.364 25.3704L14.371 27.5514L17.381 25.3704L21.072 25.7564L22.583 22.3564L25.983 20.8444L25.596 17.1444L27.778 14.1374L25.588 11.1344L25.978 7.44137ZM11.678 19.5094L7.88303 15.7174L9.14803 14.4574L11.681 16.9824L19.262 9.39437L20.527 10.6584L11.678 19.5094Z" fill="#4AEAB1"/>
<path d="M28.135 13.8833L26.053 11.0123L26.423 7.48926C26.4328 7.39536 26.4127 7.30076 26.3654 7.21902C26.3182 7.13729 26.2463 7.07261 26.16 7.03426L22.92 5.58926L21.479 2.34926C21.4404 2.26318 21.3757 2.19144 21.294 2.14423C21.2123 2.09702 21.1179 2.07674 21.024 2.08626L17.501 2.45526L14.627 0.374258C14.5507 0.318883 14.4588 0.289062 14.3645 0.289062C14.2702 0.289062 14.1783 0.318883 14.102 0.374258L11.231 2.45526L7.70101 2.08926C7.60724 2.08035 7.51302 2.10089 7.43147 2.14803C7.34992 2.19517 7.28509 2.26656 7.24601 2.35226L5.80801 5.58926L2.56901 7.03126C2.48274 7.06961 2.41082 7.13429 2.36358 7.21602C2.31633 7.29776 2.29618 7.39236 2.30601 7.48626L2.67401 11.0123L0.593008 13.8833C0.537633 13.9596 0.507812 14.0515 0.507812 14.1458C0.507812 14.2401 0.537633 14.3319 0.593008 14.4083L2.67401 17.2793L2.30601 20.8053C2.29618 20.8992 2.31633 20.9938 2.36358 21.0755C2.41082 21.1572 2.48274 21.2219 2.56901 21.2603L5.80901 22.7013L7.25001 25.9413C7.28897 26.0271 7.35378 26.0985 7.43536 26.1457C7.51694 26.1928 7.61122 26.2133 7.70501 26.2043L11.231 25.8353L14.101 27.9163C14.1773 27.9716 14.2692 28.0015 14.3635 28.0015C14.4578 28.0015 14.5497 27.9716 14.626 27.9163L17.501 25.8353L21.027 26.2043C21.1209 26.2138 21.2153 26.1935 21.297 26.1463C21.3787 26.0991 21.4434 26.0273 21.482 25.9413L22.923 22.7013L26.162 21.2593C26.2483 21.2209 26.3202 21.1562 26.3674 21.0745C26.4147 20.9928 26.4348 20.8982 26.425 20.8043L26.056 17.2783L28.137 14.4073C28.1924 14.3309 28.2222 14.2391 28.2222 14.1448C28.2222 14.0505 28.1924 13.9586 28.137 13.8823L28.135 13.8833ZM25.23 16.8893C25.1651 16.9784 25.1355 17.0885 25.147 17.1983L25.501 20.5753L22.401 21.9553C22.2997 22 22.2187 22.0809 22.174 22.1823L20.799 25.2823L17.425 24.9303C17.3156 24.919 17.2059 24.9486 17.117 25.0133L14.37 27.0033L11.62 25.0133C11.544 24.9577 11.4522 24.928 11.358 24.9283C11.343 24.9271 11.328 24.9271 11.313 24.9283L7.93901 25.2803L6.56101 22.1793C6.51606 22.0781 6.43517 21.9972 6.33401 21.9523L3.22901 20.5753L3.58101 17.2013C3.59394 17.0909 3.56543 16.9797 3.50101 16.8893L1.51101 14.1393L3.50101 11.3893C3.56577 11.3 3.59532 11.19 3.58401 11.0803L3.22901 7.71526L6.32901 6.33526C6.43039 6.29063 6.51138 6.20964 6.55601 6.10826L7.93101 3.00826L11.305 3.36026C11.4144 3.37103 11.5239 3.34152 11.613 3.27726L14.364 1.28926L17.114 3.27926C17.2031 3.34369 17.3126 3.37322 17.422 3.36226L20.801 3.01026L22.176 6.11026C22.221 6.21142 22.3018 6.29231 22.403 6.33726L25.501 7.71626L25.147 11.0893C25.1355 11.199 25.1651 11.3091 25.23 11.3983L27.22 14.1483L25.23 16.8893Z" fill="#1DA977"/>
<path d="M19.5808 9.08398C19.497 9.0002 19.3834 8.95312 19.2648 8.95312C19.1463 8.95312 19.0327 9.0002 18.9488 9.08398L11.6808 16.352L9.46684 14.142C9.38306 14.0585 9.26961 14.0116 9.15134 14.0116C9.03307 14.0116 8.91963 14.0585 8.83585 14.142L7.56885 15.401C7.52721 15.4425 7.49417 15.4918 7.47163 15.5461C7.4491 15.6005 7.4375 15.6587 7.4375 15.7175C7.4375 15.7763 7.4491 15.8345 7.47163 15.8888C7.49417 15.9431 7.52721 15.9925 7.56885 16.034L11.3638 19.829C11.4477 19.9128 11.5613 19.9598 11.6798 19.9598C11.7984 19.9598 11.912 19.9128 11.9958 19.829L20.8448 10.979C20.9286 10.8952 20.9757 10.7815 20.9757 10.663C20.9757 10.5445 20.9286 10.4308 20.8448 10.347L19.5808 9.08398Z" fill="white"/>
</svg>
