<svg width="46" height="46" viewBox="0 0 46 46" fill="none" xmlns="http://www.w3.org/2000/svg">
<path d="M31.4273 45.9795C29.4717 46.0432 27.5249 45.6887 25.7173 44.9395C25.6993 44.7565 25.8563 44.6945 25.9653 44.6055C27.2409 43.5888 28.347 42.376 29.2423 41.0125C29.3508 40.8056 29.5239 40.6398 29.7353 40.5403C29.9467 40.4409 30.1848 40.4132 30.4133 40.4615C32.0731 40.6446 33.7491 40.3122 35.2133 39.5095C36.6549 38.8047 37.8915 37.7417 38.8048 36.4222C39.718 35.1028 40.2774 33.5711 40.4294 31.9736C40.5814 30.3761 40.3209 28.7664 39.6728 27.2984C39.0247 25.8304 38.0108 24.5533 36.7279 23.5893C35.4451 22.6253 33.9364 22.0066 32.3461 21.7924C30.7557 21.5782 29.1371 21.7758 27.6449 22.3661C26.1528 22.9564 24.8371 23.9198 23.8238 25.164C22.8104 26.4083 22.1334 27.8918 21.8573 29.4725C21.6943 30.4175 21.7843 31.3795 21.5973 32.3165C21.4246 33.3291 21.023 34.2888 20.4233 35.1227C19.8235 35.9566 19.0413 36.6426 18.1363 37.1285C17.6053 37.4225 17.6013 37.4145 17.3753 36.8675C15.8608 33.2385 15.8432 29.1578 17.3262 25.5158C18.8092 21.8738 21.6725 18.9662 25.2913 17.4275C27.1303 16.6322 29.1118 16.219 31.1155 16.213C33.1191 16.207 35.103 16.6083 36.9468 17.3926C38.7906 18.1769 40.4557 19.3278 41.841 20.7754C43.2263 22.223 44.3028 23.9371 45.0053 25.8135C45.7903 27.9109 46.0943 30.1579 45.8947 32.3885C45.6952 34.6191 44.9972 36.7764 43.8524 38.7012C42.7076 40.626 41.1451 42.2691 39.2804 43.5093C37.4156 44.7495 35.2961 45.555 33.0783 45.8665C32.5336 45.963 31.9801 46.0008 31.4273 45.9795Z" fill="black"/>
<path d="M18.5937 18.9523C17.8958 19.6229 17.2844 20.3781 16.7737 21.2003C16.6732 21.4111 16.5044 21.5817 16.2948 21.6846C16.0852 21.7875 15.847 21.8167 15.6187 21.7673C13.8839 21.5799 12.1338 21.9368 10.6107 22.7883C9.27449 23.4609 8.12464 24.4525 7.26299 25.6753C6.40134 26.8982 5.85445 28.3147 5.67074 29.7993C5.32179 32.2565 5.95987 34.7518 7.44549 36.7398C8.93112 38.7278 11.1434 40.0468 13.5987 40.4083C15.3698 40.701 17.188 40.4564 18.8187 39.706C20.4495 38.9556 21.818 37.7339 22.7477 36.1983C23.7864 34.599 24.3358 32.7313 24.3287 30.8243C24.3419 29.6062 24.6953 28.416 25.3491 27.3881C26.0029 26.3603 26.9311 25.5356 28.0287 25.0073C28.3377 24.8393 28.4707 24.9253 28.5877 25.2303C30.7737 30.9223 30.0077 36.1603 26.0957 40.8583C23.9281 43.4772 20.885 45.2219 17.5297 45.7693C14.6736 46.2796 11.7305 45.9414 9.06453 44.7967C6.39854 43.6519 4.12661 41.7507 2.52975 39.3283C0.630996 36.6035 -0.244159 33.2956 0.0587448 29.9883C0.240517 27.7171 0.939354 25.5176 2.1018 23.558C3.26424 21.5984 4.85949 19.9306 6.76552 18.6822C8.67155 17.4339 10.8379 16.638 13.0987 16.3555C15.3596 16.073 17.6551 16.3114 19.8097 17.0523C19.9367 17.0953 20.0627 17.1423 20.1867 17.1943C20.2379 17.2273 20.2852 17.2658 20.3277 17.3093C19.7507 17.8523 19.1827 18.3893 18.5937 18.9523Z" fill="black"/>
<path d="M25.3141 13.657C24.6391 14.337 23.9801 14.987 23.3391 15.657C23.1061 15.9 22.9471 15.935 22.6871 15.67C20.4301 13.37 18.1431 11.089 15.8971 8.77002C15.2067 8.11792 14.7195 7.28015 14.4942 6.35757C14.2689 5.435 14.315 4.46697 14.6271 3.57002C14.876 2.78943 15.3089 2.0801 15.8893 1.50185C16.4698 0.92359 17.1807 0.493342 17.9622 0.247376C18.7437 0.00141047 19.5729 -0.0530552 20.3799 0.0885474C21.1869 0.23015 21.948 0.563672 22.5991 1.06102C22.651 1.11662 22.7139 1.16083 22.7838 1.19084C22.8537 1.22085 22.9291 1.236 23.0052 1.23534C23.0812 1.23468 23.1563 1.21823 23.2257 1.18701C23.295 1.1558 23.3572 1.11051 23.4081 1.05402C24.1129 0.513174 24.9467 0.165826 25.8271 0.0463416C26.7074 -0.0731424 27.6036 0.0393852 28.4271 0.372803C29.2505 0.706222 29.9725 1.24895 30.5217 1.94725C31.0709 2.64555 31.4282 3.47519 31.5581 4.35402C31.6934 5.1528 31.6322 5.97251 31.38 6.74239C31.1277 7.51226 30.6919 8.20919 30.1101 8.77303C28.5361 10.411 26.9291 12.017 25.3141 13.657Z" fill="black"/>
</svg>
