<svg width="46" height="47" viewBox="0 0 46 47" fill="none" xmlns="http://www.w3.org/2000/svg">
<path d="M26.7785 18.845C26.9677 19.2976 27.0613 19.7845 27.0535 20.275C27.0395 20.627 27.2005 20.791 27.5535 20.888C30.8859 21.6903 33.9341 23.3921 36.3656 25.8079C38.7971 28.2238 40.5187 31.2608 41.3425 34.588C41.424 34.7768 41.4534 34.984 41.4275 35.188C41.268 35.2784 41.0815 35.3089 40.9015 35.274C28.9542 35.274 17.0072 35.274 5.0605 35.274C4.4715 35.274 4.44648 35.255 4.59248 34.702C5.19978 32.2208 6.30635 29.8895 7.84462 27.8502C9.38289 25.8109 11.3206 24.1065 13.5395 22.841C15.0847 21.9297 16.762 21.2637 18.5115 20.867C18.9015 20.779 18.9205 20.541 18.9185 20.25C18.9325 19.3551 19.2437 18.4903 19.8031 17.7917C20.3625 17.0931 21.1383 16.6003 22.0085 16.391C22.9658 16.1575 23.9752 16.2772 24.8514 16.7279C25.7276 17.1787 26.4118 17.9304 26.7785 18.845Z" fill="black"/>
<path d="M32.9315 46.0447C24.0915 46.0447 15.2955 46.0447 6.50047 46.0537C6.31943 46.076 6.13618 46.0365 5.98043 45.9416C5.82468 45.8466 5.70559 45.7019 5.64248 45.5307C4.94248 44.0627 4.18747 42.6197 3.48147 41.1547C3.42143 40.9886 3.30606 40.8482 3.15473 40.7572C3.0034 40.6661 2.82534 40.6299 2.65048 40.6547C1.92048 40.6857 1.18747 40.6547 0.455468 40.6667C0.141468 40.6727 -0.00953423 40.5847 0.000465773 40.2387C0.0204658 39.5817 0.0174658 38.9247 0.000465773 38.2677C-0.00753423 37.9477 0.136467 37.8387 0.429467 37.8517C0.578467 37.8577 0.72948 37.8517 0.87748 37.8517H45.1845C45.2741 37.8567 45.3639 37.8567 45.4535 37.8517C45.8425 37.8077 45.9835 37.9707 45.9665 38.3647C45.9395 38.9907 45.9485 39.6187 45.9665 40.2457C45.9735 40.5527 45.8665 40.6727 45.5515 40.6667C44.7755 40.6527 43.9985 40.6787 43.2225 40.6547C43.0765 40.6354 42.9284 40.6668 42.8028 40.7436C42.6772 40.8204 42.5818 40.938 42.5325 41.0767C41.7955 42.5947 41.0255 44.0957 40.2875 45.6127C40.2338 45.7565 40.1336 45.8782 40.0027 45.9585C39.8719 46.0387 39.718 46.073 39.5655 46.0557C37.3665 46.0357 35.1715 46.0437 32.9315 46.0447Z" fill="black"/>
<path d="M13.7175 12.0835C13.9121 11.5902 13.979 11.0558 13.9118 10.5297C13.8447 10.0037 13.6458 9.50316 13.3335 9.07455C12.6568 8.17484 12.2466 7.10311 12.1495 5.98155C12.1205 5.61455 12.1925 5.45355 12.5875 5.46655C13.2285 5.48655 13.8715 5.48055 14.5135 5.46655C14.8135 5.46155 14.9425 5.56654 14.9525 5.87754C15.0054 6.44638 15.2277 6.98629 15.5905 7.42755C16.3573 8.46913 16.7593 9.7344 16.7345 11.0275C16.7244 12.0779 16.4184 13.1042 15.8515 13.9885C15.3352 14.5941 15.0147 15.342 14.9325 16.1335C14.9325 16.3335 14.7785 16.3655 14.6165 16.3655C13.8995 16.3655 13.1835 16.3655 12.4665 16.3655C12.1365 16.3655 12.1315 16.1655 12.1475 15.9115C12.2299 14.7888 12.6256 13.7117 13.2895 12.8025C13.4415 12.5855 13.5675 12.3465 13.7175 12.0835Z" fill="black"/>
<path d="M32.6431 9.06026C32.2372 9.59134 32.017 10.241 32.0161 10.9094C32.0151 11.5779 32.2337 12.2281 32.6381 12.7603C33.3064 13.6663 33.7122 14.7388 33.8112 15.8603C33.8362 16.2233 33.7721 16.3923 33.3751 16.3803C32.7341 16.3603 32.0921 16.3663 31.4501 16.3803C31.1501 16.3803 31.0201 16.2803 31.0131 15.9673C30.9788 15.4586 30.7947 14.9715 30.4841 14.5673C29.8661 13.7402 29.4569 12.7763 29.2911 11.7573C29.0875 10.3874 29.3843 8.99006 30.1271 7.82126C30.6226 7.22163 30.9369 6.49317 31.0331 5.72127C31.0331 5.52727 31.1911 5.48926 31.3531 5.48926H33.5021C33.8351 5.48926 33.8291 5.70526 33.8151 5.95026C33.7332 7.0784 33.3261 8.15864 32.6431 9.06026Z" fill="black"/>
<path d="M25.1715 9.79378C25.1805 9.84678 25.1855 9.86078 25.1885 9.87578C25.4115 10.9058 25.3515 10.9828 24.3245 10.9758C23.8475 10.9758 23.3695 10.9678 22.8925 10.9758C22.6405 10.9758 22.5155 10.8918 22.4925 10.6208C22.4035 9.99837 22.1582 9.40867 21.7795 8.90677C21.0732 7.95004 20.6838 6.79637 20.6659 5.60732C20.6479 4.41826 21.0024 3.25336 21.6795 2.27577C22.1598 1.64137 22.4529 0.885158 22.5255 0.0927734C23.3765 0.0927734 24.1925 0.0927734 25.0085 0.0927734C25.2775 0.0927734 25.2595 0.298776 25.2565 0.476776C25.2294 1.42051 24.9475 2.33932 24.4405 3.13577C24.0103 3.68996 23.6973 4.32585 23.5205 5.00478C23.3877 5.7145 23.5281 6.4482 23.9135 7.05878C24.5228 7.87047 24.9517 8.80294 25.1715 9.79378Z" fill="black"/>
</svg>
