<svg width="47" height="47" viewBox="0 0 47 47" fill="none" xmlns="http://www.w3.org/2000/svg">
<path d="M26.8246 26.4064C27.4091 27.079 27.8058 27.8939 27.9748 28.7688C28.1437 29.6437 28.0789 30.5477 27.7869 31.3895C27.4949 32.2314 26.986 32.9813 26.3116 33.5637C25.6371 34.1461 24.8211 34.5402 23.9456 34.7064C25.4434 34.8671 26.8725 35.4192 28.0895 36.307C29.3064 37.1948 30.2683 38.3872 30.8786 39.7644C31.5637 41.3809 31.82 43.1469 31.6226 44.8915C31.6201 45.0772 31.5786 45.2603 31.5008 45.429C31.4231 45.5977 31.3108 45.7482 31.1712 45.8707C31.0316 45.9932 30.8678 46.0851 30.6904 46.1404C30.5131 46.1956 30.3261 46.213 30.1416 46.1914C25.4083 46.1914 20.6723 46.1914 15.9336 46.1914C15.7454 46.2119 15.5551 46.1926 15.3748 46.1349C15.1945 46.0772 15.0284 45.9823 14.887 45.8565C14.7457 45.7306 14.6323 45.5764 14.5542 45.404C14.4761 45.2316 14.435 45.0447 14.4336 44.8554C14.1472 42.5182 14.7298 40.1572 16.0706 38.2214C16.7884 37.2448 17.7013 36.428 18.7513 35.8227C19.8014 35.2175 20.9658 34.837 22.1706 34.7055C21.3035 34.5466 20.4889 34.1767 19.7986 33.6285C18.9965 32.944 18.4277 32.0264 18.1717 31.0035C17.9157 29.9806 17.9851 28.9033 18.3703 27.9217C18.7555 26.9401 19.4373 26.1031 20.3207 25.5274C21.2041 24.9516 22.2451 24.6657 23.2986 24.7095C23.9718 24.7329 24.6327 24.8959 25.2397 25.188C25.8466 25.4801 26.3863 25.895 26.8246 26.4064Z" fill="black"/>
<path d="M34.0583 21.7056C32.8033 21.7056 31.5923 21.7056 30.3823 21.7056C30.1765 21.7236 29.9692 21.6968 29.7747 21.627C29.5802 21.5572 29.4031 21.4461 29.2557 21.3014C29.1082 21.1567 28.9938 20.9818 28.9204 20.7886C28.847 20.5955 28.8162 20.3888 28.8303 20.1826C28.7077 18.6456 28.9122 17.0999 29.4303 15.6476C29.9513 14.278 30.8205 13.068 31.9522 12.1371C33.0839 11.2062 34.4389 10.5866 35.8833 10.3396C36.0663 10.3026 36.2473 10.2586 36.4683 10.2096C33.6113 9.27963 32.0363 7.10264 32.4353 4.68564C32.5547 3.38745 33.1824 2.18906 34.1815 1.3516C35.1806 0.514133 36.4702 0.105459 37.7693 0.214634C38.9985 0.293678 40.1565 0.819645 41.0247 1.69339C41.893 2.56714 42.4117 3.72832 42.483 4.95806C42.5544 6.1878 42.1734 7.40116 41.412 8.36943C40.6505 9.33771 39.5612 9.994 38.3493 10.2146C39.118 10.3285 39.8723 10.5243 40.5993 10.7986C42.0158 11.3455 43.2586 12.2644 44.1968 13.4583C45.135 14.6522 45.7338 16.077 45.9303 17.5826C46.0387 18.5474 46.0618 19.5198 45.9993 20.4886C45.9871 20.6613 45.941 20.8299 45.8635 20.9847C45.7861 21.1395 45.6788 21.2775 45.5479 21.3907C45.417 21.504 45.265 21.5903 45.1007 21.6446C44.9364 21.699 44.7629 21.7204 44.5903 21.7076C43.0213 21.7156 41.4523 21.7076 39.8823 21.7076L34.0583 21.7056Z" fill="black"/>
<path d="M6.51129 0.658701C7.22137 0.325866 7.99972 0.164535 8.7836 0.187738C9.56747 0.210942 10.3349 0.418023 11.0241 0.792276C11.7132 1.16653 12.3048 1.69749 12.751 2.34234C13.1973 2.98719 13.4858 3.72788 13.5933 4.50469C13.7961 5.74461 13.5199 7.01527 12.8206 8.05906C12.1212 9.10285 11.0512 9.84166 9.82729 10.1257L9.33629 10.2427C11.2547 10.3632 13.0723 11.1434 14.481 12.4511C15.8897 13.7589 16.8028 15.5136 17.0653 17.4177C17.2095 18.3772 17.2597 19.3485 17.2153 20.3177C17.2172 20.5059 17.1805 20.6926 17.1074 20.8661C17.0344 21.0395 16.9266 21.1962 16.7906 21.3264C16.6546 21.4566 16.4934 21.5575 16.3168 21.6229C16.1403 21.6883 15.9523 21.7168 15.7643 21.7067C10.9983 21.7114 6.23162 21.7114 1.46429 21.7067C1.27305 21.717 1.08179 21.6869 0.903025 21.6181C0.724259 21.5494 0.562019 21.4437 0.426928 21.308C0.291837 21.1722 0.18694 21.0095 0.119105 20.8304C0.0512704 20.6513 0.0220269 20.4599 0.0332896 20.2687C-0.0906258 18.6405 0.13228 17.0044 0.687289 15.4687C1.20792 14.1227 2.07696 12.9393 3.2054 12.0396C4.33384 11.1399 5.68114 10.5564 7.10929 10.3487C7.32829 10.3067 7.54829 10.2737 7.82829 10.2257C5.32829 9.66769 3.84329 8.18569 3.64429 5.65669C3.50655 4.62433 3.71273 3.57535 4.23096 2.67193C4.74919 1.76851 5.55061 1.06097 6.51129 0.658701Z" fill="black"/>
<path d="M33.3348 34.7645C35.442 32.6047 36.8331 29.8485 37.3188 26.8704C37.4269 26.1927 37.4738 25.5066 37.4588 24.8205C37.4588 24.4665 37.5708 24.3085 37.9528 24.3205C38.5638 24.3465 39.1778 24.3445 39.7888 24.3205C40.1608 24.3055 40.2888 24.4405 40.2788 24.8085C40.2456 27.1704 39.7336 29.501 38.7738 31.6594C37.6195 34.2503 35.8449 36.517 33.6068 38.2594C33.1858 38.5904 33.1808 38.5854 32.9428 38.1074C32.6555 37.5328 32.3082 36.9901 31.9068 36.4885C31.7338 36.2715 31.7588 36.1384 31.9758 35.9774C32.458 35.607 32.9122 35.2016 33.3348 34.7645Z" fill="black"/>
<path d="M11.4363 33.2676C12.1711 34.263 13.0366 35.155 14.0093 35.9196C14.2863 36.1336 14.3093 36.3006 14.0853 36.5716C13.6262 37.1917 13.2179 37.8478 12.8643 38.5336C12.0237 37.9705 11.2544 37.3077 10.5733 36.5596C8.12821 34.0051 6.52605 30.7618 5.98329 27.2676C5.84454 26.4415 5.77498 25.6053 5.7753 24.7676C5.7753 24.4446 5.8753 24.3116 6.2133 24.3216C6.8253 24.3406 7.44029 24.3526 8.05029 24.3216C8.47329 24.2976 8.60329 24.4636 8.59729 24.8586C8.58843 26.3682 8.83909 27.868 9.3383 29.2926C9.8233 30.7201 10.5314 32.0617 11.4363 33.2676Z" fill="black"/>
<path d="M28.8023 11.3795C27.0195 10.6067 25.0994 10.2005 23.1564 10.1851C21.2134 10.1696 19.2871 10.5452 17.4923 11.2895C17.3721 11.361 17.2293 11.384 17.0927 11.3539C16.9562 11.3238 16.8363 11.2429 16.7573 11.1275C16.4869 10.8287 16.1952 10.5499 15.8843 10.2935C15.5843 10.0305 15.2623 9.78849 14.8673 9.47149C16.628 8.46777 18.5713 7.82525 20.5833 7.58149C24.1933 7.0341 27.8832 7.6902 31.0833 9.4485C31.0943 9.6165 30.9533 9.66948 30.8503 9.74848C30.2572 10.1778 29.7073 10.6637 29.2083 11.1995C29.1063 11.3045 29.0113 11.4295 28.8023 11.3795Z" fill="black"/>
</svg>
