<svg width="47" height="47" viewBox="0 0 47 47" fill="none" xmlns="http://www.w3.org/2000/svg">
<path d="M30.6868 44.9111C27.6404 45.9646 24.4068 46.3671 21.1951 46.0926C17.9834 45.8182 14.865 44.8729 12.0415 43.3178C9.21804 41.7627 6.75227 39.6324 4.80362 37.0647C2.85496 34.497 1.46679 31.5489 0.728818 28.4111C-0.191345 24.4123 -0.0313423 20.2406 1.19243 16.324C2.41619 12.4074 4.65969 8.88674 7.69282 6.12312C10.8473 3.19538 14.7916 1.25766 19.0368 0.550114C24.9628 -0.517163 31.0712 0.780076 36.052 4.16366C41.0327 7.54725 44.4894 12.7478 45.6808 18.6501C46.1524 20.9185 46.2655 23.2467 46.0158 25.5501C45.5563 29.8977 43.8713 34.0253 41.1569 37.4524C38.4426 40.8795 34.8106 43.4651 30.6838 44.9081M28.6198 23.6001C28.6338 23.3921 28.6598 23.1841 28.6598 22.9771C28.6598 20.2584 28.6598 17.5398 28.6598 14.8211C28.6672 14.4036 28.637 13.9863 28.5698 13.5741C28.3284 12.2016 27.5774 10.9709 26.4673 10.1284C25.3571 9.28591 23.9698 8.8938 22.5829 9.03058C21.196 9.16736 19.9119 9.82293 18.9877 10.866C18.0636 11.9092 17.5675 13.2628 17.5988 14.6561C17.5988 17.4041 17.5988 20.1561 17.5928 22.9011C17.5939 23.3041 17.6345 23.706 17.7138 24.1011C17.9766 25.3913 18.6917 26.5452 19.7303 27.3546C20.7689 28.164 22.0625 28.5756 23.3778 28.5153C24.6931 28.455 25.9436 27.9266 26.9037 27.0255C27.8637 26.1245 28.4703 24.91 28.6138 23.6011M28.0138 31.6931C29.2635 30.9933 30.3479 30.0327 31.1933 28.8767C32.0388 27.7206 32.6256 26.3961 32.9138 24.9931C32.9855 24.7958 33.0137 24.5854 32.9964 24.3762C32.9791 24.167 32.9169 23.964 32.8138 23.7811C32.7031 23.6001 32.5387 23.4581 32.3435 23.375C32.1483 23.2918 31.932 23.2716 31.7248 23.3171C31.473 23.3703 31.2457 23.5052 31.0784 23.7009C30.9112 23.8966 30.8132 24.142 30.7998 24.3991C30.5144 25.9465 29.7676 27.3713 28.6576 28.4866C27.5476 29.6018 26.1262 30.3552 24.5802 30.6479C23.0342 30.9406 21.4358 30.7589 19.9949 30.1266C18.5541 29.4943 17.3382 28.441 16.5068 27.1051C15.9511 26.1993 15.5702 25.1973 15.3838 24.1511C15.3304 23.8846 15.1772 23.6485 14.9556 23.4911C14.734 23.3336 14.4606 23.2667 14.1914 23.304C13.9221 23.3413 13.6772 23.4799 13.5067 23.6916C13.3362 23.9033 13.2529 24.1721 13.2738 24.4431C13.2815 24.6364 13.3072 24.8286 13.3508 25.0171C13.7766 27.0733 14.8392 28.9431 16.3878 30.3611C17.9363 31.7792 19.8922 32.6735 21.9778 32.9171C22.2378 32.9531 22.3488 33.0601 22.3458 33.3171C22.3408 33.7801 22.3308 34.2441 22.3458 34.7061C22.3588 35.0401 22.2238 35.1501 21.8978 35.1441C21.0908 35.1291 20.2838 35.1351 19.4778 35.1441C19.1184 35.1126 18.7605 35.2199 18.4778 35.4441C18.3188 35.5933 18.2068 35.7857 18.1557 35.9976C18.1045 36.2095 18.1164 36.4318 18.1898 36.6371C18.2701 36.8567 18.4207 37.0437 18.6182 37.169C18.8156 37.2943 19.0489 37.351 19.2818 37.3301C22.0151 37.3348 24.7485 37.3348 27.4818 37.3301C28.2478 37.3301 28.7198 36.9301 28.7438 36.2951C28.7455 36.1412 28.716 35.9885 28.6571 35.8463C28.5981 35.7041 28.511 35.5753 28.4009 35.4678C28.2908 35.3602 28.16 35.2761 28.0165 35.2204C27.873 35.1648 27.7197 35.1388 27.5658 35.1441C27.4328 35.1321 27.2968 35.1381 27.1658 35.1371C26.4188 35.1371 25.6718 35.1291 24.9248 35.1371C24.6378 35.1371 24.5248 35.0301 24.5248 34.7371C24.5378 34.2441 24.5358 33.7511 24.5248 33.2581C24.5137 33.204 24.5147 33.148 24.5279 33.0944C24.5411 33.0407 24.5661 32.9906 24.601 32.9478C24.636 32.905 24.68 32.8705 24.73 32.8469C24.7799 32.8232 24.8345 32.811 24.8898 32.8111C25.9906 32.621 27.0506 32.2435 28.0238 31.6951L28.0138 31.6931Z" fill="black"/>
</svg>
