<svg width="44" height="44" viewBox="0 0 44 44" fill="none" xmlns="http://www.w3.org/2000/svg">
<path d="M5.74159 43.2404C5.25865 43.2623 4.77642 43.1836 4.32549 43.0093C3.87457 42.835 3.46477 42.5689 3.12208 42.2279C2.77939 41.8869 2.51128 41.4784 2.33475 41.0283C2.15822 40.5783 2.07712 40.0965 2.09659 39.6134C2.08059 34.8724 2.09659 30.1304 2.09659 25.3894C2.09659 25.3294 2.10559 25.2694 2.11359 25.1644C2.21542 25.1955 2.31555 25.2319 2.41359 25.2734C3.77638 25.953 5.28503 26.288 6.80736 26.2491C8.3297 26.2103 9.81927 25.7987 11.1456 25.0504C11.2769 24.9661 11.4299 24.9221 11.5859 24.9237C11.7419 24.9253 11.8941 24.9725 12.0236 25.0594C13.4343 25.8311 15.0184 26.2306 16.6264 26.2201C18.2343 26.2096 19.8131 25.7895 21.2136 24.9994C21.3129 24.9321 21.4301 24.8962 21.5501 24.8962C21.6701 24.8962 21.7873 24.9321 21.8866 24.9994C23.321 25.814 24.9431 26.2403 26.5926 26.2363C28.2422 26.2323 29.8622 25.798 31.2926 24.9764C31.3858 24.9151 31.4947 24.882 31.6062 24.8809C31.7178 24.8799 31.8272 24.9109 31.9216 24.9704C33.2836 25.7519 34.8194 26.1803 36.3893 26.2164C37.9591 26.2526 39.5131 25.8954 40.9096 25.1774L41.1206 25.0714V25.5714C41.1206 30.2034 41.1206 34.8367 41.1206 39.4714C41.1581 39.9773 41.0859 40.4852 40.9089 40.9606C40.732 41.436 40.4545 41.8675 40.0954 42.2258C39.7363 42.584 39.3041 42.8605 38.8283 43.0363C38.3525 43.2121 37.8443 43.2831 37.3386 43.2444C35.0853 43.2444 32.8319 43.2444 30.5786 43.2444H30.1106V42.7164C30.1106 39.6184 30.1106 36.5201 30.1106 33.4214C30.1518 32.7121 29.9399 32.0112 29.5127 31.4435C29.0854 30.8758 28.4706 30.4782 27.7776 30.3214C27.4868 30.2625 27.1902 30.237 26.8936 30.2454C23.3603 30.2407 19.8239 30.2407 16.2846 30.2454C15.853 30.2143 15.4198 30.2768 15.0145 30.4284C14.6092 30.5801 14.2415 30.8175 13.9364 31.1243C13.6313 31.4311 13.3959 31.8002 13.2465 32.2063C13.0971 32.6124 13.0371 33.046 13.0706 33.4774C13.0666 36.5441 13.0666 39.6107 13.0706 42.6774V43.2224C12.9156 43.2314 12.7806 43.2464 12.6466 43.2464C11.2466 43.2464 9.84659 43.2464 8.44659 43.2464C7.54459 43.2457 6.64293 43.2437 5.74159 43.2404ZM16.0906 43.2034C16.0846 43.0814 16.0716 42.9464 16.0716 42.8114C16.0716 39.8861 16.0716 36.9604 16.0716 34.0344C16.0716 33.3634 16.1926 33.2424 16.8626 33.2424C20.0226 33.2424 23.1829 33.2424 26.3436 33.2424C26.9726 33.2424 27.1036 33.3774 27.1046 34.0174C27.1046 35.3174 27.1046 36.6174 27.1046 37.9604V43.2034H16.0906ZM4.51059 22.8294C3.39761 22.4765 2.40532 21.8197 1.64558 20.9331C0.885832 20.0465 0.388832 18.9653 0.210595 17.8114C-0.172056 15.7873 -0.0316213 13.699 0.618595 11.7444C1.64559 8.75141 2.61859 5.73741 3.64859 2.74441C3.89412 2.19869 4.19397 1.67907 4.54359 1.19341C4.8855 0.8639 5.28922 0.605285 5.73149 0.432459C6.17377 0.259633 6.64586 0.176012 7.12059 0.18641C16.7599 0.19241 26.3993 0.194077 36.0386 0.19141C36.8199 0.152355 37.5912 0.380131 38.226 0.837335C38.8607 1.29454 39.3211 1.95399 39.5316 2.70741C40.5786 5.82641 41.6766 8.92941 42.6396 12.0734C43.4417 14.3554 43.419 16.8463 42.5756 19.1134C42.1789 20.1321 41.5291 21.0329 40.6877 21.7308C39.8462 22.4287 38.8409 22.9006 37.7664 23.1022C36.6919 23.3037 35.5839 23.2282 34.5467 22.8827C33.5095 22.5371 32.5775 21.9331 31.8386 21.1274C31.768 21.039 31.7058 20.9443 31.6526 20.8444C31.0374 21.575 30.2721 22.1645 29.4086 22.5729C28.5452 22.9812 27.604 23.1987 26.6489 23.2107C25.6939 23.2226 24.7475 23.0287 23.8741 22.6422C23.0007 22.2556 22.2209 21.6854 21.5876 20.9704C20.9601 21.6799 20.1886 22.2476 19.3245 22.6355C18.4603 23.0234 17.5235 23.2227 16.5763 23.22C15.6291 23.2174 14.6933 23.0129 13.8314 22.6201C12.9694 22.2274 12.2011 21.6554 11.5776 20.9424C11.3396 21.1594 11.1096 21.3874 10.8606 21.5924C9.70836 22.6133 8.23165 23.193 6.6926 23.2284C5.94755 23.2237 5.20908 23.0887 4.51059 22.8294Z" fill="black"/>
</svg>
