<svg width="35" height="36" viewBox="0 0 35 36" fill="none" xmlns="http://www.w3.org/2000/svg">
<path d="M8.47309 35.4708C8.07469 35.4708 7.68055 35.3888 7.31526 35.2298C6.94996 35.0708 6.62135 34.8382 6.3499 34.5466C6.07846 34.255 5.87002 33.9106 5.73757 33.5349C5.60512 33.1591 5.55151 32.7601 5.58009 32.3628L6.18009 23.2878L0.643088 16.3607C0.337895 15.9815 0.132691 15.5317 0.0462543 15.0527C-0.0401825 14.5736 -0.0050918 14.0805 0.148315 13.6185C0.301721 13.1565 0.568544 12.7403 0.924368 12.4081C1.28019 12.0758 1.71365 11.8381 2.18509 11.7168L10.4571 9.55375L14.9961 1.91275C15.2732 1.50295 15.6465 1.16734 16.0834 0.935344C16.5203 0.703345 17.0074 0.582031 17.5021 0.582031C17.9968 0.582031 18.4839 0.703345 18.9208 0.935344C19.3577 1.16734 19.731 1.50295 20.0081 1.91275L24.5301 9.55375L32.8081 11.7198C33.2787 11.8423 33.7113 12.0804 34.0666 12.4124C34.4219 12.7444 34.6887 13.16 34.8427 13.6212C34.9968 14.0825 35.0332 14.5749 34.9488 15.0538C34.8643 15.5328 34.6616 15.983 34.3591 16.3637L28.8241 23.2838L29.4241 32.3568C29.4512 32.7544 29.3964 33.1534 29.2629 33.529C29.1295 33.9047 28.9204 34.2489 28.6485 34.5403C28.3766 34.8318 28.0478 35.0644 27.6824 35.2235C27.3169 35.3827 26.9227 35.4652 26.5241 35.4658H26.4691C26.0908 35.466 25.7164 35.3887 25.3691 35.2388L17.5001 31.8958H17.4881L9.62309 35.2348C9.26102 35.3901 8.87108 35.4701 8.47709 35.4697L8.47309 35.4708Z" fill="black"/>
</svg>
