<svg width="37" height="32" viewBox="0 0 37 32" fill="none" xmlns="http://www.w3.org/2000/svg">
<path d="M18.4093 31.3026C11.4613 31.3026 3.85925 31.2776 3.58625 31.2206C2.738 31.0143 1.96283 30.5786 1.34554 29.9614C0.728244 29.3441 0.292597 28.5689 0.08625 27.7206C-0.02875 27.1476 -0.02875 7.84864 0.08625 7.27464C0.237181 6.60756 0.534964 5.98254 0.957921 5.44506C1.38088 4.90759 1.91836 4.47119 2.53125 4.16764C3.48025 3.72164 3.67525 3.69364 6.00425 3.69364H8.02825L8.93525 1.87864C9.67925 0.391641 10.0163 0.331641 10.3723 0.278641C10.4859 0.265031 10.597 0.235404 10.7023 0.190641C10.9773 0.0566414 11.3953 0.0566406 18.3673 0.0566406H25.7362L26.1152 0.242641C26.2256 0.29486 26.3462 0.321845 26.4682 0.32164C26.8002 0.34364 27.1423 0.36764 27.9182 1.92164L28.8103 3.70664H30.8253C33.1712 3.70664 33.3653 3.73364 34.2983 4.17964C34.9107 4.48223 35.4481 4.91745 35.8714 5.45366C36.2946 5.98988 36.5932 6.61364 36.7453 7.27964C36.8613 7.85264 36.8613 27.1526 36.7453 27.7266C36.541 28.5766 36.1061 29.3538 35.4886 29.9725C34.8711 30.5913 34.0948 31.0277 33.2453 31.2336C32.9663 31.2756 25.3623 31.3026 18.4093 31.3026ZM18.4312 8.35064C16.0819 8.35711 13.8259 9.27128 12.1347 10.9021C10.4435 12.5329 9.44806 14.7542 9.35629 17.1018C9.26451 19.4494 10.0835 21.7417 11.6422 23.4996C13.2009 25.2575 15.3786 26.3449 17.7203 26.5348C20.062 26.7247 22.3865 26.0022 24.2081 24.5184C26.0296 23.0346 27.2072 20.9043 27.4948 18.5725C27.7825 16.2408 27.1578 13.8881 25.7515 12.0062C24.3451 10.1242 22.2659 8.85852 19.9482 8.47364C19.4524 8.39205 18.9508 8.35091 18.4482 8.35064H18.4312ZM18.4032 24.4506C16.6684 24.4496 14.9968 23.7994 13.7172 22.6279C12.4376 21.4565 11.6427 19.8486 11.4889 18.1206C11.335 16.3926 11.8334 14.6696 12.8859 13.2905C13.9384 11.9115 15.4689 10.9762 17.1762 10.6686C17.5492 10.6115 17.926 10.5831 18.3033 10.5836H18.3183C20.2159 10.5797 22.0378 11.3284 23.3842 12.6656C24.3355 13.6444 24.9773 14.8817 25.2295 16.223C25.4817 17.5643 25.3332 18.9502 24.8025 20.2076C24.2717 21.4651 23.3823 22.5383 22.2453 23.2932C21.1083 24.0482 19.7741 24.4514 18.4093 24.4526L18.4032 24.4506Z" fill="black"/>
</svg>
