<svg width="40" height="35" viewBox="0 0 40 35" fill="none" xmlns="http://www.w3.org/2000/svg">
<path fill-rule="evenodd" clip-rule="evenodd" d="M9.69049 0.136571C1.94949 0.947571 -1.68351 7.53657 0.747494 16.3566C2.27649 21.9016 5.81349 26.6566 11.4905 30.8066C13.4612 32.2585 15.515 33.5942 17.6415 34.8066C18.1356 34.9518 18.664 34.9287 19.1436 34.7408C19.6231 34.5529 20.0266 34.2109 20.2905 33.7686C20.7815 33.0086 21.0215 33.2776 16.5565 29.5776C12.2005 25.9686 12.3765 26.1536 12.8665 25.6626C13.2665 25.2626 13.1305 25.1676 18.1665 29.3526C23.2025 33.5376 23.0145 33.4056 23.5665 33.1196C24.2346 32.6605 24.7099 31.9712 24.9015 31.1836C24.9225 30.9546 24.7625 30.8176 20.3565 27.3216C14.9275 23.0136 15.2205 23.3046 15.7445 22.7806C16.1645 22.3606 15.5225 21.9216 21.9625 27.0396C25.7825 30.0726 26.7995 30.8476 26.9755 30.8476C27.4602 30.7115 27.8962 30.4404 28.2326 30.066C28.569 29.6915 28.792 29.229 28.8755 28.7326C28.8755 28.3236 29.3855 28.7956 23.7945 24.0586C18.9425 19.9506 18.9015 19.9096 19.1305 19.5016C19.5055 18.8316 19.4185 18.7706 24.4305 23.0186C31.2625 28.8026 30.7575 28.3916 31.0455 28.3916C32.3345 28.3916 33.4245 25.8916 32.7215 24.5526C32.5125 24.1526 25.3415 13.8966 25.0085 13.5166C24.6085 13.0666 24.5975 13.0726 21.1085 15.0806C17.1085 17.3806 16.9965 17.4266 15.5355 17.4206C14.594 17.4138 13.6713 17.1556 12.8631 16.6726C12.0548 16.1896 11.3903 15.4994 10.9383 14.6735C10.4863 13.8475 10.2631 12.9158 10.292 11.9747C10.3209 11.0336 10.6007 10.1173 11.1025 9.32057C11.5305 8.63257 11.7595 8.42057 15.1335 5.48757C17.8525 3.12657 18.2035 2.78757 18.2035 2.51357C18.2035 1.28157 12.9165 -0.186429 9.68649 0.151571M26.8435 0.157571C24.2523 0.475112 21.7972 1.49485 19.7435 3.10657C18.6245 4.00657 12.4885 9.41857 12.3225 9.64357C11.8592 10.2515 11.5763 10.9775 11.506 11.7386C11.4358 12.4997 11.581 13.2652 11.9252 13.9476C12.2694 14.6301 12.7987 15.2019 13.4525 15.5978C14.1063 15.9938 14.8582 16.1978 15.6225 16.1866C16.6515 16.1866 16.9705 16.0436 20.4035 14.0866C23.5665 12.2806 23.5935 12.2596 23.6875 11.7076C23.7875 11.1136 24.4055 10.7696 24.7815 11.1076C24.8655 11.1816 25.3755 11.8816 25.9145 12.6626C27.0535 14.3146 27.0145 14.2756 27.5235 14.2756C28.4731 14.2282 29.3833 13.8813 30.1235 13.2846C30.7235 12.8366 30.8355 12.8156 31.1625 13.0926C31.8155 13.6426 30.7715 14.6606 28.9345 15.2656C27.9075 15.6006 27.7875 15.3326 30.9885 19.9006C32.4425 21.9786 33.7255 23.8736 33.8365 24.1136C34.2225 24.9536 34.5875 24.9066 35.2685 23.9206C39.2955 18.1056 40.4795 10.5206 38.1105 5.72057C36.1785 1.79957 31.6615 -0.425429 26.8305 0.161571" fill="black"/>
</svg>
