<svg width="46" height="46" viewBox="0 0 46 46" fill="none" xmlns="http://www.w3.org/2000/svg">
<path d="M27.5634 45.9905C25.8454 45.9905 24.1714 46.0165 22.4984 45.9845C17.8758 45.8908 13.3891 44.4046 9.62466 41.7203C5.86021 39.0359 2.9932 35.2783 1.39838 30.9385C-0.54524 25.6017 -0.460186 19.7368 1.63738 14.4585C2.77781 11.5555 4.50498 8.91904 6.71087 6.71401C8.91676 4.50898 11.5539 2.78284 14.4574 1.64354C17.5641 0.370729 20.9203 -0.176489 24.2704 0.0435427C29.3424 0.293078 34.1817 2.2476 38.0044 5.59054C41.9587 8.92882 44.6289 13.5385 45.5574 18.6295C46.3896 22.9505 45.9673 27.4194 44.3404 31.5079C42.7134 35.5965 39.9499 39.1338 36.3764 41.7015C36.2824 41.7685 36.1654 41.8185 36.1174 41.9695C36.2904 42.1185 36.5054 42.0695 36.7024 42.0695C39.5857 42.0735 42.469 42.0735 45.3524 42.0695C45.9644 42.0695 45.9654 42.0695 45.9664 42.6845C45.9664 43.5955 45.9434 44.5085 45.9774 45.4185C45.9944 45.8765 45.8464 45.9965 45.3964 45.9955C39.4654 45.9825 33.5344 45.9875 27.5594 45.9885M4.81438 17.2455C4.60604 17.9933 4.54057 18.7736 4.62138 19.5455C4.75718 20.6834 5.23409 21.7535 5.9894 22.6152C6.74472 23.477 7.74309 24.09 8.85331 24.3738C9.96353 24.6576 11.1336 24.5988 12.2098 24.2051C13.286 23.8115 14.2179 23.1015 14.883 22.1683C15.5481 21.2352 15.9154 20.1227 15.9364 18.977C15.9575 17.8313 15.6314 16.706 15.001 15.749C14.3706 14.7921 13.4654 14.0483 12.4044 13.6154C11.3434 13.1825 10.1763 13.0808 9.05639 13.3235C8.06026 13.5329 7.1396 14.0086 6.39255 14.7C5.64551 15.3914 5.10007 16.2726 4.81438 17.2495M32.8894 39.1385C34.1072 38.6837 35.1295 37.8204 35.7818 36.696C36.4342 35.5715 36.6761 34.2555 36.4664 32.9725C36.2878 31.8107 35.7532 30.7328 34.9362 29.8876C34.1193 29.0423 33.0602 28.4713 31.9051 28.2533C30.75 28.0352 29.5557 28.1809 28.4868 28.6702C27.418 29.1594 26.5272 29.9682 25.9374 30.985C25.3475 32.0018 25.0876 33.1766 25.1934 34.3473C25.2993 35.518 25.7657 36.6271 26.5284 37.5216C27.2911 38.4161 28.3125 39.052 29.4518 39.3416C30.5911 39.6312 31.7921 39.5603 32.8894 39.1385ZM18.8524 5.72954C18.2367 6.37519 17.785 7.15923 17.5353 8.01573C17.2856 8.87224 17.2451 9.77617 17.4174 10.6515C17.6523 11.9046 18.3027 13.0419 19.2634 13.88C20.2241 14.718 21.4392 15.2079 22.7125 15.2706C23.9859 15.3332 25.2432 14.965 26.2816 14.2253C27.3199 13.4856 28.0788 12.4176 28.4356 11.1937C28.7924 9.96976 28.7264 8.66131 28.2483 7.47949C27.7701 6.29767 26.9077 5.31143 25.8002 4.67995C24.6927 4.04847 23.4047 3.8086 22.1442 3.99903C20.8836 4.18947 19.7239 4.79909 18.8524 5.72954ZM11.1754 37.9125C11.8023 38.5388 12.5711 39.0045 13.4166 39.27C14.262 39.5354 15.159 39.5929 16.0314 39.4375C17.2941 39.2334 18.4509 38.609 19.3145 37.6656C20.1782 36.7221 20.6981 35.5147 20.7901 34.239C20.8821 32.9632 20.5409 31.6937 19.8215 30.6361C19.1022 29.5784 18.047 28.7945 16.8267 28.4113C15.6063 28.0281 14.2924 28.0679 13.0976 28.5245C11.9027 28.981 10.897 29.8274 10.2431 30.9267C9.58923 32.0261 9.32554 33.3139 9.49474 34.5817C9.66394 35.8496 10.2561 37.0232 11.1754 37.9125ZM37.2694 24.3235C38.3115 24.03 39.248 23.4445 39.9683 22.6361C40.6885 21.8278 41.1626 20.8303 41.3345 19.7613C41.5064 18.6923 41.369 17.5965 40.9384 16.6031C40.5079 15.6097 39.8022 14.7601 38.9046 14.1546C38.007 13.5492 36.955 13.213 35.8727 13.1859C34.7903 13.1588 33.7227 13.4418 32.796 14.0016C31.8692 14.5613 31.1219 15.3745 30.6421 16.3451C30.1624 17.3157 29.9702 18.4033 30.0884 19.4795C30.184 20.2965 30.455 21.0831 30.8828 21.7856C31.3106 22.4882 31.8851 23.09 32.5669 23.55C33.2488 24.0099 34.022 24.3172 34.8336 24.4507C35.6452 24.5842 36.4761 24.5408 37.2694 24.3235ZM24.0754 21.5125C23.9754 21.4535 23.8754 21.3885 23.7634 21.3375C23.4279 21.1798 23.0525 21.1273 22.6866 21.1871C22.3207 21.2469 21.9815 21.4161 21.7137 21.6725C21.4459 21.9288 21.262 22.2603 21.1862 22.6232C21.1105 22.9861 21.1465 23.3635 21.2894 23.7055C21.4347 24.0593 21.6854 24.3598 22.0075 24.5661C22.3295 24.7724 22.7073 24.8745 23.0894 24.8585C23.4555 24.8273 23.805 24.6917 24.0964 24.4679C24.3878 24.244 24.6089 23.9413 24.7334 23.5955C24.8608 23.2236 24.8656 22.8206 24.7472 22.4458C24.6287 22.0709 24.3933 21.7438 24.0754 21.5125Z" fill="black"/>
</svg>
