<svg width="55" height="47" viewBox="0 0 55 47" fill="none" xmlns="http://www.w3.org/2000/svg">
<path d="M25.7888 46.8123C21.8946 47.3677 17.9252 46.65 14.472 44.7662C11.0189 42.8824 8.26677 39.9333 6.62583 36.3583C4.51983 31.9363 2.45383 27.4943 0.373828 23.0583C0.217011 22.8357 0.106146 22.584 0.0477174 22.318C-0.0107113 22.052 -0.0155328 21.7771 0.0335344 21.5092C0.0826015 21.2413 0.184576 20.9859 0.333492 20.7579C0.482407 20.5299 0.675276 20.3339 0.900829 20.1813C3.04858 18.1624 5.44809 16.4294 8.03983 15.0253C11.8808 12.8231 15.9847 11.1149 20.2538 9.9413C21.8011 9.5325 23.3784 9.24694 24.9708 9.08729C25.3603 9.0503 25.7514 9.13925 26.0865 9.34103C26.4217 9.54281 26.6833 9.84679 26.8328 10.2083C27.7615 12.1663 28.6842 14.1273 29.6008 16.0913C30.7908 18.6273 31.9678 21.1703 33.1708 23.7003C34.9753 27.4076 35.4789 31.6145 34.6005 35.6429C33.7221 39.6714 31.5128 43.2867 28.3288 45.9063C27.5885 46.4485 26.7053 46.7614 25.7888 46.8063M18.7678 35.7963C18.1898 35.7432 17.6196 35.6255 17.0678 35.4453C16.854 35.3608 16.6249 35.3219 16.3952 35.331C16.1655 35.3402 15.9403 35.3971 15.7338 35.4983C15.4518 35.6313 15.2197 35.8511 15.0716 36.1255C14.9235 36.3999 14.8672 36.7145 14.9108 37.0233C14.9333 37.3252 15.0465 37.6132 15.2357 37.8495C15.4249 38.0858 15.6812 38.2593 15.9708 38.3473C17.512 38.9275 19.1806 39.084 20.8028 38.8003C22.5862 38.5552 24.2691 37.8293 25.6713 36.7004C27.0734 35.5715 28.1418 34.0822 28.7618 32.3923C28.8508 32.2019 28.9001 31.9954 28.9066 31.7854C28.9132 31.5754 28.8768 31.3662 28.7998 31.1707C28.7227 30.9752 28.6067 30.7974 28.4586 30.6483C28.3106 30.4991 28.1337 30.3817 27.9387 30.3033C27.7438 30.2248 27.5349 30.1869 27.3248 30.1918C27.1148 30.1968 26.9079 30.2446 26.7169 30.3322C26.5259 30.4198 26.3547 30.5454 26.2139 30.7014C26.0731 30.8573 25.9655 31.0404 25.8978 31.2393C25.3753 32.6767 24.3939 33.902 23.1054 34.7258C21.8168 35.5497 20.2928 35.9262 18.7688 35.7973M26.6608 19.6973C25.405 19.3311 24.058 19.4441 22.8807 20.0145C21.7035 20.5848 20.7798 21.5718 20.2888 22.7843C20.1938 22.9734 20.1379 23.1799 20.1247 23.3911C20.1115 23.6024 20.1411 23.8142 20.2118 24.0137C20.2825 24.2133 20.3929 24.3964 20.5362 24.5522C20.6795 24.708 20.8529 24.8332 21.0458 24.9203C21.2397 25.0071 21.4493 25.053 21.6617 25.0551C21.874 25.0572 22.0846 25.0154 22.2801 24.9324C22.4756 24.8495 22.6519 24.7271 22.7979 24.5729C22.9439 24.4187 23.0566 24.236 23.1288 24.0363C23.2289 23.7614 23.3827 23.5092 23.5814 23.2945C23.78 23.0798 24.0195 22.9068 24.2859 22.7857C24.5522 22.6647 24.8399 22.598 25.1324 22.5895C25.4248 22.581 25.7159 22.6309 25.9888 22.7363C26.2572 22.8232 26.5449 22.8315 26.8178 22.7603C27.1475 22.6861 27.443 22.5041 27.6576 22.2432C27.8722 21.9822 27.9937 21.6571 28.0028 21.3193C28.0248 20.5343 27.6258 20.0273 26.6608 19.6983M12.1258 25.2203C11.2658 25.3947 10.4625 25.78 9.78807 26.3414C9.11366 26.9029 8.58922 27.6231 8.26183 28.4373C8.10405 28.7571 8.06007 29.1212 8.13716 29.4693C8.21425 29.8175 8.4078 30.129 8.68582 30.3523C8.87548 30.5067 9.0995 30.6131 9.33896 30.6627C9.57842 30.7123 9.8263 30.7035 10.0617 30.6371C10.297 30.5707 10.5129 30.4487 10.6912 30.2813C10.8695 30.1139 11.0048 29.906 11.0858 29.6753C11.2899 29.1313 11.6984 28.6885 12.2243 28.4415C12.7503 28.1946 13.3519 28.1629 13.9008 28.3533C14.1031 28.428 14.3188 28.4598 14.534 28.4466C14.7493 28.4335 14.9594 28.3757 15.1512 28.277C15.3429 28.1783 15.512 28.0408 15.6477 27.8732C15.7835 27.7056 15.8828 27.5116 15.9396 27.3036C15.9963 27.0955 16.0091 26.878 15.9773 26.6647C15.9454 26.4514 15.8695 26.2471 15.7544 26.0647C15.6393 25.8823 15.4876 25.7259 15.3088 25.6053C15.13 25.4847 14.928 25.4026 14.7158 25.3643C13.8789 25.0915 12.985 25.0439 12.1238 25.2263L12.1258 25.2203Z" fill="black"/>
<path d="M33.3998 12.8363C32.8586 12.813 32.3349 12.6377 31.8889 12.3303C30.6659 11.7073 30.4619 10.4373 29.9069 9.3943C29.5019 8.6333 29.1689 7.8343 28.8069 7.0493C28.6695 6.71134 28.4305 6.42447 28.1228 6.22845C27.8152 6.03243 27.4542 5.93697 27.0898 5.95529C26.5078 5.95529 25.9259 5.94329 25.3449 5.95529C25.0349 5.96029 24.8839 5.8443 24.9009 5.52329C24.9119 5.31229 24.9009 5.10029 24.9009 4.88829C24.8621 4.45198 24.9784 4.01598 25.2294 3.65695C25.4803 3.29792 25.8498 3.03885 26.2729 2.9253C28.0802 2.28113 29.9475 1.81982 31.8468 1.5483C35.0539 1.07017 38.2991 0.897068 41.5389 1.0313C45.3113 1.0683 49.057 1.67066 52.6509 2.81829C52.91 2.86041 53.1581 2.95356 53.381 3.09233C53.6038 3.23109 53.7968 3.41271 53.9489 3.62667C54.101 3.84062 54.2091 4.08265 54.267 4.3387C54.3248 4.59476 54.3312 4.85974 54.2859 5.1183C54.2859 10.2313 54.2939 15.3443 54.2859 20.4573C54.1798 24.4612 52.7629 28.3198 50.2528 31.441C47.7427 34.5623 44.2779 36.7738 40.3899 37.7363C39.4817 37.8854 38.5498 37.7773 37.6999 37.4243C37.3649 37.3123 37.4499 37.0883 37.4999 36.8723C37.9717 34.9921 38.1816 33.0559 38.1238 31.1183C38.0877 29.7993 37.9259 28.4867 37.6408 27.1983C37.4758 26.4463 37.4719 26.4403 38.2039 26.3103C39.3211 26.0727 40.4797 26.1162 41.576 26.4368C42.6722 26.7574 43.6717 27.3452 44.4848 28.1473C44.689 28.3695 44.9536 28.5273 45.2462 28.6014C45.5387 28.6754 45.8465 28.6625 46.1318 28.5643C46.3818 28.4767 46.6053 28.3267 46.7812 28.1286C46.957 27.9305 47.0794 27.6908 47.1368 27.4322C47.1942 27.1736 47.1846 26.9046 47.109 26.6507C47.0334 26.3968 46.8943 26.1664 46.7048 25.9813C45.0666 24.3208 42.8876 23.3022 40.5628 23.1103C39.3324 22.9763 38.0877 23.0826 36.8979 23.4233C36.6369 23.5033 36.4708 23.4663 36.3478 23.2003C35.2738 20.8816 34.1962 18.565 33.1148 16.2503C33.1005 16.2012 33.0935 16.1504 33.0938 16.0993C33.2348 15.8993 33.4458 15.9543 33.6288 15.9503C34.8944 15.9115 36.098 15.394 36.9969 14.5023C37.1489 14.3684 37.2731 14.2058 37.3624 14.0238C37.4516 13.8419 37.5041 13.6441 37.5169 13.4419C37.5298 13.2396 37.5026 13.0368 37.437 12.8451C37.3715 12.6533 37.2688 12.4764 37.1349 12.3243C37.0009 12.1722 36.8383 12.048 36.6564 11.9588C36.4744 11.8696 36.2767 11.817 36.0744 11.8042C35.8722 11.7914 35.6694 11.8185 35.4776 11.8841C35.2859 11.9497 35.1089 12.0523 34.9569 12.1863C34.5385 12.5953 33.9789 12.828 33.3939 12.8363M44.0619 15.3113C45.0463 15.8578 46.1795 16.0757 47.2965 15.9335C48.4134 15.7912 49.4558 15.2961 50.2719 14.5203C50.5805 14.2519 50.7765 13.8769 50.8209 13.4703C50.851 13.1523 50.7827 12.8327 50.6251 12.5549C50.4674 12.2771 50.2282 12.0544 49.9398 11.9172C49.6513 11.78 49.3276 11.7348 49.0126 11.7877C48.6976 11.8407 48.4065 11.9893 48.1788 12.2133C47.7565 12.6181 47.1938 12.8435 46.6089 12.8423C45.9896 12.8132 45.402 12.5598 44.9558 12.1293C44.6515 11.8772 44.262 11.7517 43.8677 11.7786C43.4734 11.8056 43.1046 11.983 42.8374 12.2742C42.5702 12.5654 42.4251 12.9481 42.4321 13.3432C42.439 13.7384 42.5976 14.1157 42.8749 14.3973C43.221 14.765 43.6238 15.0749 44.0678 15.3153L44.0619 15.3113Z" fill="black"/>
</svg>
