<svg width="47" height="46" viewBox="0 0 47 46" fill="none" xmlns="http://www.w3.org/2000/svg">
<path d="M0.004 46V42.4C0.004 41.708 -0.005 41.016 0.004 40.324C-0.00983935 39.331 0.362689 38.3714 1.04296 37.6479C1.72322 36.9243 2.65801 36.4934 3.65 36.446C3.911 36.426 4.173 36.434 4.49 36.43C6.827 36.43 9.109 36.418 11.39 36.43C12.2888 36.3913 13.1716 36.6771 13.8773 37.2352C14.583 37.7933 15.0645 38.5864 15.234 39.47C14.1075 40.1501 13.1739 41.1072 12.522 42.2503C11.8701 43.3933 11.5217 44.6842 11.51 46H0.004ZM34.532 46C34.5168 44.6797 34.164 43.3853 33.5073 42.2399C32.8506 41.0945 31.9117 40.1361 30.78 39.456C30.8985 38.9099 31.1349 38.3962 31.4726 37.9509C31.8102 37.5056 32.2411 37.1395 32.735 36.878C33.3816 36.6682 34.0481 36.5258 34.724 36.453C37.138 36.404 39.553 36.426 41.967 36.436C42.512 36.4046 43.0575 36.4895 43.5673 36.6849C44.0771 36.8803 44.5395 37.1819 44.9238 37.5696C45.3082 37.9572 45.6058 38.4222 45.7968 38.9336C45.9879 39.4451 46.0681 39.9912 46.032 40.536C46.032 42.348 46.032 44.159 46.032 46.004L34.532 46ZM15.417 45.993C15.3741 45.0696 15.689 44.1653 16.2963 43.4684C16.9036 42.7715 17.7564 42.3357 18.677 42.252C21.65 42.165 24.627 42.246 27.649 42.271C28.5021 42.4495 29.2671 42.918 29.814 43.5966C30.3609 44.2753 30.6559 45.1224 30.649 45.994L15.417 45.993ZM20.706 39.759C19.6911 39.3486 18.8227 38.6432 18.213 37.7341C17.6033 36.8249 17.2804 35.7537 17.286 34.659C17.254 33.9025 17.3776 33.1475 17.6492 32.4407C17.9208 31.7339 18.3346 31.0904 18.865 30.55C19.57 29.8098 20.4602 29.2716 21.4432 28.9912C22.4262 28.7107 23.4664 28.6983 24.4558 28.9552C25.4453 29.212 26.348 29.7288 27.0705 30.4519C27.7931 31.1751 28.309 32.0783 28.565 33.068C28.8795 34.1186 28.8691 35.2397 28.535 36.2843C28.2009 37.3288 27.5588 38.2479 26.693 38.921C25.709 39.7934 24.444 40.2829 23.129 40.3C22.293 40.2906 21.4683 40.1049 20.709 39.755L20.706 39.759ZM32.884 30.518C32.5176 29.3647 32.5253 28.125 32.906 26.9763C33.2866 25.8276 34.0208 24.8287 35.0034 24.1224C35.9861 23.4162 37.1669 23.0387 38.377 23.0441C39.5871 23.0494 40.7646 23.4372 41.741 24.1522C42.7173 24.8671 43.4427 25.8724 43.8132 27.0244C44.1837 28.1764 44.1805 29.4161 43.8039 30.5661C43.4274 31.7162 42.6968 32.7177 41.7167 33.4275C40.7366 34.1373 39.5571 34.519 38.347 34.518C37.1304 34.5138 35.9465 34.1239 34.9655 33.4045C33.9844 32.685 33.2567 31.673 32.887 30.514L32.884 30.518ZM6.904 34.463C5.83979 34.3189 4.83723 33.8795 4.00997 33.1947C3.18271 32.5099 2.56384 31.6071 2.22352 30.5885C1.8832 29.5699 1.83504 28.4764 2.08449 27.4318C2.33394 26.3873 2.87104 25.4335 3.63488 24.6786C4.39873 23.9237 5.35878 23.3979 6.40621 23.1608C7.45363 22.9237 8.54653 22.9848 9.56102 23.3371C10.5755 23.6894 11.471 24.3189 12.146 25.1542C12.821 25.9895 13.2485 26.9972 13.38 28.063C13.5052 29.1024 13.348 30.1563 12.925 31.114C12.4713 32.1273 11.7339 32.9875 10.8019 33.5908C9.86993 34.1942 8.78322 34.5148 7.673 34.514C7.41588 34.5123 7.15909 34.4952 6.904 34.463ZM29.132 24.938C26.0367 24.926 22.9417 24.9223 19.847 24.927H16.828C16.7149 24.9517 16.5968 24.9363 16.4938 24.8836C16.3907 24.8309 16.3092 24.7441 16.263 24.638C15.5017 23.0119 14.2964 21.6341 12.7859 20.6635C11.2754 19.6928 9.52138 19.1689 7.726 19.152V0H38.326V19.171C36.7869 19.192 35.2749 19.579 33.915 20.3C32.1476 21.2314 30.7238 22.7029 29.851 24.5C29.8006 24.6428 29.7032 24.7643 29.5748 24.8446C29.4464 24.9249 29.2945 24.9592 29.144 24.942L29.132 24.938ZM24.878 17.2H24.918V7.717C24.918 10.873 24.918 14.017 24.878 17.2Z" fill="#020202"/>
</svg>
