<svg width="97" height="96" viewBox="0 0 97 96" fill="none" xmlns="http://www.w3.org/2000/svg">
<path opacity="0.1" d="M75 0H22C9.84974 0 0 9.79375 0 21.875V73.5794C0 85.6606 9.84974 95.4544 22 95.4544H75C87.1503 95.4544 97 85.6606 97 73.5794V21.875C97 9.79375 87.1503 0 75 0Z" fill="white"/>
<path fill-rule="evenodd" clip-rule="evenodd" d="M46.1824 24.076C40.5106 24.6261 35.2342 27.2102 31.3384 31.3455C27.4426 35.4809 25.1938 40.8849 25.012 46.5482C24.8301 52.2116 26.7277 57.7472 30.3503 62.1212C33.973 66.4952 39.0729 69.4086 44.6978 70.3173C50.3227 71.2259 56.088 70.0678 60.9169 67.0591C65.7458 64.0504 69.3083 59.3968 70.939 53.9675C72.5697 48.5382 72.1571 42.7043 69.7784 37.5553C67.3996 32.4063 63.2172 28.2943 58.0124 25.9871C54.2795 24.4186 50.2227 23.7632 46.1824 24.076ZM50.2994 31.248C51.9824 31.6503 53.4796 32.6058 54.5483 33.9597C55.6171 35.3136 56.1949 36.9866 56.1881 38.7077C56.1813 40.4289 55.5903 42.0973 54.5108 43.4428C53.4314 44.7883 51.9267 45.732 50.2406 46.1212C48.5544 46.5103 46.7855 46.322 45.2204 45.5868C43.6553 44.8516 42.3856 43.6125 41.6171 42.0703C40.8486 40.5281 40.6262 38.7731 40.986 37.0895C41.3457 35.4059 42.2666 33.8924 43.5994 32.7942C44.5186 32.0367 45.6027 31.5026 46.7657 31.2342C47.9287 30.9658 49.1386 30.9706 50.2994 31.248ZM54.3174 50.2812C59.5684 51.1284 62.7744 57.8012 59.2684 60.5833C56.2357 63.0236 52.4572 64.3632 48.5559 64.3813C44.6547 64.3994 40.8638 63.0948 37.8084 60.6828C37.1399 60.2309 36.6349 59.5776 36.3678 58.8191C36.1006 58.0605 36.0854 57.2367 36.3244 56.4689C36.6374 54.9426 37.3966 53.5421 38.5069 52.4431C39.6171 51.3442 41.029 50.5955 42.5654 50.2912C43.2654 50.1748 53.6074 50.1709 54.3204 50.2912" fill="white"/>
</svg>
