<svg width="20" height="20" viewBox="0 0 20 20" fill="none" xmlns="http://www.w3.org/2000/svg">
<path d="M10.0008 2.90738e-08C8.02292 -0.000150756 6.08945 0.586211 4.44486 1.68493C2.80026 2.78366 1.51842 4.34539 0.761428 6.17264C0.0044347 7.99988 -0.193707 10.0106 0.192059 11.9504C0.577825 13.8903 1.53017 15.6722 2.92867 17.0708C4.32716 18.4694 6.10899 19.4219 8.04882 19.8078C9.98865 20.1937 11.9994 19.9957 13.8267 19.2389C15.654 18.482 17.2158 17.2003 18.3146 15.5558C19.4135 13.9113 20 11.9778 20 10C20 7.34797 18.9465 4.80454 17.0713 2.9292C15.1961 1.05386 12.6528 0.000202212 10.0008 2.90738e-08ZM12.082 15.4967C11.5677 15.7 11.1575 15.8545 10.8516 15.9602C10.5072 16.0727 10.1465 16.1268 9.78425 16.1203C9.25956 16.1512 8.74197 15.9869 8.33118 15.6591C8.16413 15.5169 8.03095 15.3392 7.94139 15.139C7.85183 14.9388 7.80815 14.7211 7.81353 14.5018C7.81383 14.3151 7.82656 14.1287 7.85165 13.9437C7.87757 13.7539 7.9195 13.5404 7.97591 13.3011L8.6163 11.0269C8.67272 10.8081 8.72227 10.6038 8.76115 10.4079C8.79786 10.2323 8.81726 10.0536 8.81909 9.87421C8.8309 9.7657 8.82108 9.65593 8.7902 9.55124C8.75932 9.44656 8.70799 9.34903 8.63917 9.26431C8.4381 9.12757 8.19464 9.06751 7.95304 9.09507C7.7795 9.09575 7.60695 9.12143 7.44073 9.1713C7.27148 9.22467 7.11672 9.2727 6.99322 9.32378L7.16246 8.62316C7.5838 8.45391 7.98735 8.30678 8.37311 8.18175C8.72523 8.06396 9.09354 8.00172 9.46482 7.99725C9.98146 7.96425 10.492 8.12427 10.8973 8.44629C11.0616 8.59154 11.1918 8.77126 11.2786 8.97262C11.3655 9.17398 11.4068 9.39202 11.3997 9.61119C11.3997 9.70979 11.3883 9.88386 11.3654 10.1334C11.3455 10.3658 11.3023 10.5957 11.2366 10.8195L10.5962 13.0884C10.5436 13.2706 10.4971 13.4787 10.4544 13.7112C10.4193 13.8871 10.3986 14.0656 10.3926 14.2449C10.3791 14.356 10.3902 14.4687 10.4251 14.575C10.46 14.6813 10.5179 14.7787 10.5947 14.8601C10.804 14.9893 11.0496 15.0468 11.2945 15.024C11.4754 15.0197 11.6548 14.9912 11.8282 14.9394C11.9744 14.9022 12.1176 14.854 12.2566 14.7953L12.082 15.4967ZM11.97 6.28878C11.6785 6.56355 11.2909 6.71301 10.8905 6.70504C10.489 6.71222 10.1005 6.56294 9.80712 6.28878C9.66512 6.16103 9.55157 6.00484 9.47384 5.83036C9.39611 5.65587 9.35594 5.46699 9.35594 5.27598C9.35594 5.08496 9.39611 4.89608 9.47384 4.7216C9.55157 4.54711 9.66512 4.39092 9.80712 4.26317C10.0987 3.98539 10.4878 3.83342 10.8905 3.84005C11.2921 3.8326 11.6803 3.98476 11.97 4.26317C12.1113 4.39103 12.2242 4.54708 12.3015 4.72126C12.3788 4.89545 12.4187 5.08389 12.4187 5.27445C12.4187 5.46501 12.3788 5.65346 12.3015 5.82764C12.2242 6.00182 12.1113 6.15787 11.97 6.28574V6.28878Z" fill="#3A4B4C"/>
</svg>
