<svg width="31" height="30" viewBox="0 0 31 30" fill="none" xmlns="http://www.w3.org/2000/svg">
<path d="M18.6694 29.7138H13.4694C13.2198 29.7186 12.9709 29.6871 12.7304 29.6203C12.1798 29.4592 11.6937 29.1305 11.3406 28.6806C10.9874 28.2306 10.7849 27.6819 10.7614 27.1117C10.6864 26.2993 10.5614 25.4909 10.4724 24.6806C10.4454 24.4449 10.2874 24.4529 10.1154 24.4529H3.24645C2.98545 24.4599 2.72471 24.4315 2.47145 24.3683C1.90031 24.222 1.39532 23.8888 1.03779 23.4223C0.680259 22.9559 0.490988 22.3834 0.500448 21.797C0.500448 17.4632 0.500448 13.1306 0.500448 8.79934C0.500448 6.79679 0.500448 4.79424 0.500448 2.79168C0.485007 2.43435 0.544163 2.0777 0.674188 1.74422C0.804213 1.41074 1.00229 1.10764 1.25594 0.854035C1.50959 0.600426 1.81331 0.401799 2.14797 0.270668C2.48264 0.139536 2.84099 0.078742 3.20045 0.0921152C4.17045 0.0921152 5.14012 0.0921152 6.10945 0.0921152C8.05545 0.0980811 10.0004 0.101064 11.9514 0.0831663C12.6699 0.0624874 13.3673 0.325052 13.8919 0.813613C14.4164 1.30217 14.7254 1.97711 14.7514 2.69126C14.8174 3.50361 14.9434 4.311 15.0424 5.12137C15.0412 5.15528 15.0477 5.18903 15.0614 5.2201C15.0751 5.25116 15.0958 5.27873 15.1217 5.30074C15.1477 5.32274 15.1784 5.33861 15.2114 5.34715C15.2444 5.3557 15.279 5.35669 15.3124 5.35006C15.3984 5.3431 15.4864 5.35006 15.5734 5.35006H19.1004C21.9138 5.35006 24.7271 5.35006 27.5404 5.35006C28.186 5.33393 28.8148 5.55571 29.3058 5.97275C29.7969 6.38978 30.1155 6.97261 30.2004 7.60915C30.2191 7.74087 30.2271 7.87387 30.2244 8.00687C30.2244 14.3513 30.2244 20.696 30.2244 27.0411C30.2351 27.3932 30.1736 27.7439 30.0435 28.0717C29.9135 28.3994 29.7177 28.6974 29.4681 28.9475C29.2184 29.1976 28.9202 29.3945 28.5916 29.5262C28.2629 29.658 27.9107 29.7218 27.5564 29.7138C25.5124 29.7138 23.4681 29.7138 21.4234 29.7138H18.6694ZM15.3284 7.39835C15.4014 7.91142 15.4654 8.42647 15.5284 8.94054C15.6564 9.96965 15.7814 10.9988 15.9124 12.0796C15.9294 12.1939 15.9494 12.3073 15.9634 12.4216C16.0634 13.2598 16.1634 14.099 16.2714 14.9373C16.4374 16.2517 16.6074 17.5652 16.7714 18.8797C16.9414 20.222 17.0884 21.5644 17.2854 22.9067C17.3516 23.1851 17.3472 23.4754 17.2727 23.7517C17.1981 24.028 17.0558 24.2815 16.8584 24.4897C16.0144 25.3845 15.2314 26.3441 14.4234 27.2737C14.2494 27.4726 14.0794 27.6784 13.9064 27.8823C13.9454 27.9103 13.9899 27.9296 14.037 27.9391C14.0841 27.9485 14.1327 27.9478 14.1794 27.9369C18.5954 27.9369 23.0114 27.9369 27.4274 27.9369C27.5684 27.9537 27.7114 27.9378 27.8451 27.8904C27.9788 27.843 28.0997 27.7654 28.1982 27.6638C28.2967 27.5622 28.3702 27.4392 28.413 27.3046C28.4557 27.17 28.4665 27.0274 28.4444 26.8879C28.4444 20.6483 28.4444 14.4086 28.4444 8.16895C28.4444 7.43713 28.1194 7.11994 27.3754 7.11895H15.5954C15.4314 7.12293 15.2914 7.14281 15.3284 7.39835ZM12.2774 24.7253C12.3614 25.3219 12.4234 25.9245 12.5064 26.5628C12.6434 26.7189 12.6874 26.5399 12.7374 26.4843C13.2714 25.8767 13.7984 25.2622 14.3254 24.6477C14.3644 24.602 14.4324 24.5583 14.3884 24.4588C13.7574 24.4588 13.1214 24.4588 12.4884 24.4588H12.4824C12.2804 24.4568 12.2514 24.5433 12.2774 24.7253ZM3.26045 1.87294C3.12911 1.85984 2.99648 1.87586 2.87211 1.91984C2.74774 1.96382 2.63473 2.03467 2.5412 2.12729C2.44767 2.2199 2.37595 2.33199 2.33121 2.45547C2.28647 2.57895 2.26982 2.71075 2.28245 2.8414C2.28245 9.13874 2.28245 15.4341 2.28245 21.7274C2.2682 21.8556 2.28286 21.9853 2.32534 22.1071C2.36782 22.229 2.43707 22.3399 2.52805 22.4318C2.61902 22.5236 2.72945 22.5942 2.85129 22.6384C2.97314 22.6825 3.10334 22.6991 3.23245 22.687C7.19312 22.687 11.1538 22.6893 15.1144 22.6939C15.3764 22.6939 15.4314 22.5945 15.4024 22.3678C15.2758 21.3874 15.1511 20.407 15.0284 19.4266C14.8994 18.3985 14.7744 17.3694 14.6424 16.2895C14.4724 14.9661 14.2974 13.6437 14.1324 12.3202C13.9324 10.7015 13.7384 9.08173 13.5384 7.46298C13.3494 5.92975 13.1544 4.3975 12.9634 2.86427C12.8794 2.18714 12.5714 1.86995 11.9544 1.86995H7.69845L3.26045 1.87294ZM24.2894 21.6071C23.6934 21.1325 23.1038 20.6499 22.5204 20.1594C22.3764 20.0381 22.2894 20.0242 22.1354 20.1594C21.5464 20.6566 20.9444 21.1408 20.3404 21.6201C20.2511 21.7053 20.1449 21.7712 20.0287 21.8137C19.9125 21.8563 19.7888 21.8746 19.6652 21.8674C19.5415 21.8602 19.4207 21.8277 19.3103 21.772C19.1999 21.7163 19.1022 21.6385 19.0234 21.5435C18.9439 21.4456 18.8857 21.3324 18.8525 21.2109C18.8193 21.0895 18.8119 20.9625 18.8307 20.838C18.8495 20.7136 18.8942 20.5944 18.9618 20.488C19.0294 20.3816 19.1185 20.2904 19.2234 20.2201C19.8414 19.7289 20.4634 19.2436 21.0604 18.7057C20.8024 18.3189 20.5164 17.9699 20.2714 17.5901C19.799 16.8505 19.4173 16.0574 19.1344 15.2276C19.0674 15.0287 18.9924 14.9293 18.7584 14.9194C18.5329 14.8985 18.3239 14.7927 18.1744 14.6236C18.0248 14.4545 17.9459 14.2349 17.954 14.0098C17.962 13.7847 18.0564 13.5712 18.2177 13.4131C18.379 13.255 18.595 13.1642 18.8214 13.1594C19.5844 13.1515 20.3484 13.1475 21.1114 13.1594C21.3694 13.1594 21.4604 13.0759 21.4384 12.8253C21.4278 12.6425 21.4278 12.4593 21.4384 12.2765C21.447 12.047 21.545 11.8299 21.7116 11.6709C21.8782 11.5119 22.1004 11.4236 22.3313 11.4245C22.5622 11.4254 22.7838 11.5155 22.9491 11.6757C23.1145 11.836 23.2107 12.0539 23.2174 12.2834C23.1953 12.5578 23.2117 12.8339 23.2664 13.1037C23.3572 13.1481 23.459 13.1653 23.5594 13.1535H24.4154C24.8874 13.1535 25.3584 13.1535 25.8304 13.1594C26.0565 13.1646 26.272 13.2556 26.4328 13.4137C26.5936 13.5718 26.6876 13.785 26.6954 14.0098C26.7032 14.2345 26.6242 14.4537 26.4748 14.6224C26.3253 14.7911 26.1166 14.8967 25.8914 14.9174C25.8065 14.9119 25.7224 14.9373 25.6549 14.9889C25.5874 15.0405 25.541 15.1147 25.5244 15.1978C25.1416 16.3719 24.5499 17.4681 23.7774 18.4343C23.6164 18.6331 23.6194 18.7594 23.8274 18.9215C24.3594 19.3371 24.8744 19.7746 25.4014 20.1962C25.5098 20.2651 25.6025 20.3557 25.6736 20.4622C25.7448 20.5687 25.7929 20.6888 25.8148 20.8148C25.8367 20.9408 25.832 21.07 25.801 21.1941C25.7699 21.3181 25.7132 21.4344 25.6344 21.5355C25.5551 21.6379 25.4531 21.7208 25.3364 21.7779C25.2198 21.835 25.0915 21.8646 24.9614 21.8647C24.7144 21.858 24.4771 21.7671 24.2894 21.6071ZM22.3004 17.3117C22.4464 17.249 22.4884 17.1456 22.5804 17.0333C23.0468 16.3978 23.4174 15.6981 23.6804 14.9561H20.9504C21.27 15.8084 21.7259 16.6039 22.3004 17.3117ZM10.6304 16.5689C10.4976 16.5077 10.3823 16.4144 10.2949 16.2975C10.2076 16.1806 10.1511 16.0439 10.1304 15.8998C9.97145 15.1192 9.80745 14.3397 9.66445 13.5562C9.61445 13.2837 9.51145 13.1684 9.21245 13.1843C8.85045 13.2042 8.48745 13.1992 8.12445 13.1952C7.96545 13.1952 7.80645 13.1952 7.64745 13.1952C7.22145 13.1952 7.22745 13.1952 7.14745 13.6019C6.99945 14.3556 6.84745 15.1083 6.68945 15.859C6.67605 16.0131 6.62234 16.1611 6.53364 16.2882C6.44495 16.4153 6.32435 16.5172 6.18383 16.5836C6.04332 16.65 5.88776 16.6788 5.73262 16.667C5.57748 16.6551 5.42815 16.6032 5.29945 16.5162C5.14199 16.4043 5.02272 16.2471 4.95766 16.0658C4.8926 15.8845 4.88485 15.6878 4.93545 15.502C5.48278 12.7842 6.02978 10.0664 6.57645 7.34864C6.60645 7.19849 6.62645 7.04437 6.67145 6.89821C6.71797 6.69261 6.83756 6.51062 7.00823 6.38567C7.1789 6.26073 7.38919 6.20122 7.60045 6.2181C8.13378 6.2181 8.66478 6.2181 9.19345 6.2181C9.31024 6.20561 9.42836 6.21637 9.54092 6.24974C9.65349 6.28311 9.75825 6.33842 9.84909 6.41246C9.93994 6.4865 10.015 6.57778 10.07 6.68098C10.125 6.78418 10.1588 6.89723 10.1694 7.01355C10.5034 8.62931 10.8264 10.2471 11.1524 11.8648C11.3971 13.0779 11.6408 14.291 11.8834 15.504C11.9342 15.6762 11.9328 15.8593 11.8794 16.0307C11.8261 16.2021 11.7231 16.354 11.5834 16.4675C11.4314 16.5949 11.2393 16.6653 11.0404 16.6664C10.897 16.6642 10.7557 16.6309 10.6264 16.5689H10.6304ZM8.24045 8.2117C8.18345 8.50304 8.12445 8.79437 8.05245 9.13343C7.91645 9.81056 7.78645 10.4887 7.64045 11.1638C7.59545 11.3716 7.67145 11.4243 7.85845 11.4184C8.07045 11.4124 8.28345 11.4184 8.49545 11.4184C9.21645 11.4184 9.22245 11.4184 9.08445 10.7154C8.92045 9.87718 8.74545 9.04195 8.57645 8.20574C8.55745 8.11127 8.55245 8.00687 8.42045 7.99892H8.40645C8.26745 7.99792 8.26045 8.10929 8.24045 8.2117Z" fill="black"/>
</svg>
