<svg width="97" height="96" viewBox="0 0 97 96" fill="none" xmlns="http://www.w3.org/2000/svg">
<path opacity="0.1" d="M75 0H22C9.84974 0 0 9.79375 0 21.875V73.5794C0 85.6606 9.84974 95.4544 22 95.4544H75C87.1503 95.4544 97 85.6606 97 73.5794V21.875C97 9.79375 87.1503 0 75 0Z" fill="white"/>
<path d="M68.227 64.2451H28.337C27.9576 64.2367 27.5826 64.1623 27.229 64.0254L41.482 50.3654L47.247 55.7109C47.5306 55.9732 47.9045 56.1176 48.2919 56.1145C48.6792 56.1114 49.0507 55.9609 49.33 55.694L55.117 50.1556L69.825 63.8056C69.3383 64.0858 68.7873 64.2368 68.225 64.2441L68.227 64.2451ZM25.141 61.7901C25.0565 61.5138 25.0091 61.2276 25 60.939V35.1494L39.22 48.3142L25.143 61.7862L25.141 61.7901ZM71.441 61.2194L57.279 48.0676L71.457 34.4832C71.4631 34.5104 71.4631 34.5386 71.457 34.5658C71.4475 34.5903 71.4417 34.6161 71.44 34.6423V61.2184L71.441 61.2194ZM48.265 52.5321L26.236 32.0969C26.8241 31.6034 27.5665 31.3288 28.336 31.3203H68.236C68.8262 31.3291 69.403 31.4968 69.905 31.8055L48.265 52.5321Z" fill="white"/>
</svg>
