<svg width="315" height="70" viewBox="0 0 315 70" fill="none" xmlns="http://www.w3.org/2000/svg">
<rect width="314.831" height="70" rx="4" fill="white"/>
<rect x="0.767033" y="0.767033" width="313.297" height="68.4659" rx="3.23297" stroke="black" stroke-opacity="0.5" stroke-width="1.53407"/>
<path d="M71.4321 29.848V41H69.9761V29.848H71.4321ZM73.8176 29.848H75.4336L73.8976 33.48H72.8736L73.8176 29.848ZM87.3176 32.072C88.0003 32.072 88.6083 32.216 89.1416 32.504C89.675 32.7813 90.0963 33.2027 90.4056 33.768C90.715 34.3333 90.8696 35.0213 90.8696 35.832V41H89.4296V36.04C89.4296 35.1653 89.211 34.4987 88.7736 34.04C88.347 33.5707 87.7656 33.336 87.0296 33.336C86.2723 33.336 85.6696 33.5813 85.2216 34.072C84.7736 34.552 84.5496 35.2507 84.5496 36.168V41H83.1096V36.04C83.1096 35.1653 82.891 34.4987 82.4536 34.04C82.027 33.5707 81.4456 33.336 80.7096 33.336C79.9523 33.336 79.3496 33.5813 78.9016 34.072C78.4536 34.552 78.2296 35.2507 78.2296 36.168V41H76.7736V32.232H78.2296V33.496C78.5176 33.0373 78.9016 32.6853 79.3816 32.44C79.8723 32.1947 80.411 32.072 80.9976 32.072C81.7336 32.072 82.3843 32.2373 82.9496 32.568C83.515 32.8987 83.9363 33.384 84.2136 34.024C84.459 33.4053 84.8643 32.9253 85.4296 32.584C85.995 32.2427 86.6243 32.072 87.3176 32.072ZM101.156 32.072C102.222 32.072 103.086 32.3973 103.748 33.048C104.409 33.688 104.74 34.616 104.74 35.832V41H103.3V36.04C103.3 35.1653 103.081 34.4987 102.644 34.04C102.206 33.5707 101.609 33.336 100.852 33.336C100.084 33.336 99.4703 33.576 99.0116 34.056C98.5636 34.536 98.3396 35.2347 98.3396 36.152V41H96.8836V32.232H98.3396V33.48C98.6276 33.032 99.017 32.6853 99.5076 32.44C100.009 32.1947 100.558 32.072 101.156 32.072ZM110.622 41.144C109.801 41.144 109.054 40.9573 108.382 40.584C107.721 40.2107 107.198 39.6827 106.814 39C106.441 38.3067 106.254 37.5067 106.254 36.6C106.254 35.704 106.446 34.9147 106.83 34.232C107.225 33.5387 107.758 33.0107 108.43 32.648C109.102 32.2747 109.854 32.088 110.686 32.088C111.518 32.088 112.27 32.2747 112.942 32.648C113.614 33.0107 114.142 33.5333 114.526 34.216C114.921 34.8987 115.118 35.6933 115.118 36.6C115.118 37.5067 114.915 38.3067 114.51 39C114.115 39.6827 113.577 40.2107 112.894 40.584C112.211 40.9573 111.454 41.144 110.622 41.144ZM110.622 39.864C111.145 39.864 111.635 39.7413 112.094 39.496C112.553 39.2507 112.921 38.8827 113.198 38.392C113.486 37.9013 113.63 37.304 113.63 36.6C113.63 35.896 113.491 35.2987 113.214 34.808C112.937 34.3173 112.574 33.9547 112.126 33.72C111.678 33.4747 111.193 33.352 110.67 33.352C110.137 33.352 109.646 33.4747 109.198 33.72C108.761 33.9547 108.409 34.3173 108.142 34.808C107.875 35.2987 107.742 35.896 107.742 36.6C107.742 37.3147 107.87 37.9173 108.126 38.408C108.393 38.8987 108.745 39.2667 109.182 39.512C109.619 39.7467 110.099 39.864 110.622 39.864ZM118.488 33.432V38.6C118.488 39.0267 118.579 39.3307 118.76 39.512C118.942 39.6827 119.256 39.768 119.704 39.768H120.776V41H119.464C118.654 41 118.046 40.8133 117.64 40.44C117.235 40.0667 117.032 39.4533 117.032 38.6V33.432H115.896V32.232H117.032V30.024H118.488V32.232H120.776V33.432H118.488ZM125.622 36.584C125.622 35.688 125.803 34.904 126.166 34.232C126.529 33.5493 127.025 33.0213 127.654 32.648C128.294 32.2747 129.003 32.088 129.782 32.088C130.55 32.088 131.217 32.2533 131.782 32.584C132.347 32.9147 132.769 33.3307 133.046 33.832V32.232H134.518V41H133.046V39.368C132.758 39.88 132.326 40.3067 131.75 40.648C131.185 40.9787 130.523 41.144 129.766 41.144C128.987 41.144 128.283 40.952 127.654 40.568C127.025 40.184 126.529 39.6453 126.166 38.952C125.803 38.2587 125.622 37.4693 125.622 36.584ZM133.046 36.6C133.046 35.9387 132.913 35.3627 132.646 34.872C132.379 34.3813 132.017 34.008 131.558 33.752C131.11 33.4853 130.614 33.352 130.07 33.352C129.526 33.352 129.03 33.48 128.582 33.736C128.134 33.992 127.777 34.3653 127.51 34.856C127.243 35.3467 127.11 35.9227 127.11 36.584C127.11 37.256 127.243 37.8427 127.51 38.344C127.777 38.8347 128.134 39.2133 128.582 39.48C129.03 39.736 129.526 39.864 130.07 39.864C130.614 39.864 131.11 39.736 131.558 39.48C132.017 39.2133 132.379 38.8347 132.646 38.344C132.913 37.8427 133.046 37.2613 133.046 36.6ZM142.06 33.656C142.316 33.1547 142.679 32.7653 143.148 32.488C143.628 32.2107 144.21 32.072 144.892 32.072V33.576H144.508C142.876 33.576 142.06 34.4613 142.06 36.232V41H140.604V32.232H142.06V33.656ZM150.077 41.144C149.256 41.144 148.509 40.9573 147.837 40.584C147.176 40.2107 146.653 39.6827 146.269 39C145.896 38.3067 145.709 37.5067 145.709 36.6C145.709 35.704 145.901 34.9147 146.285 34.232C146.68 33.5387 147.213 33.0107 147.885 32.648C148.557 32.2747 149.309 32.088 150.141 32.088C150.973 32.088 151.725 32.2747 152.397 32.648C153.069 33.0107 153.597 33.5333 153.981 34.216C154.376 34.8987 154.573 35.6933 154.573 36.6C154.573 37.5067 154.37 38.3067 153.965 39C153.57 39.6827 153.032 40.2107 152.349 40.584C151.666 40.9573 150.909 41.144 150.077 41.144ZM150.077 39.864C150.6 39.864 151.09 39.7413 151.549 39.496C152.008 39.2507 152.376 38.8827 152.653 38.392C152.941 37.9013 153.085 37.304 153.085 36.6C153.085 35.896 152.946 35.2987 152.669 34.808C152.392 34.3173 152.029 33.9547 151.581 33.72C151.133 33.4747 150.648 33.352 150.125 33.352C149.592 33.352 149.101 33.4747 148.653 33.72C148.216 33.9547 147.864 34.3173 147.597 34.808C147.33 35.2987 147.197 35.896 147.197 36.6C147.197 37.3147 147.325 37.9173 147.581 38.408C147.848 38.8987 148.2 39.2667 148.637 39.512C149.074 39.7467 149.554 39.864 150.077 39.864ZM157.623 33.864C157.922 33.3413 158.359 32.9147 158.935 32.584C159.511 32.2533 160.167 32.088 160.903 32.088C161.693 32.088 162.402 32.2747 163.031 32.648C163.661 33.0213 164.157 33.5493 164.519 34.232C164.882 34.904 165.063 35.688 165.063 36.584C165.063 37.4693 164.882 38.2587 164.519 38.952C164.157 39.6453 163.655 40.184 163.015 40.568C162.386 40.952 161.682 41.144 160.903 41.144C160.146 41.144 159.479 40.9787 158.903 40.648C158.338 40.3173 157.911 39.896 157.623 39.384V41H156.167V29.16H157.623V33.864ZM163.575 36.584C163.575 35.9227 163.442 35.3467 163.175 34.856C162.909 34.3653 162.546 33.992 162.087 33.736C161.639 33.48 161.143 33.352 160.599 33.352C160.066 33.352 159.57 33.4853 159.111 33.752C158.663 34.008 158.301 34.3867 158.023 34.888C157.757 35.3787 157.623 35.9493 157.623 36.6C157.623 37.2613 157.757 37.8427 158.023 38.344C158.301 38.8347 158.663 39.2133 159.111 39.48C159.57 39.736 160.066 39.864 160.599 39.864C161.143 39.864 161.639 39.736 162.087 39.48C162.546 39.2133 162.909 38.8347 163.175 38.344C163.442 37.8427 163.575 37.256 163.575 36.584ZM170.484 41.144C169.663 41.144 168.916 40.9573 168.244 40.584C167.583 40.2107 167.06 39.6827 166.676 39C166.303 38.3067 166.116 37.5067 166.116 36.6C166.116 35.704 166.308 34.9147 166.692 34.232C167.087 33.5387 167.62 33.0107 168.292 32.648C168.964 32.2747 169.716 32.088 170.548 32.088C171.38 32.088 172.132 32.2747 172.804 32.648C173.476 33.0107 174.004 33.5333 174.388 34.216C174.783 34.8987 174.98 35.6933 174.98 36.6C174.98 37.5067 174.777 38.3067 174.372 39C173.977 39.6827 173.439 40.2107 172.756 40.584C172.073 40.9573 171.316 41.144 170.484 41.144ZM170.484 39.864C171.007 39.864 171.497 39.7413 171.956 39.496C172.415 39.2507 172.783 38.8827 173.06 38.392C173.348 37.9013 173.492 37.304 173.492 36.6C173.492 35.896 173.353 35.2987 173.076 34.808C172.799 34.3173 172.436 33.9547 171.988 33.72C171.54 33.4747 171.055 33.352 170.532 33.352C169.999 33.352 169.508 33.4747 169.06 33.72C168.623 33.9547 168.271 34.3173 168.004 34.808C167.737 35.2987 167.604 35.896 167.604 36.6C167.604 37.3147 167.732 37.9173 167.988 38.408C168.255 38.8987 168.607 39.2667 169.044 39.512C169.481 39.7467 169.961 39.864 170.484 39.864ZM178.35 33.432V38.6C178.35 39.0267 178.441 39.3307 178.622 39.512C178.804 39.6827 179.118 39.768 179.566 39.768H180.638V41H179.326C178.516 41 177.908 40.8133 177.502 40.44C177.097 40.0667 176.894 39.4533 176.894 38.6V33.432H175.758V32.232H176.894V30.024H178.35V32.232H180.638V33.432H178.35Z" fill="#4F4F4F"/>
<g clip-path="url(#clip0_6_410210)">
<path d="M281.318 29.5703C281.318 29.3884 281.312 29.2096 281.306 29.0308V18.8125L278.484 21.6391C276.173 18.8063 272.658 17 268.72 17C264.622 17 260.981 18.9574 258.679 21.9874L263.307 26.6666C263.76 25.8282 264.404 25.1069 265.18 24.5613C265.987 23.9294 267.133 23.4146 268.717 23.4146C268.908 23.4146 269.056 23.4362 269.164 23.4793C271.126 23.6334 272.827 24.7185 273.828 26.2905L270.553 29.5672C274.704 29.5518 279.393 29.5425 281.318 29.5703Z" fill="#1C3AA9"/>
<path d="M268.646 17C268.464 17 268.286 17.0062 268.107 17.0123H257.89L260.716 19.8359C257.887 22.1508 256.079 25.6679 256.079 29.6072C256.079 33.7069 258.035 37.3504 261.064 39.653L265.741 35.0231C264.903 34.57 264.182 33.9258 263.637 33.149C263.005 32.3414 262.49 31.1947 262.49 29.6103C262.49 29.4192 262.512 29.2713 262.555 29.1634C262.709 27.1998 263.794 25.4983 265.365 24.4965L268.64 27.7732C268.628 23.618 268.615 18.9296 268.646 17Z" fill="#4285F4"/>
<path d="M256.082 29.6055C256.082 29.7873 256.088 29.9661 256.094 30.1449V40.3632L258.917 37.5397C261.227 40.3694 264.743 42.1757 268.68 42.1757C272.778 42.1757 276.42 40.2184 278.721 37.1883L274.094 32.5091C273.641 33.3476 272.997 34.0689 272.22 34.6145C271.413 35.2464 270.267 35.7611 268.683 35.7611C268.492 35.7611 268.344 35.7396 268.237 35.6964C266.274 35.5423 264.573 34.4573 263.572 32.8852L266.847 29.6086C262.697 29.624 258.008 29.6332 256.082 29.6055Z" fill="#ABABAB"/>
<path d="M258.208 47.0625C257.9 47.0625 257.625 47.1211 257.382 47.2382C257.139 47.3523 256.932 47.5156 256.763 47.7252C256.596 47.9379 256.467 48.1938 256.378 48.4958C256.291 48.7948 256.248 49.1308 256.248 49.5007V50.5673C256.248 50.9402 256.291 51.2762 256.378 51.5752C256.467 51.8742 256.593 52.1301 256.76 52.3427C256.923 52.5554 257.123 52.7157 257.354 52.8298C257.588 52.9438 257.85 52.9993 258.14 52.9993C258.439 52.9993 258.701 52.9562 258.926 52.8698C259.154 52.7835 259.345 52.6572 259.496 52.4938C259.65 52.3273 259.767 52.127 259.85 51.8896C259.933 51.6554 259.985 51.3872 260.001 51.0882H259.268C259.249 51.3194 259.218 51.5167 259.172 51.68C259.126 51.8403 259.061 51.9759 258.975 52.0807C258.892 52.1855 258.778 52.2595 258.642 52.3119C258.507 52.3582 258.34 52.3828 258.143 52.3828C257.93 52.3828 257.752 52.3366 257.604 52.2441C257.456 52.1486 257.336 52.0191 257.243 51.8557C257.154 51.6923 257.086 51.4982 257.046 51.2793C257.006 51.0604 256.988 50.8231 256.988 50.5673V49.4915C256.988 49.2202 257.012 48.9705 257.059 48.7486C257.108 48.5267 257.185 48.3386 257.283 48.1814C257.385 48.0242 257.511 47.904 257.665 47.8208C257.82 47.7345 258.001 47.6913 258.214 47.6913C258.393 47.6913 258.544 47.7191 258.67 47.7715C258.796 47.8208 258.904 47.9009 258.987 48.0088C259.07 48.1136 259.135 48.2492 259.181 48.4126C259.228 48.576 259.255 48.7733 259.274 49.0014H260.007C259.995 48.69 259.945 48.4126 259.859 48.1722C259.776 47.9318 259.656 47.7283 259.505 47.5649C259.354 47.4016 259.169 47.2752 258.953 47.192C258.735 47.1057 258.488 47.0625 258.208 47.0625ZM276.13 47.0625C275.822 47.0625 275.548 47.1211 275.304 47.2382C275.061 47.3523 274.854 47.5156 274.685 47.7252C274.519 47.9379 274.389 48.1938 274.3 48.4958C274.214 48.7948 274.17 49.1308 274.17 49.5007V50.5673C274.17 50.9402 274.214 51.2762 274.3 51.5752C274.389 51.8742 274.519 52.1301 274.682 52.3427C274.845 52.5554 275.045 52.7157 275.276 52.8298C275.511 52.9438 275.773 52.9993 276.062 52.9993C276.361 52.9993 276.623 52.9562 276.848 52.8698C277.076 52.7835 277.267 52.6572 277.421 52.4938C277.575 52.3273 277.692 52.127 277.775 51.8896C277.858 51.6554 277.911 51.3872 277.926 51.0882H277.193C277.174 51.3194 277.144 51.5167 277.097 51.68C277.051 51.8403 276.986 51.9759 276.9 52.0807C276.814 52.1855 276.706 52.2595 276.567 52.3119C276.432 52.3582 276.265 52.3828 276.068 52.3828C275.856 52.3828 275.677 52.3366 275.529 52.2441C275.381 52.1486 275.261 52.0191 275.169 51.8557C275.079 51.6923 275.012 51.4982 274.971 51.2793C274.931 51.0604 274.913 50.8231 274.913 50.5673V49.4915C274.913 49.2202 274.938 48.9705 274.984 48.7486C275.033 48.5267 275.11 48.3386 275.209 48.1814C275.307 48.0242 275.437 47.904 275.591 47.8208C275.745 47.7345 275.927 47.6913 276.139 47.6913C276.318 47.6913 276.469 47.7191 276.595 47.7715C276.721 47.8208 276.829 47.9009 276.913 48.0088C276.999 48.1136 277.063 48.2492 277.107 48.4126C277.15 48.576 277.181 48.7733 277.196 49.0014H277.929C277.917 48.69 277.868 48.4126 277.781 48.1722C277.695 47.9318 277.578 47.7283 277.427 47.5649C277.276 47.4016 277.091 47.2752 276.876 47.192C276.657 47.1057 276.41 47.0625 276.13 47.0625ZM262.389 47.1426L260.528 52.9253H261.273L261.723 51.418H263.677L264.133 52.9253H264.878L263.014 47.1426H262.389ZM265.664 47.1426V52.9253H266.391V50.6628H267.506C267.783 50.6628 268.03 50.6227 268.246 50.5488C268.461 50.4686 268.64 50.3546 268.785 50.2066C268.933 50.0586 269.044 49.8768 269.118 49.6579C269.195 49.4391 269.232 49.1894 269.232 48.912C269.232 48.6561 269.192 48.4188 269.118 48.2061C269.044 47.9903 268.933 47.8023 268.788 47.6451C268.643 47.4879 268.461 47.3646 268.243 47.2752C268.027 47.1889 267.783 47.1426 267.503 47.1426H265.664ZM269.789 47.1426V47.7715H271.305V52.9253H272.032V47.7684H273.551V47.1396H269.789V47.1426ZM278.906 47.1426V52.9253H279.633V50.2528H281.959V52.9253H282.689V47.1426H281.959V49.6271H279.633V47.1426H278.906ZM285.441 47.1426L283.58 52.9253H284.325L284.775 51.418H286.729L287.185 52.9253H287.93L286.066 47.1426H285.441ZM266.391 47.7684H267.506C267.685 47.7684 267.833 47.7992 267.959 47.8639C268.085 47.9287 268.19 48.0119 268.267 48.1167C268.35 48.2215 268.409 48.3448 268.446 48.4866C268.486 48.6253 268.504 48.7671 268.504 48.9151C268.504 49.0784 268.486 49.2295 268.446 49.3682C268.409 49.5038 268.35 49.6209 268.267 49.7227C268.187 49.8213 268.085 49.8984 267.959 49.9538C267.836 50.0093 267.685 50.0371 267.506 50.0371H266.391V47.7684ZM262.7 48.1599L263.489 50.7892H261.914L262.7 48.1599ZM285.752 48.1599L286.541 50.7892H284.963L285.752 48.1599ZM251.562 48.5482C251.38 48.5482 251.223 48.5945 251.091 48.687C250.961 48.7794 250.853 48.9058 250.764 49.063L250.752 48.6253H250.071V52.9222H250.773V49.849C250.838 49.6672 250.933 49.5223 251.054 49.4175C251.177 49.3127 251.334 49.2572 251.525 49.2572C251.587 49.2572 251.639 49.2603 251.688 49.2665C251.735 49.2695 251.787 49.2757 251.842 49.285L251.839 48.6006C251.83 48.5945 251.812 48.5914 251.787 48.5852C251.765 48.576 251.741 48.5698 251.716 48.5667C251.691 48.5637 251.661 48.5575 251.633 48.5544C251.608 48.5513 251.584 48.5482 251.562 48.5482ZM253.925 48.5482C253.722 48.5482 253.525 48.5852 253.334 48.6561C253.143 48.727 252.973 48.8442 252.825 49.0106C252.68 49.1709 252.563 49.3836 252.471 49.6456C252.382 49.9045 252.335 50.2251 252.335 50.6012V51.0851C252.335 51.4118 252.372 51.6985 252.449 51.9389C252.526 52.1794 252.637 52.3797 252.779 52.54C252.924 52.6972 253.099 52.8113 253.306 52.8883C253.512 52.9654 253.743 53.0024 253.999 53.0024C254.184 53.0024 254.35 52.9839 254.495 52.9469C254.643 52.9099 254.775 52.8606 254.889 52.8051C255.003 52.7435 255.102 52.6757 255.182 52.5986C255.265 52.5215 255.333 52.4414 255.392 52.3612L255.025 51.9174C254.967 51.9883 254.905 52.0561 254.837 52.1146C254.772 52.1732 254.698 52.2256 254.618 52.2688C254.538 52.3119 254.452 52.3458 254.356 52.3674C254.261 52.3921 254.153 52.4044 254.036 52.4044C253.709 52.4044 253.46 52.2996 253.287 52.09C253.115 51.8804 253.029 51.5475 253.029 51.0851V50.9865H255.426V50.5765C255.426 50.2498 255.398 49.96 255.342 49.7072C255.287 49.4545 255.198 49.2449 255.077 49.0723C254.954 48.8996 254.8 48.7702 254.609 48.6839C254.424 48.5914 254.193 48.5482 253.925 48.5482ZM253.925 49.1524C254.079 49.1524 254.206 49.1801 254.307 49.2356C254.409 49.2911 254.486 49.3682 254.544 49.4699C254.606 49.5716 254.649 49.6918 254.674 49.8305C254.702 49.9693 254.72 50.1203 254.729 50.2868V50.3823H253.041C253.05 50.1419 253.081 49.9415 253.127 49.7812C253.173 49.624 253.238 49.4976 253.315 49.4052C253.395 49.3096 253.485 49.2449 253.589 49.2079C253.691 49.1709 253.802 49.1524 253.925 49.1524Z" fill="#A6A6A6"/>
</g>
<path d="M43.6536 28.3623C43.7711 28.2476 43.9112 28.1565 44.0659 28.0942C44.2206 28.032 44.3867 28 44.5545 28C44.7223 28 44.8884 28.032 45.0431 28.0942C45.1978 28.1565 45.338 28.2476 45.4554 28.3623C45.9476 28.8383 45.9545 29.6075 45.4726 30.0918L35.2969 41.6056C35.1813 41.727 35.0411 41.8246 34.8848 41.8924C34.7285 41.9601 34.5594 41.9967 34.3879 41.9998C34.2163 42.0029 34.0459 41.9724 33.8871 41.9103C33.7282 41.8482 33.5843 41.7557 33.4641 41.6385L27.2722 35.6329C27.0334 35.3998 26.8997 35.0864 26.8997 34.7599C26.8997 34.4334 27.0334 34.12 27.2722 33.8869C27.3897 33.7722 27.5298 33.6811 27.6845 33.6189C27.8392 33.5567 28.0053 33.5246 28.1731 33.5246C28.3409 33.5246 28.507 33.5567 28.6617 33.6189C28.8164 33.6811 28.9566 33.7722 29.074 33.8869L34.3263 38.9816L43.6192 28.3985C43.6299 28.3858 43.6414 28.3737 43.6536 28.3623Z" fill="#008000"/>
<defs>
<clipPath id="clip0_6_410210">
<rect width="37.8594" height="36" fill="white" transform="translate(250.071 17)"/>
</clipPath>
</defs>
</svg>
