<svg width="20" height="12" viewBox="0 0 20 12" fill="none" xmlns="http://www.w3.org/2000/svg">
<path fill-rule="evenodd" clip-rule="evenodd" d="M0.945405 0.0430768C0.658145 0.133266 0.408618 0.323786 0.237919 0.583269C0.0672207 0.842752 -0.0144697 1.15573 0.00630196 1.47064C0.00630196 2.17274 -0.369023 1.73413 4.67331 7.04076C9.74099 12.3774 9.32449 11.9938 9.99912 11.9938C10.6738 11.9938 10.2604 12.3807 15.3423 7.01908C20.372 1.71245 19.9935 2.1644 19.9935 1.46897C20.0103 1.27378 19.9863 1.0771 19.9233 0.892668C19.8604 0.70824 19.7599 0.540514 19.629 0.40122C19.4981 0.261926 19.3399 0.154421 19.1654 0.0862224C18.9909 0.0180243 18.8044 -0.00922594 18.6189 0.00638201C17.9332 0.00638201 18.3259 -0.352169 13.8965 4.30573L10.0007 8.41495L6.0986 4.3124C1.71664 -0.293804 2.06346 0.0263954 1.43475 0.00471522C1.27059 -0.00567169 1.10585 0.00836649 0.945405 0.0464104" fill="black"/>
</svg>
