<svg width="42" height="56" viewBox="0 0 42 56" fill="none" xmlns="http://www.w3.org/2000/svg">
<path fill-rule="evenodd" clip-rule="evenodd" d="M39.8359 46.4662C39.6221 46.4676 39.4104 46.425 39.2139 46.3408C39.0174 46.2567 38.8403 46.1329 38.6939 45.9772L35.5479 42.8312V48.3782C35.5418 50.4015 34.7338 52.3399 33.3009 53.7684C31.868 55.197 29.9272 55.9992 27.9039 55.9992H13.4779C11.4581 55.9944 9.52247 55.1899 8.09428 53.7618C6.6661 52.3336 5.86164 50.3979 5.85689 48.3782V42.9012L2.7809 45.9772C2.47497 46.2831 2.06004 46.455 1.6274 46.455C1.19475 46.455 0.779819 46.2831 0.473892 45.9772C0.167965 45.6712 -0.00390624 45.2563 -0.00390625 44.8237C-0.00390626 44.391 0.167965 43.9761 0.473892 43.6702L5.85789 38.2861V14.7242C5.89004 10.808 7.46827 7.06315 10.2489 4.3053C13.0294 1.54744 16.7871 0 20.7034 0C24.6197 0 28.3773 1.54744 31.1579 4.3053C33.9385 7.06315 35.5167 10.808 35.5489 14.7242V31.2012L32.2859 27.9382V14.7242C32.2859 11.6521 31.0655 8.70597 28.8933 6.53374C26.7211 4.3615 23.7749 3.14116 20.7029 3.14116C17.6309 3.14116 14.6847 4.3615 12.5125 6.53374C10.3402 8.70597 9.11989 11.6521 9.11989 14.7242V35.0242L17.4399 26.7042C18.3155 25.8297 19.5024 25.3385 20.7399 25.3385C21.9774 25.3385 23.1643 25.8297 24.0399 26.7042L41.0059 43.6712C41.2342 43.9014 41.3893 44.194 41.4517 44.5122C41.514 44.8304 41.4809 45.1599 41.3563 45.4593C41.2317 45.7587 41.0214 46.0145 40.7517 46.1946C40.4821 46.3746 40.1651 46.4709 39.8409 46.4712L39.8359 46.4662ZM32.2849 39.5662L21.7259 29.0102C21.4606 28.7523 21.1053 28.608 20.7354 28.608C20.3655 28.608 20.0101 28.7523 19.7449 29.0102L9.11789 39.6372V48.3772C9.12 49.5323 9.57983 50.6396 10.3967 51.4564C11.2135 52.2732 12.3207 52.733 13.4759 52.7352H27.9019C29.0606 52.7378 30.173 52.2803 30.9945 51.4631C31.816 50.6459 32.2795 49.5359 32.2829 48.3772L32.2849 39.5662Z" fill="#3A4B4C"/>
</svg>
