<svg width="536" height="575" viewBox="0 0 536 575" fill="none" xmlns="http://www.w3.org/2000/svg">
<path d="M79.8867 415.611C72.5549 411.005 64.2623 408.148 55.65 407.26C51.7112 406.853 47.3654 406.971 44.1881 409.374C43.8189 409.581 43.5135 409.884 43.3052 410.253C43.0968 410.621 42.9935 411.039 43.0065 411.462C43.1867 412.061 43.5848 412.572 44.1225 412.893C53.9826 420.416 68.9106 421.374 79.8867 415.611Z" fill="#E0E0E0"/>
<path d="M79.2703 414.888C73.6706 410.777 68.4466 406.177 63.6595 401.142C58.833 396.068 55.4435 389.801 53.8388 382.984C53.4187 380.923 53.2874 378.56 54.6135 376.918C67.0994 386.66 76.9333 399.238 79.3097 414.915" fill="#E0E0E0"/>
<path d="M79.7692 415.506C78.8239 408.678 78.4563 401.667 80.0581 394.958C81.6598 388.249 85.3098 381.829 91.0079 377.995C93.1611 383.037 92.2289 388.84 90.719 394.105C88.3595 402.261 84.6926 409.981 79.8611 416.963" fill="#E0E0E0"/>
<path d="M91.993 437.432C84.575 438.338 78.1022 442.25 72.5617 447.279C66.9778 452.345 63.0942 459.012 61.4412 466.369C68.7279 465.909 74.8987 460.776 79.3889 455.012C83.8791 449.248 86.9776 442.933 91.9011 437.55" fill="#E0E0E0"/>
<path d="M94.6578 440.937C91.7312 433.515 90.705 425.479 91.6726 417.56C92.6402 409.64 95.5708 402.088 100.198 395.588C104.426 410.635 102.824 427.637 94.6578 440.937Z" fill="#E0E0E0"/>
<path d="M110.82 460.185C104.036 459.758 97.2767 461.335 91.3824 464.72C85.488 468.105 80.7189 473.148 77.6685 479.222C77.2615 480.036 76.8939 481.086 77.4453 481.848C77.7345 482.124 78.0858 482.327 78.4697 482.439C78.8535 482.551 79.2587 482.569 79.651 482.491C86.2157 482.071 91.9663 478.132 96.7191 473.668C101.472 469.204 105.66 464.018 110.938 460.145" fill="#E0E0E0"/>
<path d="M110.308 459.147C106.828 447.943 106.614 435.979 109.691 424.657C110.899 420.206 112.947 415.532 117.044 413.458C117.207 413.347 117.393 413.273 117.587 413.239C117.782 413.205 117.981 413.212 118.173 413.261C118.509 413.432 118.764 413.729 118.882 414.088C120.266 417.19 120.866 420.585 120.628 423.974C120.381 427.349 119.863 430.7 119.079 433.992C117.766 440.123 117.096 446.701 113.735 451.979C112.94 453.246 112.225 454.561 111.595 455.918C110.965 457.231 110.965 457.729 110.374 458.793" fill="#E0E0E0"/>
<path d="M153.095 465.515C149.931 453.463 153.292 438.837 160.894 428.95C161.446 428.228 162.207 427.44 163.1 427.532C164.505 427.664 164.872 429.528 164.807 430.933C164.228 443.331 160.17 455.316 153.095 465.515Z" fill="#E0E0E0"/>
<path d="M156.957 468.154C171.609 471.962 188.467 468.259 200.599 459.279C193.293 455.61 184.942 454.584 176.966 456.377C169.088 458.189 161.867 461.721 156.957 468.194" fill="#E0E0E0"/>
<path d="M160.212 460.119C168.418 446.74 184.147 438.009 199.823 437.222C198.012 443.589 192.773 448.552 186.865 451.546C180.957 454.539 174.353 455.839 167.854 457.099C165.32 457.598 161.854 458.137 160.212 460.119Z" fill="#E0E0E0"/>
<path d="M153.91 421.165C156.129 413.55 158.361 405.869 158.978 397.965C159.595 390.061 158.466 381.803 154.357 375.015C146.689 389.851 145.915 407.182 153.687 421.952" fill="#E0E0E0"/>
<path d="M179.723 408.114C188.677 391.834 206.966 378.823 225.465 376.998C218.336 394.761 198.865 408.508 179.723 408.114Z" fill="#E0E0E0"/>
<path d="M174.077 411.318C187.442 413.353 198.839 421.887 211.324 427.073C213.946 428.336 216.851 428.892 219.753 428.688C221.108 428.684 222.428 428.261 223.533 427.478C224.638 426.694 225.473 425.588 225.925 424.312C226.376 423.035 226.422 421.649 226.055 420.345C225.688 419.042 224.927 417.883 223.876 417.029C222.108 415.391 220.027 414.127 217.758 413.313C204.143 407.641 189.556 407.497 175.258 410.95" fill="#E0E0E0"/>
<path d="M166.343 420.692C169.363 421.558 170.4 423.121 172.803 425.156C180.974 432.104 190.639 437.073 201.044 439.677C202.121 439.939 203.539 440.045 204.077 439.073C204.615 438.101 203.946 437.195 203.342 436.447C198.799 431.12 192.902 427.119 186.273 424.867C179.709 422.438 174.103 419.51 166.33 420.14" fill="#E0E0E0"/>
<path d="M157.613 364.065C163.093 369.118 169.57 372.968 176.627 375.369C183.683 377.77 191.164 378.669 198.589 378.009C199.275 378.02 199.942 377.782 200.467 377.339C201.491 376.21 200.256 374.477 199.049 373.545C187.009 364.144 172.409 360.258 157.613 364.065Z" fill="#E0E0E0"/>
<path d="M167.959 360.271C175.217 354.937 183.633 351.395 192.52 349.935C201.408 348.475 210.515 349.137 219.098 351.868C212.664 358.209 203.723 361.623 194.73 362.555C185.743 363.382 176.68 362.617 167.959 360.297" fill="#E0E0E0"/>
<path d="M163.85 334.248C162.668 322.222 163.43 312.729 162.602 300.65C162.537 299.679 162.327 298.524 161.421 298.169C160.108 297.696 159.11 299.233 158.703 300.519C156.95 306.12 156.502 312.047 157.391 317.847C158.281 323.648 160.486 329.168 163.837 333.986" fill="#E0E0E0"/>
<path d="M162.983 335.587C171.136 330.546 177.254 323.955 182.9 316.222C186.839 310.839 190.161 304.405 189.268 297.775C183.74 297.67 178.489 300.716 174.891 304.917C171.294 309.119 169.167 314.357 167.565 319.649C165.963 324.94 164.86 330.375 162.983 335.587Z" fill="#E0E0E0"/>
<path d="M182.558 330.139C200.492 323.512 217.095 313.73 231.583 301.255C225.727 298.904 219.018 300.309 213.202 302.673C199.836 308.082 188.9 317.194 182.335 330.034" fill="#E0E0E0"/>
<path d="M168.484 342.166C177.544 343.15 186.734 343.794 195.715 342.297C204.695 340.8 212.875 337.321 221.133 333.855C221.849 333.645 222.461 333.177 222.853 332.542C222.983 332.159 222.994 331.745 222.883 331.356C222.773 330.967 222.547 330.62 222.236 330.362C221.601 329.863 220.86 329.517 220.069 329.351C211.102 326.844 201.426 328.038 192.603 330.993C184.195 333.864 176.112 337.609 168.484 342.166Z" fill="#E0E0E0"/>
<path d="M116.807 364.472C110.636 352.012 111.03 337.465 116.374 324.611C120.129 330.336 120.588 337.622 119.893 344.437C119.197 351.251 117.135 358.249 117.004 365.089" fill="#E0E0E0"/>
<path d="M92.137 352.026C84.4063 351.926 76.7397 353.44 69.6275 356.472C62.5152 359.503 56.1138 363.986 50.8323 369.632C58.526 370.84 66.4561 368.857 73.454 365.431C80.452 362.004 86.6752 357.225 92.8329 352.459" fill="#E0E0E0"/>
<path d="M75.5549 346.485C68.0186 345.868 60.7581 344.936 53.5108 347.168C46.2634 349.4 39.6594 354.494 36.6921 361.413C43.8136 361.98 50.9564 360.619 57.3708 357.474C63.7449 354.34 69.8299 350.65 75.5549 346.446" fill="#E0E0E0"/>
<path d="M100.106 346.735C93.331 342.297 86.3594 337.767 78.4555 335.929C70.5517 334.091 61.3875 335.443 55.8994 341.404C62.2934 345.146 70.0528 345.592 77.4577 345.592C84.8626 345.592 93.9612 345.501 100.959 347.969" fill="#E0E0E0"/>
<path d="M100.145 347.102C88.5521 335.706 84.1538 315.251 88.8147 299.679C97.9755 313.695 101.981 330.459 100.145 347.102Z" fill="#E0E0E0"/>
<path d="M132.05 314.83C134.229 309.736 135.778 304.406 137.735 299.22C139.529 293.988 142.281 289.135 145.848 284.909C149.474 280.639 154.633 277.965 160.212 277.464C158.426 285.311 155.023 292.7 150.222 299.159C145.42 305.617 139.325 311.004 132.325 314.975" fill="#E0E0E0"/>
<path d="M126.272 321.552C122.649 316.563 118.474 309.736 113.563 306.086C108.653 302.436 102.259 300.112 96.272 301.543C99.374 306.98 103.7 311.619 108.908 315.093C114.116 318.566 120.061 320.778 126.272 321.552Z" fill="#E0E0E0"/>
<path d="M127.428 315.238C125.052 309.211 122.662 303.119 121.704 296.712C120.745 290.305 121.336 283.452 124.605 277.872C130.973 289.898 133.021 302.817 127.756 315.382" fill="#E0E0E0"/>
<path d="M132.103 277.871C135.713 265.937 146.637 257.153 158.427 253.123C159.889 252.524 161.474 252.285 163.048 252.427C163.834 252.504 164.578 252.816 165.185 253.322C165.791 253.827 166.231 254.504 166.449 255.263C166.882 257.298 165.201 259.11 163.626 260.514C154.404 268.384 143.686 274.306 132.116 277.924" fill="#E0E0E0"/>
<path d="M132.233 268.103C132.693 260.409 133.179 252.611 135.673 245.324C138.168 238.037 142.999 231.197 150.01 228.006C151.205 235.779 147.778 243.499 143.643 250.195C139.507 256.891 134.531 263.193 132.05 270.65" fill="#E0E0E0"/>
<path d="M132.05 273.407C129.069 264.702 128.754 253.713 123.555 246.085C119.905 240.833 114.076 237.183 110.951 231.577C109.052 236.956 109.311 242.862 111.673 248.054C114.044 253.184 117.307 257.851 121.31 261.84C125.17 265.95 128.465 269.048 132.05 273.407Z" fill="#E0E0E0"/>
<path d="M132.102 529.481C131.879 529.481 131.669 471.476 131.656 399.934C131.643 328.393 131.814 270.375 132.05 270.375C132.286 270.375 132.483 328.367 132.496 399.934C132.509 471.502 132.339 529.481 132.102 529.481Z" fill="#E0E0E0"/>
<path d="M182.795 355.715C182.1 356.067 181.37 356.344 180.616 356.542L174.616 358.564C169.548 360.284 162.603 362.778 155.053 365.877C147.504 368.975 140.532 371.68 136.528 375.159C134.928 376.496 133.652 378.18 132.799 380.083C132.221 381.396 132.13 382.275 132.051 382.262C132.01 382.063 132.01 381.858 132.051 381.658C132.135 381.081 132.275 380.514 132.471 379.965C133.232 377.941 134.482 376.137 136.108 374.713C138.526 372.663 141.233 370.982 144.143 369.724C147.36 368.227 150.931 366.652 154.712 365.102C162.274 362.004 169.285 359.588 174.406 357.999C176.966 357.198 179.054 356.608 180.498 356.227C181.247 355.987 182.016 355.815 182.795 355.715Z" fill="#E0E0E0"/>
<path d="M199.416 314.909C199.23 315.142 199.024 315.357 198.799 315.553L196.935 317.312L189.989 323.614L166.856 344.214C157.836 352.249 150.037 359.969 144.628 365.707C141.923 368.595 139.783 370.958 138.326 372.665L136.645 374.582C136.468 374.818 136.261 375.03 136.028 375.212C136.156 374.946 136.32 374.699 136.514 374.477C136.868 374.004 137.38 373.308 138.076 372.455C139.389 370.709 141.529 368.254 144.194 365.313C151.174 357.683 158.555 350.43 166.304 343.584C175.363 335.575 183.609 328.367 189.596 323.181L196.725 317.063L198.694 315.434C199.141 315.106 199.39 314.883 199.416 314.909Z" fill="#E0E0E0"/>
<path d="M157.114 352.38C156.877 352.275 158.768 347.929 160.646 342.415C162.523 336.901 163.429 332.266 163.678 332.305C163.928 332.345 163.363 337.111 161.433 342.691C160.626 345.063 159.692 347.39 158.637 349.662C158.267 350.639 157.754 351.555 157.114 352.38Z" fill="#E0E0E0"/>
<path d="M132.154 387.501C131.645 387.004 131.179 386.464 130.763 385.886L127.205 381.304C124.211 377.444 120.075 372.114 115.388 366.258C110.701 360.402 106.486 355.164 103.401 351.369L99.7512 346.866C99.2455 346.343 98.8047 345.761 98.4382 345.133C98.9803 345.591 99.4812 346.097 99.935 346.643C100.867 347.654 102.18 349.137 103.782 350.988C106.999 354.691 111.331 359.877 115.979 365.733C120.627 371.588 124.697 376.984 127.572 380.95C129.003 382.932 130.198 384.547 130.92 385.689C131.401 386.243 131.815 386.851 132.154 387.501Z" fill="#E0E0E0"/>
<path d="M121.047 373.23C120.903 373.374 117.936 369.855 116.386 364.512C115.514 361.666 115.159 358.686 115.336 355.715H115.704C115.533 356.385 115.415 356.739 115.349 356.726C115.284 356.713 115.284 356.345 115.349 355.649H115.717C115.897 358.549 116.395 361.419 117.201 364.21C118.684 369.448 121.271 373.085 121.047 373.23Z" fill="#E0E0E0"/>
<path d="M106.698 355.176C105.697 354.411 104.603 353.776 103.442 353.286C100.519 352.416 97.446 352.17 94.422 352.564C91.3536 352.801 88.3103 353.293 85.3234 354.034C84.0991 354.421 82.8486 354.719 81.5815 354.927C82.7019 354.275 83.9086 353.785 85.1658 353.47C88.1531 352.543 91.2367 351.961 94.3563 351.736C97.4943 351.316 100.687 351.658 103.665 352.734C104.925 353.178 105.996 354.039 106.698 355.176Z" fill="#E0E0E0"/>
<path d="M103.297 350.804C103.297 350.936 101.393 350.043 98.3076 348.993C94.2906 347.624 90.118 346.764 85.8873 346.432C81.6537 346.125 77.3982 346.341 73.2175 347.076C70.0009 347.653 68.0577 348.244 67.9658 348.113C68.3721 347.859 68.8149 347.668 69.2787 347.548C70.5093 347.112 71.7683 346.761 73.0469 346.498C77.2634 345.565 81.5947 345.26 85.9004 345.592C90.2043 345.921 94.4372 346.876 98.4652 348.428C99.6828 348.894 100.871 349.433 102.023 350.043C102.484 350.23 102.914 350.487 103.297 350.804Z" fill="#E0E0E0"/>
<path d="M132.049 332.305C131.826 332.305 130.198 326.712 128.413 319.688C126.627 312.664 125.367 306.913 125.59 306.861C125.813 306.808 127.441 312.454 129.227 319.478C131.012 326.502 132.273 332.24 132.049 332.305Z" fill="#E0E0E0"/>
<path d="M132.273 332.305C132.023 332.384 130.96 328.603 128.255 324.743C126.548 322.461 124.554 320.409 122.321 318.638C123.17 318.835 123.958 319.236 124.618 319.806C126.296 321.044 127.756 322.553 128.938 324.27C131.774 328.235 132.483 332.292 132.273 332.305Z" fill="#E0E0E0"/>
<path d="M132.103 498.561C132.011 498.561 131.84 497.157 131.184 494.701C130.211 491.23 128.891 487.865 127.245 484.658C123.306 476.465 115.954 466.08 106.685 455.681C102.089 450.429 97.6385 445.48 93.8573 440.753C90.4576 436.585 87.3849 432.16 84.6668 427.519C82.8434 424.384 81.2928 421.098 80.0321 417.698C79.612 416.49 79.2969 415.545 79.1262 414.888C79.0101 414.566 78.9309 414.231 78.8899 413.891C78.9687 413.891 79.3888 415.204 80.3472 417.58C81.7102 420.911 83.3254 424.132 85.1788 427.217C87.9497 431.785 91.0476 436.147 94.4481 440.267C98.2425 444.955 102.706 449.878 107.302 455.13C116.597 465.554 123.871 476.137 127.77 484.395C129.349 487.665 130.577 491.094 131.433 494.623C131.696 495.936 131.88 496.855 131.945 497.524C132.034 497.864 132.086 498.211 132.103 498.561Z" fill="#E0E0E0"/>
<path d="M177.884 446.819C177.11 447.305 176.308 447.743 175.481 448.132C173.311 449.35 171.231 450.723 169.258 452.241C166.343 454.513 163.609 457.006 161.078 459.699C158.203 462.732 155.249 466.263 152.229 470.031C146.203 477.594 140.557 484.29 137.183 489.647C135.463 492.272 134.216 494.531 133.402 496.106C133.02 496.94 132.581 497.748 132.089 498.522C132.128 498.284 132.203 498.054 132.312 497.839C132.496 497.406 132.732 496.763 133.126 495.962C134.173 493.699 135.366 491.506 136.697 489.397C139.966 483.922 145.573 477.121 151.599 469.572C154.619 465.791 157.612 462.259 160.54 459.226C163.121 456.532 165.923 454.06 168.917 451.834C170.941 450.334 173.094 449.016 175.35 447.895C176.138 447.488 176.794 447.239 177.214 447.055C177.424 446.943 177.65 446.863 177.884 446.819Z" fill="#E0E0E0"/>
<path d="M178.803 463.598C177.137 463.981 175.442 464.226 173.735 464.334C169.658 464.757 165.628 465.553 161.696 466.71C157.812 467.972 154.171 469.885 150.93 472.369C148.435 474.286 147.267 475.874 147.148 475.782C147.334 475.352 147.591 474.957 147.91 474.614C148.692 473.626 149.572 472.72 150.536 471.909C153.75 469.23 157.45 467.193 161.433 465.909C165.412 464.726 169.513 464.003 173.656 463.756C175.364 463.547 177.086 463.495 178.803 463.598Z" fill="#E0E0E0"/>
<path d="M148.633 473.97C148.37 473.826 150.654 470.334 152.427 465.633C154.199 460.933 154.488 456.732 154.79 456.784C154.907 457.689 154.876 458.607 154.698 459.502C154.447 461.691 153.949 463.845 153.215 465.922C152.447 467.982 151.461 469.954 150.274 471.804C149.368 473.183 148.724 473.97 148.633 473.97Z" fill="#E0E0E0"/>
<path d="M192.747 401.759C192.492 401.932 192.219 402.078 191.933 402.193L189.557 403.269C188.506 403.716 187.233 404.293 185.815 405.042C184.397 405.79 182.703 406.538 180.957 407.589L178.187 409.164C177.228 409.716 176.283 410.372 175.272 411.002C173.237 412.236 171.189 413.759 169.009 415.322C159.659 422.27 151.504 430.696 144.865 440.267C143.394 442.499 141.937 444.6 140.768 446.688C140.164 447.712 139.547 448.683 139.022 449.668L137.552 452.491C136.567 454.263 135.858 455.957 135.175 457.414C134.492 458.872 133.941 460.158 133.534 461.222C133.127 462.285 132.786 462.994 132.523 463.638C132.42 463.926 132.288 464.203 132.129 464.465C132.17 464.163 132.249 463.867 132.365 463.585L133.219 461.104C133.587 460.014 134.072 458.714 134.742 457.165C135.411 455.616 136.055 453.961 137.026 452.15L138.457 449.287C138.97 448.303 139.573 447.318 140.164 446.268C141.32 444.154 142.79 442.027 144.234 439.703C150.847 429.994 159.071 421.486 168.55 414.547C170.756 412.998 172.83 411.475 174.904 410.254C175.928 409.637 176.887 408.941 177.872 408.442L180.681 406.906C182.454 405.895 184.147 405.16 185.605 404.464C186.85 403.849 188.125 403.297 189.425 402.81L191.867 401.877C192.155 401.802 192.45 401.762 192.747 401.759Z" fill="#E0E0E0"/>
<path d="M156.498 426.049C156.832 424.873 157.531 423.834 158.493 423.081C160.721 421.141 163.561 420.048 166.515 419.996C169.416 419.98 172.29 420.542 174.97 421.65C176.107 422.009 177.187 422.531 178.174 423.199C177.012 422.973 175.874 422.639 174.774 422.202C172.12 421.316 169.339 420.872 166.541 420.889C163.764 420.947 161.078 421.89 158.874 423.58C158.023 424.344 157.229 425.169 156.498 426.049Z" fill="#E0E0E0"/>
<path d="M151.074 431.641C150.851 431.51 152.886 428.517 153.359 424.21C153.831 419.904 152.597 416.543 152.847 416.477C153.333 417.107 153.658 417.846 153.792 418.63C154.763 422.371 154.294 426.339 152.479 429.751C151.783 431.037 151.153 431.694 151.074 431.641Z" fill="#E0E0E0"/>
<path d="M92.0454 506.873C93.2927 529.035 99.923 551.578 110.243 574.37H154.882C164.677 551.814 170.9 529.297 171.95 506.873H92.0454Z" fill="#E0E0E0"/>
<path d="M164.755 542.741C164.755 542.978 150.05 543.162 131.932 543.162C113.813 543.162 99.1084 542.978 99.1084 542.741C99.1084 542.505 113.813 542.321 131.932 542.321C150.05 542.321 164.755 542.505 164.755 542.741Z" fill="#FAFAFA"/>
<path d="M163.81 550.777C163.81 551 150.024 551.184 133.008 551.184C115.993 551.184 102.207 551 102.207 550.777C102.207 550.553 115.993 550.356 133.008 550.356C150.024 550.356 163.81 550.54 163.81 550.777Z" fill="#FAFAFA"/>
<path d="M110.925 521.42C111.161 521.42 111.345 526.028 111.345 531.713C111.345 537.398 111.161 542.007 110.925 542.007C110.688 542.007 110.505 537.398 110.505 531.713C110.505 526.028 110.741 521.42 110.925 521.42Z" fill="#FAFAFA"/>
<path d="M134.912 521.42C135.135 521.42 135.332 526.199 135.332 532.081C135.332 537.963 135.135 542.742 134.912 542.742C134.689 542.742 134.492 537.963 134.492 532.081C134.492 526.199 134.676 521.42 134.912 521.42Z" fill="#FAFAFA"/>
<path d="M157.376 521.236C157.612 521.236 157.796 526.094 157.796 532.094C157.796 538.094 157.612 542.965 157.376 542.965C157.14 542.965 156.969 538.107 156.969 532.094C156.969 526.081 157.153 521.236 157.376 521.236Z" fill="#FAFAFA"/>
<path d="M170.637 521.42C170.637 521.656 153.372 521.84 132.102 521.84C110.833 521.84 93.5547 521.656 93.5547 521.42C93.5547 521.183 110.807 521 132.102 521C153.398 521 170.637 521.236 170.637 521.42Z" fill="#FAFAFA"/>
<path d="M128.545 23.583H23.1689V133.423H128.545V23.583Z" fill="#E0E0E0"/>
<path d="M121.402 23.583H16.0266V133.423H121.402V23.583Z" fill="#FAFAFA"/>
<path d="M121.428 133.462H16V23.5569H121.428V133.462ZM16.0525 133.397H121.428V23.6357H16.0656L16.0525 133.397Z" fill="#E0E0E0"/>
<path d="M107.236 38.3535H30.1934V118.665H107.236V38.3535Z" fill="white"/>
<path d="M30.1926 119.204C29.6452 120.01 29.0064 120.75 28.2888 121.409C27.0678 122.722 25.3347 124.468 23.3916 126.372C21.4485 128.276 19.676 129.983 18.3631 131.191C17.6995 131.899 16.9496 132.521 16.1311 133.042C16.6771 132.239 17.3161 131.503 18.0349 130.849C19.2559 129.536 20.9889 127.777 22.9321 125.873C24.8752 123.97 26.6608 122.25 27.9737 121.042C28.6344 120.34 29.3797 119.722 30.1926 119.204Z" fill="#E0E0E0"/>
<path d="M107.235 118.994C108.043 119.545 108.787 120.183 109.454 120.897C110.767 122.132 112.5 123.865 114.417 125.795C116.334 127.725 118.028 129.523 119.236 130.836C119.938 131.501 120.559 132.245 121.087 133.055C120.278 132.516 119.538 131.881 118.881 131.165C117.568 129.943 115.822 128.197 113.905 126.254C111.988 124.311 110.294 122.525 109.087 121.213C108.385 120.548 107.763 119.803 107.235 118.994Z" fill="#E0E0E0"/>
<path d="M106.986 38.5636C107.539 37.7614 108.177 37.0218 108.89 36.3579C110.124 35.045 111.844 33.2988 113.787 31.395C115.73 29.4913 117.49 27.7845 118.802 26.5766C119.465 25.8673 120.215 25.2452 121.034 24.7253C120.492 25.5277 119.858 26.2636 119.144 26.9179C117.91 28.2309 116.177 29.9771 114.233 31.8939C112.29 33.8108 110.505 35.5176 109.192 36.7255C108.539 37.4304 107.797 38.0482 106.986 38.5636Z" fill="#E0E0E0"/>
<path d="M29.983 38.7605C29.1768 38.2131 28.4367 37.5743 27.7773 36.8568C26.4644 35.6357 24.7182 33.9027 22.8145 31.9595C20.9107 30.0164 19.2039 28.2439 17.996 26.931C17.2891 26.2712 16.6672 25.5258 16.1448 24.7122C16.9512 25.249 17.6877 25.8841 18.3374 26.6028C19.6503 27.8238 21.3965 29.5569 23.3134 31.5C25.2302 33.4431 26.8977 35.2287 28.2106 36.5417C28.8861 37.2095 29.4809 37.9542 29.983 38.7605Z" fill="#E0E0E0"/>
<path d="M106.986 118.665C106.986 118.665 106.986 118.521 106.986 118.272C106.986 118.022 106.986 117.628 106.986 117.156C106.986 116.14 106.986 114.696 106.986 112.823C106.986 109.015 106.986 103.475 106.907 96.4507C106.907 82.3892 106.815 62.3146 106.763 38.3536L107.052 38.6556H30.2321L30.5735 38.3142C30.5735 67.7895 30.5735 95.361 30.5735 118.626L30.2715 118.337L85.9004 118.482L101.537 118.56H105.673H101.603L86.0448 118.639L30.219 118.784H29.9302V118.495C29.9302 95.2297 29.9302 67.6582 29.9302 38.1829V38.0779H30.2847H106.986H107.288V38.3799C107.222 62.4459 107.17 82.5599 107.13 96.6608C107.13 103.659 107.13 109.173 107.052 112.967C107.052 114.819 107.052 116.25 107.052 117.248C107.052 117.707 107.052 118.062 107.052 118.337C107.04 118.448 107.018 118.558 106.986 118.665Z" fill="#E0E0E0"/>
<path d="M81.568 65.6494H55.8608V91.3566H81.568V65.6494Z" fill="#EBEBEB"/>
<path d="M535.565 0.0290527H382.452V221.954H535.565V0.0290527Z" fill="#E0E0E0"/>
<path d="M527.886 0.0290527H374.772V221.954H527.886V0.0290527Z" fill="#F5F5F5"/>
<path d="M508.86 24.0557H393.795V197.914H508.86V24.0557Z" fill="white"/>
<path d="M508.86 197.914C508.86 197.914 508.86 197.612 508.86 197.061C508.86 196.509 508.86 195.669 508.86 194.592C508.86 192.413 508.86 189.209 508.86 185.06C508.86 176.723 508.86 164.592 508.755 149.244C508.755 118.587 508.65 75.1813 508.572 24.0559L508.952 24.4366H393.9L394.321 24.0165C394.321 89.5973 394.321 150.058 394.229 197.875L393.9 197.546L477.652 197.717L500.799 197.796H506.865H508.966H506.93H500.93L477.862 197.888L393.9 198.058H393.572V197.73C393.572 149.926 393.572 89.4529 393.48 23.8721V23.6357H393.914H508.966H509.346V24.0165C509.267 75.2207 509.202 118.744 509.162 149.454C509.162 164.763 509.084 176.868 509.057 185.179C509.057 189.301 509.057 192.478 509.057 194.645C509.057 195.695 509.057 196.509 509.057 197.061C509.057 197.612 508.86 197.914 508.86 197.914Z" fill="#E0E0E0"/>
<path d="M528.318 0.00292969C527.516 1.38775 526.603 2.70503 525.587 3.94172C523.802 6.31812 521.281 9.54792 518.406 13.0534C515.53 16.559 512.826 19.6181 510.83 21.8501C509.802 23.1089 508.664 24.2733 507.429 25.3293C508.292 23.9762 509.267 22.6981 510.344 21.5087C512.405 19.0273 514.926 15.955 517.723 12.5677L525.088 3.62661C526.055 2.32533 527.136 1.11265 528.318 0.00292969Z" fill="#E0E0E0"/>
<path d="M509.452 197.349C515.172 206.445 521.902 214.867 529.513 222.452L509.452 197.349Z" fill="white"/>
<path d="M529.513 222.452C528.244 221.51 527.074 220.441 526.021 219.262C520.677 213.833 515.907 207.867 511.789 201.459C510.867 200.175 510.084 198.797 509.452 197.349C510.483 198.54 511.426 199.803 512.274 201.13C513.955 203.507 516.331 206.75 519.102 210.203C521.872 213.656 524.511 216.767 526.441 218.868C527.557 219.98 528.585 221.179 529.513 222.452Z" fill="#E0E0E0"/>
<path d="M374.824 221.77L394.872 197.034L374.824 221.77Z" fill="white"/>
<path d="M394.807 197.034C394.991 197.179 390.645 202.824 385.105 209.665C379.564 216.505 374.929 221.914 374.759 221.77C374.588 221.626 378.921 215.967 384.461 209.14C390.002 202.312 394.637 196.942 394.807 197.034Z" fill="#E0E0E0"/>
<path d="M374.824 0.00293734C375.008 -0.141485 379.367 5.05772 384.566 11.6355C389.765 18.2133 393.822 23.6488 393.638 23.7932C390.193 20.0851 386.945 16.1978 383.909 12.1475C380.668 8.26338 377.635 4.20944 374.824 0.00293734Z" fill="#E0E0E0"/>
<path d="M473.005 59.3604H434.483V168.754H473.005V59.3604Z" fill="#E0E0E0"/>
<path d="M294.585 263.006C294.454 263.15 293.416 262.533 292.248 261.601C291.079 260.669 290.252 259.789 290.37 259.632C290.489 259.474 291.539 260.104 292.707 261.036C293.876 261.969 294.703 262.822 294.585 263.006Z" fill="#3A4B4C"/>
<path d="M326.253 215.622C326.449 211.198 326.568 206.668 325.176 202.493C323.784 198.318 320.541 194.419 316.209 193.526C311.259 192.502 306.191 195.627 303.408 199.854C300.624 204.082 299.692 209.202 298.865 214.191C293.222 248.586 291.141 283.472 292.655 318.293L312.913 321.129C321.841 284.761 324.638 253.002 326.253 215.622Z" fill="#455A64"/>
<path d="M313.399 193.342C313.399 193.342 313.399 193.46 313.307 193.67C313.215 193.88 313.097 194.208 312.966 194.589C312.637 195.443 312.191 196.611 311.653 198.081C311.377 198.843 310.996 199.67 310.694 200.615L309.71 203.675C309.355 204.777 308.987 205.959 308.58 207.206L307.53 211.211C305.833 217.812 304.518 224.506 303.591 231.259C302.502 238.874 301.779 247.303 301.215 256.205C300.178 273.956 300.02 290.052 299.561 301.698C299.351 307.527 299.154 312.201 298.93 315.497C298.812 317.072 298.733 318.32 298.668 319.239L298.589 320.21C298.603 320.319 298.603 320.429 298.589 320.538C298.57 320.43 298.57 320.319 298.589 320.21C298.589 319.948 298.589 319.619 298.589 319.225C298.589 318.306 298.628 317.059 298.707 315.484C298.852 312.228 298.97 307.514 299.114 301.685C299.442 290.039 299.521 273.943 300.558 256.165C301.123 247.29 301.871 238.835 303 231.22C303.948 224.446 305.312 217.738 307.084 211.132L308.173 207.128L309.368 203.609L310.419 200.55C310.734 199.604 311.128 198.79 311.43 198.029C312.06 196.572 312.546 195.403 312.913 194.576L313.307 193.683C313.322 193.566 313.353 193.451 313.399 193.342Z" fill="#3A4B4C"/>
<path d="M315.277 193.421C316.335 194.667 317.174 196.083 317.758 197.609C319.313 201.801 319.945 206.28 319.609 210.738C319.071 221.925 318.06 237.338 316.734 254.367C315.408 271.396 313.964 286.639 312.651 297.825C312.047 303.379 311.535 307.882 311.154 310.954C310.957 312.451 310.8 313.646 310.695 314.526C310.695 314.893 310.589 315.195 310.55 315.445C310.547 315.553 310.525 315.659 310.484 315.76C310.467 315.655 310.467 315.549 310.484 315.445L310.55 314.512C310.629 313.62 310.734 312.425 310.878 310.915C311.18 307.738 311.614 303.247 312.191 297.786C313.255 286.652 314.66 271.251 315.999 254.236C317.338 237.22 318.415 221.793 319.084 210.633C319.463 206.245 318.917 201.826 317.482 197.662C316.881 196.182 316.143 194.763 315.277 193.421Z" fill="#3A4B4C"/>
<path d="M329.312 245.767C327.985 245.663 326.687 245.325 325.478 244.769C324.189 244.433 322.971 243.868 321.881 243.102C323.209 243.19 324.509 243.524 325.714 244.087C327.006 244.422 328.226 244.992 329.312 245.767Z" fill="#3A4B4C"/>
<path d="M331.753 225.128C329.431 226.686 326.86 227.836 324.151 228.528C326.466 226.957 329.039 225.806 331.753 225.128Z" fill="#3A4B4C"/>
<path d="M330.48 208.283C329.499 208.565 328.466 208.619 327.461 208.441C325.806 208.322 324.48 208.073 324.494 207.863C325.475 207.58 326.509 207.531 327.513 207.718C328.533 207.669 329.55 207.862 330.48 208.283Z" fill="#3A4B4C"/>
<path d="M309.592 197.491C309.421 197.596 308.529 196.493 307.609 195.022C306.69 193.552 306.073 192.278 306.297 192.173C306.52 192.068 307.347 193.171 308.266 194.642C309.185 196.112 309.763 197.36 309.592 197.491Z" fill="#3A4B4C"/>
<path d="M302.686 207.679C301.764 208.004 300.778 208.103 299.81 207.968C298.836 208.067 297.853 207.922 296.948 207.548C297.869 207.219 298.855 207.115 299.824 207.246C301.399 207.285 302.686 207.469 302.686 207.679Z" fill="#3A4B4C"/>
<path d="M297.722 228.056C296.666 228.013 295.633 227.73 294.702 227.229C293.1 226.585 291.866 225.916 291.945 225.719C293.001 225.763 294.033 226.046 294.965 226.546C296.566 227.189 297.801 227.872 297.722 228.056Z" fill="#3A4B4C"/>
<path d="M297.197 245.19C297.197 245.387 296.081 245.794 294.571 246.109C293.061 246.424 291.945 246.503 291.84 246.306C291.735 246.109 292.956 245.702 294.466 245.4C295.976 245.098 297.157 244.993 297.197 245.19Z" fill="#3A4B4C"/>
<path d="M294.86 273.234C294.031 273.731 293.095 274.023 292.129 274.087C290.58 274.363 289.294 274.428 289.267 274.231C289.241 274.034 290.449 273.654 291.998 273.378C292.926 273.096 293.909 273.046 294.86 273.234Z" fill="#3A4B4C"/>
<path d="M293.311 288.7C293.403 288.884 292.379 289.606 291.027 290.315C289.674 291.024 288.506 291.47 288.401 291.3C288.296 291.129 289.32 290.394 290.685 289.685C292.051 288.976 293.219 288.529 293.311 288.7Z" fill="#3A4B4C"/>
<path d="M305.955 306.333C305.771 306.438 304.892 305.204 303.96 303.589C303.308 302.66 302.86 301.604 302.647 300.49C302.817 300.385 303.71 301.619 304.629 303.234C305.275 304.167 305.726 305.221 305.955 306.333Z" fill="#3A4B4C"/>
<path d="M309.592 277.08C309.736 277.225 308.739 278.393 307.386 279.706C306.034 281.019 304.76 282.004 304.655 281.86C304.55 281.715 305.509 280.547 306.874 279.234C308.24 277.921 309.461 276.936 309.592 277.08Z" fill="#3A4B4C"/>
<path d="M308.79 261.759C308.646 261.903 307.727 261.142 306.729 260.078C305.731 259.015 305.061 258.043 305.206 257.899C305.35 257.755 306.282 258.516 307.267 259.593C308.252 260.669 308.935 261.693 308.79 261.759Z" fill="#3A4B4C"/>
<path d="M311.338 242.196C311.482 242.327 310.655 243.509 309.487 244.822C308.318 246.135 307.255 247.08 307.11 246.936C306.966 246.791 307.78 245.623 308.948 244.31C310.117 242.997 311.141 242.065 311.338 242.196Z" fill="#3A4B4C"/>
<path d="M312.65 227.99C312.519 228.135 311.338 227.229 310.025 225.968C308.712 224.708 307.819 223.566 307.963 223.421C308.108 223.277 309.276 224.196 310.589 225.456C311.902 226.717 312.847 227.846 312.65 227.99Z" fill="#3A4B4C"/>
<path d="M315.474 208.795C315.258 209.84 314.809 210.822 314.161 211.67C313.268 213.154 312.415 214.296 312.244 214.165C312.463 213.121 312.912 212.139 313.557 211.289C314.45 209.806 315.277 208.69 315.474 208.795Z" fill="#3A4B4C"/>
<path d="M320.699 191.005C320.535 192.036 320.145 193.018 319.556 193.88C318.742 195.377 317.941 196.506 317.771 196.414C317.932 195.382 318.322 194.4 318.913 193.539C319.727 192.108 320.528 190.913 320.699 191.005Z" fill="#3A4B4C"/>
<path d="M326.607 199.079C326.699 199.263 325.885 199.828 324.809 200.392C323.732 200.957 322.774 201.18 322.682 200.996C322.59 200.812 323.404 200.261 324.493 199.683C325.583 199.106 326.529 198.909 326.607 199.079Z" fill="#3A4B4C"/>
<path d="M326.752 263.006C325.38 263.017 324.026 262.688 322.813 262.048C321.501 261.617 320.321 260.857 319.386 259.842C320.671 260.235 321.915 260.749 323.102 261.378C324.372 261.79 325.596 262.336 326.752 263.006Z" fill="#3A4B4C"/>
<path d="M324.336 276.503C324.336 276.7 323.154 277.107 321.605 277.409C320.056 277.711 318.782 277.789 318.756 277.592C318.73 277.395 319.937 276.989 321.474 276.687C322.4 276.404 323.38 276.341 324.336 276.503Z" fill="#3A4B4C"/>
<path d="M321.369 299.768C320.12 299.155 319.055 298.222 318.284 297.064C317.33 296.047 316.66 294.797 316.341 293.44C317.268 294.419 318.107 295.478 318.848 296.604C319.775 297.587 320.618 298.645 321.369 299.768Z" fill="#3A4B4C"/>
<path d="M288.807 310.271C288.676 310.127 289.503 309.208 290.645 308.223C291.788 307.238 292.825 306.582 292.956 306.726C293.088 306.871 292.26 307.79 291.118 308.775C289.976 309.759 288.939 310.481 288.807 310.271Z" fill="#3A4B4C"/>
<path d="M279.46 259.685C278.147 255.562 275.665 250.77 271.346 250.704C270.06 250.773 268.817 251.187 267.747 251.904C266.677 252.62 265.82 253.612 265.267 254.774C264.084 257.071 263.518 259.637 263.626 262.218C264.161 280.549 267.286 298.712 272.908 316.167H288.663C288.501 296.98 285.397 277.931 279.46 259.685Z" fill="#455A64"/>
<path d="M250.864 233.767C248.645 224.931 242.054 220.165 234.4 219.719C227.415 220.94 224.697 227.82 223.896 234.87C223.095 241.92 225.209 248.931 227.415 255.693C234.347 277.383 241.275 299.077 248.199 320.775L267.893 318.622C261.643 289.567 258.072 262.612 250.864 233.767Z" fill="#455A64"/>
<path d="M271.346 250.704C270.844 251.413 270.405 252.164 270.033 252.949C269.216 255.181 268.959 257.58 269.285 259.934C269.6 262.941 269.941 266.499 270.44 270.529C270.939 274.56 271.674 278.853 272.567 283.383C274.353 292.468 276.361 300.622 277.648 306.569C278.291 309.536 278.777 311.939 279.092 313.62C279.224 314.381 279.329 315.024 279.421 315.55C279.475 315.773 279.497 316.003 279.486 316.232C279.389 316.023 279.318 315.803 279.276 315.576C279.145 315.064 279 314.434 278.817 313.672L277.149 306.674C275.744 300.766 273.644 292.639 271.897 283.527C271.018 278.971 270.309 274.599 269.836 270.608C269.587 268.612 269.416 266.669 269.258 264.923C269.101 263.177 268.917 261.496 268.825 259.973C268.548 257.547 268.892 255.089 269.823 252.831C270.176 252.023 270.695 251.298 271.346 250.704Z" fill="#3A4B4C"/>
<path d="M234.69 219.154C233.818 220.156 233.024 221.223 232.313 222.345C230.492 225.482 229.461 229.014 229.307 232.638C229.222 238.016 230.048 243.369 231.749 248.472C233.469 254.328 235.372 260.761 237.355 267.496L247.425 302.105C248.672 306.49 249.67 310.062 250.405 312.609C250.721 313.79 250.983 314.749 251.167 315.471C251.274 315.8 251.349 316.138 251.39 316.482C251.24 316.171 251.121 315.845 251.036 315.51C250.799 314.801 250.511 313.856 250.13 312.687C249.355 310.14 248.265 306.595 246.939 302.184L236.659 267.641C234.69 260.892 232.812 254.511 231.105 248.59C229.399 242.669 228.48 237.207 228.808 232.546C229.008 228.858 230.127 225.279 232.064 222.135C232.772 221.006 233.659 219.999 234.69 219.154Z" fill="#3A4B4C"/>
<path d="M263.587 316.534C263.402 316.237 263.252 315.92 263.14 315.589C262.878 314.958 262.458 314.039 262.011 312.818C261.079 310.403 259.871 306.845 258.637 302.381C257.403 297.917 256.155 292.52 254.974 286.52C253.792 280.52 252.571 273.89 251.258 266.945C249.945 259.999 248.37 253.474 246.61 247.618C245.078 242.432 243.16 237.367 240.873 232.467C239.338 229.167 237.584 225.974 235.621 222.909C234.939 221.806 234.308 221.018 233.967 220.441C233.749 220.166 233.564 219.866 233.416 219.548C233.659 219.797 233.883 220.065 234.085 220.349C234.479 220.9 235.135 221.662 235.858 222.751C237.934 225.774 239.781 228.947 241.385 232.244C243.75 237.145 245.725 242.224 247.293 247.434C249.204 253.808 250.782 260.276 252.02 266.813C253.333 273.746 254.554 280.363 255.67 286.389C256.786 292.415 257.994 297.772 259.175 302.249C260.357 306.726 261.486 310.284 262.339 312.753C262.733 313.987 263.114 314.919 263.324 315.562C263.432 315.88 263.52 316.205 263.587 316.534Z" fill="#3A4B4C"/>
<path d="M227.744 252.502C227.744 252.699 226.72 253.12 225.355 253.461C223.989 253.802 222.834 253.894 222.794 253.71C222.755 253.527 223.818 253.08 225.184 252.752C226.549 252.424 227.691 252.24 227.744 252.502Z" fill="#3A4B4C"/>
<path d="M225.656 239.019C223.459 239.403 221.22 239.492 219 239.281C221.142 238.53 223.461 238.439 225.656 239.019Z" fill="#3A4B4C"/>
<path d="M227.875 226.756C227.743 226.901 226.68 226.218 225.485 225.207C224.29 224.196 223.437 223.251 223.568 223.106C223.7 222.962 224.763 223.645 225.958 224.655C227.153 225.666 228.006 226.599 227.875 226.756Z" fill="#3A4B4C"/>
<path d="M233.875 215.399C234.072 215.399 234.019 216.397 233.98 217.566C233.94 218.734 233.98 219.679 233.743 219.706C233.507 219.732 233.218 218.773 233.258 217.539C233.297 216.305 233.678 215.36 233.875 215.399Z" fill="#3A4B4C"/>
<path d="M246.137 220.756C246.295 220.861 245.822 221.832 245.061 222.909C244.299 223.986 243.564 224.773 243.393 224.668C243.223 224.563 243.708 223.579 244.47 222.502C245.231 221.425 245.967 220.638 246.137 220.756Z" fill="#3A4B4C"/>
<path d="M254.095 234.568C254.16 234.765 253.149 235.356 251.81 235.881C250.471 236.406 249.342 236.708 249.263 236.524C249.184 236.341 250.208 235.75 251.548 235.211C252.887 234.673 254.016 234.384 254.095 234.568Z" fill="#3A4B4C"/>
<path d="M258.912 248.8C256.992 250.11 254.643 250.636 252.348 250.271C253.391 249.867 254.48 249.594 255.591 249.457C256.662 249.083 257.78 248.862 258.912 248.8Z" fill="#3A4B4C"/>
<path d="M236.751 244.756C236.567 244.756 236.751 243.719 237.066 242.564C237.381 241.408 237.867 240.529 238.064 240.581C238.261 240.634 238.064 241.632 237.748 242.774C237.433 243.916 236.948 244.822 236.751 244.756Z" fill="#3A4B4C"/>
<path d="M239.849 262.612C239.912 261.571 240.218 260.559 240.742 259.658C241.412 258.109 242.055 256.914 242.291 257.032C242.228 258.073 241.923 259.085 241.399 259.986C240.729 261.496 240.033 262.691 239.849 262.612Z" fill="#3A4B4C"/>
<path d="M232.207 267.496C232.128 267.693 230.894 267.352 229.371 266.879C227.848 266.406 226.654 265.973 226.745 265.776C226.837 265.579 228.058 265.711 229.647 266.183C231.236 266.656 232.286 267.326 232.207 267.496Z" fill="#3A4B4C"/>
<path d="M236.606 282.057C236.724 282.227 235.884 283.028 234.728 283.842C233.573 284.656 232.549 285.155 232.431 285.05C232.313 284.945 233.153 284.079 234.308 283.265C235.464 282.451 236.501 281.899 236.606 282.057Z" fill="#3A4B4C"/>
<path d="M240.138 296.578C240.138 296.775 239.153 297.195 237.814 297.51C236.475 297.825 235.359 297.943 235.319 297.746C235.28 297.549 236.317 297.142 237.643 296.814C238.969 296.486 240.098 296.381 240.138 296.578Z" fill="#3A4B4C"/>
<path d="M259.307 260.919C259.412 261.089 258.519 261.798 257.219 262.232C255.919 262.665 254.79 262.783 254.751 262.586C254.711 262.389 255.736 262.021 256.97 261.562C258.204 261.102 259.202 260.748 259.307 260.919Z" fill="#3A4B4C"/>
<path d="M262.05 283.501C261.958 283.685 260.895 283.37 259.674 282.792C258.453 282.214 257.521 281.597 257.612 281.413C257.704 281.23 258.755 281.558 259.976 282.136C261.197 282.713 262.129 283.33 262.05 283.501Z" fill="#3A4B4C"/>
<path d="M266.881 299.663C265.786 299.619 264.714 299.332 263.744 298.823C262.089 298.18 260.803 297.51 260.881 297.313C261.971 297.367 263.036 297.654 264.006 298.153C265.064 298.44 266.045 298.955 266.881 299.663Z" fill="#3A4B4C"/>
<path d="M240.912 312.319C240.82 312.149 242.107 311.282 243.603 310.101C245.1 308.919 246.229 307.882 246.4 308.026C246.571 308.171 245.599 309.457 244.05 310.652C243.184 311.496 242.095 312.074 240.912 312.319Z" fill="#3A4B4C"/>
<path d="M253.7 304.114C253.49 304.114 253.215 303.05 252.716 301.79C252.217 300.53 251.718 299.532 251.875 299.414C252.033 299.295 252.873 300.162 253.398 301.527C253.923 302.893 253.884 304.088 253.7 304.114Z" fill="#3A4B4C"/>
<path d="M250.313 284.669C250.195 284.84 249.368 284.446 248.462 283.79C247.556 283.133 246.926 282.477 247.044 282.332C247.162 282.188 247.989 282.556 248.882 283.212C249.775 283.869 250.431 284.512 250.313 284.669Z" fill="#3A4B4C"/>
<path d="M280.09 254.223C280.208 254.38 279.407 255.168 278.291 255.995C277.175 256.822 276.19 257.308 276.072 257.177C275.954 257.045 276.755 256.231 277.871 255.404C278.987 254.577 279.972 254.052 280.09 254.223Z" fill="#3A4B4C"/>
<path d="M284.58 266.485C284.58 266.682 283.346 266.945 281.784 266.774C280.221 266.604 279.053 266.078 279.158 265.895C279.263 265.711 280.471 265.895 281.902 266.052C283.333 266.21 284.567 266.289 284.58 266.485Z" fill="#3A4B4C"/>
<path d="M265.28 269.242C265.28 269.426 264.164 269.846 262.654 269.951C261.144 270.056 259.937 269.794 259.963 269.597C259.989 269.4 261.158 269.321 262.589 269.229C264.02 269.137 265.241 269.045 265.28 269.242Z" fill="#3A4B4C"/>
<path d="M266.947 257.636C266.947 257.833 265.752 257.859 264.466 257.268C263.179 256.678 262.431 255.759 262.562 255.627C262.693 255.496 263.586 256.074 264.768 256.612C265.949 257.15 266.973 257.439 266.947 257.636Z" fill="#3A4B4C"/>
<path d="M286.235 279.667C285.249 279.443 284.328 278.993 283.544 278.354C282.165 277.488 281.128 276.647 281.233 276.477C281.338 276.306 282.546 276.871 283.925 277.79C285.303 278.709 286.393 279.496 286.235 279.667Z" fill="#3A4B4C"/>
<path d="M333.317 314.105H230.37V332.355H333.317V314.105Z" fill="#4AEAB1"/>
<path d="M238.063 328.731L250.575 383.244H311.928L325.635 328.731H238.063Z" fill="#4AEAB1"/>
<path d="M333.264 332.368C333.264 332.565 310.038 332.736 281.403 332.736C252.768 332.736 229.542 332.565 229.542 332.368C229.542 332.171 252.755 332 281.403 332C310.051 332 333.264 332.171 333.264 332.368Z" fill="#3A4B4C"/>
<path d="M276.006 269.636C275.836 269.741 275.14 268.927 274.444 267.811C273.748 266.695 273.315 265.698 273.486 265.593C273.656 265.488 274.352 266.302 275.048 267.418C275.744 268.534 276.177 269.571 276.006 269.636Z" fill="#3A4B4C"/>
<path d="M276.046 284.315C275.996 283.361 276.181 282.41 276.584 281.544C277.07 280.074 277.622 278.919 277.819 279.01C277.868 279.964 277.683 280.915 277.28 281.781C276.795 283.238 276.243 284.38 276.046 284.315Z" fill="#3A4B4C"/>
<path d="M281.141 299.768C280.957 299.86 280.195 298.626 279.421 297.011C278.847 296.081 278.484 295.037 278.357 293.952C278.541 293.873 279.302 295.094 280.077 296.709C280.651 297.639 281.014 298.683 281.141 299.768Z" fill="#3A4B4C"/>
<path d="M270.204 312.123C270.047 311.991 270.664 311.046 271.517 309.996C272.37 308.945 273.289 308.21 273.434 308.341C273.578 308.473 272.974 309.418 272.121 310.468C271.268 311.519 270.348 312.254 270.204 312.123Z" fill="#3A4B4C"/>
<path d="M267.919 289.619C267.919 289.816 266.895 289.803 265.714 289.619C264.532 289.435 263.587 289.081 263.626 288.884C263.666 288.687 264.65 288.7 265.832 288.884C267.014 289.068 268.011 289.422 267.919 289.619Z" fill="#3A4B4C"/>
<path d="M332.529 336.298L320.792 315.607C328.062 303.816 330.66 289.732 328.073 276.124C325.486 262.516 317.903 250.367 306.814 242.066C295.724 233.765 281.931 229.912 268.145 231.265C254.359 232.618 241.578 239.079 232.314 249.378C223.05 259.676 217.973 273.067 218.082 286.919C218.19 300.77 223.476 314.081 232.9 324.233C242.324 334.385 255.205 340.645 269.01 341.782C282.815 342.919 296.547 338.851 307.505 330.377L332.529 336.298Z" fill="#FAFAFA"/>
<path d="M332.529 336.299L307.452 330.574H307.202L307.36 330.364L307.596 330.614C304.084 333.338 300.264 335.638 296.213 337.467C291.386 339.63 286.276 341.093 281.036 341.813C278.135 342.217 275.205 342.362 272.279 342.246C270.769 342.167 269.233 342.128 267.683 341.997L263.009 341.288C252.199 339.17 242.257 333.901 234.436 326.144C226.614 318.388 221.261 308.49 219.052 297.699C217.455 289.54 217.679 281.13 219.709 273.068C221.784 264.649 225.834 256.844 231.525 250.302L233.783 247.82C234.519 246.98 235.411 246.284 236.212 245.523C237.013 244.761 237.814 243.973 238.733 243.33L241.359 241.348C242.23 240.676 243.147 240.066 244.103 239.523L246.913 237.816L249.854 236.398C250.814 235.899 251.805 235.46 252.821 235.085C260.702 231.97 269.183 230.668 277.635 231.277C285.629 231.822 293.406 234.117 300.415 238C312.985 245.019 322.384 256.593 326.673 270.337C328.378 276.186 329.188 282.259 329.076 288.351C328.788 298.071 325.934 307.542 320.804 315.804V315.633L332.398 336.404L320.647 315.699V315.607V315.528C322.913 311.813 324.742 307.848 326.096 303.712C327.7 298.72 328.584 293.526 328.721 288.285C328.814 282.248 327.99 276.232 326.279 270.442C321.999 256.848 312.666 245.414 300.205 238.499C293.269 234.692 285.583 232.451 277.688 231.934C269.345 231.311 260.969 232.567 253.175 235.61C252.165 235.988 251.179 236.426 250.221 236.923L247.32 238.341L244.549 240.022C243.605 240.561 242.697 241.162 241.832 241.82L239.206 243.79C238.313 244.42 237.565 245.234 236.724 245.943C235.884 246.652 235.07 247.427 234.335 248.201L232.103 250.656C226.464 257.115 222.445 264.825 220.378 273.147C218.371 281.109 218.142 289.415 219.709 297.475C221.232 305.099 224.366 312.311 228.899 318.627C237.077 330.031 249.277 337.909 263.036 340.671L267.67 341.38C269.206 341.511 270.729 341.564 272.226 341.642C275.125 341.767 278.03 341.631 280.904 341.235C286.103 340.546 291.178 339.123 295.977 337.008C300.011 335.199 303.822 332.93 307.334 330.246L308.358 329.458L307.57 330.482L307.478 330.22L332.529 336.299Z" fill="#3A4B4C"/>
<path d="M237 292.342L238.405 289.217C240.144 290.425 242.208 291.08 244.326 291.094C246.782 291.094 247.793 290.267 247.793 289.164C247.793 285.803 237.289 288.114 237.289 281.444C237.289 278.398 239.744 275.864 244.852 275.864C247.032 275.819 249.183 276.368 251.075 277.453L249.762 280.604C248.307 279.741 246.66 279.254 244.97 279.186C242.501 279.186 241.556 280.118 241.556 281.247C241.556 284.556 252.06 282.271 252.06 288.862C252.06 291.856 249.578 294.429 244.445 294.429C241.807 294.519 239.206 293.79 237 292.342Z" fill="#3A4B4C"/>
<path d="M253.464 287.221C253.464 283.059 256.667 280.118 261.052 280.118C265.438 280.118 268.602 283.059 268.602 287.221C268.602 291.383 265.424 294.324 261.039 294.324C256.654 294.324 253.464 291.37 253.464 287.221ZM264.558 287.221C264.502 286.537 264.247 285.883 263.825 285.341C263.404 284.799 262.833 284.392 262.183 284.169C261.534 283.946 260.833 283.918 260.167 284.087C259.502 284.256 258.9 284.616 258.436 285.122C257.971 285.628 257.665 286.259 257.553 286.937C257.441 287.614 257.53 288.31 257.808 288.938C258.085 289.566 258.54 290.1 259.117 290.473C259.693 290.847 260.366 291.045 261.052 291.042C261.542 291.048 262.027 290.951 262.476 290.756C262.925 290.562 263.328 290.276 263.659 289.915C263.99 289.554 264.241 289.128 264.396 288.664C264.551 288.2 264.606 287.708 264.558 287.221Z" fill="#3A4B4C"/>
<path d="M279.841 280.118V283.808C279.513 283.808 279.25 283.808 278.948 283.808C278.439 283.761 277.926 283.831 277.447 284.01C276.968 284.19 276.536 284.475 276.183 284.845C275.829 285.215 275.564 285.659 275.406 286.146C275.249 286.632 275.203 287.148 275.272 287.654V294.219H271.333V280.315H275.167V282.14C275.727 281.454 276.444 280.912 277.258 280.56C278.071 280.209 278.957 280.057 279.841 280.118Z" fill="#3A4B4C"/>
<path d="M290.791 280.118V283.808C290.449 283.808 290.2 283.808 289.885 283.808C287.679 283.808 286.222 285.016 286.222 287.655V294.219H282.283V280.315H286.104V282.14C286.668 281.455 287.387 280.914 288.202 280.562C289.018 280.21 289.905 280.058 290.791 280.118Z" fill="#3A4B4C"/>
<path d="M307.346 280.315L301.123 294.968C299.81 298.289 297.88 299.3 295.398 299.3C294.004 299.316 292.646 298.852 291.552 297.987L293.009 295.138C293.637 295.685 294.435 295.996 295.267 296.018C296.37 296.018 296.987 295.519 297.525 294.298V294.167L291.552 280.263H295.674L299.613 289.624L303.552 280.263L307.346 280.315Z" fill="#3A4B4C"/>
<path d="M308.398 291.987C308.443 291.365 308.722 290.784 309.179 290.359C309.636 289.935 310.236 289.699 310.859 289.699C311.483 289.699 312.083 289.935 312.54 290.359C312.997 290.784 313.276 291.365 313.321 291.987C313.276 292.609 312.997 293.191 312.54 293.615C312.083 294.04 311.483 294.275 310.859 294.275C310.236 294.275 309.636 294.04 309.179 293.615C308.722 293.191 308.443 292.609 308.398 291.987ZM308.476 276.232H313.242L312.442 287.956H309.304L308.476 276.232Z" fill="#3A4B4C"/>
<path d="M231.342 141.454L251.732 133.905L302.227 130.202L315.514 134.259L297.593 211.459L253.544 220.978L233.115 193.866L231.342 141.454Z" fill="#FFBE9D"/>
<path d="M345.752 144.605L312.837 132.92C312.837 132.92 281.97 177.074 231.343 141.388C231.343 141.388 209.142 149.371 205.833 151.209C202.524 153.047 221.273 209.149 221.273 209.149L219.067 278.905C247.952 293.806 294.167 288.266 334.395 281.53L333.24 204.068L345.752 144.605Z" fill="#4AEAB1"/>
<path d="M332.963 81.3218C334.67 78.8689 335.419 75.8758 335.069 72.9081C334.719 69.9404 333.294 67.2037 331.063 65.2154C328.832 63.2271 325.95 62.1248 322.962 62.117C319.974 62.1091 317.086 63.1962 314.845 65.1728L308.28 76.8185C304.597 81.2239 302.178 86.5468 301.282 92.2192C300.434 97.947 301.801 103.783 305.103 108.539C306.76 110.839 308.893 112.754 311.357 114.154C313.822 115.554 316.56 116.405 319.383 116.65C322.207 116.894 325.05 116.527 327.719 115.572C330.387 114.617 332.818 113.097 334.846 111.117C336.873 109.136 338.449 106.741 339.466 104.096C340.483 101.45 340.917 98.6162 340.738 95.7875C340.56 92.9589 339.773 90.2021 338.431 87.7056C337.089 85.209 335.224 83.0315 332.963 81.3218Z" fill="#3A4B4C"/>
<path d="M315.895 82.2278C315.698 78.289 315.278 74.3502 316.394 70.5296C316.949 69.1549 317.311 67.7101 317.471 66.2363C317.461 65.1633 317.123 64.119 316.502 63.244C315.881 62.3689 315.007 61.7051 313.997 61.3418C312.988 60.9786 311.891 60.9333 310.855 61.2121C309.818 61.491 308.893 62.0805 308.202 62.9014L308.018 63.3347C305.746 65.1728 304.657 68.0744 303.764 70.8578C302.388 75.196 301.266 79.6105 300.403 84.079C299.795 86.5696 299.648 89.1505 299.969 91.694C300.141 92.9616 300.61 94.1706 301.338 95.2225C302.066 96.2744 303.032 97.1393 304.158 97.7466C307.729 99.4009 312.14 97.1164 314.097 93.7159C316.053 90.3154 316.132 86.1403 315.895 82.2278Z" fill="#4AEAB1"/>
<path d="M311.038 68.7308C310.289 64.2669 308.346 60.0655 307.664 55.6015C306.771 49.7327 308.097 43.7852 308.425 37.8507C308.753 31.9163 307.821 25.391 303.475 21.3472C298.841 17.0277 291.869 16.8307 285.633 15.7016C278.543 14.3887 271.821 11.6184 264.849 9.76716C257.877 7.91593 250.328 7.03626 243.579 9.57022C237.474 11.8547 232.695 16.6469 228.376 21.5179C221.365 29.4086 214.8 38.7566 214.8 49.3126C214.8 54.7875 216.73 60.0917 217.426 65.5273C218.096 70.779 217.675 76.0307 218.896 81.2824C220.117 86.5341 223.584 91.5233 228.756 92.4686L285.501 98.1404C289.225 98.2436 292.925 97.5199 296.335 96.0213C299.746 94.5227 302.781 92.2865 305.224 89.4738C307.666 86.6611 309.454 83.3419 310.459 79.7551C311.465 76.1683 311.662 72.4031 311.038 68.7308Z" fill="#3A4B4C"/>
<path d="M295.598 40.8965L295.453 33.9511L253.439 27.7147C240.546 26.8744 227.181 40.3188 226.892 53.2381C226.577 67.5884 226.747 85.1291 228.874 95.7507C233.155 117.099 249.737 119.16 249.737 119.16V131.292C249.744 137.755 252.315 143.951 256.886 148.519C261.458 153.088 267.655 155.656 274.118 155.66C277.386 155.66 280.621 155.003 283.63 153.728C286.639 152.453 289.361 150.586 291.634 148.238C293.907 145.89 295.685 143.109 296.862 140.06C298.039 137.011 298.592 133.757 298.486 130.491L295.598 40.8965Z" fill="#FFBE9D"/>
<path d="M235.807 67.5492C235.844 68.2586 236.152 68.9267 236.668 69.4153C237.183 69.904 237.867 70.176 238.577 70.175C238.932 70.191 239.286 70.1349 239.618 70.0101C239.951 69.8853 240.254 69.6944 240.511 69.449C240.767 69.2036 240.971 68.9086 241.111 68.5821C241.25 68.2556 241.322 67.9042 241.321 67.5492C241.284 66.8398 240.976 66.1717 240.46 65.683C239.945 65.1943 239.261 64.9223 238.551 64.9233C238.196 64.9073 237.842 64.9634 237.51 65.0882C237.177 65.213 236.874 65.4039 236.617 65.6494C236.361 65.8948 236.157 66.1897 236.017 66.5162C235.878 66.8428 235.807 67.1942 235.807 67.5492Z" fill="#3A4B4C"/>
<path d="M231.868 62.1792C232.223 62.5206 234.258 60.8663 237.212 60.7875C240.166 60.7087 242.464 62.1004 242.726 61.6934C242.871 61.5227 242.503 60.8925 241.518 60.2361C240.198 59.4029 238.653 58.9951 237.094 59.0676C235.553 59.1221 234.072 59.6698 232.866 60.6299C231.947 61.3652 231.671 62.0217 231.868 62.1792Z" fill="#3A4B4C"/>
<path d="M263.865 66.6039C263.902 67.3133 264.21 67.9813 264.725 68.47C265.241 68.9587 265.924 69.2307 266.635 69.2297C266.989 69.2457 267.344 69.1896 267.676 69.0648C268.008 68.94 268.312 68.7491 268.568 68.5037C268.825 68.2582 269.029 67.9633 269.168 67.6368C269.308 67.3103 269.379 66.9589 269.379 66.6039C269.342 65.8945 269.034 65.2264 268.518 64.7377C268.003 64.249 267.319 63.977 266.609 63.978C266.254 63.962 265.9 64.0181 265.567 64.1429C265.235 64.2677 264.931 64.4586 264.675 64.704C264.418 64.9495 264.214 65.2444 264.075 65.5709C263.936 65.8975 263.864 66.2489 263.865 66.6039Z" fill="#3A4B4C"/>
<path d="M261.015 61.5491C261.37 61.8904 263.392 60.2362 266.359 60.1574C269.326 60.0786 271.611 61.4703 271.86 61.0633C272.018 60.8926 271.65 60.2624 270.665 59.6059C269.345 58.7728 267.8 58.3649 266.241 58.4374C264.719 58.504 263.257 59.0509 262.066 59.9998C261.12 60.7088 260.845 61.3915 261.015 61.5491Z" fill="#3A4B4C"/>
<path d="M251.142 83.9738C249.561 83.5501 247.934 83.3252 246.297 83.3042C245.536 83.3042 244.814 83.1335 244.656 82.6215C244.569 81.8437 244.715 81.0575 245.076 80.3632C245.72 78.4989 246.389 76.5426 247.085 74.5075C249.855 66.1704 251.838 59.3957 251.562 59.2119C251.287 59.0281 248.7 65.7766 245.93 74.1137C245.26 76.1618 244.617 78.1181 244.013 79.9956C243.546 80.9353 243.43 82.0106 243.685 83.0285C243.808 83.2929 243.99 83.5254 244.218 83.7076C244.446 83.8898 244.713 84.0169 244.998 84.0788C245.428 84.1776 245.869 84.2217 246.311 84.2101C247.925 84.3375 249.548 84.2581 251.142 83.9738Z" fill="#3A4B4C"/>
<path d="M249.789 119.213C260.149 118.956 270.241 115.873 278.976 110.298C278.976 110.298 272.109 125.699 249.789 124.622V119.213Z" fill="#EB996E"/>
<path d="M252.692 91.0768C253.22 90.3382 253.93 89.7491 254.754 89.3672C255.578 88.9852 256.487 88.8233 257.392 88.8974C258.051 88.925 258.697 89.0871 259.291 89.3739C259.885 89.6606 260.414 90.0659 260.845 90.5648C261.258 91.0437 261.514 91.6375 261.58 92.2665C261.646 92.8955 261.518 93.5295 261.212 94.0835C260.757 94.6344 260.148 95.0374 259.463 95.2408C258.778 95.4442 258.048 95.439 257.366 95.2257C255.948 94.7898 254.631 94.0757 253.492 93.125C253.146 92.8965 252.843 92.6074 252.6 92.2716C252.494 92.1069 252.438 91.9156 252.438 91.7202C252.438 91.5248 252.494 91.3334 252.6 91.1687" fill="#EB996E"/>
<path d="M274.695 52.7395C274.525 51.8992 271.531 51.8467 268.131 50.9276C264.73 50.0086 262.091 48.6562 261.566 49.3127C261.316 49.6147 261.684 50.4418 262.695 51.374C264.056 52.5436 265.665 53.3879 267.401 53.8428C269.137 54.2978 270.953 54.3515 272.713 53.9999C274.039 53.6716 274.761 53.1333 274.695 52.7395Z" fill="#3A4B4C"/>
<path d="M240.388 50.5992C239.456 50.3235 237.329 52.201 234.415 53.7502C231.5 55.2995 228.769 56.1398 228.52 57.0588C228.428 57.4921 229.123 57.8859 230.502 57.8991C232.398 57.8277 234.249 57.3008 235.898 56.3629C237.569 55.5031 239.003 54.2451 240.073 52.6999C240.795 51.5182 240.822 50.7567 240.388 50.5992Z" fill="#3A4B4C"/>
<path d="M287.759 20.4019L255.356 22.9489L228.507 32.2051C231.96 39.7282 232.616 45.9121 240.862 46.6473C244.995 47.0076 249.151 46.3025 252.935 44.5993C256.718 42.8961 260.002 40.2517 262.472 36.9185C263.864 43.0105 270.731 46.109 276.915 46.9755C281.292 47.7686 285.802 47.3603 289.965 45.7939C294.022 44.0608 297.462 40.4109 298.013 36.0257C298.565 31.6405 292.118 21.124 287.759 20.4019Z" fill="#3A4B4C"/>
<path d="M313.427 41.9339C311.622 38.5836 308.665 35.9999 305.103 34.6603L304.276 28.3713L280.262 35.9469C274.577 44.9536 277.177 58.0829 285.947 64.3981L286.053 68.954C286.157 73.7313 287.477 78.4032 289.886 82.5297L297.501 99.112C303.094 99.2433 304.368 93.1907 306.587 88.2409C308.806 83.2912 308.832 77.7375 308.635 72.302C308.539 69.6761 308.403 67.0502 308.228 64.4244C309.935 61.5359 312.364 58.8444 313.795 55.7722C314.791 53.5898 315.276 51.2087 315.212 48.8105C315.148 46.4123 314.538 44.0603 313.427 41.9339Z" fill="#3A4B4C"/>
<path d="M289.256 70.3456C289.584 70.1749 302.385 65.0939 303.16 78.5645C303.935 92.0352 290.306 90.0396 290.267 89.6588C290.228 89.2781 289.256 70.3456 289.256 70.3456Z" fill="#FFBE9D"/>
<path d="M294.062 84.3414C294.062 84.3414 294.311 84.4989 294.718 84.6565C295.288 84.8585 295.915 84.8302 296.464 84.5777C297.856 83.9738 298.919 81.6499 298.828 79.221C298.796 78.068 298.504 76.937 297.974 75.9124C297.824 75.5 297.576 75.1303 297.251 74.8353C296.926 74.5402 296.535 74.3286 296.11 74.2187C295.841 74.1713 295.565 74.217 295.326 74.3484C295.087 74.4797 294.9 74.6888 294.797 74.9408C294.639 75.3347 294.731 75.5973 294.666 75.6235C294.6 75.6498 294.364 75.4135 294.442 74.8489C294.495 74.5142 294.662 74.2081 294.915 73.9824C295.094 73.8269 295.303 73.7095 295.528 73.6373C295.754 73.565 295.992 73.5395 296.228 73.5622C296.795 73.6287 297.336 73.8416 297.796 74.1799C298.256 74.5183 298.621 74.9705 298.854 75.4923C299.495 76.6241 299.85 77.8947 299.891 79.1947C299.97 81.9125 298.736 84.5252 296.819 85.1948C296.467 85.3246 296.089 85.372 295.716 85.3333C295.343 85.2946 294.983 85.1709 294.666 84.9716C294.101 84.6434 294.022 84.3414 294.062 84.3414Z" fill="#EB996E"/>
<path d="M312.022 40.3322C312.232 40.3322 312.364 41.0018 312.153 42.0915C311.793 43.6429 311.048 45.0787 309.987 46.2667C308.387 48.1045 306.229 49.368 303.843 49.8641C301.059 50.4549 298.276 49.8641 295.965 50.1135C294.741 50.291 293.536 50.5856 292.368 50.9932C291.737 51.177 291.055 51.3608 290.398 51.5052C289.742 51.6497 289.085 51.7547 288.455 51.8335C286.145 52.1914 283.783 51.998 281.562 51.2689C280.039 50.7588 278.68 49.8524 277.623 48.6431C276.914 47.7896 276.731 47.1857 276.888 47.0413C277.282 46.6474 278.936 48.3542 282.14 48.9188C284.058 49.203 286.013 49.1274 287.904 48.6956C288.455 48.5905 289.02 48.4592 289.584 48.3148C290.149 48.1704 290.7 47.9735 291.304 47.7634C292.674 47.2501 294.096 46.889 295.545 46.6868C298.748 46.4111 301.269 47.0675 303.265 46.6868C305.101 46.4124 306.826 45.6405 308.254 44.4548C310.841 42.4198 311.51 40.2009 312.022 40.3322Z" fill="white"/>
<path d="M262.892 89.4486C262.971 89.8293 260.345 90.6302 257.43 92.1795C254.516 93.7287 252.362 95.4355 252.087 95.1467C251.811 94.8578 253.649 92.6259 256.787 90.9716C259.925 89.3173 262.84 89.0941 262.892 89.4486Z" fill="#3A4B4C"/>
<path d="M265.243 91.4969C265.059 91.4049 265.387 90.4728 265.112 89.3568C264.836 88.2408 264.193 87.5187 264.311 87.3743C264.429 87.2298 265.479 87.8206 265.781 89.1992C266.083 90.5778 265.387 91.615 265.243 91.4969Z" fill="#EB996E"/>
<path d="M271.479 69.7942C271.636 69.873 270.993 71.1071 269.47 71.8424C267.947 72.5776 266.569 72.2625 266.621 72.0787C266.674 71.8949 267.868 71.8686 269.181 71.2253C270.494 70.5819 271.321 69.676 271.479 69.7942Z" fill="#EB996E"/>
<path d="M272.726 70.8315C272.884 70.9366 272.385 71.8162 271.321 72.3939C270.258 72.9716 269.26 72.9191 269.247 72.7353C269.234 72.5515 270.074 72.302 270.993 71.79C271.912 71.2779 272.569 70.7134 272.726 70.8315Z" fill="#EB996E"/>
<path d="M235.951 73.6804C235.951 73.8642 235.216 73.9824 234.454 73.5885C233.693 73.1946 233.364 72.5382 233.509 72.42C233.653 72.3018 234.139 72.6563 234.822 72.9714C235.504 73.2865 235.964 73.4835 235.951 73.6804Z" fill="#EB996E"/>
<path d="M235.808 75.2693C235.808 75.4531 234.967 75.4662 234.074 75.0592C233.182 74.6522 232.643 74.022 232.762 73.8907C232.88 73.7594 233.549 74.0745 234.35 74.4421C235.151 74.8098 235.873 75.1511 235.808 75.2693Z" fill="#EB996E"/>
<path d="M254.909 49.0105C253.4 50.2248 251.569 50.9732 249.641 51.1644C247.713 51.3555 245.77 50.9812 244.052 50.0871C245.874 50.4225 247.728 50.5546 249.579 50.481C251.405 50.1899 253.193 49.6967 254.909 49.0105Z" fill="#EB996E"/>
<path d="M256.184 50.3891C255.896 50.9249 255.496 51.3922 255.011 51.7593C254.526 52.1264 253.968 52.3845 253.374 52.5161C252.815 52.7556 252.21 52.8691 251.602 52.8487C250.994 52.8283 250.397 52.6744 249.855 52.3979C250.967 52.2789 252.072 52.0992 253.164 51.8596C254.923 51.3213 256.039 50.2053 256.184 50.3891Z" fill="#EB996E"/>
<path d="M232.669 42.1045C232.669 42.1045 232.538 41.9863 232.341 41.7237C232.05 41.339 231.799 40.9254 231.592 40.4895C230.838 38.8767 230.474 37.1093 230.529 35.3297C230.529 30.8264 233.155 24.6819 238.406 20.2048C240.842 18.0905 243.683 16.4955 246.757 15.5176C249.257 14.7295 251.869 14.3569 254.49 14.4148C256.262 14.4374 258.025 14.671 259.742 15.1106C260.332 15.2682 260.792 15.4126 261.054 15.5308C261.317 15.6489 261.514 15.7146 261.501 15.7408C259.191 15.2159 256.832 14.9299 254.464 14.8874C251.898 14.9046 249.351 15.321 246.914 16.1216C243.942 17.1062 241.194 18.6678 238.827 20.7168C233.759 25.0758 231.133 30.9971 231.041 35.3429C230.946 37.0636 231.228 38.7844 231.868 40.3845C232.314 41.5136 232.721 42.0651 232.669 42.1045Z" fill="#455A64"/>
<path d="M281.103 46.9362C280.711 46.9105 280.325 46.8219 279.961 46.6736C278.95 46.3291 277.974 45.8895 277.046 45.3607C273.949 43.6242 271.3 41.1873 269.313 38.2446C268.311 36.5462 267.668 34.6606 267.422 32.704C267.192 31.1353 267.099 29.5493 267.147 27.9644C267.175 26.8991 267.28 25.8372 267.462 24.7871C267.497 24.3976 267.594 24.0164 267.75 23.658C267.869 23.658 267.593 25.3123 267.632 27.9775C267.648 29.5262 267.784 31.0714 268.039 32.599C268.316 34.4517 268.944 36.2343 269.891 37.8507C271.833 40.7117 274.356 43.1318 277.295 44.9537C279.554 46.3454 281.142 46.8312 281.103 46.9362Z" fill="#455A64"/>
<path d="M242.923 41.9208C242.718 41.5066 242.576 41.064 242.502 40.6078C242.243 39.4002 242.124 38.1666 242.148 36.9316C242.166 32.7796 243.656 28.7685 246.353 25.6119C249.051 22.4553 252.781 20.3579 256.879 19.6929C258.096 19.4759 259.335 19.4054 260.568 19.4828C261.013 19.4865 261.455 19.5528 261.881 19.6797C260.222 19.7302 258.569 19.8925 256.932 20.1655C253.002 20.9401 249.448 23.018 246.846 26.0632C244.245 29.1083 242.746 32.9423 242.594 36.9448C242.579 38.6093 242.688 40.2727 242.923 41.9208Z" fill="#455A64"/>
<path d="M286.421 16.555C283.611 16.1572 280.754 16.2238 277.966 16.752C275.22 17.4856 272.616 18.6702 270.259 20.2575C270.766 19.5658 271.41 18.985 272.149 18.5507C275.608 16.195 279.827 15.2293 283.966 15.846C284.822 15.9219 285.656 16.1626 286.421 16.555Z" fill="#455A64"/>
<path d="M333.817 81.5975C333.134 82.3065 329.694 79.9957 324.994 78.6303C320.294 77.2648 316.171 77.1729 316.001 76.2014C315.935 75.755 316.959 75.1379 318.797 74.8097C321.205 74.4578 323.66 74.6413 325.988 75.3471C328.317 76.0529 330.461 77.2635 332.268 78.8929C333.607 80.1795 334.119 81.2693 333.817 81.5975Z" fill="white"/>
<path d="M331.756 85.103C331.756 85.103 332.347 84.801 333.371 84.2102C334.799 83.3727 336.066 82.2879 337.113 81.0067C338.671 79.1373 339.656 76.8577 339.949 74.442C340.249 71.4631 339.456 68.4767 337.717 66.0393C335.931 63.6034 333.3 61.9225 330.338 61.3258C327.937 60.8118 325.453 60.8118 323.052 61.3258C320.839 61.8608 318.667 62.554 316.553 63.4003C317.057 63.0376 317.604 62.7378 318.181 62.5075C319.709 61.7842 321.311 61.2295 322.96 60.8532C325.423 60.2562 327.987 60.2114 330.47 60.7219C333.577 61.3111 336.348 63.0505 338.229 65.5929C339.918 67.9146 340.759 70.745 340.613 73.612C340.468 76.479 339.343 79.2094 337.428 81.348C336.327 82.6317 334.99 83.6924 333.49 84.4728C333.066 84.6845 332.627 84.8644 332.177 85.0111C332.04 85.0572 331.899 85.088 331.756 85.103Z" fill="#3A4B4C"/>
<path d="M223.203 282.069C223.203 282.069 195.251 340.967 195.527 368.079C195.71 385.147 219.606 566.804 219.606 566.804H270.521L274.657 397.567L278.149 392.893L280.329 398.224C280.329 398.224 272.648 562.616 274.447 566.804H331.362C331.362 566.804 349.455 436.456 351.857 416.71C354.26 396.963 357.109 387.51 355.875 358.783C354.641 330.056 334.5 282.069 334.5 282.069C334.5 282.069 257.313 294.634 223.203 282.069Z" fill="#3A4B4C"/>
<path d="M225.775 282.462L221.049 298.716L234.677 301.644L238.511 285.285L225.775 282.462Z" fill="#455A64"/>
<path d="M243.685 285.968L240.928 301.645C251.596 302.736 262.321 303.175 273.042 302.957C289.021 302.524 304.631 301.185 311.629 298.743L309.594 284.76C309.594 284.76 256.814 289.605 243.685 285.968Z" fill="#455A64"/>
<path d="M316.408 283.972L319.782 297.758C319.782 297.758 330.679 296.563 335.169 293.938L331.414 281.557L316.408 283.972Z" fill="#455A64"/>
<path d="M243.684 564.532C243.552 560.777 241.688 506.684 239.259 436.049C238.13 400.6 237.329 368.407 237.093 345.142C237.093 339.325 237.093 334.06 237.027 329.386C236.962 324.712 237.106 320.8 237.132 317.57C237.158 314.34 237.303 311.819 237.355 310.086C237.355 309.246 237.355 308.603 237.421 308.13C237.487 307.657 237.421 307.474 237.421 307.474C237.421 307.474 237.421 307.697 237.421 308.143C237.421 308.59 237.421 309.246 237.421 310.086C237.421 311.833 237.421 314.34 237.329 317.57C237.237 320.8 237.329 324.817 237.329 329.386C237.329 333.955 237.421 339.273 237.487 345.142C237.841 368.394 238.721 400.534 239.85 436.023C240.979 471.511 242.016 503.599 242.765 526.877C243.119 538.51 243.356 547.884 243.487 554.449C243.487 557.679 243.566 560.186 243.592 561.932C243.592 562.773 243.592 563.416 243.592 563.889C243.592 564.361 243.684 564.532 243.684 564.532Z" fill="#455A64"/>
<path d="M276.796 304.008C276.847 304.263 276.869 304.523 276.862 304.782C276.862 305.36 276.862 306.095 276.862 306.988C276.862 308.984 276.862 311.728 276.954 315.076C277.02 321.916 277.164 331.356 277.453 341.781C277.742 352.205 278.162 361.645 278.477 368.473C278.635 371.821 278.753 374.565 278.845 376.56C278.845 377.436 278.871 378.171 278.923 378.766C278.959 379.023 278.959 379.284 278.923 379.541C278.868 379.29 278.829 379.035 278.805 378.779L278.608 376.573C278.438 374.67 278.241 371.913 278.018 368.499C277.584 361.672 277.098 352.232 276.796 341.807C276.495 331.382 276.508 321.982 276.508 315.076C276.508 311.662 276.573 308.892 276.626 306.975L276.705 304.782C276.701 304.521 276.732 304.261 276.796 304.008Z" fill="#455A64"/>
<path d="M278.949 379.541C278.663 379.507 278.378 379.459 278.096 379.396L275.667 378.924C272.669 378.343 269.705 377.594 266.792 376.678C265.803 376.363 264.858 375.922 263.982 375.365C263.719 375.189 263.51 374.944 263.378 374.657C263.286 374.381 263.207 374.118 263.129 373.856C262.994 373.302 262.893 372.741 262.827 372.175C262.564 369.877 262.708 367.462 262.682 364.915C262.682 359.807 262.748 354.214 262.787 348.345C262.905 336.621 263.024 326.026 263.102 318.24C263.181 314.446 263.247 311.347 263.286 309.115C263.286 308.091 263.312 307.264 263.365 306.634C263.358 306.343 263.384 306.052 263.444 305.767C263.471 306.055 263.471 306.345 263.444 306.634C263.444 307.264 263.444 308.091 263.444 309.115C263.444 311.347 263.444 314.446 263.444 318.24C263.444 326.012 263.365 336.621 263.326 348.345C263.326 354.227 263.22 359.82 263.168 364.915C263.168 367.462 263.024 369.891 263.247 372.109C263.304 372.653 263.397 373.192 263.522 373.724C263.588 373.974 263.654 374.236 263.733 374.473C263.834 374.661 263.978 374.822 264.153 374.945C264.971 375.471 265.854 375.89 266.779 376.193C270.389 377.44 273.448 378.096 275.536 378.635L277.938 379.239C278.291 379.277 278.634 379.379 278.949 379.541Z" fill="#455A64"/>
<path d="M307.348 564.532C307.348 564.532 307.348 564.309 307.348 563.863C307.348 563.416 307.414 562.721 307.467 561.867C307.572 560.095 307.742 557.521 307.939 554.226C308.425 547.569 309.108 537.985 309.961 526.142C311.694 502.444 314.11 469.686 316.04 433.476C317.97 397.265 318.666 364.403 317.891 340.652C317.773 337.685 317.642 334.862 317.524 332.196C317.405 329.531 317.327 326.945 317.09 324.647C316.67 319.947 316.447 315.89 316.027 312.594C315.607 309.299 315.226 306.778 314.977 305.019C314.871 304.165 314.78 303.509 314.727 303.036C314.675 302.564 314.661 302.367 314.661 302.367C314.661 302.367 314.661 302.59 314.793 303.036C314.924 303.483 314.977 304.152 315.121 304.993C315.384 306.752 315.791 309.299 316.289 312.555C316.788 315.811 317.012 319.921 317.471 324.621C317.734 326.971 317.839 329.492 317.97 332.17C318.101 334.849 318.233 337.671 318.377 340.639C319.322 364.416 318.548 397.278 316.723 433.515C314.898 469.752 312.298 502.483 310.434 526.182C309.502 537.998 308.74 547.596 308.215 554.252C307.952 557.535 307.742 560.108 307.598 561.88C307.519 562.734 307.467 563.39 307.427 563.863C307.388 564.336 307.348 564.532 307.348 564.532Z" fill="#455A64"/>
<path d="M274.026 303.509V306.555L291.672 305.872C292.231 305.852 292.761 305.614 293.148 305.21C293.535 304.805 293.75 304.266 293.746 303.706V287.412C293.746 286.838 293.518 286.287 293.112 285.881C292.705 285.474 292.154 285.246 291.58 285.246H272.844V287.688L290.608 288.607V294.529H289.413C289.289 294.525 289.165 294.547 289.049 294.592C288.932 294.637 288.827 294.705 288.737 294.792C288.648 294.879 288.577 294.983 288.528 295.098C288.48 295.213 288.455 295.336 288.455 295.461C288.458 295.701 288.554 295.931 288.723 296.102C288.892 296.274 289.12 296.373 289.361 296.38H290.674V302.288L274.026 303.509Z" fill="#E0E0E0"/>
<path d="M263.811 286.349H258.822V303.417H263.811V286.349Z" fill="#3A4B4C"/>
<path d="M289.046 297.404C288.98 297.469 288.704 297.404 288.415 296.944C288.056 296.421 287.88 295.793 287.917 295.159C287.949 294.524 288.21 293.922 288.652 293.465C288.98 293.11 289.269 293.018 289.321 293.084C289.374 293.15 288.678 294.003 288.599 295.211C288.521 296.419 289.19 297.285 289.046 297.404Z" fill="#3A4B4C"/>
<path d="M274.866 293.937C274.866 293.937 274.958 293.832 275.155 293.846C275.29 293.869 275.418 293.922 275.53 294.001C275.641 294.081 275.733 294.185 275.798 294.305C275.908 294.485 275.972 294.689 275.985 294.899C275.999 295.11 275.962 295.32 275.877 295.513C275.754 295.751 275.564 295.948 275.331 296.081C275.098 296.214 274.832 296.276 274.564 296.261C274.294 296.226 274.041 296.107 273.84 295.921C273.64 295.735 273.503 295.492 273.448 295.224C273.412 295.016 273.432 294.801 273.506 294.603C273.579 294.404 273.705 294.229 273.868 294.095C274.433 293.662 274.893 293.872 274.853 293.937C274.814 294.003 274.486 294.069 274.21 294.436C274.131 294.524 274.077 294.631 274.051 294.746C274.026 294.861 274.031 294.98 274.065 295.093C274.098 295.218 274.166 295.33 274.261 295.417C274.357 295.503 274.476 295.559 274.604 295.579C274.743 295.58 274.88 295.547 275.004 295.483C275.127 295.419 275.233 295.325 275.313 295.211C275.358 295.103 275.382 294.987 275.382 294.87C275.382 294.752 275.358 294.636 275.313 294.528C275.195 294.082 274.879 294.029 274.866 293.937Z" fill="#3A4B4C"/>
<path d="M324.089 297.404C324.425 296.519 324.866 295.677 325.402 294.896C325.887 294.069 326.399 293.189 326.951 292.27L327.883 290.721C328.23 290.216 328.537 289.685 328.802 289.132C328.879 288.873 328.896 288.6 328.85 288.334C328.805 288.067 328.698 287.815 328.54 287.596C328.151 287.189 327.709 286.836 327.227 286.546L324.745 284.773C323.951 284.265 323.22 283.666 322.566 282.988C323.439 283.342 324.264 283.805 325.021 284.366L327.581 286.034L328.316 286.52C328.61 286.698 328.868 286.93 329.078 287.202C329.299 287.507 329.447 287.858 329.511 288.229C329.575 288.601 329.552 288.981 329.445 289.342C329.323 289.679 329.155 289.997 328.947 290.288L328.434 291.089L327.463 292.612L325.796 295.146C325.322 295.966 324.749 296.725 324.089 297.404Z" fill="#3A4B4C"/>
<path d="M353.97 337.146C353.831 337.253 353.676 337.337 353.511 337.395C353.042 337.591 352.553 337.737 352.053 337.829C350.191 338.075 348.297 337.84 346.552 337.146C343.995 336.129 341.571 334.806 339.331 333.207C329.855 326.884 322.669 317.676 318.836 306.948C318.593 306.318 318.405 305.668 318.272 305.005C318.606 305.593 318.878 306.213 319.086 306.857C319.585 308.065 320.399 309.771 321.397 311.846C324.18 317.207 327.776 322.105 332.057 326.367C334.412 328.701 336.964 330.828 339.686 332.721C341.876 334.294 344.237 335.616 346.723 336.66C348.379 337.367 350.179 337.668 351.975 337.54C353.301 337.395 353.97 337.08 353.97 337.146Z" fill="#455A64"/>
<path d="M225.855 310.546C225.264 311.762 224.538 312.908 223.688 313.96C219.851 319.219 215.218 323.848 209.955 327.68C208.904 328.523 207.764 329.25 206.555 329.846C207.536 328.931 208.575 328.08 209.666 327.299C214.715 323.283 219.292 318.706 223.308 313.658C224.093 312.57 224.944 311.531 225.855 310.546Z" fill="#455A64"/>
<path d="M271.663 178.702L270.744 134.863C270.298 129.231 265.427 130.281 265.427 130.281C265.427 130.281 265.112 145.826 263.812 154.557C262.512 163.288 257.812 172.938 257.654 174.894C257.497 176.851 256.893 193.472 256.341 198.803C255.608 203.302 254.488 207.73 252.993 212.037L265.479 221.635L269.274 216.304C269.274 216.304 273.541 213.258 274.525 209.451C275.51 205.643 271.663 178.702 271.663 178.702Z" fill="#FFBE9D"/>
<path d="M271.663 178.702C271.663 178.702 271.729 178.938 271.807 179.411L272.122 181.472C272.398 183.284 272.779 185.949 273.225 189.35C273.672 192.75 274.197 196.951 274.604 201.796C274.722 203.017 274.801 204.264 274.866 205.564C274.866 206.221 274.932 206.877 274.866 207.547C274.88 208.244 274.809 208.941 274.656 209.621C274.22 211.002 273.515 212.283 272.582 213.389C271.631 214.55 270.547 215.594 269.352 216.501V216.435L265.571 221.779L265.387 222.015L265.151 221.831L252.652 212.26L252.481 212.129V211.906C254.502 206.419 255.731 200.671 256.131 194.838C256.538 188.733 256.787 182.417 257.102 175.945C257.103 175.393 257.16 174.843 257.273 174.303C257.418 173.765 257.588 173.266 257.759 172.754L258.849 169.8C259.584 167.844 260.293 165.861 260.936 163.958C262.226 160.185 263.107 156.285 263.562 152.325C264.429 144.566 264.704 137.134 264.875 130.307V130.058H265.111C266.125 129.874 267.171 129.993 268.118 130.399C269.044 130.821 269.782 131.569 270.192 132.5C270.58 133.377 270.781 134.324 270.783 135.283C270.783 136.189 270.783 137.082 270.783 137.975C270.783 141.506 270.914 144.868 270.967 148.032C271.072 154.347 271.164 159.848 271.243 164.43C271.322 169.012 271.348 172.531 271.374 175.012C271.374 176.207 271.374 177.139 271.374 177.809C271.374 178.098 271.374 178.334 271.374 178.531C271.374 178.728 271.374 178.767 271.374 178.767C271.374 178.767 271.374 178.689 271.374 178.531C271.374 178.374 271.374 178.111 271.374 177.822C271.374 177.152 271.374 176.22 271.269 175.026C271.19 172.544 271.098 168.973 270.967 164.456C270.836 159.94 270.704 154.373 270.547 148.058C270.547 144.894 270.402 141.493 270.311 138.001C270.206 136.242 270.468 134.338 269.693 132.749C269.346 131.938 268.703 131.29 267.895 130.937C267.066 130.588 266.154 130.487 265.269 130.649L265.505 130.36C265.335 137.213 265.085 144.631 264.192 152.443C263.72 156.467 262.818 160.428 261.501 164.26C260.857 166.216 260.188 168.198 259.413 170.115L258.323 173.069C258.153 173.555 257.982 174.054 257.864 174.54C257.755 175.036 257.703 175.542 257.706 176.05C257.391 182.522 257.142 188.851 256.722 194.956C256.318 200.868 255.067 206.691 253.006 212.247L252.901 211.893L265.361 221.503L264.954 221.569L268.761 216.252C271.103 214.633 272.902 212.345 273.921 209.687C274.06 209.044 274.126 208.388 274.118 207.731C274.118 207.074 274.118 206.418 274.118 205.774C274.118 204.461 273.987 203.24 273.895 202.033C273.514 197.201 273.028 193.013 272.648 189.586C272.267 186.159 271.912 183.52 271.689 181.708C271.584 180.816 271.505 180.133 271.44 179.634C271.374 179.135 271.663 178.702 271.663 178.702Z" fill="#EB996E"/>
<path d="M270.796 138.763C270.454 138.262 270.086 137.78 269.693 137.318C269.202 136.834 268.634 136.434 268.012 136.137C267.65 135.933 267.232 135.852 266.819 135.906C266.407 135.961 266.024 136.148 265.728 136.439L265.793 136.229C265.964 137.542 266.227 139.117 266.358 140.798C266.489 142.478 266.529 144.277 266.476 146.154C266.313 150.126 265.826 154.078 265.019 157.971C264.717 159.454 264.454 160.597 264.257 161.476C264.198 161.931 264.07 162.374 263.876 162.789C264.002 161.159 264.221 159.537 264.533 157.931C265.214 154.063 265.653 150.156 265.846 146.233C265.846 144.382 265.846 142.609 265.754 140.981C265.662 139.353 265.426 137.804 265.294 136.439V136.321L265.36 136.229C265.548 136.016 265.778 135.846 266.036 135.728C266.294 135.611 266.573 135.548 266.857 135.546C267.342 135.544 267.82 135.661 268.249 135.887C268.902 136.209 269.486 136.655 269.968 137.2C270.27 137.558 270.522 137.956 270.717 138.382C270.782 138.592 270.822 138.763 270.796 138.763Z" fill="#EB996E"/>
<path d="M271.151 155.778C271.003 155.102 270.898 154.418 270.836 153.73C270.739 152.964 270.475 152.229 270.061 151.576C269.415 150.831 268.509 150.361 267.527 150.264L267.882 150.001C267.803 152.495 267.645 155.489 267.33 158.679C266.897 163.156 266.254 167.2 265.702 170.102C265.414 171.546 265.151 172.728 264.954 173.515C264.888 173.943 264.759 174.359 264.573 174.75C264.705 173.16 264.919 171.578 265.217 170.01C265.663 167.108 266.228 163.078 266.648 158.614C266.963 155.436 267.16 152.456 267.304 149.975V149.633L267.645 149.699C268.754 149.857 269.757 150.441 270.442 151.327C270.858 152.05 271.105 152.858 271.164 153.69C271.271 154.382 271.267 155.087 271.151 155.778Z" fill="#EB996E"/>
<path d="M264.691 179.476C264.573 179.621 263.838 179.069 263.746 178.032C263.654 176.995 264.258 176.299 264.403 176.43C264.547 176.562 264.337 177.179 264.403 177.967C264.468 178.754 264.796 179.345 264.691 179.476Z" fill="#EB996E"/>
<path d="M262.683 168.658C262.512 168.724 262.013 167.739 262.105 166.4C262.197 165.061 262.827 164.155 262.985 164.247C263.142 164.339 262.854 165.271 262.788 166.452C262.722 167.634 262.867 168.592 262.683 168.658Z" fill="#EB996E"/>
<path d="M289.413 203.582C288.428 198.33 286.656 181.8 286.367 179.831C286.078 177.862 280.721 168.592 278.804 159.98C276.888 151.367 275.483 135.874 275.483 135.874C275.483 135.874 270.559 135.165 270.494 140.824L272.66 184.61C272.66 184.61 270.717 211.761 271.99 215.49C273.264 219.219 277.741 221.95 277.741 221.95L281.903 226.991L293.719 216.488C291.921 212.316 290.481 207.998 289.413 203.582Z" fill="#FFBE9D"/>
<path d="M289.414 203.582C289.414 203.582 289.414 203.647 289.414 203.792C289.414 203.936 289.506 204.186 289.572 204.448C289.729 205.039 289.94 205.892 290.281 207.074C291.284 210.291 292.449 213.455 293.773 216.553V216.658L293.681 216.75L281.957 227.254L281.76 227.424L281.602 227.228L277.414 222.199H277.48C276.249 221.403 275.112 220.469 274.093 219.416C272.978 218.303 272.121 216.958 271.585 215.477C271.275 213.903 271.134 212.301 271.165 210.698C271.165 209.083 271.165 207.442 271.165 205.774C271.309 199.105 271.703 192.002 272.202 184.557C271.834 177.284 271.454 169.577 271.06 161.673C270.81 156.579 270.561 151.59 270.324 146.745C270.324 145.524 270.206 144.329 270.141 143.134C270.029 141.934 270.029 140.725 270.141 139.524C270.208 138.901 270.399 138.297 270.704 137.749C271.008 137.201 271.419 136.72 271.913 136.333C272.933 135.629 274.175 135.321 275.405 135.467H275.655V135.743C276.128 140.758 276.666 145.603 277.309 150.185C277.817 154.585 278.665 158.939 279.843 163.209C281.057 166.955 282.504 170.621 284.176 174.185C284.924 175.879 285.699 177.454 286.276 179.082C286.474 179.906 286.602 180.745 286.657 181.59C286.749 182.391 286.841 183.179 286.933 183.94C287.616 190.085 288.167 194.956 288.587 198.304C288.797 199.932 288.968 201.218 289.086 202.124L289.231 203.109C289.245 203.222 289.245 203.337 289.231 203.45C289.188 203.345 289.158 203.235 289.139 203.122C289.139 202.873 289.034 202.544 288.955 202.137C288.797 201.271 288.587 199.997 288.338 198.33C287.852 194.995 287.235 190.124 286.5 183.993C286.408 183.231 286.303 182.444 286.211 181.643C286.139 180.83 286.012 180.022 285.83 179.227C285.266 177.664 284.452 176.063 283.703 174.395C281.996 170.817 280.518 167.133 279.279 163.367C278.07 159.063 277.193 154.674 276.653 150.237C276.014 145.598 275.454 140.784 274.972 135.795L275.248 136.084C274.189 135.969 273.123 136.234 272.241 136.832C271.818 137.17 271.466 137.59 271.207 138.065C270.948 138.541 270.786 139.064 270.731 139.603C270.621 140.764 270.621 141.934 270.731 143.095C270.731 144.277 270.85 145.485 270.902 146.692C271.152 151.55 271.401 156.539 271.65 161.62C272.044 169.498 272.412 177.218 272.78 184.492C272.268 191.91 271.861 199.026 271.69 205.669C271.69 207.337 271.624 208.965 271.69 210.566C271.659 212.116 271.786 213.665 272.071 215.188C272.578 216.569 273.38 217.824 274.421 218.864C275.406 219.889 276.503 220.8 277.69 221.582L281.852 226.637H281.497L293.314 216.251V216.448C292.015 213.329 290.897 210.138 289.966 206.89C289.651 205.761 289.454 204.895 289.349 204.264L289.231 203.595C289.414 203.66 289.401 203.582 289.414 203.582Z" fill="#EB996E"/>
<path d="M270.692 144.815C270.807 144.391 270.989 143.988 271.23 143.62C271.467 143.157 271.749 142.717 272.07 142.307C272.494 141.711 273.111 141.279 273.816 141.086C274.284 141.019 274.761 141.112 275.168 141.35C275.576 141.589 275.891 141.959 276.062 142.399C276.298 143.343 276.374 144.319 276.285 145.288C276.285 147.257 276.39 149.423 276.6 151.682C276.995 155.541 277.6 159.376 278.412 163.17C278.816 164.734 279.127 166.321 279.344 167.923C279.144 167.535 278.989 167.125 278.884 166.702C278.648 165.901 278.307 164.732 277.939 163.288C276.981 159.496 276.305 155.639 275.917 151.747C275.718 149.6 275.63 147.444 275.655 145.288C275.754 144.412 275.714 143.525 275.536 142.662C275.419 142.332 275.195 142.05 274.901 141.86C274.607 141.67 274.258 141.583 273.908 141.612C273.3 141.766 272.76 142.117 272.372 142.609C272.036 142.979 271.729 143.374 271.453 143.791C271.238 144.16 270.983 144.503 270.692 144.815Z" fill="#EB996E"/>
<path d="M271.558 162.356C271.489 162.166 271.453 161.967 271.452 161.765C271.411 161.206 271.411 160.644 271.452 160.085C271.496 159.2 271.705 158.332 272.07 157.524C272.319 156.98 272.683 156.496 273.136 156.104C273.589 155.712 274.121 155.422 274.695 155.253L275.024 155.148V155.502C275.326 157.905 275.706 160.754 276.218 163.787C276.967 168.29 277.82 172.347 278.477 175.262C278.894 176.827 279.227 178.414 279.474 180.015C279.259 179.633 279.099 179.222 279.002 178.794C278.739 177.993 278.398 176.838 278.004 175.38C277.229 172.479 276.297 168.435 275.549 163.905C275.037 160.859 274.682 157.997 274.433 155.568L274.814 155.818C274.309 155.953 273.838 156.194 273.433 156.524C273.028 156.855 272.698 157.267 272.463 157.734C272.093 158.485 271.853 159.293 271.754 160.124C271.597 161.529 271.649 162.356 271.558 162.356Z" fill="#EB996E"/>
<path d="M279.764 184.754C279.606 184.636 279.908 184.019 279.908 183.231C279.908 182.443 279.672 181.813 279.829 181.695C279.987 181.577 280.617 182.194 280.591 183.244C280.564 184.295 279.882 184.899 279.764 184.754Z" fill="#EB996E"/>
<path d="M280.959 173.831C280.762 173.831 280.867 172.794 280.696 171.625C280.526 170.457 280.184 169.538 280.355 169.446C280.526 169.354 281.195 170.207 281.379 171.533C281.563 172.859 281.13 173.883 280.959 173.831Z" fill="#EB996E"/>
<g opacity="0.3">
<path d="M286.341 226.584C283.912 223.775 280.84 220.952 277.15 220.978C273.855 220.978 271.045 223.276 268.708 225.587C261.187 233.298 255.029 242.23 250.498 252.003C245.785 261.653 240.073 273.259 236.489 283.382C244.367 281.727 251.351 276.817 256.669 270.738C261.986 264.659 265.859 257.425 269.233 250.112C270.415 247.591 272.109 244.663 274.892 244.598C276.94 244.598 278.621 246.186 279.908 247.788C283.597 252.449 286.078 257.937 288.678 263.281C291.278 268.624 294.113 273.981 298.341 278.169C302.569 282.358 308.438 285.259 314.346 284.603C307.597 264.055 300.521 242.917 286.341 226.584Z" fill="black"/>
</g>
<path d="M205.833 151.301C205.833 151.301 188.62 162.146 188.108 183.507C187.596 204.868 188.869 261.81 192.69 269.438C196.511 277.066 199.255 304.52 223.964 293.071C237.815 286.651 252.849 265.814 262.695 248.326C267.312 240.162 271.314 231.666 274.669 222.908L251.417 207.914L222.178 242.484L221.273 209.24L205.833 151.301Z" fill="#4AEAB1"/>
<path d="M222.179 242.445C222.179 242.563 221.128 242.628 219.553 243.075C217.465 243.684 215.513 244.687 213.802 246.029C212.094 247.396 210.536 248.94 209.154 250.637C208.618 251.382 208.021 252.08 207.369 252.725C207.707 251.862 208.181 251.06 208.774 250.348C210.068 248.516 211.621 246.88 213.382 245.491C215.152 244.081 217.223 243.097 219.435 242.615C220.328 242.371 221.262 242.313 222.179 242.445Z" fill="#3A4B4C"/>
<path d="M222.035 242.182C219.746 242.119 217.457 242.211 215.181 242.457C212.956 242.936 210.764 243.554 208.616 244.309C210.521 242.916 212.757 242.047 215.102 241.788C217.407 241.304 219.799 241.44 222.035 242.182Z" fill="#3A4B4C"/>
<path d="M274.669 222.869C274.632 223.112 274.566 223.35 274.472 223.578L273.764 225.56C273.146 227.28 272.162 229.722 270.875 232.729C267.458 240.522 263.455 248.045 258.901 255.232C254.329 262.408 249.28 269.268 243.789 275.767C241.689 278.261 239.942 280.244 238.695 281.57L237.251 283.106C237.088 283.29 236.908 283.457 236.713 283.605C236.833 283.391 236.979 283.193 237.146 283.014L238.459 281.399C239.64 280.007 241.321 277.985 243.382 275.465C248.745 268.893 253.72 262.014 258.284 254.865C262.817 247.706 266.861 240.249 270.389 232.545C271.702 229.578 272.792 227.162 273.475 225.468C273.816 224.694 274.079 224.05 274.302 223.538C274.395 223.3 274.518 223.075 274.669 222.869Z" fill="#3A4B4C"/>
<path d="M221.273 209.201C221.292 209.411 221.292 209.622 221.273 209.832C221.273 210.304 221.339 210.908 221.378 211.657C221.444 213.311 221.536 215.595 221.654 218.51C221.851 224.444 222.113 232.729 222.429 242.432L221.877 242.235L234.665 227.07L251.116 207.678L251.287 207.468L251.51 207.613L268.289 218.589L272.976 221.714L274.197 222.554C274.345 222.642 274.482 222.748 274.604 222.869C274.446 222.81 274.296 222.73 274.158 222.633L272.845 221.871L268.066 218.878L251.169 208.125L251.549 208.059L235.164 227.517L222.337 242.655L221.785 243.285V242.458C221.575 232.742 221.391 224.458 221.26 218.523C221.26 215.635 221.181 213.271 221.155 211.657V209.832C221.178 209.619 221.217 209.408 221.273 209.201Z" fill="#3A4B4C"/>
<path d="M345.751 144.605C345.751 144.605 360.299 151.971 360.942 186.172C361.585 220.374 364.132 260.944 360.942 267.981C358.526 273.233 352.854 289.316 342.561 294.804C339.462 296.445 337.112 296.524 332.885 295.907C318.836 293.859 300.403 277.434 286.394 250.466C275.733 229.945 275.076 220.44 275.076 220.44L294.639 200.746L332.832 248.103L333.541 202.702L345.751 144.605Z" fill="#4AEAB1"/>
<path d="M333.24 204.067C333.24 204.067 333.24 204.33 333.24 204.855C333.24 205.38 333.24 206.168 333.24 207.153C333.24 209.201 333.24 212.155 333.24 215.949C333.24 223.617 333.135 234.619 333.056 248.103V248.825L332.609 248.261L294.351 200.995H294.85L279.725 216.238L275.287 220.702L275.379 220.387C278.985 235.621 285.42 250.042 294.351 262.9C301.44 273.457 310.296 282.713 320.53 290.261C322.576 291.798 324.776 293.118 327.095 294.2C328.161 294.68 329.269 295.062 330.404 295.342C331.483 295.57 332.575 295.736 333.673 295.841C337.304 296.282 340.981 295.561 344.176 293.78C346.137 292.567 347.83 290.968 349.152 289.08C349.612 288.449 349.953 287.937 350.163 287.596C350.373 287.255 350.518 287.097 350.518 287.097C350.124 287.811 349.686 288.5 349.205 289.158C347.919 291.103 346.237 292.754 344.268 294.003C341.031 295.857 337.287 296.63 333.581 296.209C332.517 296.078 331.401 295.986 330.259 295.736C329.096 295.458 327.962 295.071 326.872 294.581C324.524 293.508 322.297 292.187 320.228 290.642C309.901 283.114 300.963 273.847 293.812 263.254C284.803 250.332 278.317 235.823 274.696 220.492V220.308L274.827 220.177L279.265 215.7L294.403 200.47L294.666 200.194L294.902 200.496C309.344 218.457 322.474 234.751 332.977 247.906L332.517 248.064C332.701 234.58 332.833 223.591 332.938 215.923C333.003 212.129 333.056 209.175 333.095 207.127C333.095 206.129 333.095 205.367 333.095 204.829C333.13 204.573 333.178 204.319 333.24 204.067Z" fill="#3A4B4C"/>
<path d="M348.43 265.736C347.71 264.841 347.052 263.898 346.461 262.913C344.9 260.64 343.19 258.473 341.34 256.427C339.479 254.395 337.511 252.462 335.445 250.637C334.536 249.926 333.689 249.14 332.911 248.287C333.932 248.834 334.883 249.499 335.747 250.27C337.936 251.997 339.978 253.903 341.852 255.968C343.729 258.034 345.409 260.271 346.868 262.651C347.526 263.603 348.052 264.641 348.43 265.736Z" fill="#3A4B4C"/>
<path d="M344.189 151.458C344.281 151.537 343.139 152.942 341.563 155.397C337.403 161.776 334.684 168.985 333.594 176.522C333.174 179.411 333.095 181.223 332.977 181.223C332.9 180.789 332.878 180.348 332.911 179.91C332.914 178.747 332.984 177.585 333.121 176.43C333.952 168.751 336.721 161.41 341.169 155.095C341.832 154.142 342.546 153.226 343.309 152.351C343.562 152.016 343.857 151.716 344.189 151.458Z" fill="#3A4B4C"/>
<path d="M218.069 186.487C217.964 186.487 217.728 184.741 217.202 181.918C216.534 178.243 215.657 174.609 214.577 171.034C213.479 167.466 212.191 163.96 210.717 160.531C210.035 159.136 209.426 157.708 208.892 156.25C209.165 156.569 209.394 156.922 209.574 157.301C209.981 157.997 210.52 159.034 211.15 160.334C212.774 163.727 214.139 167.238 215.233 170.837C216.322 174.439 217.143 178.116 217.688 181.839C217.885 183.271 218.003 184.465 218.056 185.227C218.123 185.644 218.128 186.069 218.069 186.487Z" fill="#3A4B4C"/>
<g opacity="0.3">
<path d="M350.333 265.644C349.71 262.877 348.269 260.361 346.197 258.423C342.35 254.3 337.825 250.867 332.818 248.274C339.028 253.244 344.373 259.207 348.639 265.92C348.967 266.445 349.611 267.036 350.096 266.655C350.22 266.521 350.307 266.358 350.348 266.181C350.39 266.003 350.384 265.819 350.333 265.644Z" fill="black"/>
</g>
<g opacity="0.3">
<path d="M221.929 242.405C217.91 241.796 213.804 242.554 210.268 244.559C206.732 246.564 203.973 249.699 202.432 253.46C202.114 254.142 201.953 254.887 201.959 255.639C201.972 256.014 202.088 256.377 202.294 256.69C202.5 257.003 202.789 257.253 203.128 257.412C203.541 257.533 203.981 257.524 204.389 257.388C204.797 257.252 205.154 256.995 205.412 256.65C205.926 255.962 206.325 255.195 206.594 254.379C207.986 251.13 210.218 248.31 213.061 246.211C215.904 244.111 219.255 242.806 222.769 242.431L221.929 242.405Z" fill="black"/>
</g>
</svg>
