<svg width="68" height="68" viewBox="0 0 68 68" fill="none" xmlns="http://www.w3.org/2000/svg">
<path d="M68 34C68 15.2223 52.7777 0 34 0C15.2223 0 0 15.2223 0 34C0 52.7777 15.2223 68 34 68C52.7777 68 68 52.7777 68 34Z" fill="#3A4B4C"/>
<path fill-rule="evenodd" clip-rule="evenodd" d="M47.4189 47.237C47.2664 47.2381 47.1153 47.2076 46.975 47.1476C46.8348 47.0875 46.7084 46.9991 46.6039 46.888L44.3589 44.643V48.6C44.3547 50.0436 43.7782 51.4267 42.7558 52.4459C41.7334 53.4651 40.3486 54.0373 38.9049 54.037H28.6139C27.173 54.0336 25.7921 53.4596 24.7732 52.4408C23.7543 51.4219 23.1804 50.0409 23.1769 48.6V44.693L20.9819 46.888C20.7627 47.1015 20.4682 47.2201 20.1621 47.2181C19.8561 47.216 19.5632 47.0936 19.3468 46.8772C19.1304 46.6608 19.0079 46.3678 19.0059 46.0618C19.0039 45.7558 19.1224 45.4613 19.3359 45.242L23.1769 41.401V24.591C23.1769 21.7821 24.2928 19.0882 26.279 17.102C28.2652 15.1158 30.959 14 33.7679 14C36.5768 14 39.2707 15.1158 41.2569 17.102C43.2431 19.0882 44.3589 21.7821 44.3589 24.591V36.346L42.0309 34.018V24.591C42.0309 22.3994 41.1603 20.2975 39.6106 18.7478C38.0609 17.1981 35.9591 16.3275 33.7674 16.3275C31.5758 16.3275 29.474 17.1981 27.9243 18.7478C26.3746 20.2975 25.5039 22.3994 25.5039 24.591V39.073L31.4399 33.137C32.0645 32.5143 32.9105 32.1647 33.7924 32.1647C34.6744 32.1647 35.5204 32.5143 36.1449 33.137L48.2449 45.237C48.4087 45.4011 48.5202 45.6101 48.5652 45.8375C48.6102 46.0649 48.5867 46.3006 48.4978 46.5147C48.4088 46.7288 48.2584 46.9117 48.0654 47.0403C47.8725 47.1688 47.6458 47.2373 47.4139 47.237H47.4189ZM42.0319 42.316L34.4999 34.784C34.3107 34.6002 34.0573 34.4974 33.7934 34.4974C33.5296 34.4974 33.2762 34.6002 33.0869 34.784L25.5049 42.366V48.6C25.5065 49.4241 25.8346 50.2139 26.4173 50.7966C27 51.3794 27.7899 51.7074 28.6139 51.709H38.9059C39.7326 51.7109 40.5263 51.3844 41.1124 50.8015C41.6986 50.2185 42.0293 49.4267 42.0319 48.6V42.316Z" fill="white"/>
</svg>
